<svg width="191" height="42" viewBox="0 0 191 42" fill="none" xmlns="http://www.w3.org/2000/svg">
<g style="mix-blend-mode:luminosity">
<path d="M11.0707 27.1648C12.0276 27.1648 12.9425 27.0365 13.8574 26.778C14.6481 26.5195 15.395 26.1326 16.1036 25.661C16.7682 25.1893 17.3508 24.6307 17.8092 24.0288C18.2657 23.3834 18.7241 22.74 19.0564 22.0532L15.5229 20.5059C15.1486 21.3644 14.5259 22.0947 13.7352 22.6966C12.9865 23.2117 12.0295 23.4703 10.9485 23.4703C9.86742 23.4703 9.61721 23.342 9.07668 23.04C8.45211 22.74 7.9536 22.3532 7.49711 21.8796C7.04062 21.3644 6.66626 20.7625 6.41605 20.0757C6.12573 19.302 5.99967 18.5284 5.99967 17.6699C5.99967 16.8114 6.12382 16.0811 6.41605 15.2641C6.66626 14.5773 7.04062 13.9753 7.49711 13.4602C7.9536 12.9885 8.49413 12.6017 9.07668 12.2997C9.70125 11.9998 10.3239 11.8695 10.9485 11.8695C12.0295 11.8695 12.9444 12.128 13.6511 12.6431C14.3578 13.1148 14.9404 13.8885 15.3147 14.7904L18.9323 13.2431C18.642 12.5563 18.2676 11.8675 17.8092 11.309C17.3527 10.6636 16.7702 10.1485 16.1036 9.67684C15.4389 9.20515 14.6902 8.81833 13.8994 8.55978C12.9845 8.2598 12.0696 8.17296 11.1127 8.17296C10.1558 8.17296 8.61828 8.4315 7.41116 8.90319C6.3301 9.33343 5.33308 10.0202 4.54234 10.8788C3.7516 11.7373 3.08692 12.7695 2.67054 13.8865C2.21405 15.1753 2.00586 16.4206 2.00586 17.7113C2.00586 19.0021 2.25607 20.2888 2.67054 21.4927C3.08692 22.6098 3.7516 23.64 4.54234 24.5005C5.33308 25.361 6.3301 26.0044 7.41116 26.476C8.57626 26.9912 9.8636 27.2063 11.0707 27.1629V27.1648ZM25.8312 26.5649V17.2416C25.8312 16.5548 25.9152 15.866 26.1635 15.266C26.3297 14.6641 26.6621 14.1056 27.1205 13.6339C27.4948 13.2036 27.9513 12.8168 28.5338 12.5603C29.1164 12.2603 29.6569 12.1734 30.2796 12.1734C30.9022 12.1734 31.0283 12.1734 31.4027 12.2603C31.693 12.3037 31.9852 12.3886 32.2335 12.5603L33.3566 8.82227C33.0243 8.65057 32.6499 8.52229 32.2755 8.43545C31.819 8.34861 31.3186 8.30717 30.8201 8.30717C30.3216 8.30717 29.8231 8.394 29.3647 8.56571C28.8662 8.69399 28.3677 8.95253 27.9093 9.21107C27.4528 9.51106 26.9944 9.85643 26.662 10.2413C26.3297 10.6261 25.9974 11.0584 25.8312 11.5735H25.665V8.86569H21.9233V26.7385H25.8312V26.5668V26.5649ZM43.5866 27.1648C45.5825 27.1648 47.2041 26.7346 48.5354 25.7892C49.8666 24.9307 50.9057 23.7268 51.6544 22.3512L48.3272 20.6322C47.8707 21.4493 47.2461 22.1361 46.5394 22.7381C45.7907 23.2532 44.8758 23.5551 43.7527 23.5551C42.6297 23.5551 42.5475 23.4683 42.007 23.2551C41.3824 23.0834 40.8839 22.7835 40.4274 22.3098C39.9289 21.8796 39.5125 21.321 39.1802 20.7625C38.8479 20.0757 38.5976 19.302 38.5556 18.5284H51.9447V17.5396C51.9447 16.2075 51.7785 14.9621 51.3622 13.6734C50.9878 12.5563 50.4053 11.5261 49.6565 10.709C48.9078 9.89196 47.9929 9.20515 46.9539 8.77491C45.9148 8.34466 44.7077 8.0881 43.3784 8.0881C42.049 8.0881 40.8419 8.34664 39.7608 8.86174C38.7218 9.33343 37.7649 10.0222 36.9741 10.9241C36.1834 11.7827 35.6028 12.8148 35.1864 13.9319C34.77 15.0924 34.5217 16.3811 34.5217 17.583C34.5217 18.785 34.7719 20.1606 35.1864 21.3644C35.6028 22.4815 36.2674 23.5117 37.0582 24.3722C37.8489 25.2327 38.8459 25.8761 39.927 26.3478C41.0501 26.9931 42.2553 27.2063 43.5025 27.1648H43.5866ZM38.7638 15.4792C39.0541 14.3187 39.5947 13.3734 40.4274 12.6866C41.2182 11.9998 42.2152 11.6564 43.3383 11.6564C44.4613 11.6564 44.8357 11.7846 45.4584 12.0432C45.9569 12.3017 46.4554 12.5583 46.8718 13.0319C47.2041 13.3753 47.4963 13.8056 47.6625 14.2773C47.7866 14.6641 47.9528 15.0509 47.9948 15.5226H38.7638V15.4792ZM62.9215 27.1648C64.9174 27.1648 66.539 26.7346 67.8703 25.7892C69.2016 24.9307 70.2406 23.7268 70.9893 22.3512L67.6621 20.6322C67.2056 21.4493 66.5811 22.1361 65.8744 22.7381C65.1256 23.2532 64.2107 23.5551 63.0877 23.5551C61.9646 23.5551 61.8825 23.4683 61.3419 23.2551C60.7174 23.0834 60.2188 22.7835 59.7624 22.3098C59.2638 21.8796 58.8475 21.321 58.5151 20.7625C58.1828 20.0757 57.9326 19.302 57.8905 18.5284H71.2796C71.2796 18.4416 71.2796 18.3567 71.3217 18.2284C71.3217 18.1416 71.3217 17.9699 71.3637 17.885V17.5416C71.3637 16.2094 71.1975 14.9641 70.7811 13.6753C70.4068 12.5583 69.8242 11.5281 69.0755 10.711C68.3268 9.89393 67.4119 9.20712 66.3729 8.77688C65.3338 8.34664 64.1267 8.09007 62.7973 8.09007C61.468 8.09007 60.2609 8.34861 59.1798 8.86372C58.1408 9.33541 57.1838 10.0242 56.3931 10.9261C55.6024 11.7846 55.0217 12.8168 54.6054 13.9339C54.189 15.0943 53.9407 16.3831 53.9407 17.585C53.9407 18.7869 54.1909 20.1625 54.6054 21.3664C55.0217 22.4835 55.6864 23.5137 56.4771 24.3742C57.2679 25.2761 58.2649 25.878 59.346 26.3497C60.5111 26.9951 61.7163 27.2083 62.9215 27.1668V27.1648ZM58.1408 15.4792C58.4311 14.3187 58.9716 13.3734 59.8044 12.6866C60.5951 11.9998 61.5921 11.6564 62.7152 11.6564C63.8383 11.6564 64.2127 11.7846 64.8353 12.0432C65.3338 12.3017 65.8323 12.5583 66.2487 13.0319C66.581 13.3753 66.8733 13.8056 67.0394 14.2773C67.1636 14.6641 67.3298 15.0509 67.3718 15.5226H58.1408V15.4792ZM81.6338 27.1648C83.0051 27.1648 84.1282 26.8648 85.1272 26.3063C86.1242 25.7044 86.8328 25.0176 87.2893 24.2439H87.5395V26.5214H91.2812V0.44043H87.3313V10.9676C86.8748 10.1939 86.1261 9.50711 85.1692 8.90516C84.1721 8.30322 83.0491 8.04665 81.6758 8.04665C80.3025 8.04665 79.5137 8.30519 78.5147 8.77688C77.5177 9.24857 76.6429 9.93735 75.8541 10.7524C75.1054 11.611 74.4827 12.6431 74.0663 13.7602C73.1515 16.2094 73.1515 18.9152 74.0663 21.4079C74.4827 22.5249 75.1054 23.5551 75.8541 24.4156C76.6028 25.2327 77.5177 25.9195 78.5147 26.3912C79.4716 26.9931 80.5527 27.1648 81.6338 27.1648ZM82.3825 23.4268C81.7178 23.4268 81.0512 23.2986 80.4706 23.04C79.846 22.7815 79.2654 22.3947 78.891 21.8796C78.4345 21.3644 78.0602 20.7625 77.7679 20.0757C77.1854 18.5284 77.1854 16.8094 77.7679 15.2641C78.0582 14.5773 78.4326 13.9753 78.891 13.4602C79.3475 12.9885 79.888 12.6017 80.4706 12.2997C81.0951 12.0412 81.7598 11.9129 82.3825 11.9129C83.0051 11.9129 83.7137 12.0412 84.2944 12.2997C84.919 12.5583 85.4996 12.9451 85.958 13.4168C86.4145 13.9319 86.7888 14.5338 87.0811 15.2207C87.6636 16.768 87.6636 18.5284 87.0811 20.0757C86.8309 20.7625 86.4565 21.3644 85.958 21.8796C85.5015 22.3512 84.919 22.7381 84.2944 22.9966C83.7118 23.2966 83.0472 23.4268 82.3825 23.4268ZM97.5994 26.5649V16.5114C97.5994 15.6943 97.7236 14.8792 97.9738 14.0622C98.224 13.3753 98.5564 12.6866 99.0129 12.1715C99.4292 11.6563 99.9277 11.2261 100.51 10.8827C101.093 10.5827 101.716 10.4525 102.298 10.4525C103.129 10.4525 103.753 10.5393 104.21 10.8393L104.917 8.6486C104.584 8.52031 104.252 8.34861 103.878 8.26177C103.461 8.17493 102.963 8.17493 102.506 8.17493C102.05 8.17493 101.509 8.26177 101.051 8.43348C100.552 8.60518 100.054 8.86372 99.5954 9.1637C99.1389 9.50711 98.6805 9.89393 98.3482 10.3242C97.9738 10.7544 97.7236 11.2695 97.5574 11.7846H97.4333V8.69202H95.3132V26.5649H97.5994ZM114.898 27.1648C116.146 27.1648 117.311 26.9063 118.432 26.4346C119.471 25.9629 120.428 25.2741 121.219 24.459C122.009 23.6005 122.632 22.5683 123.048 21.4513C123.963 19.0021 123.963 16.3377 123.048 13.8885C122.632 12.7714 122.009 11.7412 121.219 10.8807C120.428 9.9788 119.473 9.33343 118.432 8.90516C117.309 8.43348 116.104 8.17493 114.938 8.17493C113.773 8.17493 112.526 8.43348 111.405 8.90516C110.366 9.37685 109.409 10.0656 108.618 10.8807C107.827 11.7392 107.205 12.7714 106.788 13.8885C105.874 16.3377 105.874 19.0021 106.788 21.4513C107.205 22.5683 107.827 23.5986 108.618 24.459C109.409 25.3195 110.364 25.9629 111.405 26.4346C112.486 26.9931 113.691 27.2083 114.898 27.1648ZM114.898 25.061C114.067 25.061 113.193 24.8893 112.446 24.5459C111.655 24.2025 110.948 23.6874 110.368 23.042C109.743 22.3552 109.245 21.5815 108.954 20.7211C108.248 18.7869 108.248 16.5528 108.954 14.6207C109.287 13.7622 109.745 12.9885 110.368 12.2997C110.95 11.6544 111.657 11.1827 112.446 10.7959C113.195 10.4525 114.025 10.2808 114.898 10.2808C115.771 10.2808 116.604 10.4525 117.351 10.7959C118.142 11.1393 118.848 11.6544 119.429 12.2997C120.053 12.9866 120.552 13.7602 120.884 14.6207C121.633 16.5548 121.633 18.7889 120.884 20.7211C120.552 21.5796 120.053 22.3532 119.429 23.042C118.804 23.6874 118.098 24.1591 117.351 24.5459C116.56 24.9327 115.771 25.061 114.898 25.061ZM134.566 27.1648C135.813 27.1648 136.978 26.9063 138.099 26.4346C139.138 25.9629 140.095 25.2741 140.886 24.459C141.677 23.6005 142.299 22.5683 142.716 21.4513C143.63 19.0021 143.63 16.3377 142.716 13.8885C142.299 12.7714 141.677 11.7412 140.886 10.8807C140.095 9.9788 139.14 9.33343 138.099 8.90516C136.976 8.43348 135.771 8.17493 134.566 8.17493C133.36 8.17493 132.153 8.43348 131.072 8.90516C130.033 9.37685 129.076 10.0656 128.286 10.8807C127.495 11.7392 126.872 12.7714 126.456 13.8885C125.541 16.3377 125.541 19.0021 126.456 21.4513C126.872 22.5683 127.495 23.5986 128.286 24.459C129.076 25.361 130.031 26.0063 131.072 26.4346C132.153 26.9931 133.358 27.2083 134.566 27.1648ZM134.566 25.061C133.735 25.061 132.86 24.8893 132.113 24.5459C131.322 24.2025 130.616 23.6874 130.035 23.042C129.41 22.3552 128.912 21.5815 128.622 20.7211C127.915 18.7869 127.915 16.5528 128.622 14.6207C128.954 13.7622 129.412 12.9885 130.035 12.2997C130.66 11.6544 131.366 11.1827 132.113 10.7959C132.862 10.4525 133.693 10.2808 134.566 10.2808C135.438 10.2808 136.271 10.4525 137.018 10.7959C137.809 11.1393 138.515 11.6544 139.096 12.2997C139.721 12.9866 140.219 13.7602 140.552 14.6207C141.3 16.5548 141.3 18.7889 140.552 20.7211C140.219 21.5796 139.721 22.3532 139.096 23.042C138.472 23.6874 137.765 24.1591 137.018 24.5459C136.227 24.9327 135.354 25.061 134.566 25.061ZM148.786 26.5649V17.1982C148.786 16.3397 148.91 15.4358 149.16 14.5773C149.41 13.8036 149.784 13.03 150.241 12.3432C150.657 11.6978 151.238 11.1827 151.905 10.7959C152.569 10.409 153.318 10.1939 154.067 10.1939C155.522 10.1939 156.561 10.6242 157.228 11.5695C157.892 12.4714 158.225 13.847 158.225 15.6509V26.5214H160.471V16.9831C160.471 16.1246 160.595 15.2641 160.845 14.449C161.095 13.6753 161.47 12.9451 161.926 12.3017C162.383 11.6583 162.965 11.1847 163.59 10.7978C164.255 10.411 165.003 10.1959 165.71 10.1959C167.207 10.1959 168.247 10.6261 168.911 11.5715C169.576 12.4734 169.908 13.8056 169.908 15.6095V26.5649H172.154V15.1792C172.154 14.1904 172.07 13.2885 171.822 12.3432C171.656 11.5261 171.24 10.7544 170.741 10.1091C170.285 9.46369 169.618 8.94858 168.911 8.6486C168.162 8.30519 167.248 8.13349 166.209 8.13349C164.711 8.13349 163.422 8.52031 162.383 9.29396C161.344 10.0676 160.511 11.0564 159.93 12.2149C159.598 11.0544 158.933 10.0242 158.059 9.25054C157.102 8.47689 155.938 8.09007 154.525 8.09007C153.112 8.09007 153.236 8.17691 152.695 8.39006C152.071 8.56176 151.49 8.86174 151.032 9.24857C150.533 9.59197 150.075 10.0222 149.66 10.5373C149.286 10.9676 148.954 11.5261 148.703 12.0412H148.579V8.69004H146.459V26.5629H148.787L148.786 26.5649ZM188.995 26.5649V24.459H178.184L188.829 10.6676V8.73346H175.73V10.8393H186.084L175.44 24.6307V26.5649H188.995Z" fill="#5C5C5C"/>
<path d="M48.7436 41.345H43.9609V32.5369H45.042V40.2714H48.7436V41.345Z" fill="#5C5C5C"/>
<path d="M54.5225 41.3452H53.4414V32.5371H54.5225V41.3452Z" fill="#5C5C5C"/>
<path d="M63.0057 41.345H61.8406L58.8477 32.5369H60.0529L62.3812 39.7128H62.4232L64.8756 32.5369H66.0808L63.0038 41.345H63.0057Z" fill="#5C5C5C"/>
<path d="M75.6042 32.5371V33.6108H71.7364V36.4034H75.2298V37.477H71.7364V40.2697H75.6042V41.3433H70.6152V32.5352H75.6042V32.5371Z" fill="#5C5C5C"/>
<path d="M90.8234 41.5583C89.5341 41.5583 88.4951 41.128 87.6623 40.2261C86.8314 39.3676 86.373 38.2505 86.373 36.9598C86.373 35.6691 86.7894 34.554 87.6623 33.6935C88.4931 32.7916 89.5742 32.3613 90.8234 32.3613C92.0725 32.3613 93.1516 32.833 93.9424 33.8218L93.1516 34.5954C92.5271 33.8218 91.7382 33.435 90.8234 33.435C89.9085 33.435 89.0776 33.7349 88.453 34.4237C87.8285 35.0691 87.4961 35.9276 87.4961 36.9578C87.4961 37.988 87.7864 38.8485 88.453 39.4919C89.0776 40.1373 89.8664 40.4807 90.8234 40.4807C91.7803 40.4807 92.6531 40.0504 93.4019 39.1919L94.1926 40.009C93.7762 40.5241 93.2777 40.9109 92.6951 41.1695C92.1126 41.4695 91.4899 41.5563 90.8234 41.5563V41.5583Z" fill="#5C5C5C"/>
<path d="M99.5138 41.3452H98.3086L101.51 32.5371H102.757L105.958 41.3452H104.753L103.922 38.9394H100.347L99.5157 41.3452H99.5138ZM102.092 33.9541L100.679 37.9507H103.506L102.092 33.9541Z" fill="#5C5C5C"/>
<path d="M115.772 38.9808C115.772 39.7544 115.522 40.3978 114.941 40.828C114.36 41.2583 113.694 41.5148 112.903 41.5148C112.112 41.5148 111.572 41.2997 111.031 40.8695C110.491 40.4392 110.116 39.8393 109.908 39.1071L110.947 38.6768C110.989 38.9354 111.113 39.1919 111.238 39.407C111.362 39.6222 111.488 39.7939 111.694 39.9656C111.86 40.0939 112.068 40.2241 112.277 40.309C112.485 40.3938 112.693 40.4373 112.941 40.4373C113.44 40.4373 113.856 40.309 114.189 40.0504C114.521 39.7919 114.645 39.4485 114.645 38.9768C114.645 38.5051 114.521 38.29 114.271 38.0315C114.02 37.7729 113.564 37.5163 112.899 37.3012C112.235 37.0427 111.776 36.871 111.61 36.7861C110.695 36.3144 110.239 35.5822 110.239 34.6803C110.239 33.7784 110.489 33.4764 110.987 33.0481C111.486 32.5764 112.11 32.3613 112.859 32.3613C113.608 32.3613 114.064 32.533 114.565 32.8764C115.021 33.2198 115.356 33.6501 115.522 34.1652L114.483 34.5954C114.399 34.2954 114.192 33.9935 113.9 33.7784C113.61 33.5632 113.276 33.4784 112.861 33.4784C112.447 33.4784 112.07 33.6067 111.78 33.8218C111.49 34.0369 111.324 34.3369 111.324 34.7237C111.324 35.1105 111.448 35.2822 111.656 35.4974C111.906 35.7125 112.447 35.9691 113.319 36.271C114.192 36.573 114.775 36.9578 115.149 37.3881C115.566 37.8183 115.774 38.3768 115.774 38.9768L115.772 38.9808Z" fill="#5C5C5C"/>
<path d="M121.718 41.3452H120.637V32.5371H121.718V41.3452Z" fill="#5C5C5C"/>
<path d="M128.038 41.3452H126.957V32.5371H128.288L132.446 39.4111H132.488V37.7355C132.446 37.7355 132.446 32.5805 132.446 32.5805H133.527V41.3887H132.362L128.038 34.2127H127.996V35.8883C128.038 35.8883 128.038 41.3452 128.038 41.3452Z" fill="#5C5C5C"/>
<path d="M146.998 36.9618C146.998 38.2939 146.582 39.3676 145.709 40.228C144.878 41.13 143.837 41.5602 142.59 41.5602C141.343 41.5602 140.304 41.13 139.471 40.228C138.64 39.3695 138.182 38.2525 138.182 36.9618C138.182 35.671 138.598 34.5559 139.471 33.6955C140.302 32.7935 141.343 32.3633 142.59 32.3633C143.837 32.3633 144.876 32.7935 145.709 33.6955C146.582 34.5974 146.998 35.671 146.998 36.9618ZM139.347 36.9618C139.347 37.992 139.637 38.809 140.262 39.4958C140.886 40.1412 141.675 40.4846 142.59 40.4846C143.505 40.4846 144.296 40.1412 144.918 39.4958C145.543 38.8505 145.875 37.992 145.875 36.9618C145.875 35.9315 145.585 35.1145 144.918 34.4277C144.294 33.7823 143.505 33.4389 142.59 33.4389C141.675 33.4389 140.884 33.7823 140.262 34.4277C139.679 35.1145 139.347 35.975 139.347 36.9618Z" fill="#5C5C5C"/>
</g>
</svg>
