<svg width="250" height="93" viewBox="0 0 250 93" fill="none" xmlns="http://www.w3.org/2000/svg">
<g clip-path="url(#clip0_971_8668)">
<rect width="250" height="93" rx="10.7024" fill="#F5F5F5"/>
<g style="mix-blend-mode:luminosity" clip-path="url(#clip1_971_8668)">
<path d="M67.2656 39.2996C75.1147 37.0496 81.3034 42.7496 81.7562 51.5996C82.9637 43.6496 79.9449 37.6496 76.4732 34.7996C74.8128 34.6496 72.8505 34.4996 71.1902 34.3496C70.2845 35.3996 68.1713 38.2496 67.2656 39.2996Z" fill="#A41E22"/>
<path d="M80.8493 41.3998C77.2266 34.3498 70.7361 37.4998 67.2644 39.7498C60.0191 44.5498 56.2455 34.0498 64.8493 31.3498C69.9813 29.6998 79.0379 34.1998 80.8493 41.3998Z" fill="#ED1C24"/>
<path d="M70.5873 51.4502C68.7759 59.2502 60.7759 61.8002 52.625 57.9002C59.1156 62.7002 65.908 63.1502 70.2854 61.5002C71.191 60.1502 72.2476 58.5002 73.1533 57.1502C72.5495 55.9502 71.0401 52.8002 70.5873 51.4502Z" fill="#659A41"/>
<path d="M62.1328 62.1001C70.2838 62.4001 70.5856 55.2001 70.2838 51.3001C69.529 42.7501 80.6989 44.5501 78.8875 53.2501C77.8309 58.5001 69.3781 64.0501 62.1328 62.1001Z" fill="#A7CF38"/>
<path d="M57.9085 48.45C52.0217 42.75 54.1349 34.65 61.833 30C54.2858 32.85 50.2103 38.25 49.3047 42.75C49.9085 44.25 50.8141 45.9 51.5688 47.4C52.9273 47.7 56.55 48.15 57.9085 48.45Z" fill="#136D9A"/>
<path d="M53.2251 35.7002C48.6968 42.1502 54.7345 46.3502 58.2062 48.1502C65.9043 52.0502 58.5081 60.4502 51.8666 54.3002C47.9421 50.7002 47.6402 40.8002 53.2251 35.7002Z" fill="#2AACE3"/>
<path d="M134.737 53.2488H138.963H139.114H139.416C140.472 53.2488 141.076 53.3988 141.227 53.8488C141.529 54.2988 141.529 54.7488 141.529 55.4988C141.529 56.5488 141.227 57.1488 140.774 57.2988C140.171 57.4488 139.416 57.5988 138.208 57.5988H134.586L134.737 53.2488ZM134.737 62.8488V58.6488H138.661H138.963C138.963 58.6488 139.114 58.6488 139.265 58.6488C139.869 58.6488 140.321 58.6488 140.925 58.4988C141.529 58.3488 141.982 58.1988 142.435 57.8988C142.737 57.7488 142.888 57.4488 143.038 57.1488C143.189 56.8488 143.189 56.5488 143.34 56.2488C143.34 56.0988 143.34 55.9488 143.34 55.7988C143.34 55.6488 143.34 55.4988 143.34 55.3488C143.34 55.1988 143.34 55.1988 143.34 55.0488C143.34 54.8988 143.34 54.7488 143.34 54.7488C143.34 54.2988 143.189 53.9988 143.038 53.5488C142.888 53.0988 142.586 52.7988 142.284 52.6488C141.982 52.4988 141.68 52.3488 141.378 52.1988C141.076 52.0488 140.774 52.0488 140.472 52.0488C140.321 52.0488 140.171 52.0488 140.02 52.0488H133.378V62.6988L134.737 62.8488ZM130.51 59.6988C130.51 60.5988 130.208 61.3488 129.755 61.4988C129.303 61.7988 128.397 61.9488 127.34 61.9488H125.831C124.774 61.9488 123.869 61.7988 123.567 61.4988C123.114 61.1988 122.963 60.5988 122.963 59.6988V52.1988H121.454V59.6988C121.454 61.1988 121.906 62.0988 122.812 62.5488C123.718 62.8488 125.076 62.9988 126.737 62.9988H127.491C127.491 62.9988 127.944 62.9988 128.246 62.9988C129.755 62.9988 130.812 62.6988 131.265 62.2488C131.718 61.7988 132.02 60.8988 132.02 59.8488V52.3488H130.51V59.6988ZM111.34 55.7988C111.34 54.5988 111.642 53.8488 111.944 53.6988C112.397 53.3988 113.152 53.2488 114.359 53.2488H114.812C116.321 53.2488 117.227 53.3988 117.831 53.5488C118.435 53.8488 118.737 54.5988 118.737 55.7988V56.6988V57.5988V58.4988V59.3988C118.737 60.7488 118.435 61.4988 117.68 61.6488C117.076 61.9488 116.02 62.0988 114.51 62.0988C113.152 62.0988 112.246 61.9488 111.944 61.6488C111.642 61.3488 111.34 60.5988 111.34 59.5488V57.8988V55.7988ZM109.831 58.7988V59.8488C109.982 61.1988 110.435 62.0988 111.189 62.3988C111.944 62.8488 113.152 62.9988 114.661 62.9988H114.963H115.265H115.416H115.567H115.718C117.378 62.9988 118.586 62.6988 119.189 62.2488C119.793 61.7988 120.095 60.7488 120.246 59.5488C120.246 58.9488 120.246 58.3488 120.246 57.5988V55.6488C120.246 53.9988 119.793 52.9488 118.888 52.6488C117.982 52.3488 116.623 52.0488 114.812 52.0488H114.208C112.095 52.0488 110.737 52.4988 110.435 53.3988C110.133 54.2988 109.831 55.4988 109.831 56.9988V57.5988V58.7988ZM99.8687 53.2488H104.699C105.755 53.2488 106.51 53.3988 106.661 53.8488C106.963 54.2988 106.963 54.7488 106.963 55.6488C106.963 56.3988 106.661 56.9988 106.208 57.2988C105.755 57.5988 105.001 57.7488 103.944 57.7488H99.5668L99.8687 53.2488ZM99.8687 62.8488V58.4988H104.397C105.303 58.4988 105.906 58.6488 106.359 58.9488C106.812 59.2488 106.963 59.6988 106.963 60.4488V62.8488H108.472V60.1488C108.472 59.5488 108.321 59.0988 108.02 58.6488C107.718 58.3488 107.114 58.0488 106.359 58.0488C107.567 57.8988 108.171 57.5988 108.472 56.9988C108.774 56.3988 108.774 55.9488 108.774 55.1988C108.774 53.9988 108.472 53.2488 107.869 52.7988C107.265 52.3488 106.208 52.0488 104.85 52.0488H98.5102V62.6988L99.8687 62.8488ZM91.4158 58.6488H95.7932V59.5488C95.7932 60.5988 95.6422 61.1988 95.1894 61.4988C94.7366 61.7988 93.9819 61.9488 92.6234 61.9488H91.8687H91.2649C91.1139 61.9488 90.963 61.9488 90.6611 61.9488C90.5102 61.9488 90.3592 61.9488 90.0573 61.9488C89.9064 61.9488 89.7555 61.9488 89.4536 61.9488C88.5479 61.7988 87.9441 61.4988 87.7932 60.8988C87.6422 60.2988 87.4913 59.6988 87.4913 59.0988V57.5988V56.2488C87.4913 55.0488 87.7932 54.1488 88.0951 53.8488C88.397 53.5488 89.3026 53.3988 90.8121 53.3988H92.1705C92.1705 53.3988 93.0762 53.3988 93.529 53.3988C94.4347 53.3988 95.0385 53.6988 95.1894 53.9988C95.3404 54.2988 95.4913 54.8988 95.4913 55.4988H97.0007V55.0488C97.0007 54.1488 96.6988 53.5488 96.246 53.0988C95.7932 52.6488 95.0385 52.3488 93.8309 52.3488C93.529 52.3488 93.2272 52.3488 93.0762 52.3488C92.7743 52.3488 92.4724 52.3488 92.3215 52.3488C92.0196 52.3488 91.7177 52.3488 91.5668 52.3488H90.8121C89.0007 52.3488 87.7932 52.6488 87.1894 53.2488C86.5856 53.8488 86.1328 54.8988 86.1328 56.2488V56.9988V57.7488V58.4988V59.2488C86.1328 60.8988 86.5856 61.9488 87.3404 62.3988C88.0951 62.8488 89.6045 63.1488 91.7177 63.1488H93.0762C93.529 63.1488 93.9819 63.1488 94.4347 62.9988C95.6422 62.8488 96.397 62.5488 96.6989 61.7988C97.0007 61.1988 97.1517 60.4488 97.1517 59.5488V58.7988V58.1988C97.1517 58.0488 97.1517 57.7488 97.1517 57.5988H91.4158V58.6488Z" fill="#747474"/>
<path d="M187.721 32.5494H194.211C195.419 32.5494 196.475 32.6994 197.23 32.9994C197.985 33.2994 198.588 34.0494 198.739 35.0994C198.89 35.6994 198.89 36.2994 198.89 36.8994V38.6994V39.4494V40.1994V40.9494C198.89 41.3994 198.739 41.9994 198.588 42.4494C198.438 42.7494 198.287 43.0494 197.985 43.4994C197.683 43.7994 197.23 44.0994 196.777 44.0994C196.324 44.2494 195.871 44.2494 195.268 44.3994C194.966 44.3994 194.815 44.3994 194.513 44.3994H193.758H187.721V32.5494ZM194.815 45.7494C197.683 45.7494 199.494 44.9994 200.098 43.6494C200.702 42.1494 201.004 40.6494 201.004 38.6994V37.1994C201.004 35.0994 200.551 33.5994 199.645 32.5494C198.739 31.4994 196.928 30.8994 194.211 30.8994H185.607V45.7494H194.815ZM181.834 31.0494V44.5494L171.419 31.0494H168.098V45.8994H170.06V32.3994L180.475 45.7494H183.796V31.0494H181.834ZM164.173 45.7494H166.287V31.0494H164.173V45.7494ZM160.551 31.0494L155.268 44.5494L150.287 31.0494H147.268L142.287 44.5494L137.154 31.0494H135.041L140.777 45.8994H143.947L148.928 32.5494L153.758 45.8994H156.928L162.815 31.0494H160.551ZM131.57 31.0494L125.985 37.9494L120.4 31.0494H117.985L124.777 39.5994V45.7494H126.89V39.5994L133.985 31.0494H131.57ZM101.985 31.0494V45.8994H104.098V38.9994H105.909L114.362 45.8994H117.23L107.721 38.2494L116.173 31.0494H113.456L105.909 37.4994H104.098V31.0494H101.985ZM100.022 34.9494C100.022 32.9994 99.4186 31.9494 98.0601 31.4994C96.8526 31.1994 95.1922 30.8994 93.23 30.8994H92.7771C90.8149 30.8994 89.3054 31.1994 88.0979 31.4994C86.8903 31.7994 86.4375 32.9994 86.4375 34.7994C86.4375 36.7494 87.1922 37.9494 88.5507 38.2494C90.0601 38.6994 91.7205 38.8494 93.6828 38.8494H94.5884H95.4941C96.7017 38.8494 97.4564 39.1494 97.9092 39.4494C98.2111 39.7494 98.513 40.3494 98.513 41.3994C98.513 42.5994 98.2111 43.4994 97.6073 43.6494C97.0035 43.9494 95.9469 44.0994 94.4375 44.0994H92.6262C90.9658 44.0994 89.7583 43.9494 89.3054 43.4994C88.8526 43.0494 88.5507 42.1494 88.5507 40.7994H86.5884V40.9494V41.0994V41.2494V41.3994C86.5884 43.1994 87.1922 44.3994 88.5507 44.8494C89.7583 45.2994 91.4186 45.4494 93.3809 45.4494H94.2866H95.1922H96.0979H97.0035C98.6639 45.2994 99.7205 44.8494 100.173 44.0994C100.324 43.4994 100.475 42.5994 100.475 41.3994C100.475 39.4494 99.8715 38.2494 98.513 37.9494C97.1545 37.6494 95.645 37.4994 93.8337 37.4994C93.3809 37.4994 93.079 37.4994 92.6262 37.4994C92.1733 37.4994 91.8715 37.4994 91.4186 37.4994C90.2111 37.4994 89.4564 37.1994 89.1545 36.7494C88.8526 36.2994 88.7017 35.6994 88.7017 34.9494C88.7017 34.7994 88.7017 34.7994 88.7017 34.6494C88.7017 34.4994 88.7017 34.3494 88.7017 34.3494C88.7017 34.0494 88.8526 33.8994 89.0035 33.5994C89.1545 33.2994 89.3054 33.1494 89.6073 32.9994C89.9092 32.8494 90.2111 32.8494 90.513 32.6994C90.8149 32.6994 91.2677 32.5494 91.5696 32.5494H92.4752H93.23H94.2866C95.796 32.5494 96.7017 32.6994 97.1545 33.1494C97.6073 33.4494 97.9092 34.1994 97.9092 35.3994H100.022V34.9494Z" fill="#747474"/>
</g>
</g>
<rect x="0.891865" y="0.891865" width="248.216" height="91.2163" rx="9.81052" stroke="#E5E7EB" stroke-opacity="0.5" stroke-width="1.78373"/>
<defs>
<clipPath id="clip0_971_8668">
<rect width="250" height="93" rx="10.7024" fill="white"/>
</clipPath>
<clipPath id="clip1_971_8668">
<rect width="152" height="33" fill="white" transform="translate(49 30)"/>
</clipPath>
</defs>
</svg>
