<svg width="152" height="33" viewBox="0 0 152 33" fill="none" xmlns="http://www.w3.org/2000/svg">
<g style="mix-blend-mode:luminosity" clip-path="url(#clip0_954_8868)">
<path d="M18.2637 9.29961C26.1127 7.04961 32.3014 12.7496 32.7542 21.5996C33.9618 13.6496 30.9429 7.64961 27.4712 4.79961C25.8108 4.64961 23.8486 4.49961 22.1882 4.34961C21.2825 5.39961 19.1693 8.24961 18.2637 9.29961Z" fill="#A41E22"/>
<path d="M31.8493 11.3999C28.2266 4.34988 21.7361 7.49988 18.2644 9.74988C11.0191 14.5499 7.24549 4.04988 15.8493 1.34988C20.9813 -0.300117 30.0379 4.19988 31.8493 11.3999Z" fill="#ED1C24"/>
<path d="M21.5853 21.4502C19.774 29.2502 11.774 31.8002 3.62305 27.9002C10.1136 32.7002 16.9061 33.1502 21.2834 31.5002C22.1891 30.1502 23.2457 28.5002 24.1514 27.1502C23.5476 25.9502 22.0381 22.8002 21.5853 21.4502Z" fill="#659A41"/>
<path d="M13.1328 32.1001C21.2838 32.4001 21.5856 25.2001 21.2838 21.3001C20.529 12.7501 31.6989 14.5501 29.8875 23.2501C28.8309 28.5001 20.3781 34.0501 13.1328 32.1001Z" fill="#A7CF38"/>
<path d="M8.90651 18.45C3.01972 12.75 5.13292 4.65 12.831 0C5.28387 2.85 1.20839 8.25 0.302734 12.75C0.906508 14.25 1.81217 15.9 2.56689 17.4C3.92538 17.7 7.54802 18.15 8.90651 18.45Z" fill="#136D9A"/>
<path d="M4.22704 5.7002C-0.30126 12.1502 5.73648 16.3502 9.20817 18.1502C16.9063 22.0502 9.51006 30.4502 2.86855 24.3002C-1.05598 20.7002 -1.35786 10.8002 4.22704 5.7002Z" fill="#2AACE3"/>
<path d="M85.7366 23.2488H89.963H90.1139H90.4158C91.4724 23.2488 92.0762 23.3988 92.2272 23.8488C92.529 24.2988 92.529 24.7488 92.529 25.4988C92.529 26.5488 92.2271 27.1488 91.7743 27.2988C91.1705 27.4488 90.4158 27.5988 89.2083 27.5988H85.5856L85.7366 23.2488ZM85.7366 32.8488V28.6488H89.6611H89.963C89.963 28.6488 90.1139 28.6488 90.2649 28.6488C90.8687 28.6488 91.3215 28.6488 91.9253 28.4988C92.529 28.3488 92.9819 28.1988 93.4347 27.8988C93.7366 27.7488 93.8875 27.4488 94.0385 27.1488C94.1894 26.8488 94.1894 26.5488 94.3404 26.2488C94.3404 26.0988 94.3404 25.9488 94.3404 25.7988C94.3404 25.6488 94.3404 25.4988 94.3404 25.3488C94.3404 25.1988 94.3404 25.1988 94.3404 25.0488C94.3404 24.8988 94.3404 24.7488 94.3404 24.7488C94.3404 24.2988 94.1894 23.9988 94.0385 23.5488C93.8875 23.0988 93.5856 22.7988 93.2838 22.6488C92.9819 22.4988 92.68 22.3488 92.3781 22.1988C92.0762 22.0488 91.7743 22.0488 91.4724 22.0488C91.3215 22.0488 91.1705 22.0488 91.0196 22.0488H84.3781V32.6988L85.7366 32.8488ZM81.5102 29.6988C81.5102 30.5988 81.2083 31.3488 80.7555 31.4988C80.3026 31.7988 79.397 31.9488 78.3404 31.9488H76.8309C75.7743 31.9488 74.8687 31.7988 74.5668 31.4988C74.1139 31.1988 73.963 30.5988 73.963 29.6988V22.1988H72.4536V29.6988C72.4536 31.1988 72.9064 32.0988 73.8121 32.5488C74.7177 32.8488 76.0762 32.9988 77.7366 32.9988H78.4913C78.4913 32.9988 78.9441 32.9988 79.246 32.9988C80.7555 32.9988 81.8121 32.6988 82.2649 32.2488C82.7177 31.7988 83.0196 30.8988 83.0196 29.8488V22.3488H81.5102V29.6988ZM62.3404 25.7988C62.3404 24.5988 62.6422 23.8488 62.9441 23.6988C63.397 23.3988 64.1517 23.2488 65.3592 23.2488H65.8121C67.3215 23.2488 68.2271 23.3988 68.8309 23.5488C69.4347 23.8488 69.7366 24.5988 69.7366 25.7988V26.6988V27.5988V28.4988V29.3988C69.7366 30.7488 69.4347 31.4988 68.68 31.6488C68.0762 31.9488 67.0196 32.0988 65.5102 32.0988C64.1517 32.0988 63.246 31.9488 62.9441 31.6488C62.6422 31.3488 62.3404 30.5988 62.3404 29.5488V27.8988V25.7988ZM60.8309 28.7988V29.8488C60.9819 31.1988 61.4347 32.0988 62.1894 32.3988C62.9441 32.8488 64.1517 32.9988 65.6611 32.9988H65.963H66.2649H66.4158H66.5668H66.7177C68.3781 32.9988 69.5856 32.6988 70.1894 32.2488C70.7932 31.7988 71.0951 30.7488 71.246 29.5488C71.246 28.9488 71.246 28.3488 71.246 27.5988V25.6488C71.246 23.9988 70.7932 22.9488 69.8875 22.6488C68.9819 22.3488 67.6234 22.0488 65.8121 22.0488H65.2083C63.0951 22.0488 61.7366 22.4988 61.4347 23.3988C61.1328 24.2988 60.8309 25.4988 60.8309 26.9988V27.5988V28.7988ZM50.8687 23.2488H55.6989C56.7555 23.2488 57.5102 23.3988 57.6611 23.8488C57.963 24.2988 57.963 24.7488 57.963 25.6488C57.963 26.3988 57.6611 26.9988 57.2083 27.2988C56.7555 27.5988 56.0007 27.7488 54.9441 27.7488H50.5668L50.8687 23.2488ZM50.8687 32.8488V28.4988H55.397C56.3026 28.4988 56.9064 28.6488 57.3592 28.9488C57.8121 29.2488 57.963 29.6988 57.963 30.4488V32.8488H59.4724V30.1488C59.4724 29.5488 59.3215 29.0988 59.0196 28.6488C58.7177 28.3488 58.1139 28.0488 57.3592 28.0488C58.5668 27.8988 59.1706 27.5988 59.4724 26.9988C59.7743 26.3988 59.7743 25.9488 59.7743 25.1988C59.7743 23.9988 59.4724 23.2488 58.8687 22.7988C58.2649 22.3488 57.2083 22.0488 55.8498 22.0488H49.5102V32.6988L50.8687 32.8488ZM42.4158 28.6488H46.7932V29.5488C46.7932 30.5988 46.6422 31.1988 46.1894 31.4988C45.7366 31.7988 44.9819 31.9488 43.6234 31.9488H42.8687H42.2649C42.1139 31.9488 41.963 31.9488 41.6611 31.9488C41.5102 31.9488 41.3592 31.9488 41.0573 31.9488C40.9064 31.9488 40.7555 31.9488 40.4536 31.9488C39.5479 31.7988 38.9441 31.4988 38.7932 30.8988C38.6422 30.2988 38.4913 29.6988 38.4913 29.0988V27.5988V26.2488C38.4913 25.0488 38.7932 24.1488 39.0951 23.8488C39.397 23.5488 40.3026 23.3988 41.8121 23.3988H43.1705C43.1705 23.3988 44.0762 23.3988 44.529 23.3988C45.4347 23.3988 46.0385 23.6988 46.1894 23.9988C46.3404 24.2988 46.4913 24.8988 46.4913 25.4988H48.0007V25.0488C48.0007 24.1488 47.6988 23.5488 47.246 23.0988C46.7932 22.6488 46.0385 22.3488 44.8309 22.3488C44.529 22.3488 44.2272 22.3488 44.0762 22.3488C43.7743 22.3488 43.4724 22.3488 43.3215 22.3488C43.0196 22.3488 42.7177 22.3488 42.5668 22.3488H41.8121C40.0007 22.3488 38.7932 22.6488 38.1894 23.2488C37.5856 23.8488 37.1328 24.8988 37.1328 26.2488V26.9988V27.7488V28.4988V29.2488C37.1328 30.8988 37.5856 31.9488 38.3404 32.3988C39.0951 32.8488 40.6045 33.1488 42.7177 33.1488H44.0762C44.529 33.1488 44.9819 33.1488 45.4347 32.9988C46.6422 32.8488 47.397 32.5488 47.6989 31.7988C48.0007 31.1988 48.1517 30.4488 48.1517 29.5488V28.7988V28.1988C48.1517 28.0488 48.1517 27.7488 48.1517 27.5988H42.4158V28.6488Z" fill="#747474"/>
<path d="M138.719 2.54941H145.209C146.417 2.54941 147.473 2.69941 148.228 2.99941C148.983 3.29941 149.586 4.04941 149.737 5.09941C149.888 5.69941 149.888 6.29941 149.888 6.89941V8.69942V9.44942V10.1994V10.9494C149.888 11.3994 149.737 11.9994 149.586 12.4494C149.436 12.7494 149.285 13.0494 148.983 13.4994C148.681 13.7994 148.228 14.0994 147.775 14.0994C147.322 14.2494 146.87 14.2494 146.266 14.3994C145.964 14.3994 145.813 14.3994 145.511 14.3994H144.756H138.719V2.54941ZM145.813 15.7494C148.681 15.7494 150.492 14.9994 151.096 13.6494C151.7 12.1494 152.002 10.6494 152.002 8.69942V7.19942C152.002 5.09941 151.549 3.59941 150.643 2.54941C149.737 1.49941 147.926 0.899414 145.209 0.899414H136.605V15.7494H145.813ZM132.832 1.04941V14.5494L122.417 1.04941H119.096V15.8994H121.058V2.39941L131.473 15.7494H134.794V1.04941H132.832ZM115.171 15.7494H117.285V1.04941H115.171V15.7494ZM111.549 1.04941L106.266 14.5494L101.285 1.04941H98.2657L93.2846 14.5494L88.1525 1.04941H86.0393L91.7752 15.8994H94.945L99.9261 2.54941L104.756 15.8994H107.926L113.813 1.04941H111.549ZM82.5676 1.04941L76.9827 7.94942L71.3978 1.04941H68.9827L75.7752 9.59941V15.7494H77.8884V9.59941L84.9827 1.04941H82.5676ZM52.9827 1.04941V15.8994H55.0959V8.99941H56.9072L65.3601 15.8994H68.228L58.7186 8.24941L67.1714 1.04941H64.4544L56.9072 7.49941H55.0959V1.04941H52.9827ZM51.0205 4.94941C51.0205 2.99941 50.4167 1.94941 49.0582 1.49941C47.8506 1.19941 46.1903 0.899414 44.228 0.899414H43.7752C41.8129 0.899414 40.3035 1.19941 39.0959 1.49941C37.8884 1.79941 37.4355 2.99941 37.4355 4.79941C37.4355 6.74941 38.1903 7.94941 39.5488 8.24941C41.0582 8.69941 42.7186 8.84941 44.6808 8.84941H45.5865H46.4922C47.6997 8.84941 48.4544 9.14942 48.9072 9.44942C49.2091 9.74942 49.511 10.3494 49.511 11.3994C49.511 12.5994 49.2091 13.4994 48.6054 13.6494C48.0016 13.9494 46.945 14.0994 45.4355 14.0994H43.6242C41.9638 14.0994 40.7563 13.9494 40.3035 13.4994C39.8506 13.0494 39.5488 12.1494 39.5488 10.7994H37.5865V10.9494V11.0994V11.2494V11.3994C37.5865 13.1994 38.1903 14.3994 39.5488 14.8494C40.7563 15.2994 42.4167 15.4494 44.3789 15.4494H45.2846H46.1903H47.0959H48.0016C49.662 15.2994 50.7186 14.8494 51.1714 14.0994C51.3223 13.4994 51.4733 12.5994 51.4733 11.3994C51.4733 9.44942 50.8695 8.24941 49.511 7.94942C48.1525 7.64942 46.6431 7.49941 44.8318 7.49941C44.3789 7.49941 44.0771 7.49941 43.6242 7.49941C43.1714 7.49941 42.8695 7.49941 42.4167 7.49941C41.2091 7.49941 40.4544 7.19941 40.1525 6.74941C39.8506 6.29941 39.6997 5.69941 39.6997 4.94941C39.6997 4.79941 39.6997 4.79941 39.6997 4.64941C39.6997 4.49941 39.6997 4.34941 39.6997 4.34941C39.6997 4.04941 39.8506 3.89941 40.0016 3.59941C40.1525 3.29941 40.3035 3.14941 40.6054 2.99941C40.9072 2.84941 41.2091 2.84941 41.511 2.69941C41.8129 2.69941 42.2657 2.54941 42.5676 2.54941H43.4733H44.228H45.2846C46.794 2.54941 47.6997 2.69941 48.1525 3.14941C48.6054 3.44941 48.9072 4.19941 48.9072 5.39941H51.0205V4.94941Z" fill="#747474"/>
</g>
<defs>
<clipPath id="clip0_954_8868">
<rect width="152" height="33" fill="white"/>
</clipPath>
</defs>
</svg>
