<svg width="24" height="24" viewBox="0 0 24 24" fill="none" xmlns="http://www.w3.org/2000/svg">
<path d="M3.58594 19.7737C4.29474 20.4645 5.18062 20.9166 6.13148 21.0727C6.23521 20.5187 6.21603 19.9466 6.07545 19.4019C5.93486 18.8571 5.67674 18.3546 5.32153 17.9341L3.58594 19.7737Z" fill="#333333"/>
<path d="M12.5463 18.9983C12.2667 18.9983 11.9935 19.0864 11.761 19.2513C11.5286 19.4162 11.3474 19.6506 11.2404 19.9248C11.1334 20.1991 11.1054 20.5009 11.16 20.792C11.2145 21.0831 11.3492 21.3505 11.5468 21.5604C11.7445 21.7703 11.9964 21.9133 12.2706 21.9712C12.5448 22.0291 12.829 21.9994 13.0873 21.8858C13.3456 21.7722 13.5664 21.5798 13.7217 21.333C13.877 21.0862 13.9599 20.796 13.9599 20.4992C13.9595 20.1012 13.8104 19.7198 13.5454 19.4384C13.2804 19.157 12.9211 18.9988 12.5463 18.9983Z" fill="#333333"/>
<path d="M11.7634 15.5882C11.5277 15.6345 11.2884 15.6579 11.0487 15.658C10.0936 15.6581 9.17247 15.2814 8.46424 14.601L7.18359 15.9583L10.4884 19.461C11.319 18.5082 11.779 17.2567 11.7758 15.9584C11.7758 15.8343 11.7717 15.7109 11.7634 15.5882Z" fill="#333333"/>
<path d="M5.61719 17.6214C6.01288 18.0913 6.30234 18.651 6.46352 19.2577C6.6247 19.8644 6.65335 20.5022 6.54729 21.1224C7.20987 21.1729 7.87517 21.0793 8.50251 20.8474C9.12985 20.6154 9.70604 20.2501 10.1958 19.7736L6.89104 16.271L5.61719 17.6214Z" fill="#333333"/>
<path d="M15.6664 21.2659C15.6541 21.2749 15.6436 21.2863 15.6355 21.2996C15.6274 21.3129 15.6218 21.3277 15.6191 21.3433C15.6164 21.3589 15.6166 21.3749 15.6197 21.3904C15.6228 21.4058 15.6288 21.4205 15.6372 21.4336C15.7442 21.5975 15.9079 21.7097 16.0926 21.7457C16.2773 21.7818 16.468 21.7387 16.6228 21.6259L17.2802 21.1459C17.3696 21.0803 17.4436 20.9938 17.4965 20.893L16.7586 20.4686L15.6664 21.2659Z" fill="#333333"/>
<path d="M16.3486 20.2321L15.1562 19.5464L15.8422 20.6018L16.3486 20.2321Z" fill="#333333"/>
<path d="M19.6747 14.607L14.9107 14.9336L14.6953 15.9997L19.4587 16.371C19.5857 16.3805 19.7122 16.3466 19.8198 16.2744L21.0579 15.4364L20.2128 14.7719C20.0579 14.6501 19.8669 14.5916 19.6747 14.607Z" fill="#333333"/>
<path d="M20.6164 4.48998C20.4109 4.0744 20.1004 3.72786 19.7198 3.48926L19.4141 4.19215L20.5125 4.72872L20.6164 4.48998Z" fill="#333333"/>
<path d="M18.8987 19.2122L14.3955 17.4786L14.1914 18.4893L18.3763 20.8961C18.5572 21.0004 18.7689 21.0267 18.9676 20.9696L20.0003 20.6745L19.1798 19.4399C19.1104 19.3352 19.0122 19.2556 18.8987 19.2122Z" fill="#333333"/>
<path d="M19.5004 16.8148C19.4762 16.8148 19.452 16.8139 19.4278 16.812L14.6068 16.436L14.4844 17.042L19.0414 18.7963C19.0857 18.8135 19.1289 18.834 19.1705 18.8576L20.8896 18.0864L19.6515 16.8023C19.6015 16.8105 19.551 16.8146 19.5004 16.8148Z" fill="#333333"/>
<path d="M13.1875 18.203L13.8819 14.753L14.4923 14.8915L13.798 18.3415L13.1875 18.203Z" fill="#333333"/>
<path d="M15.1564 14.4734L15.9842 12.5698C15.8566 12.5261 15.7316 12.4744 15.6098 12.415C15.488 12.3552 15.3695 12.288 15.255 12.2136L14.3047 14.3988L14.7546 14.5009L15.1564 14.4734Z" fill="#333333"/>
<path d="M12.892 14.261L12.8364 14.1755C12.6245 13.8499 12.5336 13.4526 12.5814 13.0601C12.616 12.7759 12.5502 12.4881 12.3968 12.2524L6.90115 3.79715C6.72886 3.53324 6.46514 3.3525 6.16768 3.29448C5.87023 3.23645 5.56323 3.30585 5.31383 3.48751C5.19053 3.57741 5.08514 3.69225 5.0037 3.82546C4.92226 3.95866 4.86636 4.10762 4.83921 4.26379C4.81206 4.41997 4.81419 4.58029 4.84547 4.73559C4.87676 4.89089 4.93659 5.03811 5.02153 5.16883L8.57112 10.6298C9.43181 10.9352 10.2042 11.4701 10.8145 12.1832C11.4247 12.8964 11.8522 13.7639 12.0562 14.7028C12.2888 14.473 12.5791 14.3196 12.892 14.261ZM5.74703 4.77996C5.72426 4.79606 5.69873 4.80724 5.67189 4.81286C5.64505 4.81848 5.61743 4.81843 5.59061 4.81271C5.56379 4.807 5.53829 4.79573 5.51557 4.77956C5.49285 4.76338 5.47335 4.74261 5.45819 4.71843L5.41078 4.64248C5.39562 4.6183 5.38509 4.59119 5.3798 4.5627C5.37451 4.5342 5.37455 4.50487 5.37994 4.4764C5.38532 4.44792 5.39593 4.42085 5.41116 4.39672C5.4264 4.3726 5.44596 4.3519 5.46873 4.3358C5.4915 4.3197 5.51704 4.30853 5.54388 4.30291C5.57072 4.29729 5.59833 4.29734 5.62516 4.30305C5.65198 4.30876 5.67748 4.32003 5.7002 4.33621C5.72292 4.35238 5.74241 4.37315 5.75757 4.39733L5.80515 4.47328C5.8203 4.49747 5.83082 4.52459 5.8361 4.55309C5.84138 4.5816 5.84132 4.61093 5.83592 4.6394C5.83053 4.66788 5.8199 4.69495 5.80465 4.71907C5.7894 4.74319 5.76982 4.76388 5.74703 4.77996ZM7.95094 8.29539C7.92817 8.31149 7.90264 8.32266 7.8758 8.32828C7.84896 8.3339 7.82134 8.33385 7.79452 8.32814C7.7677 8.32243 7.7422 8.31116 7.71948 8.29498C7.69676 8.27881 7.67726 8.25804 7.6621 8.23386L5.88043 5.39199C5.86482 5.36783 5.85389 5.34061 5.84827 5.31192C5.84266 5.28323 5.84246 5.25364 5.84771 5.22487C5.85295 5.1961 5.86353 5.16872 5.87883 5.14433C5.89412 5.11993 5.91383 5.09901 5.93681 5.08277C5.95978 5.06654 5.98557 5.05531 6.01267 5.04975C6.03977 5.04418 6.06764 5.04439 6.09466 5.05036C6.12168 5.05633 6.14731 5.06794 6.17007 5.08452C6.19283 5.1011 6.21226 5.12231 6.22723 5.14693L8.00894 7.98875C8.03955 8.03757 8.05064 8.0973 8.03978 8.1548C8.02892 8.21231 7.997 8.26287 7.95103 8.29539H7.95094Z" fill="#333333"/>
<path d="M12.775 18.1305L13.4734 14.6734C12.8638 14.6068 12.2956 14.8866 12.161 15.3387C12.1823 15.5445 12.193 15.7514 12.1931 15.9585C12.1938 16.5557 12.1049 17.1493 11.9297 17.7168C12.1622 18.0439 12.5459 18.1064 12.775 18.1305Z" fill="#333333"/>
<path d="M17.6678 7.14809L16.5694 6.61148L16.1484 7.57947L17.2469 8.11608L17.6678 7.14809Z" fill="#333333"/>
<path d="M5.31813 17.3087L6.59223 15.9584L3.28737 12.4556C2.45674 13.4085 1.99679 14.6599 2.00002 15.9583C2.00002 16.0806 2.00403 16.2022 2.01206 16.323C2.59744 16.21 3.19939 16.24 3.77223 16.4108C4.34506 16.5816 4.87373 16.8887 5.31813 17.3087Z" fill="#333333"/>
<path d="M2.05859 16.7641C2.20625 17.7729 2.63406 18.712 3.28728 19.4611L5.02304 17.6215C4.62521 17.2445 4.15036 16.9709 3.63591 16.8221C3.12146 16.6733 2.5815 16.6535 2.05859 16.7641Z" fill="#333333"/>
<path d="M8.17157 14.2884C7.77266 13.8221 7.48095 13.2639 7.31933 12.6578C7.15771 12.0516 7.13057 11.414 7.24006 10.7948C7.12379 10.786 7.00735 10.7815 6.89072 10.7815C5.66726 10.7793 4.48768 11.2654 3.58594 12.1433L6.89072 15.6459L8.17157 14.2884Z" fill="#333333"/>
<path d="M10.1903 12.1434C9.48287 11.4539 8.59896 11.0022 7.65006 10.8453C7.54791 11.3982 7.56803 11.9687 7.70884 12.5119C7.84966 13.0551 8.10733 13.5562 8.46155 13.9757L10.1903 12.1434Z" fill="#333333"/>
<path d="M11.7146 15.1471C11.5662 14.1404 11.1388 13.2034 10.4868 12.4556L8.75781 14.2879C9.1547 14.6638 9.6282 14.937 10.1412 15.0861C10.6542 15.2352 11.1927 15.2561 11.7146 15.1471Z" fill="#333333"/>
<path d="M14.9553 9.26823L14.9998 9.16587L14.9141 9.12402C14.9269 9.1725 14.9406 9.22057 14.9553 9.26823Z" fill="#333333"/>
<path d="M18.2891 10.8975C18.3332 10.8782 18.3772 10.8576 18.421 10.836L18.3343 10.7936L18.2891 10.8975Z" fill="#333333"/>
<path d="M14.8148 7.41406C14.7658 7.80301 14.7649 8.19709 14.8121 8.58628L15.1762 8.76415L15.597 7.79616L14.8148 7.41406Z" fill="#333333"/>
<path d="M16.4531 11.0034C16.872 11.1542 17.322 11.1793 17.7534 11.0757L17.9565 10.6088L16.8581 10.0723L16.4531 11.0034Z" fill="#333333"/>
<path d="M15.3783 9.35074L15.1758 9.81653C15.381 10.2323 15.6914 10.5792 16.072 10.8181L16.4768 9.88731L15.3783 9.35074Z" fill="#333333"/>
<path d="M18.5078 10.3921L18.8714 10.5697C19.1807 10.3543 19.4627 10.0977 19.7105 9.80595L18.9288 9.42407L18.5078 10.3921Z" fill="#333333"/>
<path d="M17.4522 8.70267L17.0312 9.67066L18.1297 10.2073L18.5507 9.23928L17.4522 8.70267Z" fill="#333333"/>
<path d="M20.0098 2.2949C19.6056 2.09851 19.166 1.99789 18.7214 2.00003C17.0654 2.00003 15.3002 3.32341 14.381 5.43708C13.7194 6.95827 13.6106 8.6092 14.0823 9.96672C14.4153 10.9248 15.0033 11.6324 15.7829 12.0132C17.7215 12.9604 20.2465 11.5506 21.4118 8.87111C22.0733 7.34988 22.1821 5.69899 21.7104 4.34147C21.3775 3.38339 20.7894 2.67568 20.0098 2.2949ZM20.9284 8.63552C20.141 10.4458 18.6255 11.5782 17.2004 11.5782C16.8152 11.58 16.4342 11.4928 16.0839 11.3226C15.4056 10.9912 14.8951 10.3786 14.6075 9.55109C14.2038 8.38966 14.2974 6.97596 14.8643 5.67245C15.8638 3.37423 18.0373 2.16879 19.7089 2.98541C20.3872 3.31673 20.8977 3.92929 21.1853 4.75683C21.5889 5.91826 21.4953 7.33196 20.9284 8.63547V8.63552Z" fill="#333333"/>
<path d="M20.7177 5.31525L20.2969 6.28328L21.0068 6.63008C21.0369 6.22569 21.0129 5.81882 20.9355 5.42159L20.7177 5.31525Z" fill="#333333"/>
<path d="M19.6992 7.65283L20.6783 8.13106C20.8022 7.79503 20.8938 7.44654 20.9516 7.09092L20.1203 6.68484L19.6992 7.65283Z" fill="#333333"/>
<path d="M19.1016 9.02237L19.9837 9.45326C20.1871 9.16694 20.3634 8.85994 20.5099 8.53675L19.5226 8.0546L19.1016 9.02237Z" fill="#333333"/>
<path d="M18.2694 5.77862L17.171 5.242L16.75 6.20999L17.8484 6.74661L18.2694 5.77862Z" fill="#333333"/>
<path d="M20.3358 5.13038L19.2374 4.59381L18.8164 5.5618L19.9148 6.09837L20.3358 5.13038Z" fill="#333333"/>
<path d="M15.5547 8.9491L16.6531 9.48567L17.0741 8.51768L15.9756 7.98111L15.5547 8.9491Z" fill="#333333"/>
<path d="M16.1938 6.42652L15.2077 5.94476C15.0708 6.27251 14.9646 6.61374 14.8906 6.96353L15.7729 7.39451L16.1938 6.42652Z" fill="#333333"/>
<path d="M19.742 6.50001L18.6436 5.96344L18.2227 6.93143L19.321 7.468L19.742 6.50001Z" fill="#333333"/>
<path d="M19.3415 3.30471C19.0985 3.21495 18.843 3.16945 18.5858 3.17014C18.4026 3.17086 18.2199 3.19196 18.0408 3.23309L17.9375 3.47067L19.0359 4.00724L19.3415 3.30471Z" fill="#333333"/>
<path d="M19.1444 7.86948L18.046 7.33292L17.625 8.30091L18.7234 8.83747L19.1444 7.86948Z" fill="#333333"/>
<path d="M16.7893 5.05704L15.9612 4.65265C15.743 4.92969 15.5518 5.22953 15.3906 5.54756L16.3684 6.0253L16.7893 5.05704Z" fill="#333333"/>
<path d="M17.385 3.68742L17.1693 3.58218C16.8351 3.77884 16.5283 4.02398 16.2578 4.31055L16.964 4.65559L17.385 3.68742Z" fill="#333333"/>
<path d="M18.4422 5.37681L18.8631 4.40882L17.7647 3.87225L17.3438 4.84024L18.4422 5.37681Z" fill="#333333"/>
</svg>
