<svg width="24" height="24" viewBox="0 0 24 24" fill="none" xmlns="http://www.w3.org/2000/svg">
<path d="M19.5106 5.33065C19.4218 4.89579 19.0832 4.5571 18.6483 4.46839C18.607 4.45999 18.5657 4.45209 18.5244 4.44409C15.2546 4.85037 11.9013 6.44867 9.17756 9.17235C6.45381 11.896 4.85548 15.2492 4.44922 18.519C4.45718 18.5603 4.46509 18.6016 4.47349 18.6428C4.5622 19.0777 4.9009 19.4164 5.33577 19.5051C9.1532 20.2838 13.2761 19.1929 16.2372 16.2318C19.1984 13.2708 20.2893 9.14799 19.5106 5.33065Z" fill="#CE775F"/>
<path d="M15.1279 16.5982C11.6115 16.5982 8.58407 14.5046 7.22423 11.4958C5.68031 13.6961 4.74612 16.1297 4.44922 18.519C4.45718 18.5602 4.46509 18.6016 4.47349 18.6428C4.5622 19.0777 4.9009 19.4164 5.33577 19.5051C9.00658 20.2539 12.9597 19.2736 15.8908 16.5644C15.6394 16.5863 15.385 16.5982 15.1279 16.5982Z" fill="#C0694E"/>
<path d="M9.2875 9.28202C12.1339 6.43567 15.697 4.87005 19.0926 4.66836C18.9639 4.57147 18.8131 4.50194 18.6485 4.46836C14.8311 3.68962 10.7082 4.78053 7.74705 7.7416C4.7859 10.7027 3.695 14.8255 4.47372 18.6428C4.5073 18.8074 4.57684 18.9581 4.67373 19.0868C4.87546 15.6913 6.44109 12.1284 9.2875 9.28202Z" fill="#C0694E"/>
<path d="M6.54412 9.14355C4.50166 11.9294 3.81143 15.3965 4.47367 18.6428C4.50725 18.8074 4.57679 18.9582 4.67368 19.0869C4.82218 16.5868 5.71023 13.996 7.30438 11.6672C6.92945 10.8839 6.66915 10.0355 6.54412 9.14355Z" fill="#B25D46"/>
<path d="M5.19531 15.3934L9.43159 19.6295C10.2306 19.523 11.1715 19.2905 12.0613 18.9483L6.22021 13.1073C5.81292 13.8548 5.47097 14.62 5.19531 15.3934Z" fill="#B5DCFF"/>
<path d="M5.36156 15.5581C5.62176 14.7742 5.9528 13.9976 6.35344 13.239L5.02895 11.9146C5.02895 11.9146 5.02892 11.9146 5.02889 11.9147C4.69554 12.7816 4.47516 13.6516 4.34766 14.5442L5.36156 15.5581Z" fill="#8BCAFF"/>
<path d="M15.3994 5.19312C14.626 5.46877 13.8608 5.81071 13.1133 6.21799L18.9544 12.059C19.2796 11.2133 19.5084 10.331 19.6357 9.42932L15.3994 5.19312Z" fill="#DBEDFF"/>
<path d="M14.5516 4.34387C13.8408 4.43274 12.8451 4.6701 11.9219 5.02515L13.2464 6.3496C14.005 5.94901 14.7816 5.61794 15.5655 5.35775L14.5516 4.34387Z" fill="#B5DCFF"/>
<path d="M5.29463 19.7454C13.9094 21.5027 21.4996 13.8915 19.7458 5.29461C19.6366 4.75967 19.2198 4.35555 18.7008 4.24963C14.6561 3.42457 10.5016 4.67209 7.58682 7.58674C4.67209 10.5014 3.42457 14.656 4.24962 18.7004C4.35548 19.2197 4.76037 19.6364 5.29463 19.7454ZM4.57785 17.8362C4.45159 16.912 4.43504 15.9805 4.52775 15.0594L5.10047 15.6321C4.86569 16.3613 4.69102 17.0972 4.57785 17.8362ZM4.60347 14.4725C4.71273 13.7501 4.88925 13.0383 5.12958 12.3503L6.07317 13.2938C5.7728 13.8786 5.50301 14.49 5.26911 15.1381L4.60347 14.4725ZM5.38828 19.2863C5.20327 19.2486 5.04077 19.1532 4.91905 19.0198C4.9862 18.0103 5.17219 17.0024 5.47443 16.006L6.69911 17.2307C6.79064 17.3222 6.93895 17.3222 7.03044 17.2307C7.12193 17.1392 7.12193 16.9908 7.03044 16.8994L5.63633 15.5053C5.85305 14.8752 6.11484 14.254 6.42164 13.6423L11.6449 18.8655C10.9569 19.1058 10.245 19.2823 9.52267 19.3916L7.80351 17.6724C7.71202 17.581 7.56371 17.5809 7.47218 17.6724C7.38069 17.7639 7.38069 17.9123 7.47218 18.0037L8.93576 19.4673C7.76787 19.5844 6.57317 19.528 5.38828 19.2863ZM12.1273 18.6852L6.64879 13.2068C6.90671 12.7307 7.18981 12.2669 7.49755 11.8168L7.71099 12.0303C7.80251 12.1217 7.95082 12.1217 8.04231 12.0303C8.1338 11.9388 8.1338 11.7904 8.04231 11.699L7.77177 11.4284C7.8736 11.2886 7.97784 11.1501 8.08451 11.0131L8.33112 11.2597C8.42264 11.3512 8.57095 11.3512 8.66245 11.2597C8.75394 11.1682 8.75394 11.0198 8.66245 10.9284L8.37926 10.6452C8.48862 10.5127 8.60022 10.3817 8.71417 10.252L8.95123 10.4891C9.04275 10.5806 9.19106 10.5806 9.28255 10.4891C9.37404 10.3976 9.37404 10.2493 9.28255 10.1578L9.02901 9.90427C9.14558 9.77892 9.26437 9.65501 9.38535 9.53257L9.6215 9.76867C9.71302 9.86016 9.86133 9.86016 9.95282 9.76867C10.0443 9.67719 10.0443 9.52885 9.95282 9.43739L9.71905 9.20362C9.84337 9.08446 9.96922 8.96764 10.0964 8.85294L10.3419 9.09842C10.4335 9.18991 10.5818 9.18991 10.6733 9.09842C10.7647 9.00693 10.7647 8.85859 10.6733 8.76714L10.4496 8.54352C10.5812 8.43145 10.7141 8.32172 10.8486 8.21433L11.1126 8.4783C11.2041 8.56979 11.3524 8.56979 11.4439 8.4783C11.5354 8.38681 11.5354 8.23847 11.4439 8.14702L11.2216 7.92471C11.3606 7.82004 11.5011 7.71784 11.643 7.61807L11.8832 7.85821C11.9289 7.90397 11.9889 7.92684 12.0488 7.92684C12.1088 7.92684 12.1688 7.90397 12.2145 7.85821C12.306 7.76672 12.306 7.61838 12.2145 7.52693L12.0373 7.34973C12.418 7.09866 12.8081 6.86489 13.207 6.64886L15.5857 9.02742C15.6772 9.11891 15.8255 9.11885 15.917 9.02742C16.0085 8.93593 16.0085 8.7876 15.917 8.69614L13.6425 6.42172C14.2536 6.11523 14.8747 5.85335 15.5056 5.63642L19.3919 9.52263C19.2827 10.245 19.1062 10.9568 18.8658 11.6448L16.6901 9.46916C16.5986 9.37767 16.4503 9.37767 16.3588 9.46916C16.2673 9.56065 16.2673 9.70898 16.3588 9.80044L18.6855 12.1272C17.5108 15.0606 15.1608 17.4706 12.1273 18.6852ZM14.4728 4.60349L15.1384 5.26906C14.496 5.50089 13.884 5.77008 13.2941 6.07313L12.3505 5.12956C13.0385 4.88927 13.7504 4.71276 14.4728 4.60349ZM19.4676 8.93565L16.0063 5.47444C17.0027 5.1722 18.0106 4.98625 19.0201 4.91907C19.1535 5.04079 19.2489 5.20325 19.2867 5.38829C19.5284 6.57315 19.5848 7.76782 19.4676 8.93565ZM17.8368 4.57782C17.0977 4.69098 16.3617 4.86565 15.6323 5.10045L15.0594 4.52753C15.9951 4.43367 16.9249 4.45322 17.8368 4.57782ZM11.868 5.30979L12.8618 6.30358C12.4655 6.52267 12.0778 6.75872 11.6992 7.01157L11.3868 6.69915C11.2953 6.60766 11.147 6.60766 11.0555 6.69915C10.964 6.79064 10.964 6.93898 11.0555 7.03044L11.307 7.28201C11.1658 7.3824 11.0258 7.48516 10.8873 7.5903L10.6162 7.31921C10.5247 7.22772 10.3764 7.22772 10.2849 7.31921C10.1934 7.4107 10.1934 7.55904 10.2849 7.6505L10.5152 7.88083C10.3812 7.98859 10.2486 8.09876 10.1173 8.21108L9.84559 7.93933C9.75406 7.84784 9.60575 7.84784 9.51426 7.93933C9.42277 8.03082 9.42277 8.17916 9.51426 8.27062L9.76481 8.52116C9.63774 8.63604 9.51198 8.75296 9.38772 8.87218L9.12512 8.60958C9.0336 8.5181 8.88529 8.5181 8.7938 8.60958C8.7023 8.70107 8.7023 8.84941 8.7938 8.94087L9.05409 9.20116C8.93308 9.32357 8.81422 9.44742 8.69749 9.57264L8.45482 9.32997C8.3633 9.23848 8.21498 9.23848 8.12349 9.32997C8.032 9.42146 8.032 9.5698 8.12349 9.66126L8.38229 9.92004C8.26812 10.0494 8.15629 10.1803 8.04659 10.3124L7.83471 10.1006C7.74319 10.0091 7.59488 10.0091 7.50339 10.1006C7.4119 10.192 7.4119 10.3404 7.50339 10.4318L7.75069 10.6791C7.64361 10.8157 7.53878 10.9536 7.43639 11.0929L7.21458 10.8712C7.12305 10.7797 6.97474 10.7797 6.88325 10.8712C6.79176 10.9627 6.79176 11.111 6.88325 11.2025L7.16069 11.4799C6.85111 11.9276 6.5652 12.3884 6.30363 12.8616L5.30994 11.8679C5.89003 10.4161 6.77424 9.06194 7.91821 7.91803C9.06483 6.7714 10.4111 5.89315 11.868 5.30979Z" fill="black"/>
</svg>
