<svg width="24" height="24" viewBox="0 0 24 24" fill="none" xmlns="http://www.w3.org/2000/svg">
<path d="M11.9995 15.3203C14.7181 15.3203 17.2485 13.7679 18.4839 11.3541V8.09375C18.4839 7.93832 18.5456 7.7893 18.6555 7.67945L21.1709 5.16406H2.82812L5.34352 7.67945C5.4534 7.7893 5.51512 7.93832 5.51512 8.09375V11.3541C6.75051 13.7679 9.2809 15.3203 11.9995 15.3203ZM11.9995 14.1484C11.6759 14.1484 11.4136 13.8861 11.4136 13.5625C11.4136 13.2389 11.6759 12.9766 11.9995 12.9766C12.3231 12.9766 12.5854 13.2389 12.5854 13.5625C12.5854 13.8861 12.3231 14.1484 11.9995 14.1484ZM14.3432 13.5204C14.0196 13.5204 13.7573 13.2581 13.7573 12.9345C13.7573 12.6109 14.0196 12.3486 14.3432 12.3486C14.6668 12.3486 14.9292 12.6109 14.9292 12.9345C14.9292 13.2581 14.6668 13.5204 14.3432 13.5204ZM16.687 8.28906C17.0106 8.28906 17.2729 8.55141 17.2729 8.875C17.2729 9.19859 17.0106 9.46094 16.687 9.46094C16.3634 9.46094 16.1011 9.19859 16.1011 8.875C16.1011 8.55141 16.3634 8.28906 16.687 8.28906ZM16.059 10.6328C16.3826 10.6328 16.6449 10.8952 16.6449 11.2188C16.6449 11.5423 16.3826 11.8047 16.059 11.8047C15.7354 11.8047 15.473 11.5423 15.473 11.2188C15.473 10.8952 15.7354 10.6328 16.059 10.6328ZM9.65574 7.50781H14.3432C14.6668 7.50781 14.9292 7.77016 14.9292 8.09375C14.9292 8.41734 14.6668 8.67969 14.3432 8.67969H9.65574C9.33215 8.67969 9.06981 8.41734 9.06981 8.09375C9.06981 7.77016 9.33215 7.50781 9.65574 7.50781ZM9.65574 12.3486C9.97934 12.3486 10.2417 12.6109 10.2417 12.9345C10.2417 13.2581 9.97934 13.5204 9.65574 13.5204C9.33215 13.5204 9.06981 13.2581 9.06981 12.9345C9.06981 12.6109 9.33215 12.3486 9.65574 12.3486ZM8.52594 11.2188C8.52594 11.5423 8.26359 11.8047 7.94 11.8047C7.61641 11.8047 7.35406 11.5423 7.35406 11.2188C7.35406 10.8952 7.61641 10.6328 7.94 10.6328C8.26359 10.6328 8.52594 10.8952 8.52594 11.2188ZM7.31199 8.28906C7.63559 8.28906 7.89793 8.55141 7.89793 8.875C7.89793 9.19859 7.63559 9.46094 7.31199 9.46094C6.9884 9.46094 6.72606 9.19859 6.72606 8.875C6.72606 8.55141 6.9884 8.28906 7.31199 8.28906Z" fill="#333333"/>
<path d="M19.6562 8.33647V11.4924C19.6562 11.5815 19.6359 11.6694 19.5968 11.7496C18.9024 13.171 17.8258 14.3661 16.4835 15.2057C15.1378 16.0473 13.5874 16.4922 12 16.4922C10.4125 16.4922 8.86215 16.0473 7.51648 15.2056C6.17414 14.3661 5.09754 13.171 4.4032 11.7495C4.36406 11.6694 4.34375 11.5815 4.34375 11.4923V8.33643L2 5.99268V12C2 12.0808 2.01672 12.1608 2.04914 12.2349L2.10617 12.3653C3.82586 16.2961 7.70941 18.836 12 18.836C16.2905 18.836 20.1741 16.2961 21.8938 12.3653L21.9508 12.2349C21.9832 12.1608 22 12.0809 22 12V5.99271L19.6562 8.33647Z" fill="#333333"/>
</svg>
