<svg width="20" height="20" viewBox="0 0 20 20" fill="none" xmlns="http://www.w3.org/2000/svg">
<g clip-path="url(#clip0_1107_6924)">
<path d="M0.873705 3.676L10.9185 13.7208C11.1434 13.9457 11.3991 14.1376 11.6778 14.2908L13.4589 15.2695C13.7377 15.4227 13.9933 15.6146 14.2182 15.8395L16.8862 18.5075L18.5093 16.8844L15.8413 14.2164C15.6164 13.9915 15.4245 13.7359 15.2713 13.4571L14.2926 11.676C14.1394 11.3972 13.9475 11.1416 13.7226 10.9167L3.67777 0.871935C2.90346 0.0976201 1.64802 0.0976201 0.873705 0.871935C0.0993901 1.64625 0.0993901 2.90169 0.873705 3.676Z" fill="#FED2A4"/>
<path d="M13.7232 10.9168L8.48393 5.67749L4.66406 7.46573L10.9192 13.7208C11.1441 13.9458 11.3998 14.1377 11.6785 14.2908L13.4596 15.2695C13.7384 15.4227 13.994 15.6146 14.2189 15.8396L14.2556 15.8762V11.6104C14.1089 11.3572 13.9303 11.1238 13.7232 10.9168Z" fill="#FFBD86"/>
<path d="M19.5544 17.6711L17.6722 19.5533C17.4663 19.7592 17.1324 19.7592 16.9265 19.5533L16.756 19.3829C16.5501 19.1769 16.5501 18.843 16.756 18.6371L18.6382 16.7549C18.8441 16.549 19.178 16.549 19.384 16.7549L19.5544 16.9254C19.7603 17.1313 19.7603 17.4652 19.5544 17.6711Z" fill="#FFE5C2"/>
<path d="M7.35987 14.2977H4.27734V9.31326L7.35987 8.29346V14.2977Z" fill="#C57A44"/>
<path d="M11.8005 19.7078H5.16638C4.67539 19.7078 4.27734 19.3097 4.27734 18.8187V16.5646H12.6895V18.8187C12.6895 19.3097 12.2915 19.7078 11.8005 19.7078Z" fill="#C57A44"/>
<path d="M13.3835 14.072V7.58868C13.3835 7.14352 13.0345 6.76721 12.5895 6.75501C12.1278 6.74239 11.7496 7.11285 11.7496 7.57169C11.7496 7.12049 11.3838 6.7547 10.9326 6.7547C10.4814 6.7547 10.1156 7.12049 10.1156 7.57169C10.1156 7.12049 9.74983 6.7547 9.29863 6.7547C8.84743 6.7547 8.48165 7.12049 8.48165 7.57169C8.48165 7.11285 8.10339 6.74235 7.64171 6.75501C7.19671 6.76721 6.84772 7.14352 6.84772 7.58868V12.3853C6.84772 12.975 6.36963 13.4531 5.77991 13.4531C5.19018 13.4531 4.71209 12.975 4.71209 12.3853V9.12745C4.71209 8.68229 4.36306 8.30598 3.91806 8.29379C3.45638 8.28112 3.07812 8.65162 3.07812 9.11046V14.072C3.07812 16.5121 5.05625 18.4902 7.49637 18.4902H8.96527C11.4054 18.4902 13.3835 16.5121 13.3835 14.072Z" fill="#EA9B58"/>
<path d="M12.59 6.75504C12.5554 6.75411 12.5214 6.75555 12.4878 6.75878V12.903C12.4878 15.3431 10.5097 17.3212 8.06957 17.3212H6.60067C5.43716 17.3212 4.37889 16.8712 3.58984 16.1361C4.33104 17.5362 5.80243 18.4902 7.49692 18.4902H8.96582C11.4059 18.4902 13.3841 16.5122 13.3841 14.072V7.5887C13.3841 7.14354 13.035 6.76724 12.59 6.75504Z" fill="#D88A55"/>
<path d="M7.1601 15.8324C8.49332 15.8324 9.57411 14.7516 9.57411 13.4183C9.57411 12.0851 8.49332 11.0043 7.1601 11.0043C5.82688 11.0043 4.74609 12.0851 4.74609 13.4183C4.74609 14.7516 5.82688 15.8324 7.1601 15.8324Z" fill="#F3EAE6"/>
<path d="M7.1601 15.8324C8.49332 15.8324 9.57411 14.7516 9.57411 13.4183C9.57411 12.0851 8.49332 11.0043 7.1601 11.0043C5.82688 11.0043 4.74609 12.0851 4.74609 13.4183C4.74609 14.7516 5.82688 15.8324 7.1601 15.8324Z" fill="#F3EAE6"/>
<path d="M8.43295 11.3669C8.66255 11.7363 8.7955 12.1721 8.7955 12.639C8.7955 13.9722 7.71471 15.053 6.38149 15.053C5.91451 15.053 5.47878 14.9201 5.10938 14.6905C5.53525 15.3758 6.2946 15.8324 7.16084 15.8324C8.49405 15.8324 9.57484 14.7516 9.57484 13.4183C9.57484 12.5521 9.11831 11.7928 8.43295 11.3669Z" fill="#EBE2DE"/>
<path d="M11.7493 13.126C11.5878 13.126 11.457 13.2569 11.457 13.4183V13.7804C11.457 13.9418 11.5878 14.0727 11.7493 14.0727C11.9107 14.0727 12.0415 13.9418 12.0415 13.7804V13.4183C12.0415 13.2569 11.9107 13.126 11.7493 13.126Z" fill="black"/>
<path d="M11.7493 14.2941C11.5878 14.2941 11.457 14.425 11.457 14.5864V14.9485C11.457 15.1099 11.5878 15.2408 11.7493 15.2408C11.9107 15.2408 12.0415 15.1099 12.0415 14.9485V14.5864C12.0415 14.425 11.9107 14.2941 11.7493 14.2941Z" fill="black"/>
<path d="M19.76 16.7187L19.5895 16.5482C19.4347 16.3934 19.2289 16.3082 19.01 16.3082C18.8279 16.3082 18.6553 16.3679 18.5132 16.4768L16.0462 14.0098C15.8407 13.8043 15.6655 13.571 15.5257 13.3163L14.5469 11.5353C14.3804 11.2322 14.172 10.9545 13.9275 10.71C13.9275 10.71 13.7055 10.4972 13.6756 10.4832V7.58864C13.6756 6.98414 13.1919 6.47913 12.5973 6.46284C12.2956 6.45482 12.0093 6.56599 11.7929 6.77661C11.7778 6.7913 11.7632 6.80634 11.749 6.82169C11.5461 6.60094 11.2551 6.46241 10.9324 6.46241C10.6095 6.46241 10.3183 6.6011 10.1154 6.82208C10.0258 6.72447 9.91892 6.64299 9.79976 6.58235L7.36482 4.14738C7.25065 4.03325 7.06563 4.03321 6.9515 4.14738C6.83737 4.26152 6.83737 4.44657 6.9515 4.56067L8.92004 6.52924C8.75119 6.59073 8.60121 6.69181 8.48185 6.82165C8.46771 6.80626 8.4531 6.79122 8.43798 6.77653C8.22148 6.56591 7.93589 6.45454 7.63346 6.46276C7.03894 6.47909 6.55524 6.9841 6.55524 7.58856V8.251L6.03309 8.42374L1.07858 3.46935C0.759283 3.15006 0.583425 2.72555 0.583425 2.274C0.583425 1.82245 0.759283 1.3979 1.07862 1.07861C1.73771 0.41948 2.81024 0.41948 3.46933 1.07861L6.03281 3.64213C6.14695 3.75627 6.33196 3.75627 6.44614 3.64213C6.56027 3.528 6.56027 3.34294 6.44614 3.22885L3.88265 0.665285C2.9956 -0.2218 1.55234 -0.221723 0.665255 0.665285C-0.221752 1.55233 -0.221752 2.99563 0.665255 3.88264L5.41199 8.62933L4.94961 8.78232C4.80745 8.34179 4.40243 8.01467 3.92586 8.00161C3.62414 7.99327 3.33781 8.10476 3.12143 8.31538C2.90489 8.52603 2.78569 8.80839 2.78569 9.11042V14.072C2.78569 15.2745 3.23887 16.3731 3.98311 17.2063V18.8188C3.98311 19.4701 4.51302 20 5.16435 20H5.40825C5.56969 20 5.7005 19.8691 5.7005 19.7077C5.7005 19.5463 5.56969 19.4155 5.40825 19.4155H5.16435C4.83532 19.4155 4.56761 19.1478 4.56761 18.8188V17.7587C5.3722 18.3992 6.39022 18.7825 7.49614 18.7825H8.96504C10.3159 18.7825 11.5355 18.2107 12.3952 17.2967V18.8187C12.3952 19.1477 12.1275 19.4155 11.7985 19.4155H6.81114C6.6497 19.4155 6.51889 19.5463 6.51889 19.7077C6.51889 19.8691 6.6497 20 6.81114 20H11.7986C12.4499 20 12.9798 19.47 12.9798 18.8187V16.5646C12.9798 16.5548 12.9793 16.5451 12.9783 16.5355C13.1606 16.2398 13.3111 15.9226 13.425 15.5885C13.6375 15.7168 13.8339 15.8703 14.0098 16.0461L16.4768 18.5132C16.3679 18.6553 16.3082 18.8279 16.3082 19.0099C16.3082 19.2288 16.3935 19.4347 16.5483 19.5895L16.7187 19.7599C16.8735 19.9147 17.0793 20 17.2982 20C17.5171 20 17.7229 19.9147 17.8777 19.7599L19.76 17.8777C20.0795 17.5582 20.0795 17.0383 19.76 16.7187ZM7.15818 15.5401C5.98823 15.5401 5.03643 14.5883 5.03643 13.4183C5.03643 13.407 5.03713 13.3958 5.03728 13.3845C5.04847 13.3843 5.05965 13.3839 5.07079 13.3839C6.24074 13.3839 7.19255 14.3357 7.19255 15.5057C7.19255 15.5168 7.1922 15.528 7.192 15.5392C7.1807 15.5394 7.16952 15.5401 7.15818 15.5401ZM7.77558 15.4482C7.74514 14.0017 6.5748 12.8313 5.12831 12.8009C5.33378 12.1267 5.86654 11.5939 6.54079 11.3885C6.57122 12.835 7.74156 14.0053 9.18805 14.0357C8.98254 14.7099 8.44982 15.2427 7.77558 15.4482ZM9.27908 13.4521C9.2679 13.4523 9.25671 13.4527 9.24557 13.4527C8.07562 13.4527 7.12381 12.5009 7.12381 11.3309C7.12381 11.3198 7.1242 11.3086 7.12436 11.2974C7.13566 11.2973 7.14684 11.2965 7.15818 11.2965C8.32813 11.2965 9.27994 12.2484 9.27994 13.4183C9.27994 13.4296 9.27927 13.4408 9.27908 13.4521ZM6.55528 10.7806C5.92745 10.9241 5.38214 11.286 5.00416 11.7824V9.37996L6.55528 8.8668V10.7806ZM13.0911 14.072C13.0911 16.347 11.2402 18.198 8.96512 18.198H7.49622C5.22113 18.198 3.37023 16.347 3.37023 14.072V9.11042C3.37023 8.96753 3.42662 8.83399 3.52906 8.73431C3.63147 8.63471 3.76696 8.58246 3.90989 8.58589C4.19096 8.5936 4.41965 8.83652 4.41965 9.12737C4.41965 9.12737 4.45188 13.2781 4.45188 13.4182C4.45188 14.9105 5.6659 16.1245 7.15814 16.1245C7.27095 16.1245 7.38189 16.1167 7.49112 16.1033C7.49349 16.1031 7.49583 16.1027 7.49821 16.1024C8.83041 15.9345 9.86444 14.7952 9.86444 13.4183C9.86444 11.926 8.65042 10.712 7.15818 10.712C7.15202 10.712 7.14595 10.7124 7.13979 10.7125V7.58864C7.13979 7.29775 7.36845 7.05483 7.64952 7.04711C7.79284 7.04314 7.92798 7.0959 8.03034 7.19554C8.13279 7.29522 8.18921 7.4288 8.18921 7.57165V10.1865C8.18921 10.3479 8.32002 10.4788 8.48146 10.4788C8.6429 10.4788 8.77372 10.3479 8.77372 10.1865V7.57169C8.77372 7.28236 9.00912 7.04696 9.29845 7.04696C9.58766 7.04696 9.82294 7.28212 9.82314 7.5713V7.57169V11.674C9.82314 11.8354 9.95395 11.9663 10.1154 11.9663C10.2768 11.9663 10.4076 11.8354 10.4076 11.674V7.57243C10.4076 7.57216 10.4077 7.57192 10.4077 7.57169C10.4077 7.28236 10.6431 7.04696 10.9324 7.04696C11.2216 7.04696 11.4569 7.28212 11.4571 7.5713V7.57169V12.3263C11.4571 12.4877 11.5879 12.6185 11.7494 12.6185C11.9108 12.6185 12.0416 12.4877 12.0416 12.3263V7.57243C12.0416 7.57216 12.0416 7.57192 12.0416 7.57169C12.0416 7.4288 12.098 7.29522 12.2005 7.19554C12.3029 7.0959 12.4375 7.04372 12.5813 7.04715C12.8623 7.05487 13.091 7.29779 13.091 7.58868V14.072H13.0911ZM13.5979 15.0133C13.5928 15.0105 13.5876 15.0083 13.5824 15.0059C13.6434 14.7039 13.6756 14.3917 13.6756 14.072V11.2982C13.8125 11.4582 13.933 11.6318 14.0347 11.8168L15.0134 13.5978C15.1799 13.9009 15.3883 14.1786 15.6329 14.4231L18.0942 16.8845L16.8845 18.0942L14.4231 15.6328C14.1786 15.3883 13.9009 15.1799 13.5979 15.0133ZM19.3466 17.4645L17.4644 19.3466C17.42 19.3911 17.361 19.4155 17.2982 19.4155C17.2354 19.4155 17.1764 19.3911 17.132 19.3466L16.9615 19.1762C16.9171 19.1318 16.8927 19.0727 16.8927 19.01C16.8927 18.9472 16.9171 18.8882 16.9616 18.8437L18.8438 16.9615C18.8882 16.9171 18.9472 16.8926 19.01 16.8926C19.0728 16.8926 19.1318 16.9171 19.1762 16.9615L19.3466 17.1319C19.4383 17.2236 19.4383 17.3728 19.3466 17.4645Z" fill="black"/>
</g>
<defs>
<clipPath id="clip0_1107_6924">
<rect width="20" height="20" fill="white"/>
</clipPath>
</defs>
</svg>
