<svg width="24" height="24" viewBox="0 0 24 24" fill="none" xmlns="http://www.w3.org/2000/svg">
<g clip-path="url(#clip0_1053_21021)">
<path d="M12 21C16.9706 21 21 16.9706 21 12C21 7.02944 16.9706 3 12 3C7.02944 3 3 7.02944 3 12C3 16.9706 7.02944 21 12 21Z" fill="#F26635"/>
<path opacity="0.15" d="M21.0014 12C21.0016 13.662 20.5415 15.2915 19.6723 16.7081C18.803 18.1246 17.5585 19.2728 16.0767 20.0253C14.5949 20.7779 12.9336 21.1054 11.2771 20.9717C9.62047 20.8379 8.03329 20.2481 6.69141 19.2675C8.69433 20.3727 11.043 20.6738 13.2599 20.1094C15.4768 19.5451 17.3957 18.1577 18.6263 16.2293C19.857 14.3009 20.3072 11.9763 19.8853 9.72787C19.4634 7.47947 18.2012 5.4761 16.3552 4.125C17.7625 4.90287 18.9357 6.04359 19.7528 7.42852C20.5699 8.81344 21.0011 10.392 21.0014 12Z" fill="#020202"/>
<path opacity="0.2" d="M14.1094 8.71219C14.1092 9.9602 13.7768 11.1857 13.1464 12.2627C12.516 13.3398 11.6102 14.2297 10.5222 14.841C9.43417 15.4523 8.20304 15.763 6.95522 15.7412C5.7074 15.7194 4.48788 15.3658 3.42188 14.7169C3.14201 13.8384 2.99971 12.922 3 12C2.99999 11.5728 3.03006 11.1461 3.09 10.7231C3.37841 8.71134 4.33925 6.85639 5.81612 5.4602C7.29299 4.06401 9.19894 3.2088 11.2237 3.03375C12.1187 3.68538 12.8467 4.5396 13.3483 5.52654C13.8498 6.51348 14.1106 7.60512 14.1094 8.71219Z" fill="white"/>
<path opacity="0.15" d="M11.5442 8.71221C11.5443 9.71709 11.2055 10.6926 10.5826 11.4812C9.9597 12.2697 9.08907 12.8251 8.11147 13.0576C7.13386 13.2902 6.1064 13.1862 5.19517 12.7626C4.28395 12.339 3.5422 11.6205 3.08984 10.7231C3.28028 9.39046 3.76725 8.11748 4.5149 6.99795C5.26254 5.87843 6.25182 4.94089 7.40984 4.25439C8.53448 4.33819 9.58577 4.84434 10.3526 5.67121C11.1195 6.49809 11.5452 7.58446 11.5442 8.71221Z" fill="#F1F2F2"/>
<path d="M7.46906 9.13407C7.12231 9.86325 6.84999 10.6255 6.65625 11.4094C7.34406 11.7901 7.94396 12.3114 8.41687 12.9394C9.54407 14.2877 10.5466 15.7355 11.4122 17.265C12.109 18.5599 13.1898 19.6073 14.5059 20.2631C14.6705 20.3448 14.8395 20.4171 15.0122 20.4797C14.6966 20.5928 14.3744 20.6868 14.0475 20.7609C12.6881 20.0392 11.5726 18.9315 10.8412 17.5772C9.99044 16.0888 9.01175 14.6772 7.91625 13.3584C7.52735 12.8509 7.05117 12.4166 6.51 12.0759C6.12187 14.07 6.1275 16.4663 6.79125 19.3463C6.51282 19.1512 6.24611 18.9399 5.9925 18.7134C5.50039 16.4394 5.47837 14.0888 5.92781 11.8059C5.64051 11.6984 5.3373 11.6395 5.03062 11.6316C4.30626 11.6383 3.59995 11.8584 3 12.2644C3 12.1772 3 12.0872 3 12C3 11.8313 3 11.6597 3.01687 11.4966C3.63806 11.1519 4.33709 10.9718 5.0475 10.9734C5.3983 10.9827 5.74555 11.0462 6.07687 11.1619C6.27652 10.4002 6.54772 9.65908 6.88687 8.94845C5.37656 8.4872 4.28531 8.24251 3.86062 8.15813C3.95625 7.95282 4.06031 7.75313 4.17281 7.55626C4.71844 7.67438 5.78156 7.92751 7.18219 8.36063C7.49748 7.78386 7.85766 7.23279 8.25937 6.71251C8.00655 6.65876 7.76855 6.55034 7.56206 6.39487C7.35557 6.23939 7.1856 6.04063 7.06406 5.81251C6.89298 5.43092 6.83162 5.00921 6.88687 4.59469C7.12788 4.42373 7.37862 4.2669 7.63781 4.12501C7.47559 4.57972 7.47559 5.07654 7.63781 5.53126C7.80937 5.86595 8.14406 6.06563 8.67 6.15282H8.70375C9.82311 4.86754 11.1777 3.80792 12.6947 3.03094C13.0968 3.05911 13.4962 3.11645 13.89 3.20251C12.1712 3.87244 10.631 4.93136 9.39 6.29626C10.2731 6.42563 12.1294 6.57751 15.4537 6.34688C16.69 6.26874 17.9312 6.33481 19.1522 6.54376C19.3443 6.79451 19.5227 7.05552 19.6866 7.32563C18.3141 7.01912 16.905 6.90927 15.5016 6.99938C11.5641 7.28063 9.63469 7.02188 8.895 6.87282C8.47158 7.40149 8.09515 7.96614 7.77 8.56032C11.0887 9.64313 15.9769 11.6681 20.4262 15.1894C20.3471 15.3984 20.2569 15.603 20.1562 15.8025C15.7012 12.225 10.7709 10.2 7.46906 9.13407Z" fill="black"/>
</g>
<defs>
<clipPath id="clip0_1053_21021">
<rect width="18" height="18" fill="white" transform="translate(3 3)"/>
</clipPath>
</defs>
</svg>
