<svg width="24" height="24" viewBox="0 0 24 24" fill="none" xmlns="http://www.w3.org/2000/svg">
<g clip-path="url(#clip0_980_6300)">
<path d="M21.1878 16.1808L16.4859 3.26021C16.3223 2.81289 15.988 2.44872 15.5562 2.24755C15.1245 2.04639 14.6306 2.02464 14.1828 2.18709L10.6172 3.48396H13.2503C14.0167 3.48479 14.7515 3.7896 15.2934 4.33152C15.8353 4.87344 16.1401 5.6082 16.1409 6.37459V19.9302L20.1147 18.484C20.5621 18.3204 20.9263 17.9861 21.1275 17.5543C21.3286 17.1225 21.3503 16.6286 21.1878 16.1808Z" fill="#333333"/>
<path d="M11.0033 13.9165C11.2038 13.7157 11.3164 13.4435 11.3164 13.1597C11.3164 12.876 11.2038 12.6038 11.0033 12.403L8.87421 10.2737L6.74515 12.4027C6.64575 12.5021 6.56691 12.6201 6.51312 12.75C6.45933 12.8798 6.43164 13.019 6.43164 13.1596C6.43164 13.3002 6.45933 13.4393 6.51312 13.5692C6.56691 13.6991 6.64575 13.8171 6.74515 13.9165C6.84454 14.0159 6.96254 14.0947 7.09241 14.1485C7.22227 14.2023 7.36146 14.23 7.50202 14.23C7.64259 14.23 7.78178 14.2023 7.91164 14.1485C8.04151 14.0947 8.1595 14.0159 8.2589 13.9165L8.48765 13.6877C8.53841 13.6369 8.59869 13.5966 8.66505 13.5691C8.73141 13.5415 8.80253 13.5274 8.87437 13.5274C8.9462 13.5274 9.01733 13.5415 9.08368 13.5691C9.15004 13.5966 9.21032 13.6369 9.26109 13.6877L9.48984 13.9165C9.69071 14.1168 9.96284 14.2293 10.2466 14.2293C10.5303 14.2293 10.8024 14.1168 11.0033 13.9165Z" fill="#333333"/>
<path d="M13.25 4.57812H4.5C4.02359 4.57862 3.56684 4.76809 3.22997 5.10497C2.89309 5.44184 2.70362 5.89859 2.70312 6.375V20.125C2.70362 20.6014 2.89309 21.0582 3.22997 21.395C3.56684 21.7319 4.02359 21.9214 4.5 21.9219H13.25C13.7264 21.9214 14.1832 21.7319 14.52 21.395C14.8569 21.0582 15.0464 20.6014 15.0469 20.125V6.375C15.0464 5.89859 14.8569 5.44184 14.52 5.10497C14.1832 4.76809 13.7264 4.57862 13.25 4.57812ZM4.89062 8.25C4.8188 8.25004 4.74766 8.23592 4.6813 8.20846C4.61493 8.18099 4.55462 8.14071 4.50383 8.08992C4.45304 8.03913 4.41276 7.97882 4.38529 7.91245C4.35783 7.84609 4.34371 7.77495 4.34375 7.70312V6.76562C4.34375 6.62058 4.40137 6.48148 4.50393 6.37893C4.60648 6.27637 4.74558 6.21875 4.89062 6.21875C5.03567 6.21875 5.17477 6.27637 5.27732 6.37893C5.37988 6.48148 5.4375 6.62058 5.4375 6.76562V7.70312C5.43754 7.77495 5.42342 7.84609 5.39596 7.91245C5.36849 7.97882 5.32821 8.03913 5.27742 8.08992C5.22663 8.14071 5.16632 8.18099 5.09995 8.20846C5.03359 8.23592 4.96245 8.25004 4.89062 8.25ZM10.125 16.4531C10.27 16.4531 10.4091 16.5107 10.5117 16.6133C10.6143 16.7159 10.6719 16.855 10.6719 17C10.6719 17.145 10.6143 17.2841 10.5117 17.3867C10.4091 17.4893 10.27 17.5469 10.125 17.5469H7.625C7.47996 17.5469 7.34086 17.4893 7.2383 17.3867C7.13574 17.2841 7.07812 17.145 7.07812 17C7.07812 16.855 7.13574 16.7159 7.2383 16.6133C7.34086 16.5107 7.47996 16.4531 7.625 16.4531H8.32812V15.16C7.86544 15.3512 7.3508 15.376 6.87186 15.2303C6.39292 15.0846 5.97932 14.7773 5.70151 14.3608C5.4237 13.9444 5.29887 13.4445 5.34828 12.9463C5.39769 12.4481 5.61829 11.9825 5.9725 11.6287L8.48844 9.11312C8.53917 9.06231 8.59943 9.022 8.66576 8.99449C8.73209 8.96698 8.80319 8.95283 8.875 8.95283C8.94681 8.95283 9.01791 8.96698 9.08424 8.99449C9.15057 9.022 9.21083 9.06231 9.26156 9.11312L11.7775 11.6291C12.1321 11.9827 12.3531 12.4484 12.4027 12.9468C12.4523 13.4451 12.3275 13.9452 12.0496 14.3619C11.7716 14.7785 11.3578 15.0858 10.8786 15.2314C10.3994 15.377 9.8846 15.3519 9.42188 15.1603V16.4531H10.125ZM13.4062 19.7344C13.4062 19.8794 13.3486 20.0185 13.2461 20.1211C13.1435 20.2236 13.0044 20.2812 12.8594 20.2812C12.7143 20.2812 12.5752 20.2236 12.4727 20.1211C12.3701 20.0185 12.3125 19.8794 12.3125 19.7344V18.7969C12.3125 18.6518 12.3701 18.5127 12.4727 18.4102C12.5752 18.3076 12.7143 18.25 12.8594 18.25C13.0044 18.25 13.1435 18.3076 13.2461 18.4102C13.3486 18.5127 13.4062 18.6518 13.4062 18.7969V19.7344Z" fill="#333333"/>
</g>
<defs>
<clipPath id="clip0_980_6300">
<rect width="20" height="20" fill="white" transform="translate(2 2)"/>
</clipPath>
</defs>
</svg>
