<svg width="24" height="24" viewBox="0 0 24 24" fill="none" xmlns="http://www.w3.org/2000/svg">
<g clip-path="url(#clip0_1053_21087)">
<path d="M9.60938 13.125L8.93156 13.9884L8.90625 13.9688L8.625 11.4375H10.0312L10.3125 12.5625L10.3294 12.6244C10.0421 12.7102 9.78988 12.8856 9.60938 13.125Z" fill="#E1EAF2"/>
<path d="M13.9456 14.5285C14.0472 14.567 14.1548 14.587 14.2634 14.5875C14.496 14.5887 14.7195 14.4977 14.885 14.3344L16.2406 15.9178L16.2181 15.9375V18.1875L15.3097 19.5516L14.5306 20.7188H8.06187L7.78906 18.5419L8.62437 17.625L9.46812 17.0625L11.7181 15.6563L11.7631 15.6394C11.8273 15.828 11.9562 15.9879 12.1269 16.0906C12.2977 16.1933 12.4993 16.2323 12.696 16.2007C12.8927 16.169 13.0719 16.0687 13.2018 15.9176C13.3317 15.7665 13.4039 15.5743 13.4056 15.375V14.0419C13.4062 13.9892 13.4024 13.9365 13.3944 13.8844L13.4141 13.8816C13.4387 14.0263 13.5007 14.1622 13.5939 14.2756C13.6872 14.3891 13.8084 14.4762 13.9456 14.5285Z" fill="#E1EAF2"/>
<path d="M12.1772 5.53125C12.1187 5.53115 12.0602 5.53681 12.0028 5.54813L12 5.53125C11.7016 5.53125 11.4155 5.41272 11.2045 5.20175C10.9935 4.99077 10.875 4.70462 10.875 4.40625C10.875 3.82406 11.2069 3.34594 11.6316 3.28687C11.6597 3.28406 11.6906 3.28125 11.7188 3.28125H15.0938C15.1219 3.28125 15.1528 3.28406 15.1809 3.28687C15.6056 3.34594 15.9375 3.82406 15.9375 4.40625C15.9375 4.70462 15.819 4.99077 15.608 5.20175C15.397 5.41272 15.1109 5.53125 14.8125 5.53125L14.8097 5.54813C14.7523 5.53681 14.6938 5.53115 14.6353 5.53125H14.1713C14.0385 5.5313 13.9076 5.56211 13.7888 5.62125C13.6699 5.68044 13.539 5.71125 13.4062 5.71125C13.2735 5.71125 13.1426 5.68044 13.0237 5.62125C12.9049 5.56211 12.774 5.5313 12.6412 5.53125H12.1772Z" fill="#E1EAF2"/>
<path d="M12.5227 10.5938C12.1299 10.593 11.7442 10.4896 11.4038 10.2937C11.0633 10.0979 10.78 9.81637 10.582 9.47719L10.5933 9.46875C10.5933 9.24497 10.6822 9.03036 10.8404 8.87213C10.9986 8.71389 11.2133 8.625 11.437 8.625C11.5921 9.02521 11.8538 9.37535 12.1936 9.6375C12.5436 9.89796 12.9695 10.0363 13.4058 10.0312C13.8391 10.0292 14.261 9.89283 14.6136 9.64099C14.9662 9.38914 15.232 9.03419 15.3745 8.625C15.5983 8.625 15.8129 8.71389 15.9712 8.87213C16.1294 9.03036 16.2183 9.24497 16.2183 9.46875L16.2295 9.47719C16.0325 9.81722 15.7494 10.0994 15.4088 10.2954C15.0681 10.4914 14.6819 10.5943 14.2889 10.5938H12.5227Z" fill="#9863FC"/>
<path d="M15.1798 3.28687C15.6114 3.30837 16.0182 3.49495 16.3161 3.808C16.614 4.12105 16.7801 4.53662 16.7802 4.96874V6.93749L16.5102 8.68686C16.4677 8.96584 16.3722 9.23411 16.2289 9.47718L16.2177 9.46874C16.2177 9.24496 16.1288 9.03035 15.9705 8.87212C15.8123 8.71388 15.5977 8.62499 15.3739 8.62499C15.2075 8.5623 15.0656 8.44796 14.9689 8.29874C14.8677 8.14499 14.813 7.9653 14.8114 7.78124C14.8112 7.59978 14.8698 7.42313 14.9782 7.27765C15.0867 7.13218 15.2393 7.02568 15.4133 6.97405C15.4844 6.9502 15.5461 6.90441 15.5896 6.84326C15.6331 6.78211 15.656 6.70876 15.6552 6.63374C15.6548 6.46469 15.6049 6.29945 15.5117 6.15843L15.3458 5.91093C15.2215 5.72393 15.0285 5.59354 14.8086 5.54812L14.8114 5.53124C15.1098 5.53124 15.3959 5.41271 15.6069 5.20174C15.8179 4.99076 15.9364 4.70461 15.9364 4.40624C15.9364 3.82405 15.6045 3.34593 15.1798 3.28687Z" fill="#2B8FFC"/>
<path d="M10.875 4.40624C10.875 4.70461 10.9935 4.99076 11.2045 5.20174C11.4155 5.41271 11.7016 5.53124 12 5.53124L12.0028 5.54812C11.7829 5.59354 11.5899 5.72393 11.4656 5.91093L11.2997 6.15843C11.2065 6.29945 11.1566 6.46469 11.1562 6.63374C11.1554 6.70876 11.1783 6.78211 11.2218 6.84326C11.2653 6.90441 11.327 6.9502 11.3981 6.97405C11.5701 7.02564 11.7216 7.12991 11.8312 7.27218C11.9414 7.419 12.0006 7.59772 12 7.78124C12.0012 7.96198 11.9483 8.13894 11.8481 8.28932C11.7478 8.43971 11.6048 8.55662 11.4375 8.62499C11.2137 8.62499 10.9991 8.71388 10.8409 8.87212C10.6826 9.03035 10.5938 9.24496 10.5938 9.46874L10.5825 9.47718C10.4392 9.23411 10.3437 8.96584 10.3012 8.68686L10.0312 6.93749V4.96874C10.0313 4.53662 10.1974 4.12105 10.4953 3.808C10.7932 3.49495 11.2 3.30837 11.6316 3.28687C11.2069 3.34593 10.875 3.82405 10.875 4.40624Z" fill="#2B8FFC"/>
<path d="M8.0625 15.0938L9.46875 17.0625L8.625 17.625L7.21875 15.6562L8.0625 15.0938Z" fill="#FDFEFF"/>
<path d="M17.5744 15.9122L18.4688 15.6562L18.75 16.5L16.7812 17.0625L16.5 16.2188L17.5744 15.9122Z" fill="#FDFEFF"/>
<path d="M15.6573 13.4062L17.5755 15.9122L16.5011 16.2188L16.2423 15.9178L14.8867 14.3344C14.9474 14.274 14.9987 14.2048 15.0386 14.1291L15.6573 13.4062Z" fill="#2864F0"/>
<path d="M11.7188 15.375C11.7177 15.4651 11.7329 15.5547 11.7638 15.6394L11.7188 15.6562L9.46875 17.0625L8.90625 16.2188L11.7188 14.5312V15.375Z" fill="#2864F0"/>
<path d="M14.8855 14.3344C14.72 14.4977 14.4965 14.5887 14.2639 14.5875C14.1553 14.587 14.0477 14.567 13.9461 14.5284C13.8089 14.4762 13.6877 14.389 13.5944 14.2756C13.5012 14.1621 13.4392 14.0263 13.4146 13.8816C13.3978 13.7639 13.4064 13.644 13.4399 13.53L13.7014 12.6441C13.7729 12.406 13.9213 12.1983 14.1233 12.0534L14.5508 11.7441L14.6633 11.6625C14.8664 11.5161 15.1105 11.4374 15.3608 11.4375H16.2383C16.5452 11.4366 16.8405 11.5545 17.0624 11.7666L18.1283 12.7959C18.2353 12.8992 18.3205 13.0228 18.3789 13.1595C18.4374 13.2962 18.4679 13.4432 18.4686 13.5919V15.6563L17.5742 15.9122L15.6561 13.4063L15.0374 14.1291C14.9974 14.2048 14.9462 14.274 14.8855 14.3344Z" fill="#2B8FFC"/>
<path d="M8.90625 16.2188L9.46875 17.0625L8.0625 15.0938L8.93156 13.9885L9.60938 13.125C9.78988 12.8857 10.0421 12.7103 10.3294 12.6244C10.4603 12.5827 10.597 12.5618 10.7344 12.5625H11.6878C11.8919 12.5627 12.0921 12.6181 12.2672 12.7228L12.8606 13.0772C13.0038 13.1639 13.1259 13.2813 13.2183 13.4209C13.3107 13.5604 13.3711 13.7187 13.395 13.8844C13.403 13.9365 13.4068 13.9892 13.4062 14.0419V15.375C13.4065 15.5754 13.3353 15.7693 13.2055 15.922C13.0756 16.0746 12.8956 16.176 12.6978 16.2078C12.4999 16.2396 12.2972 16.1999 12.126 16.0957C11.9548 15.9916 11.8264 15.8298 11.7638 15.6394C11.7329 15.5547 11.7177 15.4651 11.7188 15.375V14.5313L8.90625 16.2188Z" fill="#2B8FFC"/>
<path d="M10.3125 12.5625L10.0312 11.4375H10.5938L11.4375 10.3125C11.7695 10.4973 12.1432 10.5941 12.5231 10.5938H14.25L13.9688 11.4375L14.5312 11.7188L14.5509 11.7441L14.1234 12.0534C13.9214 12.1983 13.7731 12.406 13.7016 12.6441L13.44 13.53C13.4066 13.644 13.3979 13.7639 13.4147 13.8816L13.395 13.8844C13.3711 13.7187 13.3107 13.5604 13.2183 13.4209C13.1259 13.2813 13.0038 13.1639 12.8606 13.0772L12.2672 12.7228C12.0921 12.618 11.8919 12.5626 11.6878 12.5625H10.7344C10.597 12.5618 10.4603 12.5826 10.3294 12.6244L10.3125 12.5625Z" fill="#9E6861"/>
<path d="M5.25 15.0937V14.1684C5.25009 13.7671 5.35726 13.373 5.56046 13.0269C5.76366 12.6809 6.05552 12.3953 6.40594 12.1996L7.27219 11.7215C7.34529 11.6793 7.42144 11.6427 7.5 11.6118V13.6424C7.50005 13.8193 7.44437 13.9916 7.34087 14.135C7.23736 14.2784 7.0913 14.3856 6.92344 14.4412L6.65625 14.5312C6.18175 14.6975 5.72331 14.9065 5.28656 15.1556L5.25 15.0937Z" fill="#8C5956"/>
<path d="M16.7795 17.0625L17.9045 20.7188H16.8133C16.4822 20.7185 16.1608 20.6076 15.8999 20.4038C15.639 20.2 15.4537 19.9149 15.3733 19.5938L15.3086 19.5516L16.217 18.1875V15.9375L16.2395 15.9178L16.4983 16.2188L16.7795 17.0625Z" fill="#9E6861"/>
<path d="M20.5247 19.0369C20.6368 19.197 20.7029 19.3848 20.7157 19.5798C20.7286 19.7749 20.6877 19.9697 20.5975 20.1431C20.5073 20.3165 20.3713 20.4619 20.2042 20.5634C20.0372 20.6649 19.8455 20.7186 19.65 20.7188H17.9062L16.7812 17.0625L18.75 16.5L20.5247 19.0369Z" fill="#BA7B72"/>
<path d="M7.78969 18.5419L6.23438 20.2547C6.10137 20.4007 5.93939 20.5174 5.75876 20.5973C5.57813 20.6772 5.38282 20.7186 5.18531 20.7188C4.86295 20.7193 4.55018 20.6091 4.29937 20.4066L3.81281 20.0184C3.64705 19.8858 3.51322 19.7176 3.42121 19.5263C3.32921 19.335 3.28137 19.1254 3.28125 18.9131V18.1875L7.21875 15.6562L8.625 17.625L7.78969 18.5419Z" fill="#BA7B72"/>
<path d="M8.93156 13.9884L8.0625 15.0938L7.21875 15.6563L3.28125 18.1875V17.4647C3.28105 17.0866 3.38383 16.7156 3.57857 16.3916C3.7733 16.0675 4.05263 15.8026 4.38656 15.6253C4.67344 15.4734 4.98563 15.3075 5.28656 15.1556C5.72331 14.9065 6.18175 14.6975 6.65625 14.5313L6.92344 14.4413C7.0913 14.3856 7.23736 14.2785 7.34087 14.1351C7.44437 13.9917 7.50005 13.8193 7.5 13.6425V11.6119C7.77322 11.4965 8.06685 11.4372 8.36344 11.4375H8.625L8.90625 13.9688L8.93156 13.9884Z" fill="#9E6861"/>
<path d="M14.6353 5.53125C14.6939 5.53115 14.7523 5.53681 14.8097 5.54813C15.0296 5.59355 15.2226 5.72394 15.3469 5.91094L15.5128 6.15844C15.606 6.29947 15.6559 6.4647 15.6563 6.63375C15.6571 6.70877 15.6342 6.78212 15.5907 6.84327C15.5473 6.90442 15.4855 6.95021 15.4144 6.97406C15.2404 7.02569 15.0878 7.13219 14.9794 7.27767C14.8709 7.42314 14.8124 7.59979 14.8125 7.78125C14.8141 7.96531 14.8688 8.14501 14.97 8.29875C15.0667 8.44797 15.2086 8.56231 15.375 8.625C15.2325 9.03419 14.9667 9.38915 14.6141 9.64099C14.2615 9.89283 13.8396 10.0292 13.4063 10.0313C12.97 10.0363 12.5441 9.89796 12.1941 9.6375C11.8542 9.37535 11.5926 9.02521 11.4375 8.625C11.6048 8.55663 11.7478 8.43972 11.8481 8.28934C11.9483 8.13895 12.0013 7.96199 12 7.78125C12.0006 7.59773 11.9414 7.41901 11.8313 7.27219C11.7217 7.12992 11.5702 7.02565 11.3981 6.97406C11.327 6.95021 11.2653 6.90442 11.2218 6.84327C11.1784 6.78212 11.1554 6.70877 11.1563 6.63375C11.1566 6.4647 11.2065 6.29947 11.2997 6.15844L11.4656 5.91094C11.5899 5.72394 11.783 5.59355 12.0028 5.54813C12.0603 5.53681 12.1187 5.53115 12.1772 5.53125H12.6413C12.774 5.5313 12.9049 5.56211 13.0238 5.62125C13.1426 5.68044 13.2735 5.71125 13.4063 5.71125C13.539 5.71125 13.67 5.68044 13.7888 5.62125C13.9076 5.56211 14.0385 5.5313 14.1713 5.53125H14.6353Z" fill="#BA7B72"/>
<path d="M11.6316 3.84938C11.6597 3.84656 11.6906 3.84375 11.7188 3.84375H15.0938C15.1219 3.84375 15.1528 3.84656 15.1809 3.84938C15.3703 3.89653 15.5409 4.00018 15.6699 4.14657C15.799 4.29296 15.8804 4.47515 15.9035 4.66894C15.9251 4.58302 15.9365 4.49485 15.9375 4.40625C15.9375 3.82406 15.6056 3.34594 15.1809 3.28687C15.1528 3.28406 15.1219 3.28125 15.0938 3.28125H11.7188C11.6906 3.28125 11.6597 3.28406 11.6316 3.28687C11.2069 3.34594 10.875 3.82406 10.875 4.40625C10.876 4.49485 10.8874 4.58302 10.909 4.66894C10.9321 4.47515 11.0135 4.29296 11.1426 4.14657C11.2716 4.00018 11.4422 3.89653 11.6316 3.84938Z" fill="#EBF5F7"/>
<path d="M13.3943 13.8844C13.3704 13.7187 13.3101 13.5604 13.2177 13.4209C13.1253 13.2813 13.0031 13.1639 12.86 13.0772L12.2665 12.7228C12.0914 12.6181 11.8912 12.5627 11.6872 12.5625H10.7337C10.5963 12.5618 10.4596 12.5827 10.3287 12.6244C10.0415 12.7103 9.78922 12.8857 9.60872 13.125L9.44531 13.3334C9.54563 13.2712 9.65346 13.2219 9.76622 13.1869C9.89714 13.1452 10.0338 13.1243 10.1712 13.125H11.1247C11.3287 13.1252 11.5289 13.1806 11.704 13.2853L12.2975 13.6397C12.4406 13.7264 12.5628 13.8438 12.6552 13.9834C12.7476 14.1229 12.8079 14.2812 12.8318 14.4469C12.8399 14.499 12.8436 14.5517 12.8431 14.6044V15.9375C12.8419 16.0196 12.8286 16.101 12.8034 16.1791C12.9776 16.1289 13.1307 16.0232 13.2394 15.878C13.348 15.7329 13.4064 15.5563 13.4056 15.375V14.0419C13.4061 13.9892 13.4024 13.9365 13.3943 13.8844Z" fill="#2CB5FF"/>
<path d="M7.27219 11.7215L6.40594 12.1996C6.05552 12.3953 5.76366 12.6809 5.56046 13.0269C5.35726 13.373 5.25009 13.7671 5.25 14.1684V15.0121C5.25009 14.6108 5.35726 14.2168 5.56046 13.8707C5.76366 13.5246 6.05552 13.239 6.40594 13.0434L7.27219 12.5653C7.34529 12.5231 7.42144 12.4864 7.5 12.4556V11.6118C7.42144 11.6427 7.34529 11.6793 7.27219 11.7215Z" fill="#9E6861"/>
<path d="M8.83453 12.2812H10.2422L10.0312 11.4375H8.625L8.71866 12.2812H8.83453Z" fill="#FDFEFF"/>
<path d="M8.71866 12.2813L8.625 11.4375H8.36344C8.06685 11.4372 7.77322 11.4965 7.5 11.6119V12.452C7.82856 12.3384 8.17385 12.2807 8.5215 12.2813H8.71866Z" fill="#BA7B72"/>
<path d="M11.5517 11.4068C11.603 11.3298 11.6726 11.2666 11.7543 11.2229C11.8359 11.1791 11.9271 11.1563 12.0197 11.1562H14.0624L14.25 10.5938H12.5231C12.1432 10.5941 11.7695 10.4973 11.4375 10.3125L10.5938 11.4375H10.0312L10.3125 12.5625L10.3294 12.6244C10.4603 12.5826 10.597 12.5618 10.7344 12.5625H11.1605C11.1702 12.1782 11.288 11.8044 11.5002 11.4839L11.5517 11.4068Z" fill="#8C5956"/>
<path d="M17.908 20.7188L16.783 17.0625L16.5017 16.2188L16.243 15.9178L16.2205 15.9375V18.1875L16.8732 19.4931C16.9405 19.6245 16.9529 19.7771 16.9078 19.9176C16.8627 20.0581 16.7637 20.175 16.6325 20.2426C16.4126 20.3452 16.1757 20.4066 15.9336 20.4238C16.1885 20.6147 16.4982 20.7182 16.8167 20.7188H17.908Z" fill="#8C5956"/>
<path d="M7.21875 15.6562L6.44784 16.1518L6.94594 16.8496C7.10087 17.0665 7.17376 17.3314 7.15161 17.597C7.12946 17.8626 7.01372 18.1118 6.825 18.3L5.54166 19.5831C5.45083 19.6739 5.34045 19.7428 5.21894 19.7846C5.09742 19.8263 4.96799 19.8397 4.8405 19.8238L3.49219 19.6551C3.57734 19.7937 3.68581 19.9167 3.81281 20.0184L4.29937 20.4066C4.55018 20.6091 4.86295 20.7193 5.18531 20.7188C5.38282 20.7186 5.57813 20.6772 5.75876 20.5973C5.93939 20.5174 6.10137 20.4007 6.23438 20.2547L7.78969 18.5419L8.625 17.625L7.21875 15.6562Z" fill="#9E6861"/>
<path d="M8.90625 13.9688L8.71866 12.2812H8.46863L8.60109 13.4735C8.61639 13.6113 8.58023 13.7499 8.49956 13.8627L8.05772 14.4815C7.87472 14.7008 7.65603 14.8878 7.41084 15.0344L4.66163 16.6749C4.59552 16.7227 4.51983 16.7555 4.43979 16.7711C4.35975 16.7867 4.27728 16.7847 4.19809 16.7652C4.1189 16.7458 4.04489 16.7093 3.98118 16.6584C3.91747 16.6075 3.86559 16.5434 3.82912 16.4705L3.70116 16.2148C3.42943 16.5749 3.28206 17.0136 3.28125 17.4647V18.1875L7.21875 15.6562L8.0625 15.0938L8.93156 13.9884L8.90625 13.9688Z" fill="#8C5956"/>
<path d="M19.875 20.1562H19.0965C18.9151 20.1562 18.7385 20.0977 18.5929 19.9894C18.4474 19.8811 18.3406 19.7287 18.2885 19.5549L17.9001 18.2612C17.8657 18.1465 17.8561 18.0257 17.872 17.907C17.8878 17.7883 17.9288 17.6743 17.9922 17.5726C18.0555 17.4709 18.1398 17.3839 18.2394 17.3174C18.3389 17.2508 18.4516 17.2062 18.5697 17.1865L19.1603 17.0881L18.75 16.5L16.7812 17.0625L17.9062 20.7188H19.65C19.8056 20.7196 19.9596 20.6863 20.1009 20.6211C20.2423 20.5559 20.3676 20.4605 20.468 20.3416C20.5684 20.2227 20.6415 20.0832 20.682 19.9329C20.7226 19.7826 20.7297 19.6253 20.7027 19.472C20.6657 19.6644 20.5628 19.8379 20.4118 19.9628C20.2607 20.0877 20.071 20.1561 19.875 20.1562Z" fill="#9E6861"/>
<path d="M15.9783 14.6626L17.0636 16.0582L17.5755 15.9122L15.6573 13.4062L15.0386 14.1291C14.9987 14.2048 14.9474 14.274 14.8867 14.3344L15.1207 14.6077L15.2223 14.54C15.3405 14.4612 15.4841 14.43 15.6243 14.4527C15.7646 14.4755 15.891 14.5505 15.9783 14.6626Z" fill="#2357D1"/>
<path d="M11.7638 15.6394C11.7329 15.5547 11.7177 15.4651 11.7188 15.375V14.5312L8.90625 16.2188L9.10313 16.5152L10.7375 15.607C10.7803 15.583 10.8287 15.5706 10.8779 15.5711C10.927 15.5716 10.9751 15.585 11.0175 15.6099C11.0599 15.6348 11.095 15.6703 11.1193 15.713C11.1436 15.7557 11.1564 15.804 11.1562 15.8531V16.0078L11.7188 15.6562L11.7638 15.6394Z" fill="#2357D1"/>
<path d="M18.1289 12.7959L17.063 11.7666C16.8411 11.5545 16.5458 11.4366 16.2389 11.4375H15.3614C15.1111 11.4374 14.867 11.5161 14.6639 11.6625L14.5514 11.7441L14.1239 12.0534C13.9219 12.1983 13.7736 12.406 13.702 12.6441L13.4405 13.53C13.3827 13.7218 13.3985 13.9283 13.4849 14.109C13.5713 14.2897 13.7221 14.4317 13.9076 14.5071C13.8384 14.265 13.8384 14.0083 13.9076 13.7663L14.1835 12.8004C14.205 12.7255 14.2418 12.6558 14.2916 12.5958C14.3414 12.5358 14.4032 12.4868 14.473 12.452L15.2579 12.0582C15.3357 12.0198 15.4214 11.9998 15.5082 12H15.9864C16.1355 12 16.2786 12.0593 16.384 12.1648L17.3707 13.1514C17.5364 13.3172 17.6462 13.5306 17.6848 13.7618L17.7892 14.3887C17.8177 14.5598 17.8983 14.7181 18.02 14.8418C18.1417 14.9655 18.2985 15.0487 18.4692 15.08V13.5919C18.4685 13.4432 18.438 13.2962 18.3795 13.1595C18.3211 13.0228 18.2359 12.8992 18.1289 12.7959Z" fill="#2CB5FF"/>
<path d="M16.2406 15.9178L14.885 14.3344C14.7195 14.4977 14.496 14.5887 14.2634 14.5875C14.1548 14.587 14.0472 14.567 13.9456 14.5285C13.8084 14.4762 13.6872 14.3891 13.5939 14.2756C13.5007 14.1622 13.4387 14.0263 13.4141 13.8816L13.3944 13.8844C13.4024 13.9365 13.4062 13.9892 13.4056 14.0419V15.375C13.4059 15.5754 13.3347 15.7694 13.2049 15.922C13.075 16.0746 12.895 16.176 12.6971 16.2078C12.4993 16.2397 12.2966 16.1999 12.1254 16.0957C11.9542 15.9916 11.8257 15.8298 11.7631 15.6394L11.7181 15.6563L9.46812 17.0625L8.62437 17.625L7.78906 18.5419L7.91 19.5074L9.73812 18.2885C10.6623 17.6725 11.7482 17.3438 12.8589 17.3438H13.5963C13.6949 17.3438 13.7895 17.3046 13.8592 17.2349C13.929 17.1652 13.9681 17.0706 13.9681 16.972C13.9676 16.7812 14.0396 16.5974 14.1694 16.4576C14.2993 16.3178 14.4773 16.2326 14.6676 16.219C14.8579 16.2055 15.0462 16.2647 15.1945 16.3847C15.3429 16.5047 15.4401 16.6765 15.4666 16.8654L15.5395 17.3747C15.5658 17.5554 15.6439 17.7246 15.7643 17.8618C15.8848 17.999 16.0424 18.0984 16.2181 18.1479V15.9375L16.2406 15.9178Z" fill="#CDD6DE"/>
<path d="M7.91016 19.5074L8.06203 20.7188H8.84081L8.70694 18.9764L7.91016 19.5074Z" fill="#EBF5F7"/>
<path d="M17.3156 16.4367C17.2469 16.4539 17.1742 16.4445 17.1121 16.4104C17.05 16.3763 17.0031 16.32 16.9807 16.2528L16.9286 16.0967L16.5 16.2187L16.7812 17.0625L18.75 16.5L18.6201 16.1105L17.3156 16.4367Z" fill="#E1EAF2"/>
<path d="M9.46806 17.0625L8.06181 15.0938L7.86719 15.2237L8.59366 16.3132C8.67636 16.4374 8.70637 16.5893 8.6771 16.7355C8.64783 16.8818 8.56167 17.0104 8.43756 17.0932L8.30678 17.1803L8.62431 17.625L9.46806 17.0625Z" fill="#E1EAF2"/>
<path d="M17.1462 12.9311C17.3264 12.7507 17.269 12.401 17.0178 12.15C16.7666 11.899 16.4169 11.8418 16.2366 12.0222C16.0563 12.2026 16.1138 12.5523 16.3649 12.8033C16.6161 13.0543 16.9659 13.1116 17.1462 12.9311Z" fill="#F6FAFD"/>
<path d="M17.4841 13.8333C17.5747 13.7427 17.5458 13.567 17.4197 13.441C17.2936 13.3149 17.1179 13.2862 17.0273 13.3769C16.9367 13.4675 16.9655 13.6432 17.0917 13.7692C17.2178 13.8953 17.3935 13.924 17.4841 13.8333Z" fill="#F6FAFD"/>
<path d="M12.7949 13.8601C12.8402 13.8147 12.8258 13.7268 12.7628 13.6638C12.6997 13.6008 12.6118 13.5864 12.5665 13.6318C12.5211 13.6772 12.5355 13.7651 12.5986 13.8281C12.6616 13.8911 12.7495 13.9054 12.7949 13.8601Z" fill="#F6FAFD"/>
<path d="M20.7559 18.8752L19.0037 16.372L18.75 15.611V13.591C18.749 13.4046 18.7107 13.2203 18.6373 13.0489C18.5639 12.8775 18.457 12.7226 18.3228 12.5932L17.2577 11.5646C16.9841 11.301 16.6184 11.1545 16.2384 11.1562H15.3621C15.0692 11.1577 14.7832 11.2458 14.5403 11.4094L14.3127 11.2969L14.455 10.8694C15.0303 10.8342 15.5761 10.6026 16.0011 10.2132C16.426 9.82379 16.7043 9.30025 16.7894 8.73019L17.0583 6.98194C17.0609 6.96727 17.0623 6.9524 17.0625 6.9375V5.53125H16.5V6.91584L16.2345 8.643C16.2297 8.67281 16.2227 8.70122 16.2171 8.73047C16.0221 8.50764 15.7467 8.37129 15.4512 8.35134C15.3443 8.29918 15.2542 8.21813 15.191 8.11737C15.1279 8.01661 15.0942 7.90018 15.0938 7.78125C15.0943 7.66037 15.1334 7.54282 15.2055 7.4458C15.2777 7.34879 15.3789 7.2774 15.4945 7.24209C15.6237 7.20134 15.7364 7.12028 15.8161 7.0108C15.8958 6.90132 15.9384 6.76918 15.9375 6.63375C15.9377 6.40951 15.8713 6.19025 15.7468 6.00375L15.5812 5.75625C15.5523 5.71318 15.5205 5.6722 15.4858 5.63363C15.7069 5.51362 15.8916 5.33634 16.0205 5.12039C16.1495 4.90444 16.2179 4.65777 16.2188 4.40625C16.2185 4.30306 16.2091 4.20009 16.1906 4.09856C16.3898 4.34494 16.499 4.65192 16.5 4.96875H17.0625C17.0619 4.44679 16.8543 3.94637 16.4852 3.57729C16.1161 3.20821 15.6157 3.0006 15.0938 3L11.7188 3C11.1968 3.0006 10.6964 3.20821 10.3273 3.57729C9.95822 3.94637 9.75061 4.44679 9.75001 4.96875V6.9375C9.75 6.95182 9.75113 6.96611 9.75338 6.98025L10.0223 8.7285C10.0718 9.05815 10.1862 9.37471 10.3588 9.65988C10.5314 9.94504 10.7589 10.1931 11.028 10.3898L10.4531 11.1562H8.36429C7.93394 11.1565 7.51071 11.2661 7.13439 11.4749L6.27095 11.955C5.87632 12.1742 5.54749 12.4949 5.31852 12.884C5.08956 13.273 4.9688 13.7162 4.96876 14.1676V14.25H5.53126V14.1676C5.53125 13.8165 5.62512 13.4718 5.80315 13.1692C5.98117 12.8666 6.23688 12.6171 6.54376 12.4466L7.40776 11.9665C7.70039 11.8043 8.02942 11.7191 8.36401 11.7188H8.37301L8.61854 13.9305L7.86873 14.8845L7.06632 15.4189L6.22257 15.9611L6.52689 16.4345L7.14563 16.0368L8.26417 17.6028L6.02654 20.0643C5.83204 20.2783 5.56328 20.4102 5.27496 20.4331C4.98664 20.456 4.70044 20.3682 4.4746 20.1875L3.98945 19.7999C3.85591 19.6937 3.74814 19.5587 3.67421 19.4049C3.60027 19.2511 3.56208 19.0826 3.56251 18.912V18.3411L6.0586 16.7379L5.75429 16.2635L3.56251 17.6722V17.4636C3.56196 17.1366 3.65075 16.8157 3.81928 16.5356C3.98781 16.2554 4.22968 16.0266 4.51876 15.8739C6.33563 14.9123 6.64163 14.8193 6.68439 14.8103C6.67512 14.812 6.66569 14.8127 6.65626 14.8125V14.25C6.54798 14.25 6.38401 14.25 4.25551 15.3767C3.876 15.5772 3.55847 15.8775 3.3372 16.2453C3.11593 16.6131 2.99934 17.0343 3.00001 17.4636V18.912C2.99914 19.1672 3.05607 19.4194 3.16654 19.6495C3.27702 19.8796 3.43816 20.0817 3.63788 20.2406L4.12304 20.629C4.46063 20.899 4.88839 21.0303 5.31932 20.9961C5.75024 20.9619 6.15197 20.7649 6.44279 20.4451L8.81007 17.841L9.6212 17.3002L11.3053 16.2469L11.0072 15.7688L9.55117 16.6786L9.30395 16.3076L11.4375 15.0279V15.375C11.4375 15.6734 11.556 15.9595 11.767 16.1705C11.978 16.3815 12.2641 16.5 12.5625 16.5C12.8609 16.5 13.147 16.3815 13.358 16.1705C13.569 15.9595 13.6875 15.6734 13.6875 15.375V14.7124C13.7382 14.7425 13.7912 14.7687 13.8459 14.7908C14.1038 14.8929 14.39 14.8983 14.6517 14.8061C14.9134 14.7138 15.1329 14.5301 15.2698 14.2888L15.6439 13.8526L17.1008 15.7547L16.5962 15.8987L15.5089 14.63L15.0814 14.9956L15.9375 15.9938V18.1031L14.3808 20.4375H8.31085L8.16573 19.2776L7.60773 19.3474L7.78351 20.7536C7.79201 20.8216 7.82505 20.8842 7.87642 20.9296C7.9278 20.9749 7.99397 21 8.06251 21H14.5313C14.5776 21 14.6231 20.9886 14.6639 20.9668C14.7048 20.9449 14.7396 20.9134 14.7653 20.8748L15.2825 20.1C15.4351 20.3727 15.6576 20.5998 15.9271 20.758C16.1966 20.9162 16.5034 20.9997 16.8159 21H19.65C19.8971 21.0002 20.1395 20.9325 20.3508 20.8044C20.5621 20.6763 20.7342 20.4927 20.8483 20.2735C20.9625 20.0543 21.0143 19.808 20.998 19.5615C20.9818 19.3149 20.8983 19.0775 20.7564 18.8752H20.7559ZM15.5379 8.93438C15.646 8.96725 15.7417 9.03211 15.8123 9.12042C15.8829 9.20873 15.9251 9.31634 15.9333 9.42909C15.7545 9.70174 15.5103 9.92537 15.2231 10.0797C14.9358 10.2339 14.6146 10.314 14.2885 10.3125H12.524C12.1978 10.3139 11.8765 10.2336 11.5892 10.0792C11.302 9.92467 11.0579 9.70082 10.8792 9.42797C10.8877 9.31542 10.93 9.20805 11.0005 9.11996C11.0711 9.03187 11.1667 8.96718 11.2747 8.93438C11.4593 9.34522 11.7587 9.69396 12.1369 9.93862C12.515 10.1833 12.9558 10.3135 13.4063 10.3135C13.8567 10.3135 14.2975 10.1833 14.6757 9.93862C15.0538 9.69396 15.3532 9.34522 15.5379 8.93438ZM15.3337 6.70434C15.1025 6.77474 14.8999 6.91724 14.7556 7.111C14.6112 7.30476 14.5326 7.53962 14.5313 7.78125C14.5326 7.96746 14.5763 8.15092 14.6592 8.31769C14.742 8.48446 14.8618 8.63015 15.0094 8.74369C14.8636 9.04522 14.6357 9.29954 14.352 9.4775C14.0682 9.65547 13.7401 9.74986 13.4051 9.74986C13.0702 9.74986 12.742 9.65547 12.4583 9.4775C12.1746 9.29954 11.9467 9.04522 11.8009 8.74369C11.9489 8.63038 12.0691 8.48479 12.1523 8.31801C12.2356 8.15123 12.2797 7.96765 12.2813 7.78125C12.2802 7.53943 12.2017 7.30431 12.0573 7.11032C11.9129 6.91634 11.7102 6.77367 11.4789 6.70322C11.4657 6.6972 11.4547 6.68733 11.4474 6.67493C11.44 6.66252 11.4365 6.64816 11.4375 6.63375C11.4374 6.52062 11.4708 6.41 11.5337 6.31594L11.6994 6.06759C11.7515 5.98899 11.8224 5.92455 11.9056 5.88004C11.9888 5.83552 12.0817 5.81232 12.1761 5.8125H12.6421C12.731 5.81254 12.8188 5.83324 12.8983 5.87297C13.0561 5.95149 13.23 5.99236 13.4063 5.99236C13.5825 5.99236 13.7564 5.95149 13.9142 5.87297C13.9938 5.83324 14.0815 5.81254 14.1704 5.8125H14.6364C14.7311 5.81209 14.8243 5.83522 14.9078 5.87979C14.9912 5.92437 15.0623 5.98901 15.1146 6.06787L15.2799 6.31566C15.3425 6.40991 15.3756 6.52064 15.375 6.63375C15.376 6.64816 15.3725 6.66252 15.3652 6.67493C15.3578 6.68733 15.3468 6.6972 15.3337 6.70322V6.70434ZM15.0938 3.5625C15.3986 3.5625 15.6563 3.94894 15.6563 4.40625C15.6563 4.63003 15.5674 4.84464 15.4091 5.00287C15.2509 5.16111 15.0363 5.25 14.8125 5.25V5.26519C14.7543 5.25559 14.6954 5.25052 14.6364 5.25H14.1704C13.9941 5.25019 13.8203 5.2912 13.6625 5.36981C13.5829 5.40936 13.4952 5.42994 13.4063 5.42994C13.3174 5.42994 13.2297 5.40936 13.15 5.36981C12.9922 5.2912 12.8184 5.25019 12.6421 5.25H12.1761C12.1171 5.25052 12.0582 5.25559 12 5.26519V5.25C11.7762 5.25 11.5616 5.16111 11.4034 5.00287C11.2452 4.84464 11.1563 4.63003 11.1563 4.40625C11.1563 3.94894 11.4139 3.5625 11.7188 3.5625H15.0938ZM10.3125 4.96875C10.3135 4.65192 10.4227 4.34494 10.6219 4.09856C10.6034 4.20009 10.594 4.30306 10.5938 4.40625C10.5947 4.65764 10.6632 4.90416 10.7921 5.12C10.921 5.33583 11.1055 5.51304 11.3264 5.63306C11.292 5.67167 11.2603 5.71254 11.2314 5.75541L11.0654 6.00403C10.9411 6.1905 10.8748 6.40964 10.875 6.63375C10.8741 6.76918 10.9167 6.90132 10.9964 7.0108C11.0761 7.12028 11.1888 7.20134 11.318 7.24209C11.4336 7.2774 11.5349 7.34879 11.607 7.4458C11.6791 7.54282 11.7183 7.66037 11.7188 7.78125C11.7183 7.9001 11.6847 8.01647 11.6216 8.11721C11.5586 8.21795 11.4686 8.29905 11.3619 8.35134C11.2154 8.36103 11.0724 8.3995 10.9409 8.46455C10.8094 8.52961 10.692 8.61997 10.5954 8.73047C10.5898 8.70234 10.5828 8.67422 10.578 8.643L10.3125 6.91584V4.96875ZM10.5938 11.7188C10.6374 11.7188 10.6805 11.7086 10.7195 11.6891C10.7586 11.6695 10.7926 11.6412 10.8188 11.6062L11.5219 10.6688C11.8385 10.8047 12.1794 10.8749 12.524 10.875H13.8599L13.7021 11.3486C13.6807 11.4128 13.6831 11.4826 13.7089 11.5452C13.7347 11.6077 13.7823 11.6589 13.8428 11.6892L14.0225 11.7789L13.9572 11.8265C13.7052 12.0081 13.5203 12.2678 13.431 12.5653L13.2848 13.0598C13.201 12.9739 13.1064 12.8992 13.0035 12.8376L12.4106 12.4815C12.1924 12.3506 11.9428 12.2814 11.6884 12.2812H10.7344C10.6677 12.2813 10.6011 12.2854 10.535 12.2933L10.3913 11.7188H10.5938ZM8.93917 11.7188H9.81104L9.99442 12.4534C9.75542 12.5687 9.54737 12.7394 9.38748 12.9512L9.1141 13.2991L8.93917 11.7188ZM8.6956 17.24L7.61645 15.7291L7.99192 15.4788L9.07107 16.9897L8.6956 17.24ZM13.125 15.375C13.125 15.5242 13.0657 15.6673 12.9603 15.7727C12.8548 15.8782 12.7117 15.9375 12.5625 15.9375C12.4133 15.9375 12.2703 15.8782 12.1648 15.7727C12.0593 15.6673 12 15.5242 12 15.375V14.5312C12 14.4815 11.9868 14.4326 11.9617 14.3896C11.9366 14.3466 11.9006 14.311 11.8572 14.2865C11.8139 14.262 11.7649 14.2494 11.7151 14.2501C11.6653 14.2507 11.6166 14.2646 11.5739 14.2902L8.95604 15.861L8.41379 15.1016L9.83438 13.2937C9.93948 13.1544 10.0754 13.0412 10.2316 12.9631C10.3877 12.885 10.5598 12.8442 10.7344 12.8438H11.6884C11.8413 12.8438 11.9914 12.8853 12.1226 12.9638L12.7152 13.3196C12.8399 13.3949 12.9431 13.5011 13.0149 13.6278C13.0866 13.7546 13.1246 13.8976 13.125 14.0433V15.375ZM15.8796 13.2352C15.8541 13.202 15.8215 13.1748 15.7842 13.1557C15.7469 13.1366 15.7058 13.1261 15.6639 13.125H15.6563C15.6157 13.125 15.5756 13.1338 15.5388 13.1507C15.5019 13.1677 15.4692 13.1924 15.4428 13.2232L14.824 13.9457C14.8099 13.9621 14.7977 13.9801 14.7878 13.9994C14.718 14.1258 14.6046 14.2226 14.4688 14.2716C14.333 14.3207 14.1839 14.3187 14.0495 14.266C13.9202 14.2199 13.8132 14.1263 13.7502 14.0043C13.6871 13.8823 13.6728 13.7409 13.71 13.6088L13.9716 12.7248C14.0253 12.5463 14.1363 12.3904 14.2874 12.2812L14.8283 11.8897C14.984 11.7779 15.1709 11.7179 15.3626 11.7182H16.2384C16.4725 11.718 16.6976 11.8077 16.8673 11.9688L17.9324 12.9973C18.013 13.0738 18.0771 13.1659 18.1209 13.268C18.1648 13.37 18.1874 13.4799 18.1875 13.591V15.4442L17.6813 15.5885L15.8796 13.2352ZM18.2871 16.0005L18.3903 16.3099L16.9629 16.7177L16.8597 16.4083L18.2871 16.0005ZM19.65 20.4375H18.1144L17.31 17.8241L16.7723 17.9892L17.5254 20.4375H16.8159C16.5504 20.4376 16.2925 20.3498 16.0822 20.1879C15.8719 20.0259 15.7212 19.7989 15.6534 19.5423L16.4528 18.3436C16.4835 18.2973 16.4999 18.243 16.5 18.1875V17.1078L16.5146 17.1514C16.5333 17.2074 16.5691 17.2561 16.6169 17.2906C16.6648 17.3251 16.7223 17.3437 16.7813 17.3438C16.8073 17.3438 16.8333 17.3401 16.8583 17.3328L18.6344 16.8265L20.2938 19.1986C20.3763 19.3165 20.4249 19.4548 20.4343 19.5984C20.4438 19.742 20.4137 19.8854 20.3473 20.0131C20.2809 20.1408 20.1809 20.2479 20.0579 20.3227C19.935 20.3975 19.7939 20.4372 19.65 20.4375Z" fill="black"/>
</g>
<defs>
<clipPath id="clip0_1053_21087">
<rect width="18" height="18" fill="white" transform="translate(3 3)"/>
</clipPath>
</defs>
</svg>
