<svg width="35" height="35" viewBox="0 0 35 35" fill="none" xmlns="http://www.w3.org/2000/svg">
<path d="M2.91602 9.57173V26.5432L17.598 35.0002V18.0288L2.91602 9.57173ZM7.61268 20.5538C6.77 20.5538 6.0874 19.554 6.0874 18.3217C6.0874 18.2825 6.0874 18.2462 6.0874 18.207C6.08342 17.8624 6.15149 17.5207 6.28724 17.204C6.423 16.8872 6.62344 16.6023 6.87572 16.3676C7.06068 16.2106 7.28957 16.1147 7.53113 16.0927H7.68819H7.7335H7.76974C7.78985 16.0912 7.81004 16.0912 7.83015 16.0927L7.89358 16.1108C7.93989 16.1227 7.9853 16.1379 8.0295 16.1561C8.03747 16.1545 8.04569 16.1545 8.05366 16.1561H8.08084H8.10802L8.15031 16.1803H8.17145L8.22884 16.2165L8.27414 16.2467L8.31341 16.2769L8.33153 16.292L8.36476 16.3192L8.38892 16.3404L8.42214 16.3736C8.43064 16.379 8.43786 16.3862 8.44328 16.3947L8.47349 16.4249L8.51879 16.4733V16.4914L8.53692 16.5125L8.58524 16.5729L8.61545 16.6152C8.62522 16.6272 8.63335 16.6404 8.63961 16.6545V16.6696L8.67585 16.727C8.68299 16.7363 8.68906 16.7465 8.69398 16.7572C8.69554 16.7641 8.69554 16.7714 8.69398 16.7783L8.73324 16.8478L8.7725 16.9293C8.78181 16.9469 8.78988 16.9651 8.79667 16.9837C8.79897 16.9906 8.79897 16.998 8.79667 17.0049C8.7978 17.0139 8.7978 17.023 8.79667 17.032V17.0592C8.83555 17.0674 8.87127 17.0866 8.89963 17.1144C8.928 17.1422 8.94781 17.1776 8.95675 17.2163C8.95675 17.2465 8.98091 17.2767 8.98997 17.3069C8.99903 17.3371 9.01111 17.3673 9.02017 17.3975V17.4277L9.0383 17.4911L9.05642 17.5606V17.5938L9.07454 17.6844V17.7267V17.775V17.7962V17.8234C9.07454 17.8687 9.07454 17.911 9.08964 17.9563V18.0167V18.0952C9.08964 18.1314 9.08964 18.1647 9.08964 18.2009C9.08964 18.2372 9.08964 18.2764 9.08964 18.3157C9.09819 18.7834 8.99462 19.2463 8.78761 19.6658C8.69031 19.9062 8.52967 20.1157 8.32278 20.2721C8.1159 20.4284 7.8705 20.5258 7.61268 20.5538ZM12.1946 28.0715C11.3519 28.0715 10.6844 27.0717 10.6844 25.8394V25.7246C10.6844 25.6854 10.6844 25.6461 10.6844 25.6069V25.5011C10.728 24.925 10.9716 24.3823 11.373 23.9668L11.4123 23.9306L11.4395 23.9094L11.4908 23.8641L11.5754 23.8067L11.6177 23.7795L11.66 23.7554L11.6932 23.7342H11.7294L11.7747 23.7131H11.7989L11.8352 23.698H11.8835H11.9046H11.9469H11.9952H12.0617H12.113H12.2792H12.3396H12.4H12.4302H12.4543H12.4785L12.5389 23.7161H12.5782H12.5993L12.6356 23.7312H12.6537H12.6839H12.7141L12.7443 23.7493H12.7684L12.8258 23.7886L12.8711 23.8218L12.9074 23.852L12.992 23.9275L13.0101 23.9457L13.0614 24.003L13.0826 24.0272L13.152 24.1178L13.1822 24.1601L13.1973 24.1812L13.2245 24.2205C13.2373 24.2375 13.2485 24.2557 13.2577 24.2749C13.2689 24.2903 13.279 24.3064 13.288 24.3232L13.3182 24.3776L13.3514 24.441V24.4652C13.3524 24.4722 13.3524 24.4793 13.3514 24.4863C13.3695 24.5286 13.3906 24.5709 13.4057 24.6132L13.4239 24.6554C13.4239 24.6554 13.4239 24.6796 13.4239 24.6917C13.4327 24.7111 13.4398 24.7314 13.445 24.7521C13.4463 24.7651 13.4463 24.7783 13.445 24.7914C13.4463 24.8004 13.4463 24.8095 13.445 24.8185C13.445 24.8185 13.445 24.8185 13.445 24.8367C13.445 24.8608 13.4601 24.885 13.4662 24.9061V24.9454V24.9816L13.4843 25.0753C13.4929 25.1069 13.499 25.1393 13.5024 25.1719C13.5036 25.1941 13.5036 25.2162 13.5024 25.2384V25.3199C13.5037 25.337 13.5037 25.3542 13.5024 25.3713V25.4709C13.5024 25.5102 13.5024 25.5464 13.5024 25.5857C13.5024 25.625 13.5024 25.6612 13.5024 25.7005C13.5096 26.2183 13.3771 26.7285 13.1188 27.1774C13.0486 27.3902 12.9279 27.5826 12.7669 27.7384C12.6059 27.8941 12.4095 28.0084 12.1946 28.0715Z" fill="#333333"/>
<path d="M17.5992 18.0286V34.5319L13.3405 27.3162C13.5988 26.8673 13.7313 26.3571 13.7241 25.8392C13.7241 25.8 13.7241 25.7637 13.7241 25.7245C13.7241 25.6852 13.7241 25.649 13.7241 25.6097V25.51C13.7241 25.4768 13.7241 25.4436 13.7241 25.4104C13.7081 25.2841 13.6839 25.159 13.6516 25.0358C13.6516 25.0147 13.6516 24.9905 13.6305 24.9664C13.6305 24.9664 13.6305 24.9664 13.6305 24.9513C13.6305 24.9362 13.6305 24.9241 13.6305 24.912C13.6318 24.8989 13.6318 24.8858 13.6305 24.8727C13.6331 24.8639 13.6331 24.8544 13.6305 24.8455C13.6242 24.8218 13.6162 24.7986 13.6063 24.7761C13.594 24.7411 13.5799 24.7068 13.564 24.6734L13.5368 24.6069V24.5798L13.5157 24.5344L13.4009 24.465L13.3707 24.4106C13.3524 24.3754 13.3322 24.3411 13.3103 24.3079L13.2831 24.2687L13.268 24.2475L13.2378 24.2052L13.1683 24.1146L13.1472 24.0905L13.0989 24.0361L13.0657 24.0029L13.0475 23.9847C13.0475 23.9666 13.0143 23.9545 12.9992 23.9394L12.963 23.9092C12.9162 23.8696 12.8667 23.8333 12.815 23.8005H12.7908L12.7304 23.7673H12.7002H12.6821L12.6458 23.7522H12.6247H12.5854L12.525 23.7341H12.5008H12.4767H12.3891H12.3196H12.1626H12.1112H12.0629H12.0448H11.9964H11.9632H11.9209H11.8726L11.8364 23.7492H11.8122L11.7669 23.7703H11.7306L11.6974 23.7914L11.6551 23.8156L11.6129 23.8428L11.5283 23.9002L11.4769 23.9455L11.4498 23.9666L11.4105 24.0029L8.8311 19.6717C9.03811 19.2522 9.14168 18.7892 9.13314 18.3216C9.13314 18.2823 9.13314 18.246 9.13314 18.2068C9.13314 18.1675 9.13314 18.1373 9.13314 18.1011C9.05763 17.0107 8.44751 16.1499 7.6894 16.0925H7.53234C7.29078 16.1145 7.06189 16.2105 6.87692 16.3674L2.97461 9.74976L17.5992 18.0286Z" fill="#333333"/>
<path d="M18.1853 0L3.62109 8.45702L18.1853 16.8536L32.7495 8.45702L18.1853 0ZM21.3778 8.79531C21.3716 8.82894 21.3635 8.86221 21.3537 8.89498C21.3537 8.9131 21.3537 8.9282 21.3537 8.9433C21.3468 8.9588 21.3418 8.97501 21.3386 8.99163C21.3297 9.00795 21.3226 9.02516 21.3174 9.04298L21.2993 9.08224L21.2751 9.13661V9.16681L21.2419 9.23024C21.2299 9.25204 21.2168 9.27321 21.2026 9.29367L21.1724 9.34199V9.35709L21.1302 9.41448L21.0758 9.48697L21.0395 9.53227L20.9369 9.64705L20.8795 9.70142C20.8125 9.76575 20.7419 9.82626 20.668 9.88264L20.6046 9.93096L20.5291 9.98231L20.4325 10.0457L20.36 10.088C20.3056 10.1212 20.2482 10.1514 20.1878 10.1817L20.1214 10.2149L20.0881 10.233L19.9824 10.2692C19.884 10.315 19.7832 10.3553 19.6804 10.3901L19.5807 10.4233L19.5203 10.4414L19.2998 10.5018H19.2575L19.1971 10.5169H19.1548L18.8921 10.5622H18.8015H18.7682H18.6897H18.6021H18.5326H18.4632H18.1853C16.4033 10.5622 14.9565 9.62289 14.9565 8.39058C14.9565 7.15827 16.4033 6.15853 18.1853 6.15853C18.2971 6.15853 18.4088 6.15853 18.5175 6.15853H18.6414L18.889 6.19175L18.9978 6.20987H19.0793L19.1609 6.22799H19.179H19.2032L19.2787 6.24612L19.3481 6.26424L19.5052 6.30954L19.5958 6.33975L19.6411 6.35485H19.6743L19.7257 6.37297L19.777 6.39109L19.8435 6.4213L19.9311 6.45754L20.0156 6.49681L20.0972 6.53607L20.1969 6.59044L20.2573 6.62668C20.3116 6.65689 20.363 6.68709 20.4113 6.72031L20.4838 6.77166L20.511 6.78978L20.5986 6.85623C20.6281 6.87772 20.6563 6.90092 20.6831 6.9257C20.6986 6.93718 20.7128 6.95035 20.7254 6.96496L20.8009 7.03141L20.8402 7.07068C20.8734 7.10692 20.9066 7.14014 20.9369 7.17639C20.9489 7.18973 20.96 7.20386 20.9701 7.21867C20.9701 7.23378 20.9973 7.2519 21.0124 7.27002L21.0365 7.30022L21.0607 7.33043C21.07 7.34768 21.0811 7.36388 21.0939 7.37875L21.1181 7.41802C21.1422 7.45426 21.1634 7.49051 21.1845 7.52675C21.1845 7.52675 21.2298 7.62038 21.251 7.66569V7.68683C21.2497 7.6928 21.2497 7.69898 21.251 7.70495C21.2498 7.71701 21.2498 7.72915 21.251 7.7412L21.2691 7.79556C21.2785 7.82232 21.2866 7.84954 21.2933 7.87711C21.3017 7.90391 21.3088 7.93113 21.3144 7.95866C21.3144 7.99793 21.3295 8.03417 21.3355 8.07042C21.3477 8.14633 21.3538 8.22309 21.3537 8.29996C21.3538 8.37584 21.3477 8.4516 21.3355 8.52649C21.3929 8.72282 21.3869 8.75906 21.3778 8.79531Z" fill="#333333"/>
<path d="M32.7498 8.45702L18.1855 16.8536V10.6287C19.732 10.6287 21.0519 9.9068 21.3539 8.89498C21.3637 8.86221 21.3718 8.82894 21.3781 8.79531C21.3781 8.75906 21.3932 8.72282 21.3992 8.68355C21.4114 8.60866 21.4174 8.5329 21.4173 8.45702C21.4174 8.38015 21.4114 8.30339 21.3992 8.22748C21.3992 8.19123 21.3992 8.15499 21.3781 8.11572C21.3724 8.08819 21.3654 8.06097 21.3569 8.03417C21.3503 8.0066 21.3422 7.97938 21.3328 7.95262L21.3146 7.89826C21.0126 7.09182 20.0612 6.46056 18.8984 6.27934L18.6507 6.24612H18.5268C18.4181 6.24612 18.3064 6.24612 18.1946 6.24612V0L32.7498 8.45702Z" fill="#333333"/>
<path d="M18.7734 18.0288V35.0002L33.4554 26.5432V9.57173L18.7734 18.0288ZM23.0019 29.9018C22.775 29.8883 22.5553 29.8168 22.3638 29.6941C22.1724 29.5714 22.0157 29.4017 21.9086 29.2011C21.657 28.773 21.5274 28.2841 21.5341 27.7876C21.5341 26.6187 22.1895 25.6733 23.0019 25.6733H23.0291C23.3138 25.6857 23.5839 25.8029 23.7872 26.0025C24.0164 26.238 24.1952 26.5178 24.3125 26.8247C24.4299 27.1316 24.4834 27.4592 24.4698 27.7876C24.4698 28.9444 23.8114 29.9018 23.0019 29.9018ZM26.5841 24.1963C26.0827 24.1963 25.6417 23.8339 25.376 23.2902C25.2006 22.9119 25.1118 22.4991 25.1162 22.0821C25.1162 21.9703 25.1162 21.8646 25.1162 21.7589C25.1162 21.7015 25.1162 21.6472 25.1373 21.5928C25.1388 21.5666 25.1388 21.5404 25.1373 21.5143C25.1373 21.478 25.1373 21.4418 25.1615 21.4055V21.3723C25.1604 21.3592 25.1604 21.3461 25.1615 21.333C25.1615 21.333 25.1615 21.3059 25.1615 21.2908C25.1672 21.2672 25.1742 21.244 25.1827 21.2213L25.2672 21.1428C25.2672 21.1186 25.2672 21.0944 25.2914 21.0733C25.3156 21.0521 25.3095 21.025 25.3216 21.0038C25.3298 20.9799 25.3399 20.9567 25.3518 20.9343C25.3512 20.9263 25.3512 20.9182 25.3518 20.9102C25.3518 20.9102 25.379 20.8528 25.3941 20.8286C25.4092 20.8045 25.4333 20.7592 25.4515 20.7259L25.4998 20.6504L25.5391 20.5961L25.5813 20.5417C25.5907 20.5264 25.6019 20.5122 25.6146 20.4994L25.6297 20.4813C25.6599 20.445 25.6901 20.4118 25.7203 20.3816L25.7565 20.3454L25.8169 20.294L25.8713 20.2366L25.9559 20.1762L26.0012 20.146H26.0223H26.0435L26.1069 20.1158L26.1643 20.0917H26.1824H26.2126H26.2639L26.3878 20.0645C26.4391 20.0615 26.4905 20.0615 26.5418 20.0645C26.617 20.0634 26.6921 20.0715 26.7653 20.0886C26.909 20.1215 27.0452 20.1809 27.167 20.2638L27.2123 20.3001C27.2296 20.3105 27.2458 20.3226 27.2607 20.3363L27.312 20.3786L27.3483 20.4118L27.3996 20.4632L27.4479 20.5175L27.4812 20.5538L27.5446 20.6353L27.5718 20.6716L27.611 20.735C27.6289 20.759 27.645 20.7843 27.6594 20.8105C27.6745 20.8377 27.6896 20.8619 27.7016 20.889L27.7439 20.9676L27.7711 21.0219C27.7711 21.0219 27.7711 21.0219 27.7711 21.0401L27.7953 21.0944V21.1397C27.8051 21.1612 27.8132 21.1834 27.8194 21.2062C27.8212 21.2182 27.8212 21.2304 27.8194 21.2424C27.8194 21.2666 27.8194 21.2908 27.8436 21.3149V21.3481C27.8647 21.4176 27.8829 21.4931 27.898 21.5686C27.898 21.6079 27.898 21.6502 27.9191 21.6894C27.9402 21.7287 27.9191 21.777 27.9191 21.8223C27.9313 21.9296 27.9374 22.0375 27.9372 22.1455C28.052 23.257 27.3815 24.1963 26.5841 24.1963ZM30.0998 18.4999C29.5501 18.4999 29.0699 18.062 28.8192 17.4126C28.6941 17.0847 28.6306 16.7366 28.6319 16.3857C28.6319 15.2168 29.2904 14.2714 30.0998 14.2714H30.13C30.2912 14.2764 30.4491 14.3177 30.5921 14.3922C31.163 14.6943 31.5677 15.4675 31.5677 16.3857C31.5737 17.5515 30.9183 18.4999 30.0998 18.4999Z" fill="#333333"/>
<path d="M33.395 9.63226L30.6133 14.3682V14.3924C30.4703 14.3179 30.3123 14.2766 30.1512 14.2715H30.0998C29.2904 14.2715 28.6319 15.2169 28.6319 16.3858C28.6306 16.7367 28.6941 17.0849 28.8192 17.4127L27.2033 20.1643C27.0815 20.0813 26.9452 20.0219 26.8016 19.9891C26.7283 19.9719 26.6533 19.9638 26.5781 19.9649C26.5268 19.9619 26.4753 19.9619 26.424 19.9649L26.3002 19.9921H26.2488H26.2186H26.2005C26.1342 20.0183 26.0705 20.0506 26.0102 20.0888L25.9559 20.125L25.8713 20.2368L25.8441 20.2579L25.7837 20.3093L25.7475 20.3455C25.7173 20.3757 25.6871 20.4089 25.6569 20.4452L25.6417 20.4633C25.6291 20.476 25.6179 20.4902 25.6085 20.5056L25.5662 20.5599L25.527 20.6143C25.4872 20.6736 25.4509 20.7351 25.4182 20.7986C25.4182 20.8227 25.3911 20.8499 25.376 20.8801V20.9103L25.3397 20.9979C25.3278 21.0202 25.3177 21.0435 25.3095 21.0674C25.3095 21.0885 25.3095 21.1127 25.2853 21.1368C25.2759 21.1605 25.2679 21.1847 25.2612 21.2093C25.2527 21.232 25.2457 21.2552 25.24 21.2788C25.24 21.2788 25.24 21.309 25.24 21.3211C25.239 21.3341 25.239 21.3473 25.24 21.3603V21.3936C25.24 21.4298 25.2219 21.4661 25.2159 21.5023C25.2173 21.5285 25.2173 21.5547 25.2159 21.5808C25.2159 21.6352 25.2008 21.6896 25.1947 21.747C25.1947 21.8527 25.1947 21.9584 25.1947 22.0701C25.1904 22.4872 25.2791 22.8999 25.4545 23.2783L23.8869 25.9483L23.8658 25.9875C23.7542 25.8822 23.6228 25.8001 23.4791 25.7462C23.3354 25.6923 23.1825 25.6675 23.0291 25.6734H23.0019C22.1895 25.6734 21.5341 26.6188 21.5341 27.7877C21.5274 28.2842 21.657 28.7731 21.9086 29.2012L18.7734 34.5322V18.0289L33.395 9.63226Z" fill="#333333"/>
</svg>
