<svg width="24" height="24" viewBox="0 0 24 24" fill="none" xmlns="http://www.w3.org/2000/svg">
<mask id="path-1-inside-1_950_7042" fill="white">
<path d="M20.2992 17.1L16.0992 21.3L11.8742 17.075L12.4242 16.55L15.7242 19.85L15.7242 3.475H16.4992V19.85L19.7492 16.55L20.2992 17.1ZM12.1242 6.9L11.5742 7.45L8.29922 4.15V20.525H7.52422L7.52422 4.15L4.24922 7.45L3.69922 6.925L7.92422 2.7L12.1242 6.9Z"/>
</mask>
<path d="M20.2992 17.1L16.0992 21.3L11.8742 17.075L12.4242 16.55L15.7242 19.85L15.7242 3.475H16.4992V19.85L19.7492 16.55L20.2992 17.1ZM12.1242 6.9L11.5742 7.45L8.29922 4.15V20.525H7.52422L7.52422 4.15L4.24922 7.45L3.69922 6.925L7.92422 2.7L12.1242 6.9Z" fill="#939997"/>
<path d="M20.2992 17.1L21.0063 17.8071L21.7134 17.1L21.0063 16.3929L20.2992 17.1ZM16.0992 21.3L15.3921 22.0071L16.0992 22.7142L16.8063 22.0071L16.0992 21.3ZM11.8742 17.075L11.1837 16.3516L10.4434 17.0584L11.1671 17.7821L11.8742 17.075ZM12.4242 16.55L13.1313 15.8429L12.4405 15.152L11.7337 15.8266L12.4242 16.55ZM15.7242 19.85L15.0171 20.5571L16.7242 22.2642V19.85H15.7242ZM15.7242 3.475V2.475H14.7242V3.475H15.7242ZM16.4992 3.475H17.4992V2.475H16.4992V3.475ZM16.4992 19.85H15.4992V22.2905L17.2117 20.5517L16.4992 19.85ZM19.7492 16.55L20.4563 15.8429L19.7438 15.1304L19.0367 15.8483L19.7492 16.55ZM12.1242 6.9L12.8313 7.60711L13.5384 6.9L12.8313 6.1929L12.1242 6.9ZM11.5742 7.45L10.8644 8.15442L11.5715 8.86691L12.2813 8.15711L11.5742 7.45ZM8.29922 4.15L9.00901 3.44559L7.29922 1.72275L7.29922 4.15H8.29922ZM8.29922 20.525V21.525H9.29922V20.525H8.29922ZM7.52422 20.525H6.52422V21.525H7.52422V20.525ZM7.52422 4.15H8.52422V1.72275L6.81443 3.44559L7.52422 4.15ZM4.24922 7.45L3.55874 8.17336L4.26816 8.85054L4.95901 8.15442L4.24922 7.45ZM3.69922 6.925L2.99211 6.2179L2.26837 6.94164L3.00874 7.64836L3.69922 6.925ZM7.92422 2.7L8.63133 1.9929L7.92422 1.28579L7.21711 1.9929L7.92422 2.7ZM20.2992 17.1L19.5921 16.3929L15.3921 20.5929L16.0992 21.3L16.8063 22.0071L21.0063 17.8071L20.2992 17.1ZM16.0992 21.3L16.8063 20.5929L12.5813 16.3679L11.8742 17.075L11.1671 17.7821L15.3921 22.0071L16.0992 21.3ZM11.8742 17.075L12.5647 17.7984L13.1147 17.2734L12.4242 16.55L11.7337 15.8266L11.1837 16.3516L11.8742 17.075ZM12.4242 16.55L11.7171 17.2571L15.0171 20.5571L15.7242 19.85L16.4313 19.1429L13.1313 15.8429L12.4242 16.55ZM15.7242 19.85H16.7242V3.475H15.7242H14.7242L14.7242 19.85H15.7242ZM15.7242 3.475V4.475H16.4992V3.475V2.475H15.7242V3.475ZM16.4992 3.475H15.4992L15.4992 19.85H16.4992H17.4992V3.475H16.4992ZM16.4992 19.85L17.2117 20.5517L20.4617 17.2517L19.7492 16.55L19.0367 15.8483L15.7867 19.1483L16.4992 19.85ZM19.7492 16.55L19.0421 17.2571L19.5921 17.8071L20.2992 17.1L21.0063 16.3929L20.4563 15.8429L19.7492 16.55ZM12.1242 6.9L11.4171 6.1929L10.8671 6.7429L11.5742 7.45L12.2813 8.15711L12.8313 7.60711L12.1242 6.9ZM11.5742 7.45L12.284 6.74559L9.00901 3.44559L8.29922 4.15L7.58943 4.85442L10.8644 8.15442L11.5742 7.45ZM8.29922 4.15H7.29922L7.29922 20.525H8.29922H9.29922V4.15H8.29922ZM8.29922 20.525V19.525H7.52422V20.525V21.525H8.29922V20.525ZM7.52422 20.525H8.52422V4.15H7.52422H6.52422L6.52422 20.525H7.52422ZM7.52422 4.15L6.81443 3.44559L3.53943 6.74559L4.24922 7.45L4.95901 8.15442L8.23401 4.85442L7.52422 4.15ZM4.24922 7.45L4.9397 6.72665L4.3897 6.20165L3.69922 6.925L3.00874 7.64836L3.55874 8.17336L4.24922 7.45ZM3.69922 6.925L4.40633 7.63211L8.63133 3.40711L7.92422 2.7L7.21711 1.9929L2.99211 6.2179L3.69922 6.925ZM7.92422 2.7L7.21711 3.40711L11.4171 7.60711L12.1242 6.9L12.8313 6.1929L8.63133 1.9929L7.92422 2.7Z" fill="#333333" mask="url(#path-1-inside-1_950_7042)"/>
</svg>
