<svg width="24" height="24" viewBox="0 0 24 24" fill="none" xmlns="http://www.w3.org/2000/svg">
<path d="M6.00112 14.5714H5.14397C4.68932 14.5714 4.25328 14.3908 3.93179 14.0693C3.6103 13.7479 3.42969 13.3118 3.42969 12.8572V5.14287C3.42969 4.68822 3.6103 4.25218 3.93179 3.93069C4.25328 3.6092 4.68932 3.42859 5.14397 3.42859H12.8583C13.3129 3.42859 13.749 3.6092 14.0704 3.93069C14.3919 4.25218 14.5725 4.68822 14.5725 5.14287V6.00002M11.144 9.42859H18.8583C19.805 9.42859 20.5725 10.1961 20.5725 11.1429V18.8572C20.5725 19.8039 19.805 20.5714 18.8583 20.5714H11.144C10.1972 20.5714 9.42969 19.8039 9.42969 18.8572V11.1429C9.42969 10.1961 10.1972 9.42859 11.144 9.42859Z" stroke="white" stroke-linecap="round" stroke-linejoin="round"/>
</svg>
