<svg width="24" height="24" viewBox="0 0 24 24" fill="none" xmlns="http://www.w3.org/2000/svg">
<path d="M19.9398 14.44L19.6398 15.6C19.5598 15.88 19.4198 16.12 19.1998 16.32C19.1398 16.38 19.0598 16.44 18.9798 16.5L18.6198 17.8C18.5998 17.9 18.5398 18 18.4798 18.08C18.2798 18.34 17.9598 18.44 17.6398 18.36L16.8598 18.16C16.4398 18.04 16.1798 17.6 16.2998 17.18L16.4998 16.4L10.3198 14.74L10.1198 15.52C9.99977 15.94 9.55977 16.2 9.13977 16.08L8.35977 15.88C8.03977 15.8 7.81977 15.52 7.77977 15.22C7.75977 15.12 7.77977 15 7.79977 14.9L8.13977 13.6C8.09977 13.52 8.05977 13.42 8.03977 13.34C7.95977 13.06 7.95977 12.76 8.01977 12.48L8.31977 11.32C8.43977 10.84 8.77977 10.46 9.23977 10.26C9.37977 10.2 9.53977 10.16 9.69977 10.14L10.1598 9.53999L10.9598 8.45999C11.0398 8.33999 11.1398 8.23999 11.2398 8.13999C11.4398 7.93999 11.6598 7.77999 11.8998 7.65999C12.0198 7.59999 12.1398 7.53999 12.2798 7.49999C12.5398 7.41999 12.7998 7.35999 13.0798 7.35999C13.3598 7.33999 13.6398 7.37999 13.9198 7.45999L16.9798 8.27999C17.2598 8.35999 17.5198 8.45999 17.7598 8.59999C18.4798 9.03999 18.9398 9.79999 19.0398 10.64L19.1998 11.98L19.2798 12.74C19.5398 12.92 19.7398 13.18 19.8398 13.48C20.0198 13.78 20.0198 14.12 19.9398 14.44ZM10.3998 11.46C9.99977 11.32 9.57977 11.54 9.43977 11.94C9.43977 11.96 9.41977 12 9.41977 12.02C9.27977 12.42 9.49977 12.84 9.89977 12.98C9.91977 12.98 9.95977 13 9.97977 13C10.4398 13.12 11.1198 13.38 11.2398 12.92C11.3598 12.46 10.8598 11.58 10.3998 11.46ZM17.6598 12.16L17.4998 10.82C17.4798 10.7 17.4398 10.58 17.3998 10.48C17.2598 10.14 16.9598 9.89999 16.6198 9.81999L13.5398 8.99999C13.0598 8.87999 12.5598 9.03999 12.2598 9.43999L11.4598 10.52L15.7598 11.68L17.6598 12.16ZM18.1198 13.52C17.6598 13.4 16.7798 13.9 16.6598 14.36C16.5398 14.82 17.2598 14.94 17.7198 15.06C18.1398 15.22 18.5998 15 18.7398 14.58C18.8798 14.16 18.6798 13.7 18.2598 13.56C18.2198 13.54 18.1598 13.54 18.1198 13.52Z" fill="#333333"/>
<path d="M7.58061 11.12L7.26061 12.28C7.18061 12.56 7.16061 12.86 7.20061 13.14L6.32061 13.86C6.22061 13.94 6.08061 13.92 6.00061 13.82C5.96061 13.76 5.94061 13.7 5.96061 13.64L6.34061 11.72C6.36061 11.6 6.28061 11.48 6.16061 11.46H6.14061L4.20061 11.28C4.08061 11.26 3.98061 11.16 4.00061 11.04C4.00061 10.98 4.04061 10.92 4.10061 10.88L5.72061 9.79999C5.82061 9.71999 5.86061 9.57999 5.78061 9.47999C5.78061 9.47999 5.78061 9.45999 5.76061 9.45999L4.52061 7.95999C4.44061 7.85999 4.46061 7.71999 4.56061 7.63999C4.62061 7.59999 4.68061 7.57999 4.74061 7.59999L6.66061 7.97999C6.78061 7.99999 6.90061 7.91999 6.92061 7.79999V7.77999L7.10061 5.81999C7.12061 5.69999 7.22061 5.59999 7.34061 5.61999C7.40061 5.61999 7.46061 5.65999 7.50061 5.71999L8.58061 7.33999C8.64061 7.43999 8.78061 7.47999 8.90061 7.39999C8.90061 7.39999 8.92061 7.39999 8.92061 7.37999L10.4206 6.13999C10.5206 6.05999 10.6606 6.07999 10.7406 6.17999C10.7806 6.23999 10.8006 6.29999 10.7806 6.35999L10.5006 7.75999C10.4406 7.83999 10.3606 7.91999 10.3006 7.99999L9.50061 9.07999L9.24061 9.43999C8.46061 9.63999 7.80061 10.3 7.58061 11.12Z" fill="#333333"/>
</svg>
