<svg width="24" height="24" viewBox="0 0 24 24" fill="none" xmlns="http://www.w3.org/2000/svg">
<path d="M7.69922 14.5796C8.94361 14.4913 10.1928 14.5038 11.4346 14.6167L11.9658 14.6704L12.0342 14.6782L12.083 14.7261C12.482 15.1148 12.871 15.6926 13.2275 16.3267C13.5856 16.9634 13.9185 17.6702 14.2021 18.3276C14.486 18.9855 14.7216 19.5969 14.8867 20.0435C14.9693 20.2668 15.0348 20.449 15.0791 20.5757C15.1012 20.639 15.1184 20.6885 15.1299 20.7222C15.1356 20.739 15.1396 20.7525 15.1426 20.7612C15.144 20.7655 15.1457 20.7688 15.1465 20.771L15.1475 20.7739L15.2354 21.0376H11.5811L11.5283 20.9204C11.254 20.3117 10.8261 19.7141 10.4619 19.2651C10.2808 19.0419 10.1172 18.8575 9.99902 18.729C9.97855 18.7068 9.95898 18.6863 9.94141 18.6675L7.4082 20.9849L7.35156 21.0376H3.72559L3.90625 20.7349L6.39941 16.5747L6.73438 15.5815L6.7373 15.5737L6.74023 15.5669C6.83565 15.3442 7.06178 15.1022 7.23828 14.9321C7.33062 14.8432 7.41754 14.7661 7.48145 14.7114C7.51338 14.6841 7.54006 14.6622 7.55859 14.647C7.56765 14.6395 7.575 14.6335 7.58008 14.6294C7.58241 14.6275 7.58456 14.6256 7.58594 14.6245L7.58789 14.6226H7.58887L7.6377 14.5835L7.69922 14.5796Z" fill="#DAE5ED" stroke="black" stroke-width="0.4"/>
<path d="M12.4489 15.468H11.0312C11.0312 15.468 11.9511 15.5721 12.8973 17.9881C12.8973 17.9881 13.7153 20.0645 11.807 20.1587C11.663 20.1648 11.5198 20.1825 11.3787 20.2116C11.5016 20.4135 11.6124 20.6225 11.7105 20.8375H14.9576C14.9576 20.8375 13.7739 17.2942 12.4489 15.468Z" fill="#8294AF"/>
<path d="M12.451 20.8377C12.0705 19.9732 11.5282 19.1894 10.8535 18.5285C10.8177 18.4935 10.7898 18.4514 10.7715 18.4049C10.7532 18.3584 10.7449 18.3085 10.7473 18.2586C10.7497 18.2087 10.7626 18.1598 10.7852 18.1152C10.8079 18.0706 10.8397 18.0314 10.8786 18C10.8904 17.9906 10.9021 17.9815 10.9139 17.9727C10.9292 17.9612 10.9403 17.945 10.9456 17.9266C10.9509 17.9082 10.9501 17.8886 10.9432 17.8707C10.9364 17.8528 10.9239 17.8376 10.9077 17.8274C10.8915 17.8173 10.8724 17.8127 10.8533 17.8143L10.7702 17.8214C10.6047 17.8573 10.4515 17.9361 10.3261 18.0498L9.95312 18.3879C9.95312 18.3879 11.1433 19.5745 11.7125 20.8375L12.451 20.8377Z" fill="#8294AF"/>
<path d="M12.5627 15.627C12.3817 15.3552 12.1749 15.1015 11.9451 14.8694C10.5408 14.709 9.1247 14.6787 7.71484 14.7789C7.71484 14.7789 8.77743 15.3269 10.2829 15.3546C10.5059 15.359 10.7276 15.3897 10.9435 15.4459C11.4725 15.5797 12.0173 15.6406 12.5627 15.627Z" fill="#8294AF"/>
<path d="M17.2832 10.729C17.6543 10.7546 18.2748 10.9322 18.749 11.7056C18.8748 11.9109 18.9476 12.1332 18.9033 12.3931C18.8631 12.6294 18.7762 12.9507 18.5361 13.1899C18.2878 13.4372 17.9028 13.5706 17.3242 13.4829L17.2822 13.4771L17.249 13.4487L16.1982 12.5552L16.1787 12.5386L16.166 12.5171V12.5161L16.165 12.5151L16.1641 12.5132C16.1631 12.5115 16.1616 12.5091 16.1602 12.5063C16.1572 12.5009 16.1531 12.4932 16.1484 12.4839C16.1392 12.4653 16.127 12.4392 16.1143 12.4067C16.0887 12.3417 16.0598 12.2494 16.0459 12.1392C16.0177 11.9155 16.0519 11.6187 16.2949 11.3374C16.4321 11.1736 16.5859 11.0245 16.7529 10.8911L16.7549 10.8892C16.9055 10.7731 17.0936 10.7159 17.2832 10.729Z" fill="#6FACDD" stroke="black" stroke-width="0.3"/>
<path d="M18.2186 11.2354C17.8271 11.4678 16.9346 11.9264 16.2257 11.7648C16.162 11.9909 16.1877 12.2328 16.2973 12.4406L17.3551 13.415C18.4442 13.5802 18.7366 12.846 18.8139 12.3905C18.8498 12.176 18.8068 11.9557 18.6928 11.7704C18.5691 11.5643 18.4084 11.3829 18.2186 11.2354Z" fill="#3D73A0"/>
<path d="M17.1611 6.98657C17.3067 6.96404 17.456 6.98061 17.5928 7.0354C17.6954 7.07652 17.7883 7.13773 17.8662 7.21509L17.9395 7.29712V7.2981C18.1412 7.56216 18.3508 7.895 18.5078 8.15845C18.5867 8.29083 18.6533 8.40721 18.7002 8.49048C18.7237 8.53214 18.7421 8.56599 18.7549 8.58911C18.7612 8.60052 18.7662 8.60935 18.7695 8.61548C18.7711 8.61833 18.7726 8.62071 18.7734 8.62231L18.7744 8.62427V8.62524L18.8535 8.77173L18.7256 8.87622L17.9277 9.52368L17.7998 9.6272L17.6729 9.52173L17.0537 9.00122L16.2148 9.43188L16.0479 9.51685L15.9521 9.35669C15.6893 8.91807 15.6133 8.42594 15.5996 8.05396C15.5927 7.86644 15.6016 7.7049 15.6123 7.59009C15.6176 7.53278 15.6234 7.48659 15.6279 7.45435C15.6302 7.43827 15.6323 7.42521 15.6338 7.41626C15.6345 7.41196 15.6343 7.40802 15.6348 7.40552C15.635 7.4044 15.6356 7.40331 15.6357 7.40259V7.40161L15.6592 7.27563L15.7822 7.24341C16.2543 7.12008 16.8187 7.03896 17.1611 6.98657Z" fill="#D37976" stroke="black" stroke-width="0.4"/>
<path d="M17.1314 8.44362V8.14709C17.1314 8.13923 17.1288 8.13161 17.1238 8.12549C17.1189 8.11936 17.112 8.11512 17.1044 8.11345C17.0967 8.11179 17.0887 8.1128 17.0816 8.11633C17.0746 8.11987 17.069 8.1257 17.0658 8.13285L16.9423 8.40438C16.905 8.48627 16.837 8.55026 16.7531 8.58262L15.9648 8.88603C16.0139 9.03738 16.0795 9.18285 16.1604 9.31979L17.0747 8.82732L17.7459 9.41332L17.9838 9.21997L17.2004 8.58768C17.1789 8.57034 17.1615 8.5484 17.1496 8.52347C17.1376 8.49854 17.1314 8.47126 17.1314 8.44362Z" fill="#A04B4B"/>
<path d="M15.9746 7.29749C16.1611 7.48973 16.2607 7.7638 16.3154 8.02502C16.3711 8.29083 16.3867 8.57095 16.3867 8.80042V8.81213L16.3848 8.82385L16.3232 9.34631L16.3145 9.42249L16.2559 9.47327C15.6633 9.98873 15.1036 10.5412 14.5801 11.1266C14.3031 11.4608 14.048 11.8128 13.8154 12.1793L13.8135 12.1813C13.4164 12.7853 12.9839 13.4588 12.6504 13.9811C12.4837 14.2421 12.3414 14.4657 12.2412 14.6237C12.1912 14.7025 12.1521 14.7654 12.125 14.8082C12.1115 14.8296 12.1008 14.8459 12.0938 14.8571C12.0903 14.8626 12.0877 14.8669 12.0859 14.8698C12.0852 14.871 12.0844 14.872 12.084 14.8727L12.083 14.8737L12.0312 14.9567L11.9336 14.9664C11.7494 14.9849 11.5749 15.0232 11.3799 15.0621C11.189 15.1002 10.9833 15.1375 10.7598 15.1432H10.7588C9.739 15.1642 8.7186 15.113 7.70605 14.9899L7.63574 14.9811L7.58594 14.9303C7.44684 14.7861 7.33544 14.6169 7.25781 14.4323L7.25684 14.4293C7.17983 14.2364 7.16264 14.0248 7.20703 13.8219C7.25144 13.619 7.35532 13.4338 7.50586 13.2906L7.70312 13.1012H7.7041C7.76869 13.0393 7.81947 12.9642 7.85352 12.8815C8.05275 12.3956 8.65516 10.9202 9.1709 9.60315C9.50829 8.74185 10.0914 8.31627 10.5928 8.10999C10.8414 8.0077 11.0687 7.95959 11.2344 7.93713C11.3172 7.92591 11.3853 7.92067 11.4336 7.91858C11.4578 7.91754 11.4774 7.91766 11.4912 7.9176H11.4971L15.8008 7.23987L15.9023 7.22327L15.9746 7.29749Z" fill="#DAE5ED" stroke="black" stroke-width="0.4"/>
<path d="M15.6326 7.46851L11.5095 8.11762C11.3294 8.11934 11.1502 8.14443 10.9766 8.19227C11.0425 8.49015 11.3663 9.54015 12.6824 9.73933C13.0771 9.80444 13.4822 9.73482 13.8324 9.54168C14.1393 9.3668 14.4597 9.05933 14.6194 8.51892C14.6194 8.51845 15.496 8.41092 15.6326 7.46851Z" fill="#8294AF"/>
<path d="M13.6454 12.0718C13.0342 12.1727 12.4744 11.9297 12.3408 11.4843C12.2414 11.1631 12.0947 10.8584 11.9055 10.5805C11.8208 10.4554 11.7076 10.3523 11.5751 10.2799C11.4426 10.2074 11.2947 10.1675 11.1438 10.1637L10.276 10.1392C10.2007 10.1369 10.1265 10.1572 10.0628 10.1975C9.99919 10.2378 9.94908 10.2962 9.91895 10.3652C9.76477 10.7219 9.53119 11.4746 9.68954 12.5283C9.83401 13.4914 10.0052 14.423 10.7535 14.943C11.1645 14.9326 11.5666 14.9078 11.9598 14.8688C11.9598 14.8688 12.045 14.7169 12.186 14.4719L12.2977 14.278C12.6292 13.7059 13.1551 12.8176 13.6454 12.0718Z" fill="#8294AF"/>
<path d="M11.1895 6.18188L11.0908 7.20728C11.0761 7.20283 11.0601 7.20097 11.0449 7.19556C10.9075 7.14665 10.7979 7.07219 10.7539 6.96899C10.7304 6.9139 10.7165 6.829 10.7158 6.71899C10.7152 6.61201 10.7269 6.49546 10.7441 6.38501C10.7582 6.29539 10.7766 6.21268 10.792 6.14575L11.1895 6.18188Z" fill="#343C47" stroke="black" stroke-width="0.4"/>
<path d="M15.0898 6.66797C15.0894 6.7415 15.0889 6.83196 15.082 6.92773C15.0734 7.04708 15.0585 7.17117 15.0332 7.28125C15.007 7.39509 14.9739 7.47722 14.9395 7.52441C14.8732 7.61514 14.7493 7.66308 14.6045 7.67969C14.5879 7.68158 14.5715 7.67965 14.5557 7.68066L14.6934 6.64355L15.0898 6.66797Z" fill="#343C47" stroke="black" stroke-width="0.4"/>
<path d="M11.2642 5.93188C11.2213 6.45984 11.2064 6.9897 11.2194 7.51924C11.2321 7.90963 11.3865 8.28204 11.6539 8.56679C11.9213 8.85154 12.2832 9.02911 12.6721 9.0663C12.6982 9.06861 12.7247 9.07057 12.7517 9.07218C12.7517 9.07218 12.7714 9.07359 12.8065 9.074C13.2025 9.07749 13.586 8.93561 13.8843 8.67524C14.1827 8.41488 14.3752 8.05411 14.4254 7.6613C14.4989 7.13054 14.5302 6.59477 14.5189 6.05906L11.2642 5.93188Z" fill="#D37976"/>
<path d="M14.425 7.66139C14.4845 7.21849 14.5173 6.7724 14.5231 6.32556L13.9444 6.69091C13.9444 6.69091 13.9801 7.42462 13.6624 7.72203L11.2227 7.58556C11.2504 7.96373 11.4111 8.31988 11.6763 8.59093C11.9414 8.86199 12.294 9.03048 12.6714 9.06656C12.6975 9.06888 12.7241 9.07084 12.7511 9.07244C12.7511 9.07244 12.7707 9.07386 12.8058 9.07427C13.2019 9.07783 13.5855 8.93595 13.8839 8.67554C14.1824 8.41513 14.3749 8.05428 14.425 7.66139Z" fill="#A04B4B"/>
<path d="M14.5019 6.88553C14.5219 6.61052 14.5274 6.33465 14.5182 6.05906L11.2635 5.93188C11.2635 5.93188 11.2375 6.22965 11.2227 6.63336C12.3029 6.83934 13.4028 6.92392 14.5019 6.88553Z" fill="#A04B4B"/>
<path d="M11.4443 11.6372C11.6472 11.623 11.8166 11.6368 11.9365 11.6538C11.9964 11.6623 12.0443 11.6715 12.0781 11.6792C12.095 11.683 12.1085 11.6864 12.1182 11.689L12.1338 11.6929L12.1348 11.6938H12.1357L12.2607 11.7319L12.2764 11.8618C12.2998 12.0567 12.3469 12.248 12.415 12.4321L12.4414 12.4917C12.4729 12.5482 12.5172 12.5975 12.5703 12.6353C12.6412 12.6856 12.7256 12.7132 12.8125 12.7153C13.4755 12.7319 14.4748 12.639 15.3174 12.5405C15.7364 12.4915 16.1134 12.4416 16.3857 12.4038C16.5219 12.3849 16.6322 12.369 16.708 12.3579C16.7458 12.3524 16.7751 12.3482 16.7949 12.3452C16.8047 12.3437 16.8123 12.343 16.8174 12.3423C16.8199 12.3419 16.822 12.3415 16.8232 12.3413L16.8242 12.3403L16.9922 12.3149L17.0449 12.4761L17.3213 13.3179L17.376 13.4829L17.2197 13.5601L17.2178 13.561C17.2167 13.5616 17.2148 13.5621 17.2129 13.563C17.2086 13.5651 17.2023 13.5679 17.1943 13.5718C17.1781 13.5796 17.1541 13.5915 17.123 13.606C17.0609 13.635 16.97 13.6769 16.8535 13.728C16.6202 13.8305 16.284 13.9709 15.8711 14.1245C15.0459 14.4315 13.9103 14.7921 12.6738 15.0015C12.0805 15.1019 11.597 14.9898 11.2109 14.7554C10.8292 14.5235 10.5557 14.1796 10.3613 13.8364C10.1667 13.4928 10.0457 13.1394 9.97363 12.8745C9.93755 12.7417 9.91373 12.6297 9.89844 12.5503C9.89078 12.5105 9.88541 12.4787 9.88184 12.4565C9.88009 12.4458 9.87883 12.4372 9.87793 12.4312C9.87748 12.4281 9.87622 12.4251 9.87598 12.4233V12.4204L9.86035 12.3071L9.9502 12.2368C10.4957 11.805 11.0369 11.6659 11.4443 11.6372Z" fill="#D37976" stroke="black" stroke-width="0.4"/>
<path d="M13.6641 14.6538C14.8624 14.3544 16.0252 13.9275 17.1325 13.3803L16.8561 12.5383C16.8561 12.5383 16.1368 12.6482 15.2544 12.7496L13.6641 14.6538Z" fill="#A04B4B"/>
<path d="M16.3608 13.147C15.0502 13.8374 13.1702 14.1069 12.4129 14.1916C12.1619 14.2196 11.9086 14.1635 11.6929 14.032C11.3577 13.8324 11.0832 13.5452 10.8988 13.2014C10.803 13.0221 10.7803 12.8127 10.8354 12.617C10.8905 12.4213 11.0193 12.2546 11.1946 12.1517C11.4271 12.0206 11.6798 11.9291 11.9424 11.8811L11.8825 11.8492C11.5514 11.8107 11.2158 11.839 10.8958 11.9325C10.5758 12.0261 10.2778 12.1828 10.0195 12.3936C10.0195 12.3936 10.4435 15.2407 12.6358 14.8693C14.1662 14.6101 15.5451 14.0905 16.3608 13.739V13.147Z" fill="#A04B4B"/>
<path d="M10.5371 9.4978C10.6673 9.46655 10.8024 9.46163 10.9346 9.48315C11.0666 9.50467 11.1931 9.55195 11.3066 9.6228L11.3955 9.68237C11.8239 9.99894 12.0372 10.5466 12.1475 10.9851C12.2078 11.2252 12.241 11.4472 12.2588 11.6091C12.2677 11.6901 12.2734 11.7568 12.2764 11.8035C12.2778 11.8266 12.2787 11.8453 12.2793 11.8582C12.2796 11.8646 12.2792 11.8702 12.2793 11.8738C12.2794 11.8754 12.2802 11.8767 12.2803 11.8777V11.8796L12.2861 12.0974L12.0684 12.0847C11.5478 12.0539 11.0613 12.1727 10.7012 12.3025C10.5219 12.3671 10.3757 12.4342 10.2754 12.4841C10.2254 12.509 10.1867 12.5295 10.1611 12.5437C10.1483 12.5508 10.1389 12.5568 10.1328 12.5603C10.1298 12.5621 10.1273 12.5634 10.126 12.5642H10.125L9.88965 12.7078L9.82617 12.4392C9.52072 11.1438 9.6467 10.3941 9.9082 9.95874C9.97715 9.84406 10.0679 9.74393 10.1758 9.66479C10.2838 9.58561 10.4069 9.52906 10.5371 9.4978Z" fill="#DAE5ED" stroke="black" stroke-width="0.4"/>
<path d="M18.5994 10.0288L17.5079 11.6566C17.3528 11.8637 17.1433 12.0237 16.9027 12.1187L16.534 12.2776C16.2245 12.3967 15.9615 12.6121 15.7837 12.892L12.1033 18.584C11.9844 18.7664 11.9674 18.9115 12.1356 19.0498L12.9312 19.7095C13.1239 19.8678 13.3844 19.8742 13.527 19.6697L17.3233 14.2235C17.4716 14.0109 17.5663 13.7656 17.5994 13.5085L17.6991 12.7353C17.728 12.5113 17.8144 12.2985 17.9498 12.1176L19.1421 10.5255L18.5994 10.0288Z" fill="#FFDFC0"/>
<path d="M18.5979 10.0288L17.4322 11.6204C17.2841 11.8226 17.0811 11.9781 16.8473 12.0685L16.4912 12.2061C16.1756 12.328 15.9065 12.5462 15.722 12.8296L12.0106 18.5294C11.9532 18.6175 11.9304 18.7237 11.9464 18.8277C11.9624 18.9316 12.0162 19.026 12.0974 19.0927L12.9033 19.7553C12.9489 19.7927 13.0017 19.8203 13.0585 19.8364C13.1152 19.8524 13.1747 19.8565 13.2331 19.8485C13.2915 19.8404 13.3476 19.8203 13.3979 19.7895C13.4482 19.7587 13.4916 19.7178 13.5253 19.6695L13.6253 19.5257L13.5246 19.5531C13.4711 19.5677 13.4148 19.569 13.3607 19.5569C13.3066 19.5448 13.2562 19.5197 13.214 19.4837L12.5905 18.9526C12.5249 18.8967 12.4817 18.8189 12.469 18.7336C12.4563 18.6483 12.4749 18.5614 12.5214 18.4887L16.0462 12.9829C16.1881 12.7611 16.3961 12.5895 16.6408 12.4923L16.9627 12.3643C17.1933 12.2727 17.3917 12.1148 17.5327 11.9106L18.0862 11.1097C18.1339 11.0408 18.2008 10.9873 18.2786 10.956C18.3564 10.9247 18.4417 10.917 18.5239 10.9338L18.7927 10.9888L19.1398 10.5253L18.5979 10.0288Z" fill="#D8A78C"/>
<path d="M18.6797 8.59473C19.0999 8.86651 19.5978 9.36091 19.8594 9.63281C19.9519 9.72811 20.0181 9.84657 20.0498 9.97559C20.0815 10.1046 20.078 10.2399 20.04 10.3672V10.3691C19.9617 10.6176 19.8017 10.8331 19.5869 10.9805L19.5859 10.9795C19.4637 11.0654 19.3272 11.0907 19.1963 11.0615C19.0684 11.033 18.9558 10.9562 18.8682 10.8574V10.8564L18.584 10.5439L18.5332 10.5029C18.5144 10.4913 18.4939 10.4824 18.4727 10.4756C18.4306 10.4622 18.3862 10.459 18.3428 10.4668L18.3291 10.4688H18.2812C18.1849 10.4845 18.0921 10.4768 18.0078 10.4258C17.9237 10.3749 17.8691 10.2942 17.8271 10.2158V10.2148C17.6942 9.97082 17.6156 9.70106 17.5967 9.42383L17.5908 9.3457L17.6514 9.29688L18.5039 8.60449L18.5879 8.53516L18.6797 8.59473Z" fill="#6FACDD" stroke="black" stroke-width="0.3"/>
<path d="M6.42871 7.4082C7.09978 7.40831 7.64355 7.95293 7.64355 8.62402C7.64345 9.29503 7.09971 9.83876 6.42871 9.83887C5.75762 9.83887 5.213 9.29509 5.21289 8.62402C5.21289 7.95287 5.75755 7.4082 6.42871 7.4082Z" fill="#CD1400" stroke="black" stroke-width="0.3"/>
<path d="M7.11041 8.58523C7.00678 8.34449 6.8417 8.13521 6.63171 7.97835C6.42172 7.8215 6.1742 7.72259 5.91394 7.69153C5.74045 7.78774 5.59713 7.93031 5.5 8.10329C5.56934 8.09166 5.63967 8.087 5.70994 8.08941C5.9193 8.09489 6.1224 8.16198 6.29381 8.28231C6.46523 8.40263 6.59735 8.57084 6.67365 8.76588C6.72517 8.89285 6.75367 9.02798 6.75782 9.16494C6.76286 9.33847 6.725 9.51055 6.64759 9.66594C6.86132 9.62092 7.05598 9.51111 7.20506 9.35147C7.21433 9.2897 7.21962 9.22739 7.22088 9.16494C7.22468 8.96613 7.18706 8.76871 7.11041 8.58523Z" fill="white"/>
<path d="M5.36334 8.6238C5.36356 8.74759 5.38546 8.87039 5.42805 8.98662C5.61764 9.11175 5.84527 9.16607 6.07094 9.14002C6.29661 9.11398 6.50588 9.00924 6.66199 8.84421C6.8181 8.67919 6.91106 8.46442 6.92454 8.23766C6.93802 8.01089 6.87115 7.78663 6.73569 7.60427C6.57661 7.55625 6.40849 7.54612 6.24479 7.57472C6.08109 7.60331 5.92636 7.66982 5.79297 7.76893C5.65959 7.86805 5.55125 7.997 5.47664 8.14549C5.40203 8.29397 5.3632 8.45786 5.36328 8.62404L5.36334 8.6238Z" fill="#F51100"/>
<path d="M12.2887 7.31952C12.2729 7.3195 12.2572 7.31738 12.242 7.31323L12.0702 7.26617C12.0253 7.25357 11.9872 7.22373 11.9643 7.18318C11.9413 7.14262 11.9354 7.09463 11.9477 7.04968C11.96 7.00473 11.9896 6.96648 12.03 6.94326C12.0704 6.92004 12.1183 6.91375 12.1633 6.92576L12.3352 6.97282C12.3764 6.98403 12.4122 7.00986 12.4359 7.0455C12.4596 7.08114 12.4695 7.12415 12.4638 7.16655C12.4581 7.20895 12.4372 7.24784 12.405 7.27599C12.3728 7.30413 12.3315 7.31957 12.2887 7.31952Z" fill="#A04B4B"/>
<path d="M13.2623 7.39998C13.2174 7.39994 13.1743 7.38285 13.1416 7.35218C13.109 7.32151 13.0892 7.27955 13.0863 7.23482C13.0834 7.1901 13.0977 7.14595 13.1262 7.11135C13.1546 7.07675 13.1952 7.05428 13.2397 7.0485L13.4161 7.0255C13.4393 7.02215 13.4629 7.02343 13.4855 7.02927C13.5082 7.03511 13.5294 7.04539 13.548 7.05952C13.5667 7.07364 13.5823 7.09133 13.5941 7.11156C13.6058 7.13178 13.6134 7.15414 13.6164 7.17733C13.6195 7.20051 13.6178 7.22407 13.6117 7.24663C13.6055 7.26919 13.5949 7.2903 13.5806 7.30874C13.5662 7.32717 13.5483 7.34256 13.5279 7.35401C13.5075 7.36546 13.485 7.37275 13.4618 7.37545L13.2853 7.39851C13.2777 7.39949 13.27 7.39998 13.2623 7.39998Z" fill="#A04B4B"/>
<path d="M18.8766 10.2942C18.6707 10.0192 18.433 10.063 18.433 10.063C18.2206 10.0754 18.1706 9.96927 18.1706 9.96927C18.0361 9.7433 17.9709 9.48279 17.9831 9.22009L17.7452 9.41345C17.728 9.67608 17.7847 9.93828 17.9089 10.1703C17.9466 10.2398 18.0056 10.2953 18.0773 10.3287C18.1489 10.3622 18.2294 10.3717 18.3068 10.356C18.3703 10.3433 18.4359 10.3474 18.4973 10.368C18.5586 10.3886 18.6135 10.4249 18.6564 10.4733L18.9384 10.7909C19.0075 10.8691 19.1029 10.9191 19.2065 10.9314C19.3101 10.9436 19.4146 10.9174 19.5 10.8576C19.2654 10.7812 19.0441 10.5173 18.8766 10.2942Z" fill="#3D73A0"/>
<path d="M6.77494 8.10035C6.54021 7.87382 6.23785 7.73025 5.91394 7.69153C5.7401 7.78728 5.59666 7.92996 5.5 8.10329C5.56934 8.09166 5.63967 8.087 5.70994 8.08941C5.9193 8.09489 6.1224 8.16198 6.29381 8.28231C6.46523 8.40263 6.59735 8.57084 6.67365 8.76588C6.67953 8.781 6.68441 8.79665 6.68988 8.812C6.82323 8.65896 6.90475 8.46765 6.92276 8.26547C6.87751 8.20696 6.82811 8.15178 6.77494 8.10035Z" fill="white"/>
<path d="M16.1623 9.31965C16.1802 9.1471 16.1891 8.97376 16.1892 8.80029C16.1881 8.80082 14.9165 9.48359 14.4336 10.9932C14.9701 10.3957 15.5477 9.83646 16.1623 9.31965Z" fill="#8294AF"/>
<path d="M14.5994 7.69406C14.6598 7.41687 14.6961 7.13498 14.7078 6.85153C14.5892 6.82809 14.4664 6.83855 14.3534 6.88171C14.3427 7.08849 14.3176 7.29428 14.2783 7.49759C13.5337 7.55988 12.608 7.51659 11.3914 7.36312C11.3848 7.13894 11.3812 6.89553 11.3884 6.66435C11.2844 6.59637 11.1631 6.55962 11.0389 6.55847C11.0249 6.87118 11.0324 7.21006 11.0435 7.52212C11.0445 7.63159 11.0905 9.15406 12.7971 9.25012H12.8038H12.8063C12.8755 9.25012 14.3052 9.22859 14.5984 7.69794V7.69718L14.5989 7.69435V7.69377L14.5994 7.69406ZM11.4142 7.72188C11.6319 7.7489 11.8397 7.77243 12.0378 7.79247C12.0269 7.93953 12.0025 8.30041 11.9973 8.65671C11.5837 8.39035 11.4542 7.96977 11.4142 7.72188ZM12.8128 8.89765C12.6558 8.88977 12.5003 8.86301 12.3497 8.81794C12.3481 8.43612 12.3772 7.99441 12.3897 7.82477C12.6478 7.84641 12.8903 7.86165 13.1191 7.87029C13.1057 8.06012 13.0791 8.49971 13.0897 8.865C12.9992 8.88485 12.907 8.89578 12.8144 8.89765H12.8128ZM13.4404 8.74765C13.4375 8.41312 13.4613 8.03482 13.4724 7.87859C13.7291 7.88077 13.9687 7.874 14.1952 7.85824C14.1403 8.05183 14.0445 8.23141 13.9142 8.38484C13.784 8.53828 13.6224 8.66196 13.4404 8.74765Z" fill="white"/>
<path d="M11.3889 6.66466C11.3925 6.4794 11.4082 6.29457 11.436 6.11136C11.4435 6.06533 11.4325 6.01819 11.4054 5.98023C11.3783 5.94228 11.3373 5.91662 11.2913 5.90884C11.2453 5.90107 11.1981 5.91182 11.16 5.93875C11.1219 5.96567 11.096 6.00659 11.088 6.05254C11.0616 6.22014 11.0452 6.38917 11.0391 6.55872C11.1048 6.58231 11.2221 6.62083 11.3889 6.66466Z" fill="#8294AF"/>
<path d="M14.5037 6.29999C14.4806 6.30216 14.4582 6.30886 14.4377 6.3197C14.4172 6.33055 14.399 6.34532 14.3843 6.36317C14.3695 6.38103 14.3584 6.40162 14.3516 6.42378C14.3447 6.44593 14.3424 6.46921 14.3445 6.49228C14.3559 6.62178 14.3583 6.75192 14.3517 6.88175C14.4671 6.87363 14.5853 6.86359 14.7061 6.85163C14.711 6.72061 14.7076 6.58941 14.696 6.45881C14.6915 6.41225 14.6688 6.36937 14.6327 6.33959C14.5966 6.30981 14.5502 6.29556 14.5037 6.29999Z" fill="#8294AF"/>
<path d="M13.2373 2.9624C13.2702 2.96523 13.2968 2.96777 13.3154 2.97021C13.3245 2.97141 13.3316 2.97331 13.3369 2.97412C13.3396 2.97453 13.3421 2.97483 13.3438 2.9751H13.3467C13.3467 2.9751 13.3459 2.97505 13.3457 2.97607C13.9606 3.07191 14.4073 3.29647 14.7256 3.59229C15.0432 3.88759 15.2218 4.24234 15.3193 4.57764C15.4166 4.91193 15.4344 5.23155 15.4287 5.46533C15.426 5.57676 15.4171 5.66992 15.4092 5.73779C15.5725 5.88126 15.6896 6.07141 15.7412 6.28467L15.751 6.36182C15.7515 6.3873 15.7492 6.41284 15.7441 6.43799C15.7339 6.48875 15.7124 6.53699 15.6816 6.57861C15.6508 6.62025 15.611 6.65458 15.5654 6.6792C15.5199 6.70375 15.4696 6.71822 15.418 6.72119L15.4082 6.72217V6.72119L14.2061 6.73486H14.1982C12.3046 6.68287 10.9296 6.30186 10.4248 6.14014C10.3683 6.12212 10.3172 6.09031 10.2764 6.04736C10.2355 6.00438 10.2056 5.9514 10.1904 5.89404C10.1754 5.83682 10.1752 5.77666 10.1895 5.71924C10.2037 5.66168 10.2323 5.60855 10.2725 5.56494C10.3973 5.42786 10.5489 5.3191 10.7168 5.24268C10.7925 4.62998 10.9751 4.17085 11.2217 3.83057C11.4846 3.46781 11.8112 3.25049 12.127 3.12354C12.4406 2.99752 12.7432 2.96057 12.9658 2.95459C13.0777 2.9516 13.1714 2.95674 13.2373 2.9624Z" fill="#5B6D7C" stroke="black" stroke-width="0.4"/>
<path d="M15.5446 6.33227C15.4945 6.12512 15.3695 5.94388 15.1936 5.82356C15.1936 5.82356 15.5952 3.75774 13.6398 3.24121C13.9158 3.42862 14.3817 3.85621 14.5433 4.67651C14.5718 4.82585 14.5419 4.98047 14.4597 5.10835C14.3774 5.23624 14.2491 5.32761 14.1014 5.36356C13.6278 5.47865 13.1452 5.55265 12.6589 5.58474C12.6409 5.58578 12.6239 5.59344 12.6111 5.60625C12.5984 5.61906 12.5909 5.63612 12.5899 5.65416C12.589 5.67219 12.5948 5.68994 12.6061 5.70398C12.6175 5.71803 12.6336 5.72739 12.6515 5.73027C13.1124 5.80386 13.5774 5.84853 14.0439 5.86404C14.1127 5.86587 14.1784 5.89268 14.2289 5.93944C14.2793 5.9862 14.3111 6.04972 14.3181 6.11815C14.3333 6.26684 14.2917 6.41577 14.2017 6.53509C14.5824 6.54556 14.984 6.54286 15.4042 6.5218C15.4267 6.52055 15.4486 6.51436 15.4684 6.50367C15.4883 6.49298 15.5055 6.47806 15.5189 6.45997C15.5323 6.44188 15.5415 6.42106 15.546 6.39899C15.5504 6.37692 15.5499 6.35414 15.5446 6.33227Z" fill="#343C47"/>
<path d="M13.1016 8.12536C13.2461 8.12536 13.3695 8.12201 13.4555 8.11871C13.4609 8.01871 13.4665 7.93436 13.4704 7.87866L13.1172 7.87036C13.1128 7.93236 13.107 8.0213 13.1016 8.12536Z" fill="#8294AF"/>
<path d="M12.3877 7.82483L12.0361 7.79248C12.0319 7.84848 12.0258 7.93595 12.0195 8.0423C12.1319 8.06372 12.2505 8.07989 12.3704 8.09201C12.3769 7.97889 12.3833 7.88466 12.3877 7.82483Z" fill="#8294AF"/>
<path d="M4.07812 20.8377H6.58636C6.3974 20.7718 6.23439 20.6473 6.12101 20.4823C5.93232 20.2255 5.82812 19.9163 5.82283 19.5976C5.81559 19.1614 5.85416 18.7257 5.93789 18.2976C5.94421 18.2632 5.93824 18.2276 5.921 18.1971C5.90376 18.1666 5.87636 18.1431 5.84357 18.1307C5.81079 18.1183 5.7747 18.1179 5.74162 18.1294C5.70853 18.1409 5.68054 18.1637 5.66254 18.1938L4.07812 20.8377Z" fill="#8294AF"/>
</svg>
