<svg width="24" height="24" viewBox="0 0 24 24" fill="none" xmlns="http://www.w3.org/2000/svg">
<g clip-path="url(#clip0_1053_21099)">
<path d="M10.7295 4.78943C15.4127 4.78943 19.2097 8.58579 19.21 13.2689C19.21 17.9522 15.4128 21.7494 10.7295 21.7494C6.04636 21.7492 2.25 17.9521 2.25 13.2689C2.25022 8.58593 6.0465 4.78965 10.7295 4.78943Z" fill="#FD646F" stroke="black" stroke-width="0.5"/>
<path d="M10.7285 19.8572C14.3668 19.8572 17.3163 16.9077 17.3163 13.2694C17.3163 9.631 14.3668 6.68152 10.7285 6.68152C7.0901 6.68152 4.14062 9.631 4.14062 13.2694C4.14062 16.9077 7.0901 19.8572 10.7285 19.8572Z" fill="#F5F5F5"/>
<path d="M17.3166 13.2693C17.3166 16.9075 14.367 19.8571 10.7287 19.8571C8.7039 19.8571 6.89244 18.9433 5.68359 17.5061C6.82899 18.4688 8.30701 19.0488 9.92042 19.0488C13.5587 19.0488 16.5083 16.0992 16.5083 12.461C16.5083 10.8475 15.9283 9.36952 14.9656 8.22412C16.4028 9.43297 17.3166 11.2444 17.3166 13.2693Z" fill="#E6E6E6"/>
<path d="M10.7309 17.7151C13.1863 17.7151 15.1767 15.7246 15.1767 13.2693C15.1767 10.8139 13.1863 8.82349 10.7309 8.82349C8.2756 8.82349 6.28516 10.8139 6.28516 13.2693C6.28516 15.7246 8.2756 17.7151 10.7309 17.7151Z" fill="#FD646F"/>
<path d="M15.1747 13.2693C15.1747 15.7246 13.1842 17.7151 10.7289 17.7151C9.29534 17.7151 8.0198 17.0365 7.20703 15.9828C7.95756 16.5624 8.89885 16.9068 9.92058 16.9068C12.3759 16.9068 14.3664 14.9163 14.3664 12.461C14.3664 11.4393 14.022 10.498 13.4424 9.74744C14.4961 10.5602 15.1747 11.8357 15.1747 13.2693Z" fill="#FC4755"/>
<path d="M10.7282 15.5326C11.9781 15.5326 12.9915 14.5193 12.9915 13.2693C12.9915 12.0193 11.9781 11.006 10.7282 11.006C9.47816 11.006 8.46484 12.0193 8.46484 13.2693C8.46484 14.5193 9.47816 15.5326 10.7282 15.5326Z" fill="#F5F5F5"/>
<path d="M17.0349 15.1899C16.8801 15.6996 16.6651 16.183 16.398 16.6316L14.4414 15.7194C14.73 15.2841 14.9434 14.7955 15.0638 14.2709L17.0349 15.1899Z" fill="#E6E6E6"/>
<path d="M15.062 14.2708C14.9416 14.7954 14.7282 15.284 14.4396 15.7193L12.418 14.7768C12.768 14.3848 12.9838 13.8703 12.9927 13.3057L15.062 14.2708Z" fill="#FC4755"/>
<path d="M12.9937 13.3057C12.9848 13.8703 12.7689 14.3848 12.4189 14.7768L10.5254 13.8937C10.1552 13.7216 9.98225 13.298 10.1144 12.9205C10.1233 12.8959 10.133 12.8712 10.1443 12.8466C10.2365 12.6493 10.3993 12.5083 10.5893 12.4392C10.7784 12.3705 10.9947 12.3733 11.1915 12.4654L12.9937 13.3057Z" fill="#E6E6E6"/>
<path d="M21.7773 5.77063L21.0176 6.53528L20.4932 7.06262L19.0596 8.50208C19.0017 8.56015 18.9189 8.5867 18.8379 8.57336L16.9893 8.2677L18.3828 6.88782L18.9131 6.36145L19.834 5.44641L21.7773 5.77063Z" fill="#50758D" stroke="black" stroke-width="0.3"/>
<path d="M18.5967 4.29956L17.6816 5.19604L17.1533 5.71265L15.7637 7.07202L15.4541 5.19214C15.4408 5.11138 15.4675 5.02836 15.5254 4.97046L16.9648 3.53003L17.4912 3.00269L18.2656 2.22632L18.5967 4.29956Z" fill="#50758D" stroke="black" stroke-width="0.3"/>
<path d="M19.3672 3.77112C19.6162 3.5219 20.0206 3.52184 20.2695 3.77112C20.2847 3.78626 20.2989 3.80241 20.3125 3.81897C20.4081 3.93582 20.456 4.07869 20.4561 4.22229C20.4561 4.38554 20.394 4.54929 20.2695 4.67346L11.3096 13.6334C11.0761 13.8672 10.7056 13.8815 10.4551 13.6764C10.4385 13.6628 10.4224 13.6486 10.4072 13.6334C10.2826 13.5088 10.2208 13.3461 10.2207 13.1823C10.2207 13.019 10.2827 12.8553 10.4072 12.7311L19.3672 3.77112Z" fill="#918291" stroke="black" stroke-width="0.3"/>
</g>
<defs>
<clipPath id="clip0_1053_21099">
<rect width="20" height="20" fill="white" transform="translate(2 2)"/>
</clipPath>
</defs>
</svg>
