<svg width="24" height="24" viewBox="0 0 24 24" fill="none" xmlns="http://www.w3.org/2000/svg">
<g clip-path="url(#clip0_1053_21069)">
<path d="M9.82807 18.8143C13.9357 18.8143 17.2655 15.4845 17.2655 11.3769C17.2655 7.26931 13.9357 3.93945 9.82807 3.93945C5.72048 3.93945 2.39062 7.26931 2.39062 11.3769C2.39062 15.4845 5.72048 18.8143 9.82807 18.8143Z" fill="white"/>
<path d="M17.1512 12.6761H15.5825C14.7128 12.6761 13.8713 12.8875 13.1146 13.2921C11.7304 13.3724 10.5772 14.3908 10.3377 15.7727L9.87262 18.4554C9.85191 18.5749 9.83844 18.6947 9.83203 18.8142C13.4941 18.8117 16.5369 16.1626 17.1512 12.6761Z" fill="#D2DCFD"/>
<path d="M9.82623 9.40222L7.75 10.9107L8.54305 13.3515H11.1094L11.9025 10.9107L9.82623 9.40222Z" fill="#6864F7"/>
<path d="M16.0391 7.2843L15.0938 9.87303L17.2629 11.5715C17.2645 11.5068 17.2654 11.442 17.2654 11.3769C17.2654 9.86487 16.8142 8.45826 16.0391 7.2843Z" fill="#6864F7"/>
<path d="M9.82842 5.90048L12.0592 4.27972C11.355 4.05859 10.6056 3.93933 9.82842 3.93933C9.05122 3.93933 8.30188 4.05859 7.59766 4.27972L9.82842 5.90048Z" fill="#6864F7"/>
<path d="M2.39324 11.575L4.56158 9.87549L3.61497 7.28723C2.84106 8.46056 2.39062 9.86608 2.39062 11.3768C2.39062 11.4431 2.39152 11.5091 2.39324 11.575Z" fill="#6864F7"/>
<path d="M7.62257 18.4813L6.71166 15.8787L3.95703 15.9407C4.87977 17.1264 6.15369 18.0253 7.62257 18.4813Z" fill="#6864F7"/>
<path d="M20.0983 15.2403H19.7176C19.1598 14.8429 18.4919 14.6294 17.807 14.6294H15.583C14.8981 14.6294 14.2302 14.8429 13.6724 15.2403H13.2917C12.7836 15.2403 12.3493 15.6058 12.2625 16.1064L11.7975 18.7891C11.6824 19.4531 12.1936 20.0606 12.8676 20.0606C13.3691 20.0606 13.8054 19.7173 13.9233 19.2299L14.1401 18.3331C14.7124 18.7407 15.3976 18.9598 16.1002 18.9598H17.2898C17.9924 18.9598 18.6776 18.7407 19.2499 18.3331L19.4667 19.2299C19.5846 19.7173 20.0209 20.0606 20.5224 20.0606C21.1964 20.0606 21.7076 19.4531 21.5925 18.7891L21.1275 16.1064C21.0407 15.6058 20.6064 15.2403 20.0983 15.2403Z" fill="#B1D952"/>
<path d="M21.9782 18.7223L21.5132 16.0396C21.3936 15.3501 20.799 14.8496 20.0992 14.8496H19.8396C19.2353 14.4495 18.5356 14.2388 17.8078 14.2388H17.1169C17.475 13.33 17.6562 12.37 17.6562 11.3769C17.6562 7.06046 14.1445 3.54883 9.82811 3.54883C5.51171 3.54883 2 7.0605 2 11.3769C2 15.6933 5.51167 19.205 9.82807 19.205C10.356 19.205 10.8803 19.1524 11.3934 19.0483C11.4091 19.3677 11.5284 19.6756 11.7386 19.9254C12.0198 20.2596 12.4316 20.4513 12.8684 20.4513C13.5527 20.4513 14.1429 19.9868 14.3037 19.3217L14.3953 18.943C14.9213 19.2108 15.5018 19.3504 16.101 19.3504H17.2906C17.8898 19.3504 18.4702 19.2108 18.9963 18.943L19.0879 19.3217C19.2487 19.9868 19.839 20.4513 20.5232 20.4513C20.96 20.4513 21.3718 20.2596 21.653 19.9254C21.9343 19.5912 22.0528 19.1527 21.9782 18.7223ZM15.5838 14.2388C14.856 14.2388 14.1563 14.4495 13.552 14.8496H13.2924C13.104 14.8496 12.9232 14.8859 12.7572 14.9524L11.5443 13.283L12.2143 11.2207L15.0169 10.3089L16.865 11.756C16.82 12.6195 16.6203 13.4521 16.2697 14.2388H15.5838ZM6.50742 15.4925L4.14982 15.5456C3.36067 14.4735 2.86739 13.1709 2.79157 11.7592L4.63889 10.3113L7.44192 11.2208L8.11196 13.283L6.50742 15.4925ZM2.80864 10.7531C2.88872 9.84431 3.14208 8.98442 3.53536 8.20687L4.09724 9.74321L2.80864 10.7531ZM8.82869 12.9609L8.21102 11.0599L9.82807 9.88509L11.4451 11.0599L10.8275 12.9609H8.82869ZM15.5582 9.74044L16.1193 8.2039C16.513 8.98129 16.7668 9.84103 16.8473 10.7498L15.5582 9.74044ZM15.6024 7.34183L14.7922 9.56044L11.9728 10.4777L10.2187 9.20321V6.09959L12.1252 4.71442C13.5428 5.20454 14.7567 6.13518 15.6024 7.34183ZM11.1531 4.45501L9.82811 5.41771L8.5031 4.45501C8.93236 4.37301 9.37533 4.33008 9.82811 4.33008C10.2809 4.33008 10.7238 4.37301 11.1531 4.45501ZM7.53098 4.71442L9.43748 6.09959V9.20321L7.68317 10.4778L4.86307 9.56274L4.05185 7.3446C4.89768 6.13658 6.1123 5.20493 7.53098 4.71442ZM4.80295 16.3124L6.43484 16.2756L6.97547 17.8203C6.15788 17.4569 5.42182 16.9424 4.80295 16.3124ZM7.92274 18.162L7.14602 15.9428L8.744 13.7422H10.9123L12.1386 15.4301C12.009 15.6053 11.9178 15.8122 11.8784 16.0396L11.4997 18.2243C10.9552 18.3567 10.394 18.4237 9.82811 18.4237C9.16806 18.4237 8.529 18.3325 7.92274 18.162ZM21.0553 19.4224C20.9228 19.5797 20.7289 19.67 20.5232 19.67C20.2009 19.67 19.923 19.4513 19.8472 19.1381L19.6303 18.2413C19.5999 18.1152 19.5088 18.0125 19.3872 17.9671C19.3429 17.9506 19.2967 17.9425 19.2507 17.9425C19.1705 17.9425 19.0911 17.9671 19.024 18.015C18.515 18.3775 17.9156 18.5692 17.2906 18.5692H16.1009C15.476 18.5692 14.8765 18.3775 14.3675 18.015C14.2619 17.9397 14.1258 17.9218 14.0043 17.9671C13.8827 18.0125 13.7917 18.1152 13.7612 18.2413L13.5443 19.1381C13.4686 19.4513 13.1906 19.67 12.8683 19.67C12.6626 19.67 12.4687 19.5797 12.3362 19.4224C12.2038 19.265 12.148 19.0585 12.1831 18.8558L12.6481 16.1731C12.7026 15.8589 12.9735 15.6309 13.2924 15.6309H13.6731C13.7543 15.6309 13.8335 15.6056 13.8997 15.5584C14.3942 15.2062 14.9765 15.02 15.5837 15.02H17.8077C18.4149 15.02 18.9972 15.2062 19.4917 15.5584C19.5579 15.6056 19.6371 15.6309 19.7183 15.6309H20.099C20.4179 15.6309 20.6889 15.8589 20.7433 16.1731L21.2083 18.8558C21.2435 19.0585 21.1877 19.265 21.0553 19.4224Z" fill="black"/>
<path d="M15.5211 17.1279H15.1289C14.9132 17.1279 14.7383 16.9531 14.7383 16.7373C14.7383 16.5216 14.9132 16.3467 15.1289 16.3467H15.5211C15.7368 16.3467 15.9118 16.5216 15.9118 16.7373C15.9118 16.9531 15.7369 17.1279 15.5211 17.1279Z" fill="white"/>
<path d="M18.2633 17.1279H17.8711C17.6554 17.1279 17.4805 16.9531 17.4805 16.7373C17.4805 16.5216 17.6554 16.3467 17.8711 16.3467H18.2633C18.479 16.3467 18.6539 16.5216 18.6539 16.7373C18.6539 16.9531 18.479 17.1279 18.2633 17.1279Z" fill="white"/>
</g>
<defs>
<clipPath id="clip0_1053_21069">
<rect width="20" height="20" fill="white" transform="translate(2 2)"/>
</clipPath>
</defs>
</svg>
