<svg width="20" height="20" viewBox="0 0 20 20" fill="none" xmlns="http://www.w3.org/2000/svg">
<path d="M9.59961 0.299805C14.7357 0.299805 18.9002 4.46354 18.9004 9.59961C18.9004 14.7359 14.7359 18.9004 9.59961 18.9004C4.46354 18.9002 0.299805 14.7357 0.299805 9.59961C0.300016 4.46367 4.46367 0.300016 9.59961 0.299805Z" fill="#ABCC00" stroke="black" stroke-width="0.6"/>
<path d="M9.60125 17.62C14.0582 17.62 17.6712 14.0069 17.6712 9.54998C17.6712 5.09304 14.0582 1.47998 9.60125 1.47998C5.14431 1.47998 1.53125 5.09304 1.53125 9.54998C1.53125 14.0069 5.14431 17.62 9.60125 17.62Z" fill="#B5D900"/>
<path d="M7.29823 11.873C5.57215 10.1469 2.98687 9.41972 0.00390625 9.82892C0.00942625 10.0711 0.0216664 10.3116 0.0449464 10.5489C2.82439 10.1541 5.21527 10.8086 6.78919 12.3823C8.36287 13.956 9.01711 16.3461 8.63215 19.1524L8.68951 19.1604C8.90791 19.181 9.12871 19.1928 9.35119 19.1983C9.75247 16.1853 9.02479 13.5998 7.29823 11.873Z" fill="black"/>
<path d="M11.8791 7.29095C13.296 8.70791 15.2911 9.45263 17.604 9.45263C18.1056 9.45263 18.6233 9.41687 19.1911 9.36143C19.1851 9.11999 19.1729 8.87999 19.1491 8.64311C16.3443 9.00743 13.9591 8.35271 12.3881 6.78167C10.8144 5.20799 10.1604 2.81759 10.5454 0.0511066C10.3083 0.0278266 10.0678 0.0155867 9.82587 0.00982666C9.42603 2.98103 10.1532 5.56535 11.8791 7.29095Z" fill="black"/>
<path d="M1.69922 9.71759C1.75034 9.96335 1.81274 10.2048 1.88522 10.4419C3.87506 10.5021 5.57666 11.1665 6.79058 12.3801C7.74914 13.3387 8.36474 14.6018 8.61386 16.0759C8.8565 16.1054 9.10226 16.1241 9.3509 16.1316C9.09866 14.4355 8.4053 12.9766 7.29962 11.8709C5.90978 10.4813 3.96242 9.74015 1.69922 9.71759Z" fill="black"/>
<path d="M12.392 6.78001C10.8195 5.20753 10.1655 2.81953 10.5486 0.0552145C10.5097 0.0506545 10.4715 0.0444144 10.4324 0.0403344C10.2332 0.0237744 10.0321 0.0127346 9.82977 0.00793457C9.42993 2.97889 10.1571 5.56321 11.883 7.28881C13.2882 8.69401 15.2624 9.43729 17.5508 9.4493C17.5911 9.21578 17.6214 8.97889 17.6411 8.73889C15.4933 8.73169 13.6722 8.06017 12.392 6.78001Z" fill="black"/>
</svg>
