<svg width="24" height="25" viewBox="0 0 24 25" fill="none" xmlns="http://www.w3.org/2000/svg">
<path d="M12.5195 20.9256H20.9823V13.5206H12.5195V20.9256ZM14.8809 16.1011L15.6289 15.3531L16.7509 16.4751L17.873 15.3531L18.621 16.1011L17.4989 17.2231L18.621 18.3451L17.873 19.0931L16.7509 17.9711L15.6289 19.0931L14.8809 18.3451L16.0029 17.2231L14.8809 16.1011Z" fill="#333333"/>
<path d="M3 20.9256H11.4628V13.5206H3V20.9256ZM6.01861 16.6621L6.70247 17.346L8.44415 15.6042L9.19215 16.3522L6.70247 18.842L5.2706 17.4101L6.01861 16.6621Z" fill="#333333"/>
<path d="M3 10.876H11.4628V12.4628H3V10.876Z" fill="#333333"/>
<path d="M12.5195 10.876H20.9989V12.4628H12.5195V10.876Z" fill="#333333"/>
<path d="M7.23014 7.70247C8.25255 7.70247 9.08138 6.87364 9.08138 5.85124C9.08138 4.82883 8.25255 4 7.23014 4C6.20773 4 5.37891 4.82883 5.37891 5.85124C5.37891 6.87364 6.20773 7.70247 7.23014 7.70247Z" fill="#333333"/>
<path d="M16.7536 7.70247C17.776 7.70247 18.6048 6.87364 18.6048 5.85124C18.6048 4.82883 17.776 4 16.7536 4C15.7312 4 14.9023 4.82883 14.9023 5.85124C14.9023 6.87364 15.7312 7.70247 16.7536 7.70247Z" fill="#333333"/>
<path d="M9.27416 7.91962C8.74845 8.43895 8.02667 8.76029 7.23103 8.76029C6.43571 8.76029 5.71418 8.43923 5.1885 7.92018C4.62537 8.39487 4.2291 9.06146 4.10156 9.81814H10.36C10.2389 9.09238 9.86917 8.42231 9.27416 7.91962Z" fill="#333333"/>
<path d="M18.7937 7.91962C18.2679 8.43895 17.5461 8.76029 16.7506 8.76029C15.9552 8.76029 15.2337 8.43923 14.708 7.92018C14.1449 8.39487 13.7486 9.06146 13.6211 9.81814H19.8795C19.7575 9.08695 19.3841 8.41807 18.7937 7.91962Z" fill="#333333"/>
</svg>
