<svg width="20" height="20" viewBox="0 0 20 20" fill="none" xmlns="http://www.w3.org/2000/svg">
<path d="M16.1931 4.87228L15.4011 4.27833L16.109 3.3345L16.9009 3.92845C17.8046 4.6062 19.0668 4.60612 19.9704 3.92845L20 3.90623L19.4654 3.01521C18.7219 1.77604 17.3623 1.00623 15.9172 1.00623C14.8426 1.00623 13.828 1.4201 13.0677 2.14323C12.1918 1.54146 11.1383 1.21926 10 1.21926C8.86176 1.21926 7.80824 1.54146 6.93229 2.14323C6.17199 1.4201 5.15741 1.00623 4.08282 1.00623C2.6377 1.00623 1.27815 1.776 0.534602 3.01521L0 3.90627L0.0296127 3.92849C0.933214 4.6062 2.19543 4.60624 3.09907 3.92849L3.89095 3.33454L4.59882 4.27837L3.80691 4.87232C3.55951 5.05786 3.29425 5.21005 3.0159 5.32768L4.50448 6.48549C4.47376 6.76203 4.45776 7.04384 4.45776 7.32978C4.45776 8.85281 5.04958 10.1757 5.44457 10.8888L6.104 16.8425C6.15339 17.4269 6.41715 17.9681 6.84738 18.3671C7.2799 18.7682 7.84297 18.9908 8.43287 18.9938H8.44466C9.03479 18.9938 9.58595 18.7695 9.99994 18.3808C10.4139 18.7696 10.965 18.9938 11.5552 18.9938H11.567C12.1569 18.9908 12.72 18.7682 13.1525 18.3671C13.5827 17.9681 13.8465 17.427 13.8959 16.8425L14.5553 10.8888C14.9503 10.1757 15.5421 8.85277 15.5421 7.32974C15.5421 7.0438 15.5262 6.76199 15.4954 6.48549L16.984 5.32768C16.7057 5.21001 16.4405 5.05786 16.1931 4.87228ZM7.87636 8.10144H6.69657V6.92165H7.87636V8.10144ZM12.1236 6.92165H13.3034V8.10144H12.1236V6.92165ZM8.78189 16.7751C8.27021 16.4681 7.95277 15.9074 7.95277 15.3115C7.95277 14.4551 8.58683 13.7443 9.41012 13.6233V10.839H10.5899V13.6233C11.4132 13.7443 12.0473 14.4551 12.0473 15.3115C12.0473 15.9074 11.7298 16.4681 11.2188 16.7748L10.0001 17.5041L8.78189 16.7751Z" fill="#914400"/>
<path d="M9.38851 15.7631L10.0002 16.1292L10.6125 15.7628C10.7697 15.6685 10.8677 15.4954 10.8677 15.3115C10.8677 15.0211 10.6313 14.7848 10.341 14.7848H9.65951C9.36909 14.7848 9.13281 15.0211 9.13281 15.3115C9.13277 15.4954 9.23077 15.6685 9.38851 15.7631Z" fill="black"/>
</svg>
