<svg width="20" height="20" viewBox="0 0 20 20" fill="none" xmlns="http://www.w3.org/2000/svg">
<path d="M10.8151 1.61554C11.0414 1.31573 11.005 0.679815 10.9728 0.118853C10.9716 0.0946733 10.9703 0.0710254 10.9689 0.0470093C10.6517 0.0167335 10.3306 0 10.0056 0C8.76019 0 7.56856 0.229319 6.46875 0.645038C7.2533 1.02189 8.46773 1.67053 9.8176 2.62892C10.2782 2.23276 10.6255 1.86704 10.8151 1.61554Z" fill="#333333"/>
<path d="M15.8818 7.32157C15.3887 7.37725 14.9728 7.45814 14.6172 7.57159C16.3174 10.5387 16.9803 14.2873 17.1425 17.003C18.8269 15.2876 19.8966 12.9686 19.9977 10.3999C18.8371 8.97397 17.2996 7.16082 15.8818 7.32157Z" fill="#333333"/>
<path d="M5.77736 4.76052C6.97197 4.51206 8.0943 3.91108 8.98916 3.27672C7.12232 1.99155 5.56525 1.32459 5.25551 1.19763C3.31871 2.24415 1.76885 3.91157 0.867188 5.93191C2.03916 5.46517 3.30844 5.22771 4.55512 4.99635C4.95842 4.92147 5.37532 4.84411 5.77736 4.76052Z" fill="#333333"/>
<path d="M12.6914 5.05128C12.798 5.1584 12.9044 5.26735 13.01 5.37835C13.3997 5.78727 13.7533 6.23454 14.0776 6.70774C14.5498 6.52952 15.1058 6.40314 15.7712 6.32794C17.3392 6.15067 18.7335 7.39218 19.9301 8.75901C19.6736 6.68696 18.7845 4.81161 17.4597 3.33264C16.7366 3.41975 15.9304 3.56732 15.1088 3.81239C14.5698 3.9733 13.7114 4.4105 12.6914 5.05128Z" fill="#333333"/>
<path d="M11.3736 10.2156C11.784 8.82637 12.2593 7.82494 13.1802 7.17491C12.9038 6.77833 12.6064 6.40615 12.2842 6.06804C12.1352 5.91159 11.9845 5.76049 11.8331 5.61206C8.1384 8.12573 3.07739 12.7432 2.61719 16.744C4.15338 18.424 6.25575 19.5761 8.62247 19.9029C9.48422 18.1881 10.2953 14.7019 10.7774 12.6285C11.009 11.6327 11.2089 10.7728 11.3736 10.2156Z" fill="#333333"/>
<path d="M7.18548 8.01253C8.47371 6.826 9.83414 5.76201 11.0784 4.90688C10.6637 4.5401 10.2476 4.20199 9.83921 3.89191C8.80571 4.66844 7.45257 5.43327 5.97965 5.73947C5.56718 5.82526 5.1448 5.90369 4.73645 5.97946C3.16309 6.2715 1.65277 6.55434 0.382636 7.26267C0.135282 8.13293 0 9.05045 0 9.99997C0 12.1241 0.664661 14.0921 1.79444 15.7116C2.52635 12.8151 5.03682 9.99154 7.18548 8.01253Z" fill="#333333"/>
<path d="M11.9411 4.33579C13.1313 3.57734 14.1575 3.05292 14.8232 2.85428C15.4211 2.67582 16.0076 2.54584 16.563 2.45104C15.2796 1.33636 13.7109 0.541907 11.9791 0.195618C12.0175 0.894007 12.0342 1.66076 11.6139 2.21784C11.4142 2.48238 11.0763 2.8452 10.6367 3.23883C11.0672 3.57378 11.5048 3.93906 11.9411 4.33579Z" fill="#333333"/>
<path d="M12.3341 10.4988C12.1779 11.0277 11.9809 11.8745 11.7529 12.8549C11.0798 15.7497 10.4358 18.34 9.68359 19.9919C9.79039 19.9953 9.89714 20 10.0047 20C12.3364 20 14.4798 19.2006 16.1808 17.8641C16.1137 15.0222 15.4321 11.0025 13.7152 8.01862C13.0493 8.5133 12.6909 9.29151 12.3341 10.4988Z" fill="black"/>
</svg>
