<svg width="20" height="20" viewBox="0 0 20 20" fill="none" xmlns="http://www.w3.org/2000/svg">
<path d="M8.47266 13.7381H10.9179V17.5743H8.47266V13.7381Z" fill="#7A6D79"/>
<path d="M10.668 13.7381H11.5273V17.5743H10.668V13.7381Z" fill="#685E68"/>
<path d="M8.13281 16.9575H11.1269C11.3427 16.9575 11.5175 17.1324 11.5175 17.3482V19.3164C11.5175 19.5321 11.3427 19.707 11.1269 19.707H8.13281C7.91707 19.707 7.74219 19.5321 7.74219 19.3164V17.3482C7.74219 17.1324 7.91711 16.9575 8.13281 16.9575Z" fill="#FFE177"/>
<path d="M11.8672 16.9575H10.6953C10.9111 16.9575 11.0859 17.1324 11.0859 17.3482V19.3164C11.0859 19.5321 10.9111 19.707 10.6953 19.707H11.8672C12.0829 19.707 12.2578 19.5321 12.2578 19.3164V17.3482C12.2578 17.1324 12.0829 16.9575 11.8672 16.9575Z" fill="#FFD15B"/>
<path d="M17.9883 15.2434H1.26953C0.730195 15.2434 0.292969 14.8061 0.292969 14.2668V2.87593C0.292969 2.33659 0.730195 1.89937 1.26953 1.89937H17.9883C18.5276 1.89937 18.9648 2.33659 18.9648 2.87593V14.2668C18.9648 14.8062 18.5276 15.2434 17.9883 15.2434Z" fill="#9EC8FC"/>
<path d="M7.14402 12.5905H2.53125C2.20766 12.5905 1.94531 12.3281 1.94531 12.0045V5.13824C1.94531 4.81465 2.20766 4.55231 2.53125 4.55231H7.14398C7.46758 4.55231 7.72992 4.81465 7.72992 5.13824V12.0045C7.72996 12.3281 7.46762 12.5905 7.14402 12.5905Z" fill="#7A6D79"/>
<path d="M7.88672 4.55231H6.83203C7.15563 4.55231 7.41797 4.81465 7.41797 5.13824V12.0045C7.41797 12.3281 7.15563 12.5905 6.83203 12.5905H7.88672C8.21031 12.5905 8.47266 12.3281 8.47266 12.0045V5.13824C8.47266 4.81465 8.21031 4.55231 7.88672 4.55231Z" fill="#685E68"/>
<path d="M18.7305 1.89937H17.5586C18.0979 1.89937 18.5352 2.33659 18.5352 2.87593V14.2668C18.5352 14.8061 18.0979 15.2434 17.5586 15.2434H18.7305C19.2698 15.2434 19.707 14.8061 19.707 14.2668V2.87593C19.707 2.33659 19.2698 1.89937 18.7305 1.89937Z" fill="#80B6FC"/>
<path d="M16.7261 12.5905H12.1133C11.7897 12.5905 11.5273 12.3281 11.5273 12.0045V5.13824C11.5273 4.81465 11.7897 4.55231 12.1133 4.55231H16.726C17.0496 4.55231 17.312 4.81465 17.312 5.13824V12.0045C17.312 12.3281 17.0496 12.5905 16.7261 12.5905Z" fill="#7A6D79"/>
<path d="M17.4688 4.55231H16.4141C16.7377 4.55231 17 4.81465 17 5.13824V12.0045C17 12.3281 16.7377 12.5905 16.4141 12.5905H17.4688C17.7923 12.5905 18.0547 12.3281 18.0547 12.0045V5.13824C18.0547 4.81465 17.7923 4.55231 17.4688 4.55231Z" fill="#685E68"/>
<path d="M12.8787 3.50582H6.37891C6.05531 3.50582 5.79297 3.24348 5.79297 2.91988V0.878906C5.79297 0.555312 6.05531 0.292969 6.37891 0.292969H12.8787C13.2023 0.292969 13.4646 0.555312 13.4646 0.878906V2.91988C13.4646 3.24348 13.2023 3.50582 12.8787 3.50582Z" fill="#EFEDEF"/>
<path d="M13.6211 0.292969H12.4492C12.7728 0.292969 13.0352 0.555312 13.0352 0.878906V2.91984C13.0352 3.24348 12.7728 3.50578 12.4492 3.50578H13.6211C13.9447 3.50578 14.207 3.24348 14.207 2.91984V0.878906C14.207 0.555312 13.9447 0.292969 13.6211 0.292969Z" fill="#E5E1E5"/>
<path d="M1.65234 5.13824V12.0045C1.65234 12.4891 2.0466 12.8834 2.53125 12.8834H7.88617C8.37082 12.8834 8.76508 12.4891 8.76508 12.0045V5.13824C8.76508 4.6536 8.37082 4.25934 7.88617 4.25934H2.53125C2.04664 4.25934 1.65234 4.6536 1.65234 5.13824ZM8.17918 5.13824V12.0045C8.17918 12.1661 8.04773 12.2975 7.88621 12.2975H2.53125C2.36969 12.2975 2.23828 12.1661 2.23828 12.0045V5.13824C2.23828 4.97668 2.36969 4.84528 2.53125 4.84528H7.88617C8.04773 4.84528 8.17918 4.97668 8.17918 5.13824Z" fill="black"/>
<path d="M10 7.73257C10.1618 7.73257 10.293 7.6014 10.293 7.43961C10.293 7.27781 10.1618 7.14664 10 7.14664C9.8382 7.14664 9.70703 7.27781 9.70703 7.43961C9.70703 7.6014 9.8382 7.73257 10 7.73257Z" fill="black"/>
<path d="M9.70703 9.70317C9.70703 9.86497 9.8382 9.99614 10 9.99614C10.1618 9.99614 10.293 9.86497 10.293 9.70317C10.293 9.54137 10.1618 9.4102 10 9.4102C9.8382 9.4102 9.70703 9.54137 9.70703 9.70317Z" fill="black"/>
<path d="M5.06008 11.0001C4.53023 11.0001 4.07559 10.6052 4.0025 10.0815C3.99566 10.0325 3.99219 9.98219 3.99219 9.93222C3.99219 9.77043 3.86102 9.63926 3.69922 9.63926C3.53742 9.63926 3.40625 9.77043 3.40625 9.93222C3.40625 10.0092 3.4116 10.0867 3.42219 10.1625C3.53543 10.9741 4.23957 11.5861 5.06008 11.5861C5.97199 11.5861 6.71391 10.8441 6.71391 9.93222C6.71391 9.36851 6.43023 8.87008 5.99836 8.57137C6.43023 8.27269 6.71391 7.77422 6.71391 7.21054C6.71391 6.29863 5.97199 5.55672 5.06008 5.55672C4.27156 5.55672 3.58906 6.11758 3.4373 6.89027C3.40613 7.04902 3.50953 7.20305 3.66832 7.23422C3.82707 7.26539 3.98109 7.16199 4.01227 7.0032C4.1102 6.50453 4.5509 6.14262 5.06012 6.14262C5.64895 6.14262 6.12801 6.62168 6.12801 7.21051C6.12801 7.79933 5.64895 8.27836 5.06012 8.27836C4.89832 8.27836 4.76715 8.40953 4.76715 8.57133C4.76715 8.73312 4.89832 8.8643 5.06012 8.8643C5.64895 8.8643 6.12801 9.34336 6.12801 9.93219C6.12797 10.5211 5.64891 11.0001 5.06008 11.0001Z" fill="black"/>
<path d="M15.1954 11.58C15.3572 11.58 15.4883 11.4488 15.4883 11.287V5.9687C15.4883 5.80691 15.3572 5.67574 15.1954 5.67574H14.0586C13.8968 5.67574 13.7656 5.80691 13.7656 5.9687C13.7656 6.1305 13.8968 6.26167 14.0586 6.26167H14.9024V11.287C14.9024 11.4488 15.0336 11.58 15.1954 11.58Z" fill="black"/>
<path d="M18.0541 10.1701C18.216 10.1701 18.3471 10.0389 18.3471 9.87711V5.13824C18.3471 4.6536 17.9528 4.25934 17.4682 4.25934H12.1133C11.6287 4.25934 11.2344 4.6536 11.2344 5.13824V12.0045C11.2344 12.4891 11.6287 12.8834 12.1133 12.8834H17.4682C17.9528 12.8834 18.3471 12.4891 18.3471 12.0045V11.1539C18.3471 10.9921 18.216 10.8609 18.0541 10.8609C17.8923 10.8609 17.7612 10.9921 17.7612 11.1539V12.0045C17.7612 12.1661 17.6298 12.2975 17.4682 12.2975H12.1133C11.9517 12.2975 11.8203 12.1661 11.8203 12.0045V5.13824C11.8203 4.97668 11.9517 4.84528 12.1133 4.84528H17.4682C17.6298 4.84528 17.7612 4.97668 17.7612 5.13824V9.87711C17.7612 10.0389 17.8923 10.1701 18.0541 10.1701Z" fill="black"/>
<path d="M18.7305 1.60645H14.4999V0.878906C14.4999 0.394258 14.1056 0 13.621 0H6.37902C5.89437 0 5.50012 0.394258 5.50012 0.878906V1.60645H3.89344C3.73164 1.60645 3.60047 1.73762 3.60047 1.89941C3.60047 2.06121 3.73164 2.19238 3.89344 2.19238H5.50012V2.91988C5.50012 3.40453 5.89437 3.79879 6.37902 3.79879H9.3616C9.5234 3.79879 9.65457 3.66762 9.65457 3.50582C9.65457 3.34402 9.5234 3.21285 9.3616 3.21285H6.37902C6.2175 3.21285 6.08605 3.08145 6.08605 2.91988V0.878906C6.08605 0.717344 6.2175 0.585938 6.37902 0.585938H13.621C13.7825 0.585938 13.9139 0.717344 13.9139 0.878906V2.91984C13.9139 3.08141 13.7825 3.21281 13.621 3.21281H10.6384C10.4766 3.21281 10.3454 3.34398 10.3454 3.50578C10.3454 3.66758 10.4766 3.79875 10.6384 3.79875H13.621C14.1056 3.79875 14.4999 3.40449 14.4999 2.91984V2.19238H18.7305C19.1074 2.19238 19.4141 2.49906 19.4141 2.87598V14.2668C19.4141 14.6437 19.1074 14.9504 18.7305 14.9504H1.26953C0.892617 14.9504 0.585938 14.6437 0.585938 14.2668V2.87594C0.585938 2.49902 0.892617 2.19234 1.26953 2.19234H2.6166C2.7784 2.19234 2.90957 2.06117 2.90957 1.89937C2.90957 1.73758 2.7784 1.60641 2.6166 1.60641H1.26953C0.569531 1.60641 0 2.17594 0 2.87594V14.2668C0 14.9668 0.569531 15.5363 1.26953 15.5363H8.1782V16.6646H8.13188C7.75496 16.6646 7.44828 16.9713 7.44828 17.3482V19.3164C7.44828 19.6933 7.75496 20 8.13188 20H11.8682C12.2451 20 12.5518 19.6933 12.5518 19.3164V17.3482C12.5518 16.9713 12.2451 16.6646 11.8682 16.6646H11.8219V15.5363H18.7305C19.4305 15.5363 20 14.9668 20 14.2668V2.87594C20 2.17594 19.4305 1.60645 18.7305 1.60645ZM11.9658 17.3482V19.3164C11.9658 19.3702 11.922 19.4141 11.8681 19.4141H8.13184C8.07801 19.4141 8.03418 19.3702 8.03418 19.3164V17.3482C8.03418 17.2943 8.07801 17.2505 8.13184 17.2505H11.8681C11.922 17.2505 11.9658 17.2943 11.9658 17.3482ZM11.2359 16.6646H8.76414V15.5363H11.2359V16.6646Z" fill="black"/>
</svg>
