<svg width="24" height="24" viewBox="0 0 24 24" fill="none" xmlns="http://www.w3.org/2000/svg">
<path d="M18.5791 11.9336V20.0605H13.8857V14.8633H10.3486V20.0605H5.4209V11.9336L12 6.87305L18.5791 11.9336Z" fill="#D58005" stroke="black" stroke-width="0.6"/>
<path d="M16.0869 7.16226L16.5703 7.53433V5.8273H18.8672V9.30093L18.9844 9.39175L21.5791 11.3869L19.8496 13.6349L12.1826 7.73746L12 7.59683L11.8174 7.73746L4.14941 13.6349L2.41992 11.3869L11.999 4.01675L16.0869 7.16226Z" fill="#F09005" stroke="black" stroke-width="0.6"/>
<path d="M18 11.0905V19.7477H14V14.5H12V5.74768L18 11.0905Z" fill="#F09005"/>
<path d="M16.0869 7.16226L16.5703 7.53433V5.8273H18.8672V9.30093L18.9844 9.39175L21.5791 11.3869L19.8496 13.6349L12.2998 7.8273V4.2482L16.0869 7.16226Z" fill="#D58005" stroke="black" stroke-width="0.6"/>
</svg>
