<svg width="24" height="24" viewBox="0 0 24 24" fill="none" xmlns="http://www.w3.org/2000/svg">
<path d="M16.5445 8.91404C16.5055 8.91404 14.6445 9.2656 14.6445 9.2656L12.9258 8.56248L11.168 8.48435L9.64453 6.92185L11.2461 6.06248C11.3414 6.05466 11.8492 5.8156 12.407 5.70935C12.4463 5.82758 12.497 5.94168 12.5586 6.04998C12.6197 6.15815 12.6926 6.25928 12.7758 6.35154C13.0797 6.70485 13.5051 6.93123 13.968 6.98591C13.9373 7.10807 13.8933 7.22648 13.8367 7.33904L14.8008 8.05466L16.493 8.0281C16.493 8.0281 16.5836 8.91404 16.5445 8.91404Z" fill="#FC785E"/>
<path d="M14.1875 3.875C13.9403 3.875 13.6986 3.94831 13.493 4.08566C13.2875 4.22301 13.1273 4.41824 13.0327 4.64665C12.938 4.87505 12.9133 5.12639 12.9615 5.36886C13.0098 5.61134 13.1288 5.83407 13.3036 6.00888C13.4784 6.1837 13.7012 6.30275 13.9436 6.35098C14.1861 6.39921 14.4374 6.37446 14.6659 6.27985C14.8943 6.18524 15.0895 6.02502 15.2268 5.81946C15.3642 5.6139 15.4375 5.37223 15.4375 5.125C15.4371 4.79361 15.3052 4.47593 15.0709 4.2416C14.8366 4.00728 14.5189 3.87544 14.1875 3.875ZM14.1875 5.75C14.0639 5.75 13.943 5.71334 13.8403 5.64467C13.7375 5.57599 13.6574 5.47838 13.6101 5.36418C13.5628 5.24997 13.5504 5.12431 13.5745 5.00307C13.5986 4.88183 13.6582 4.77047 13.7456 4.68306C13.833 4.59565 13.9443 4.53612 14.0656 4.51201C14.1868 4.48789 14.3125 4.50027 14.4267 4.54758C14.5409 4.59488 14.6385 4.67499 14.7072 4.77777C14.7758 4.88055 14.8125 5.00139 14.8125 5.125C14.8125 5.20708 14.7964 5.28837 14.765 5.3642C14.7336 5.44004 14.6875 5.50895 14.6295 5.56699C14.5715 5.62503 14.5025 5.67107 14.4267 5.70247C14.3509 5.73387 14.2696 5.75002 14.1875 5.75Z" fill="black"/>
<path d="M14.8125 5.125C14.8125 5.24861 14.7758 5.36945 14.7072 5.47223C14.6385 5.57501 14.5409 5.65512 14.4267 5.70242C14.3125 5.74973 14.1868 5.76211 14.0656 5.73799C13.9443 5.71388 13.833 5.65435 13.7456 5.56694C13.6582 5.47953 13.5986 5.36817 13.5745 5.24693C13.5504 5.12569 13.5628 5.00003 13.6101 4.88582C13.6574 4.77162 13.7375 4.67401 13.8403 4.60533C13.943 4.53666 14.0639 4.5 14.1875 4.5C14.3532 4.50022 14.512 4.56614 14.6292 4.6833C14.7464 4.80046 14.8123 4.95931 14.8125 5.125Z" fill="#E1EBF4"/>
<path d="M7.66754 15.6531C7.65613 15.8954 7.62425 16.1364 7.57223 16.3734C7.29016 16.3303 7.02562 16.2097 6.80817 16.025C6.46462 15.6881 6.09869 15.3749 5.71285 15.0875C5.3691 14.8781 5.43786 14.7984 5.33786 14.3718C5.24098 13.9437 5.57692 13.9203 5.57692 13.9203L5.7316 13.8484C5.95112 13.9568 6.18626 14.0301 6.42848 14.0656C6.0441 14.2234 5.99723 14.5718 6.11753 14.7078C6.2566 14.8671 7.24722 15.3234 7.24722 15.3234L7.66754 15.6531Z" fill="#D68751"/>
<path d="M5.15997 10.9235C5.00572 11.2542 4.89894 11.6051 4.84278 11.9656C4.83028 12.0453 4.82403 12.1219 4.81934 12.1953C4.78497 12.1922 4.74747 12.1906 4.70997 12.1906C4.4834 12.1906 4.21465 12.2547 4.15372 12.5406C4.07063 12.8937 3.94359 13.2349 3.77559 13.5563L3.50372 12.85L3.03028 14.9688C3.03028 14.9688 2.44903 14.4391 2.67872 13.0563C2.88653 11.8063 3.45059 11.0391 5.15997 10.9235Z" fill="#D68751"/>
<path d="M12.6471 9.89221L12.5487 12.6266C12.5472 12.695 12.5238 12.761 12.4818 12.8151C12.4399 12.8691 12.3817 12.9082 12.3159 12.9266C12.2703 12.9394 12.2224 12.941 12.1761 12.9312C12.1299 12.9214 12.0867 12.9005 12.0502 12.8703C12.0103 12.8382 11.9785 12.7971 11.9573 12.7505C11.9362 12.7038 11.9262 12.6528 11.9284 12.6016L12.0221 10.2031C12.0251 10.1265 11.9999 10.0514 11.9512 9.99206C11.9026 9.93274 11.8338 9.89332 11.7581 9.88127C11.7393 9.87971 9.93461 9.59065 9.07368 8.75002C9.00605 8.69728 8.95264 8.62852 8.91827 8.54995C8.88389 8.47138 8.86964 8.38548 8.8768 8.30002C8.9143 7.95471 9.32368 7.58596 9.57524 7.40002C9.85805 7.74221 10.4377 8.3844 11.0143 8.69846C11.0237 8.70627 11.0284 8.71565 11.0377 8.7219C11.7456 9.25002 12.3768 9.70002 12.6471 9.89221Z" fill="#E1EBF4"/>
<path d="M14.6547 10.1562V12.4688H13.1797L13.2547 10.3531C13.7283 10.3535 14.1996 10.2872 14.6547 10.1562Z" fill="#FFDB80"/>
<path d="M11.3891 10.4484L11.3094 12.4688H9.34375V9.85156C9.4875 9.88125 9.64062 9.9125 9.79531 9.94219C10.3076 10.1658 10.8417 10.3355 11.3891 10.4484Z" fill="#FFDB80"/>
<path d="M21.2489 10.7047C21.2989 10.8578 21.2599 11.0969 21.0192 11.0969C20.9819 11.0963 20.9446 11.0916 20.9083 11.0828C20.8203 11.1305 20.7224 11.1572 20.6224 11.1609C20.4724 11.1609 20.3099 11.0828 20.2567 10.7656L18.4411 9.59219C18.4411 9.59219 18.4021 10.0687 17.7942 10.3531C17.7942 10.3531 17.7411 11.0219 17.4177 11.4156C17.0942 11.8109 16.7302 11.6359 16.8599 12.3172C16.8599 12.3172 16.9521 12.9156 16.6146 13.0516C16.6146 13.0516 16.4771 13.9062 16.0286 13.9062C15.9986 13.9063 15.9687 13.9026 15.9396 13.8953L17.2364 15.1625H17.2489C17.3083 15.1625 17.5693 15.1844 17.5349 15.5703C17.4958 16.0062 17.5739 16.0734 17.2614 16.3313C16.9185 16.6733 16.5985 17.0376 16.3036 17.4219C16.0579 17.7036 15.7157 17.8831 15.3443 17.925C15.3443 17.925 14.8802 18.4234 14.5802 18.4234C14.538 18.4243 14.4966 18.4123 14.4614 18.3891V17.4766C14.5584 17.3606 14.6958 17.2858 14.8458 17.2672C14.9075 17.2703 14.9675 17.2885 15.0206 17.3201C15.0737 17.3517 15.1183 17.3957 15.1505 17.4484L15.7724 16.7953C15.7724 16.7953 16.6927 16.1969 16.8083 16.0203C16.9255 15.8422 16.7833 15.4203 16.1989 15.4062C15.6161 15.3922 14.4427 14.8422 14.4427 14.8422C14.3541 15.2997 14.3153 15.7654 14.3271 16.2313C14.3661 16.8438 14.4427 17.1281 13.9177 17.3125C13.3942 17.4953 12.4146 17.7203 12.4146 17.7203L10.8786 17.2516C10.8786 17.2516 10.3927 16.475 10.7036 16.4141C10.7351 16.409 10.767 16.4064 10.7989 16.4062C11.0974 16.4062 11.4599 16.65 11.4427 16.9453L12.4989 16.9656C12.5875 16.9774 12.6768 16.9831 12.7661 16.9828C13.0927 16.9828 13.5896 16.9062 13.5099 16.4344C13.3942 15.7406 13.0036 15.2922 13.1989 14.6172C13.0641 14.6509 12.9253 14.6661 12.7864 14.6625C12.227 14.6625 11.1349 14.4594 9.75048 13.1984C9.72548 13.2547 9.6786 13.3422 9.60204 13.4734C9.60204 13.4734 9.87392 14.8078 9.39423 15.3656C8.91454 15.9234 9.6411 16.1016 9.61454 16.7547C9.61454 16.7547 11.7411 18.2641 11.9208 18.8109C11.9778 18.8778 12.029 18.9494 12.0739 19.025C12.1076 19.0762 12.1251 19.1362 12.1243 19.1974C12.1235 19.2587 12.1044 19.3182 12.0694 19.3685C12.0345 19.4188 11.9852 19.4574 11.9281 19.4795C11.871 19.5015 11.8086 19.5059 11.7489 19.4922C11.6472 19.4703 11.5516 19.4258 11.4694 19.3619C11.3872 19.2981 11.3204 19.2166 11.2739 19.1234C11.2739 19.1234 11.2833 18.7578 11.1208 18.7578C11.0925 18.759 11.065 18.7676 11.0411 18.7828C11.007 18.8013 10.969 18.8115 10.9302 18.8125C10.7146 18.8125 10.4849 18.4969 10.263 18.1016C10.0036 17.6391 8.17549 16.5375 8.17549 16.5375C8.17549 16.5375 8.61456 14.7422 7.81299 14.0156L6.89893 13.4734C6.89893 13.4734 6.88331 13.475 6.85518 13.475C6.59268 13.475 5.24893 13.4094 5.45987 12.0625C5.66456 10.7547 6.63331 9.66719 8.11299 9.66719C8.31647 9.66841 8.5194 9.68829 8.71924 9.72656V12.7812C8.71923 12.8223 8.72731 12.8629 8.74301 12.9009C8.75871 12.9388 8.78173 12.9732 8.81075 13.0022C8.83977 13.0313 8.87422 13.0543 8.91214 13.07C8.95006 13.0857 8.9907 13.0938 9.03174 13.0938H11.4333C11.4921 13.1948 11.5689 13.2843 11.6599 13.3578C11.8236 13.4899 12.0276 13.5621 12.238 13.5625C12.3187 13.5629 12.3991 13.5524 12.4771 13.5313C12.5966 13.4998 12.7087 13.4449 12.8068 13.3698C12.905 13.2947 12.9873 13.2009 13.0489 13.0938H14.9692C15.052 13.0935 15.1314 13.0605 15.1899 13.002C15.2485 12.9434 15.2815 12.8641 15.2817 12.7812V9.87344C15.3556 9.82511 15.426 9.77187 15.4927 9.71406C15.5864 9.63281 15.6724 9.55156 15.7552 9.47344L16.2474 9.425C16.446 9.40566 16.6311 9.31571 16.769 9.17148C16.9069 9.02726 16.9885 8.83834 16.9989 8.63906C17.0081 8.4876 16.9762 8.33647 16.9068 8.20156C17.3459 7.65492 17.9262 7.23886 18.5849 6.99844C18.6411 6.85882 18.66 6.70694 18.6396 6.55781C18.6361 6.5355 18.6374 6.51269 18.6434 6.49093C18.6495 6.46916 18.6601 6.44894 18.6746 6.43163C18.6891 6.41431 18.7071 6.4003 18.7275 6.39053C18.7479 6.38076 18.7701 6.37547 18.7927 6.375C18.8235 6.37545 18.8535 6.38526 18.8786 6.40313C19.103 6.57708 19.2604 6.82328 19.3239 7.1C19.3239 7.1 19.4177 7.1875 19.5536 7.33125C19.5284 7.33985 19.5043 7.35139 19.4818 7.36563C19.4488 7.38844 19.4202 7.41702 19.3974 7.45C19.3624 7.50162 19.3438 7.56264 19.3442 7.625C19.344 7.69507 19.3674 7.76317 19.4107 7.8183C19.4539 7.87343 19.5145 7.91236 19.5826 7.9288C19.6507 7.94525 19.7224 7.93824 19.786 7.90891C19.8497 7.87958 19.9016 7.82965 19.9333 7.76719C20.1823 8.05973 20.3775 8.39406 20.5099 8.75469C20.6864 9.3375 21.1114 9.68281 21.2927 9.97813C21.2687 9.97193 21.244 9.96878 21.2192 9.96875C21.157 9.96887 21.0961 9.98735 21.0442 10.0219C21.0113 10.0447 20.9827 10.0733 20.9599 10.1063C20.9249 10.1579 20.9063 10.2189 20.9067 10.2812C20.9067 10.3223 20.9148 10.3629 20.9305 10.4009C20.9462 10.4388 20.9692 10.4732 20.9982 10.5022C21.0273 10.5313 21.0617 10.5543 21.0996 10.57C21.1376 10.5857 21.1782 10.5938 21.2192 10.5938C21.2292 10.5934 21.2391 10.5924 21.2489 10.5906C21.2397 10.6082 21.2349 10.6278 21.2349 10.6477C21.2349 10.6675 21.2397 10.6871 21.2489 10.7047Z" fill="#D68751"/>
<path opacity="0.5" d="M9.57679 7.40002C9.62679 7.4594 9.6846 7.52971 9.75179 7.60471C9.69116 7.63677 9.6327 7.67279 9.57679 7.71252C9.35179 7.87815 9.00023 8.19065 8.90335 8.50315C8.87815 8.4386 8.86955 8.36876 8.87835 8.30002C8.91585 7.95471 9.32523 7.58596 9.57679 7.40002Z" fill="white"/>
<path opacity="0.3" d="M12.7766 6.35161C12.7094 6.36593 12.6417 6.37688 12.5734 6.38442C11.7271 6.41836 10.9085 6.69557 10.2156 7.18286C10.1578 7.12036 10.1047 7.05786 10.0547 6.99692C10.7352 6.4582 11.5636 6.13938 12.4297 6.08286C12.471 6.06537 12.5147 6.0543 12.5594 6.05005C12.6205 6.15823 12.6933 6.25935 12.7766 6.35161Z" fill="#F9DBD7"/>
<path opacity="0.3" d="M21.2922 9.97815C21.219 9.95945 21.1415 9.96893 21.075 10.0047C20.8237 9.73467 20.6311 9.41545 20.5094 9.06721C20.377 8.70659 20.1818 8.37226 19.9328 8.07971C19.9011 8.14218 19.8492 8.19211 19.7856 8.22143C19.7219 8.25076 19.6502 8.25777 19.5821 8.24133C19.514 8.22489 19.4534 8.18596 19.4102 8.13083C19.3669 8.0757 19.3435 8.0076 19.3438 7.93752C19.3431 7.88254 19.3577 7.82844 19.386 7.78127C19.4138 7.82993 19.4544 7.87014 19.5033 7.89763C19.5521 7.92512 19.6075 7.93887 19.6636 7.93743C19.7197 7.93599 19.7743 7.91941 19.8217 7.88944C19.8691 7.85947 19.9075 7.81724 19.9328 7.76721C20.1818 8.05976 20.377 8.39409 20.5094 8.75471C20.686 9.33752 21.111 9.68284 21.2922 9.97815Z" fill="#E5D0C3"/>
<path opacity="0.4" d="M13.1984 14.3047C13.1677 14.4104 13.1504 14.5196 13.1469 14.6297C13.028 14.6531 12.9071 14.6641 12.7859 14.6625C12.2266 14.6625 11.1344 14.4594 9.75 13.1984C9.71699 13.2685 9.68049 13.3368 9.64062 13.4031C9.62031 13.2547 9.60156 13.1609 9.60156 13.1609C9.61563 13.1375 9.62813 13.1141 9.63906 13.0938H9.9875C11.2594 14.1703 12.2594 14.35 12.7859 14.35C12.9249 14.3536 13.0636 14.3384 13.1984 14.3047Z" fill="#72492D"/>
<path opacity="0.5" d="M14.8125 5.125C14.8125 5.29076 14.7467 5.44973 14.6295 5.56694C14.5123 5.68415 14.3533 5.75 14.1875 5.75C14.0218 5.75 13.8628 5.68415 13.7456 5.56694C13.6284 5.44973 13.5625 5.29076 13.5625 5.125C13.562 5.07223 13.5689 5.01964 13.5828 4.96875C13.6174 5.10288 13.6955 5.22173 13.805 5.30659C13.9144 5.39145 14.049 5.4375 14.1875 5.4375C14.326 5.4375 14.4606 5.39145 14.5701 5.30659C14.6795 5.22173 14.7577 5.10288 14.7922 4.96875C14.8062 5.01964 14.813 5.07223 14.8125 5.125Z" fill="#9FA5AA"/>
<path opacity="0.5" d="M12.6487 9.89221L12.5503 12.6266C12.5488 12.695 12.5254 12.761 12.4834 12.8151C12.4415 12.8691 12.3833 12.9082 12.3175 12.9266C12.2719 12.9394 12.224 12.941 12.1777 12.9312C12.1315 12.9214 12.0883 12.9005 12.0518 12.8703C12.0119 12.8382 11.9801 12.7971 11.9589 12.7505C11.9378 12.7038 11.9278 12.6528 11.93 12.6016L11.9393 12.3766C11.9549 12.4481 11.9946 12.5121 12.0518 12.5578C12.0883 12.588 12.1315 12.6089 12.1777 12.6187C12.224 12.6285 12.2719 12.6269 12.3175 12.6141C12.3833 12.5957 12.4415 12.5566 12.4834 12.5026C12.5254 12.4485 12.5488 12.3825 12.5503 12.3141L12.6378 9.8844C12.6417 9.88663 12.6453 9.88924 12.6487 9.89221Z" fill="#9FA5AA"/>
<path opacity="0.45" d="M14.6547 12.1562V12.4688H13.1797L13.1906 12.1562H14.6547Z" fill="#AD9359"/>
<path opacity="0.45" d="M9.34375 12.1562H11.3219L11.3094 12.4688H9.34375V12.1562Z" fill="#AD9359"/>
<path opacity="0.3" d="M16.9984 8.95161C16.988 9.15089 16.9064 9.33981 16.7685 9.48403C16.6306 9.62826 16.4455 9.71821 16.2469 9.73755L15.7547 9.78599C15.6719 9.86411 15.5859 9.94536 15.4922 10.0266C15.4255 10.0844 15.3551 10.1377 15.2812 10.186V9.87349C15.3551 9.82516 15.4255 9.77192 15.4922 9.71411C15.5859 9.63286 15.6719 9.55161 15.7547 9.47349L16.2469 9.42505C16.4272 9.40779 16.5968 9.33202 16.73 9.20929C16.8632 9.08656 16.9525 8.92363 16.9844 8.74536C16.9985 8.81314 17.0032 8.88254 16.9984 8.95161Z" fill="#E5D0C3"/>
<path opacity="0.4" d="M21.0182 11.0969C20.9809 11.0963 20.9436 11.0916 20.9073 11.0828C20.8193 11.1305 20.7214 11.1572 20.6214 11.1609C20.4714 11.1609 20.3089 11.0828 20.2557 10.7656L18.4401 9.59216C18.4401 9.59216 18.4011 10.0687 17.7932 10.3531C17.7932 10.3531 17.7401 11.0219 17.4167 11.4156C17.1745 11.7109 16.9104 11.6875 16.8479 11.9422C16.7526 11.3344 17.1042 11.4859 17.4167 11.1031C17.7401 10.7094 17.7932 10.0406 17.7932 10.0406C18.4011 9.75623 18.4401 9.27966 18.4401 9.27966L20.2557 10.4531C20.3089 10.7703 20.4714 10.8484 20.6214 10.8484C20.7214 10.8447 20.8193 10.818 20.9073 10.7703C20.9436 10.7791 20.9809 10.7838 21.0182 10.7844C21.0628 10.7875 21.1072 10.7773 21.1459 10.755C21.1846 10.7328 21.2158 10.6994 21.2354 10.6594C21.2387 10.6747 21.2429 10.6898 21.2479 10.7047C21.2979 10.8578 21.2589 11.0969 21.0182 11.0969Z" fill="#72492D"/>
<path opacity="0.3" d="M19.5531 7.33124C19.5279 7.33984 19.5038 7.35138 19.4812 7.36562C19.4483 7.38843 19.4197 7.41701 19.3969 7.44999C19.3918 7.45672 19.3876 7.46407 19.3844 7.47187C19.3453 7.4328 19.3234 7.4125 19.3234 7.4125C19.2599 7.13578 19.1025 6.88958 18.8781 6.71563C18.853 6.69776 18.823 6.68795 18.7922 6.6875C18.7696 6.68797 18.7474 6.69326 18.727 6.70303C18.7066 6.7128 18.6886 6.72681 18.6741 6.74413C18.6596 6.76144 18.649 6.78166 18.6429 6.80343C18.6369 6.82519 18.6356 6.848 18.6391 6.87031C18.6595 7.01944 18.6406 7.17132 18.5844 7.31094C17.962 7.53616 17.4098 7.92086 16.9828 8.42656C16.9684 8.34823 16.9426 8.27242 16.9062 8.20156C17.3454 7.65492 17.9257 7.23886 18.5844 6.99844C18.6406 6.85882 18.6595 6.70694 18.6391 6.55781C18.6356 6.5355 18.6369 6.51269 18.6429 6.49093C18.649 6.46916 18.6596 6.44894 18.6741 6.43163C18.6886 6.41431 18.7066 6.4003 18.727 6.39053C18.7474 6.38076 18.7696 6.37547 18.7922 6.375C18.823 6.37545 18.853 6.38526 18.8781 6.40313C19.1025 6.57708 19.2599 6.82328 19.3234 7.1C19.3234 7.1 19.4172 7.18749 19.5531 7.33124Z" fill="#E5D0C3"/>
<path opacity="0.3" d="M8.71904 9.72661V10.0391C8.51919 10.0008 8.31626 9.98096 8.11279 9.97974C6.6331 9.97974 5.66435 11.0672 5.45966 12.375C5.45341 12.4126 5.44872 12.4485 5.4456 12.4844C5.43125 12.3438 5.43598 12.2019 5.45966 12.0625C5.66435 10.7547 6.6331 9.66724 8.11279 9.66724C8.31626 9.66846 8.51919 9.68834 8.71904 9.72661Z" fill="#E5D0C3"/>
<path opacity="0.3" d="M5.15855 10.9235C5.11011 11.0281 5.0648 11.136 5.02574 11.2469C3.41949 11.3922 2.87886 12.1516 2.6773 13.3688C2.65233 13.5203 2.63616 13.6732 2.62886 13.8266C2.61679 13.5688 2.63304 13.3105 2.6773 13.0563C2.88511 11.8063 3.44917 11.0391 5.15855 10.9235Z" fill="#E5D0C3"/>
<path opacity="0.4" d="M13.9193 17.3124C13.3959 17.4952 12.4162 17.7202 12.4162 17.7202L10.8802 17.2515C10.8802 17.2515 10.4787 16.6093 10.6396 16.4468C10.7031 16.6185 10.7837 16.7834 10.8802 16.939L12.4162 17.4077C12.4162 17.4077 13.3959 17.1827 13.9193 16.9999C14.2224 16.8937 14.3256 16.753 14.349 16.5358C14.3756 16.9437 14.349 17.1624 13.9193 17.3124Z" fill="#72492D"/>
<path opacity="0.4" d="M17.5344 15.5703C17.4953 16.0062 17.5734 16.0734 17.2609 16.3312C16.918 16.6732 16.598 17.0376 16.3031 17.4218C16.0574 17.7035 15.7152 17.883 15.3438 17.925C15.3438 17.925 14.8797 18.4234 14.5797 18.4234C14.5375 18.4243 14.4961 18.4123 14.4609 18.389V18.0765C14.4961 18.0998 14.5375 18.1118 14.5797 18.1109C14.8797 18.1109 15.3438 17.6125 15.3438 17.6125C15.7152 17.5705 16.0574 17.391 16.3031 17.1093C16.598 16.7251 16.918 16.3607 17.2609 16.0187C17.5391 15.789 17.5078 15.7109 17.5266 15.3875C17.5383 15.4477 17.5409 15.5093 17.5344 15.5703Z" fill="#72492D"/>
<path opacity="0.4" d="M11.8148 19.5C11.7928 19.4997 11.7708 19.4971 11.7492 19.4922C11.6475 19.4703 11.5519 19.4258 11.4697 19.3619C11.3875 19.2981 11.3207 19.2166 11.2742 19.1234C11.2742 19.1234 11.2836 18.7578 11.1211 18.7578C11.0928 18.759 11.0653 18.7676 11.0414 18.7828C11.0073 18.8013 10.9693 18.8115 10.9305 18.8125C10.7148 18.8125 10.4852 18.4969 10.2633 18.1016C10.0039 17.6391 8.17578 16.5375 8.17578 16.5375C8.17578 16.5375 8.20234 16.4312 8.22891 16.2578C8.53203 16.4422 10.0305 17.3734 10.2633 17.7891C10.4852 18.1844 10.7148 18.5 10.9305 18.5C10.9693 18.499 11.0073 18.4888 11.0414 18.4703C11.0653 18.4551 11.0928 18.4465 11.1211 18.4453C11.2836 18.4453 11.2742 18.8109 11.2742 18.8109C11.3207 18.9041 11.3875 18.9856 11.4697 19.0494C11.5519 19.1133 11.6475 19.1578 11.7492 19.1797C11.7708 19.1846 11.7928 19.1872 11.8148 19.1875C11.8686 19.1868 11.9212 19.1716 11.9672 19.1436C12.0131 19.1155 12.0506 19.0757 12.0758 19.0281C12.1025 19.0752 12.1167 19.1283 12.1171 19.1824C12.1174 19.2366 12.1038 19.2899 12.0776 19.3372C12.0514 19.3846 12.0135 19.4244 11.9675 19.4529C11.9215 19.4814 11.8689 19.4976 11.8148 19.5Z" fill="#72492D"/>
<path opacity="0.4" d="M7.66849 15.6531C7.65708 15.8954 7.6252 16.1364 7.57318 16.3734C7.29111 16.3303 7.02657 16.2097 6.80912 16.025C6.46557 15.6881 6.09963 15.3749 5.7138 15.0875C5.37005 14.8781 5.4388 14.7984 5.3388 14.3718C5.31217 14.2796 5.31435 14.1815 5.34505 14.0906C5.43568 14.4906 5.37943 14.5703 5.7138 14.775C6.09963 15.0624 6.46557 15.3756 6.80912 15.7125C7.02657 15.8972 7.29111 16.0178 7.57318 16.0609C7.60447 15.9201 7.62795 15.7777 7.64349 15.6343L7.66849 15.6531Z" fill="#72492D"/>
<path d="M21.5466 9.2812C21.3538 9.07684 21.2045 8.83552 21.1076 8.57183C20.8779 7.82183 20.1638 7.05464 19.8685 6.75933C19.7519 6.41368 19.5328 6.11174 19.2404 5.8937C19.0828 5.78127 18.8888 5.73206 18.6967 5.75578C18.5046 5.77951 18.3284 5.87444 18.2029 6.02183C18.0738 6.17115 18.0057 6.36362 18.0122 6.56089C17.4014 6.8477 16.8626 7.26792 16.4357 7.79058C16.3422 7.75846 16.2438 7.74312 16.1451 7.74526L14.9076 7.77964L14.0966 7.2937C14.1504 7.18866 14.2137 7.08876 14.2857 6.99526C14.2529 6.99683 14.2201 6.99995 14.1872 6.99995C13.9869 6.99993 13.788 6.96721 13.5982 6.90308C13.5234 7.03367 13.4591 7.17005 13.406 7.31089C13.3807 7.37906 13.3802 7.45393 13.4044 7.52245C13.4287 7.59098 13.4763 7.64882 13.5388 7.68589L14.6638 8.36245C14.7152 8.39306 14.7743 8.40825 14.8341 8.4062L16.1622 8.37026C16.2185 8.37054 16.2724 8.393 16.3122 8.43276C16.3339 8.45496 16.3506 8.48145 16.3614 8.51051C16.3721 8.53958 16.3767 8.57058 16.3747 8.60151C16.3724 8.65188 16.3523 8.69978 16.318 8.73669C16.2836 8.77361 16.2373 8.79713 16.1872 8.80308L14.6826 8.94995L13.0826 8.27339C13.0493 8.25936 13.0139 8.25142 12.9779 8.24995L11.3357 8.16401C10.9263 7.95308 10.4029 7.42026 10.0529 6.99683C10.8919 6.29995 11.8966 6.11089 12.5716 6.07183C12.4597 5.88233 12.3824 5.67438 12.3435 5.45776C11.2144 5.53187 10.1493 6.00868 9.34193 6.80151C9.14349 6.92964 8.33724 7.4937 8.25599 8.2312C8.24058 8.38119 8.25606 8.53274 8.30147 8.67651C8.34689 8.82028 8.42128 8.95323 8.52006 9.06714C8.38469 9.05117 8.24854 9.04283 8.11224 9.04214C7.61738 9.03532 7.12773 9.14389 6.68212 9.35924C6.23651 9.57458 5.8472 9.89078 5.54506 10.2828C3.44193 10.3062 2.36537 11.1312 2.06224 12.9531C1.78412 14.6234 2.52318 15.3531 2.60912 15.4312C2.72414 15.5358 2.87399 15.5937 3.02943 15.5937C3.09363 15.5939 3.15745 15.5839 3.21849 15.564C3.32288 15.5311 3.41679 15.4713 3.49083 15.3907C3.56487 15.3101 3.61643 15.2114 3.64037 15.1046L3.84818 14.1765C3.94753 14.1648 4.04259 14.1293 4.12528 14.0729C4.20797 14.0166 4.27586 13.9412 4.32318 13.8531C4.49728 13.5235 4.63406 13.1755 4.73099 12.8156C4.78139 12.8181 4.83153 12.8243 4.88099 12.8343C4.93799 13.0422 5.03689 13.2363 5.17162 13.4046C5.05455 13.4658 4.95301 13.5529 4.87474 13.6593C4.78832 13.7813 4.73028 13.9211 4.70487 14.0685C4.67946 14.2158 4.68731 14.367 4.72787 14.5109C4.74662 14.589 4.75756 14.6515 4.76849 14.7125C4.78583 14.9039 4.85157 15.0878 4.95954 15.2469C5.0675 15.406 5.21414 15.535 5.38567 15.6218C5.73453 15.8826 6.06451 16.1677 6.37317 16.475L6.37786 16.4796L6.38255 16.4843C6.72781 16.7865 7.16116 16.9695 7.61849 17.0062C7.81931 17.1496 8.04124 17.2608 8.2763 17.3359C8.93567 17.7578 9.5888 18.2296 9.72161 18.414C9.96692 18.8531 10.2763 19.3 10.7169 19.4109L10.7247 19.4234C10.8137 19.5949 10.9394 19.7446 11.0928 19.8621C11.2461 19.9796 11.4235 20.0618 11.6122 20.1031C11.6785 20.1174 11.746 20.1247 11.8138 20.125C11.9775 20.1236 12.1379 20.0791 12.2789 19.996C12.4199 19.9128 12.5365 19.794 12.6169 19.6515C12.6989 19.5072 12.7415 19.3439 12.7404 19.178C12.7393 19.0121 12.6945 18.8494 12.6107 18.7062C12.5632 18.6257 12.5105 18.5485 12.4529 18.475C12.4357 18.4406 12.4138 18.4046 12.3904 18.3671L12.5529 18.3296C12.5872 18.3218 13.2872 18.1609 13.8357 17.9953V18.7156L14.1044 18.9015C14.244 18.9979 14.4098 19.0492 14.5794 19.0484C14.9826 19.0484 15.3763 18.7609 15.6388 18.5125C16.0861 18.4085 16.4885 18.1643 16.7872 17.8156L16.7966 17.8062C17.0616 17.4556 17.3503 17.1236 17.6607 16.8125C17.8175 16.7025 17.944 16.5548 18.0287 16.3831C18.1133 16.2113 18.1534 16.021 18.1451 15.8296C18.1466 15.7687 18.1497 15.7046 18.1576 15.6265C18.1771 15.4838 18.1659 15.3386 18.1247 15.2006C18.0835 15.0626 18.0132 14.9351 17.9185 14.8265C17.8138 14.7146 17.6827 14.6308 17.5372 14.5828L16.9263 13.9859C17.0364 13.8091 17.1196 13.6169 17.1732 13.4156C17.4779 13.1046 17.5372 12.6125 17.4779 12.2234L17.4763 12.2109L17.4732 12.2C17.473 12.1931 17.472 12.1862 17.4701 12.1796C17.6335 12.0824 17.7789 11.9577 17.8997 11.8109C18.1368 11.4968 18.2963 11.1311 18.3654 10.7437C18.4752 10.6681 18.5763 10.5806 18.6669 10.4828L19.7216 11.164C19.789 11.348 19.9117 11.5065 20.0729 11.6179C20.234 11.7292 20.4257 11.7879 20.6216 11.7859C20.7503 11.7848 20.8779 11.7632 20.9997 11.7218H21.0185C21.1551 11.724 21.2903 11.6934 21.4127 11.6325C21.535 11.5716 21.641 11.4822 21.7216 11.3718C21.8506 11.1874 21.9099 10.9631 21.8888 10.739C21.9522 10.5986 21.9888 10.4476 21.9966 10.2937C22.031 9.86714 21.7732 9.5562 21.5466 9.2812ZM4.84193 11.9656C4.82943 12.0453 4.82318 12.1218 4.81849 12.1953C4.78412 12.1921 4.74662 12.1906 4.70912 12.1906C4.48256 12.1906 4.21381 12.2546 4.15287 12.5406C4.06978 12.8936 3.94275 13.2348 3.77474 13.5562L3.50287 12.85L3.02943 14.9687C3.02943 14.9687 2.44818 14.439 2.67787 13.0562C2.88568 11.8062 3.44974 11.039 5.15911 10.9234C5.00487 11.2541 4.89809 11.605 4.84193 11.9656ZM12.8904 8.87183L14.5013 9.55151C14.1038 9.67029 13.6911 9.7303 13.2763 9.72964C13.276 9.68029 13.2639 9.63173 13.2411 9.58798C13.2183 9.54423 13.1854 9.50655 13.1451 9.47808C13.1404 9.47495 12.7747 9.21714 12.2513 8.83745L12.8904 8.87183ZM14.656 10.1562V12.4687H13.181L13.256 10.3531C13.7296 10.3534 14.2009 10.2872 14.656 10.1562ZM8.87787 8.29995C8.91537 7.95464 9.32474 7.58589 9.57631 7.39995C9.85912 7.74214 10.4388 8.38433 11.0154 8.69839C11.0247 8.7062 11.0294 8.71558 11.0388 8.72183C11.7466 9.24995 12.3779 9.69995 12.6482 9.89215L12.5497 12.6265C12.5483 12.6949 12.5248 12.761 12.4829 12.815C12.441 12.869 12.3828 12.9081 12.3169 12.9265C12.2714 12.9393 12.2235 12.9409 12.1772 12.9311C12.1309 12.9213 12.0877 12.9005 12.0513 12.8703C12.0114 12.8381 11.9796 12.7971 11.9584 12.7504C11.9372 12.7037 11.9273 12.6527 11.9294 12.6015L12.0232 10.2031C12.0262 10.1264 12.0009 10.0513 11.9523 9.99199C11.9036 9.93267 11.8349 9.89326 11.7591 9.88121C11.7404 9.87965 9.93568 9.59058 9.07474 8.74996C9.00712 8.69722 8.95371 8.62845 8.91933 8.54988C8.88496 8.47131 8.87071 8.38541 8.87787 8.29995ZM11.3888 10.4484L11.3091 12.4687H9.34349V9.85151C9.48724 9.8812 9.64037 9.91245 9.79506 9.94214C10.3073 10.1657 10.8414 10.3354 11.3888 10.4484ZM7.57162 16.3734C7.28955 16.3303 7.02501 16.2097 6.80756 16.025C6.46401 15.6881 6.09807 15.3749 5.71224 15.0875C5.36849 14.8781 5.43724 14.7984 5.33724 14.3718C5.24037 13.9437 5.57631 13.9203 5.57631 13.9203L5.73099 13.8484C5.9505 13.9568 6.18565 14.0301 6.42787 14.0656C6.04349 14.2234 5.99662 14.5718 6.11692 14.7078C6.25599 14.8671 7.24661 15.3234 7.24661 15.3234L7.66692 15.6531C7.65551 15.8954 7.62363 16.1364 7.57162 16.3734ZM7.05599 14.5375C7.13724 14.5093 7.22006 14.4765 7.30287 14.4406L7.42787 14.5156C7.49684 14.5952 7.54846 14.6883 7.57943 14.789L7.57631 14.7859L7.50912 14.7546C7.35599 14.6843 7.19818 14.6093 7.05599 14.5375ZM21.2185 10.5937C21.2284 10.5934 21.2384 10.5923 21.2482 10.5906C21.239 10.6082 21.2341 10.6277 21.2341 10.6476C21.2341 10.6675 21.239 10.687 21.2482 10.7046C21.2982 10.8578 21.2591 11.0968 21.0185 11.0968C20.9811 11.0963 20.9439 11.0916 20.9076 11.0828C20.8195 11.1304 20.7217 11.1572 20.6216 11.1609C20.4716 11.1609 20.3091 11.0828 20.256 10.7656L18.4404 9.59214C18.4404 9.59214 18.4013 10.0687 17.7935 10.3531C17.7935 10.3531 17.7404 11.0218 17.4169 11.4156C17.0935 11.8109 16.7294 11.6359 16.8591 12.3171C16.8591 12.3171 16.9513 12.9156 16.6138 13.0515C16.6138 13.0515 16.4763 13.9062 16.0279 13.9062C15.9979 13.9062 15.9679 13.9026 15.9388 13.8953L17.2357 15.1625H17.2482C17.3076 15.1625 17.5685 15.1843 17.5341 15.5703C17.4951 16.0062 17.5732 16.0734 17.2607 16.3312C16.9177 16.6732 16.5977 17.0376 16.3029 17.4218C16.0572 17.7035 15.7149 17.883 15.3435 17.925C15.3435 17.925 14.8794 18.4234 14.5794 18.4234C14.5373 18.4243 14.4959 18.4123 14.4607 18.389V17.4765C14.5577 17.3606 14.6951 17.2858 14.8451 17.2671C14.9068 17.2703 14.9668 17.2884 15.0199 17.32C15.073 17.3516 15.1175 17.3957 15.1497 17.4484L15.7716 16.7953C15.7716 16.7953 16.6919 16.1968 16.8076 16.0203C16.9248 15.8421 16.7826 15.4203 16.1982 15.4062C15.6154 15.3921 14.4419 14.8421 14.4419 14.8421C14.3534 15.2996 14.3146 15.7654 14.3263 16.2312C14.3654 16.8437 14.4419 17.1281 13.9169 17.3125C13.3935 17.4953 12.4138 17.7203 12.4138 17.7203L10.8779 17.2515C10.8779 17.2515 10.3919 16.475 10.7029 16.414C10.7344 16.409 10.7663 16.4063 10.7982 16.4062C11.0966 16.4062 11.4591 16.65 11.4419 16.9453L12.4982 16.9656C12.5868 16.9773 12.676 16.983 12.7654 16.9828C13.0919 16.9828 13.5888 16.9062 13.5091 16.4343C13.3935 15.7406 13.0029 15.2921 13.1982 14.6171C13.0634 14.6508 12.9246 14.6661 12.7857 14.6625C12.2263 14.6625 11.1341 14.4593 9.74973 13.1984C9.72473 13.2546 9.67785 13.3421 9.60129 13.4734C9.60129 13.4734 9.87317 14.8078 9.39348 15.3656C8.91379 15.9234 9.64035 16.1015 9.61379 16.7546C9.61379 16.7546 11.7404 18.264 11.92 18.8109C11.9771 18.8778 12.0283 18.9494 12.0732 19.025C12.1068 19.0761 12.1244 19.1362 12.1235 19.1974C12.1227 19.2586 12.1036 19.3182 12.0687 19.3685C12.0337 19.4187 11.9845 19.4574 11.9274 19.4794C11.8703 19.5014 11.8078 19.5059 11.7482 19.4921C11.6464 19.4702 11.5509 19.4257 11.4687 19.3619C11.3864 19.298 11.3196 19.2165 11.2732 19.1234C11.2732 19.1234 11.2826 18.7578 11.1201 18.7578C11.0918 18.759 11.0643 18.7676 11.0404 18.7828C11.0063 18.8013 10.9682 18.8115 10.9294 18.8125C10.7138 18.8125 10.4841 18.4968 10.2622 18.1015C10.0029 17.639 8.17474 16.5375 8.17474 16.5375C8.17474 16.5375 8.61381 14.7421 7.81224 14.0156L6.89818 13.4734C6.89818 13.4734 6.88256 13.475 6.85443 13.475C6.59193 13.475 5.24818 13.4093 5.45912 12.0625C5.66381 10.7546 6.63256 9.66714 8.11224 9.66714C8.31572 9.66836 8.51865 9.68824 8.71849 9.72651V12.7812C8.71848 12.8222 8.72656 12.8629 8.74226 12.9008C8.75796 12.9387 8.78098 12.9732 8.81 13.0022C8.83902 13.0312 8.87347 13.0542 8.91139 13.0699C8.94931 13.0856 8.98995 13.0937 9.03099 13.0937H11.4326C11.4914 13.1948 11.5681 13.2843 11.6591 13.3578C11.8229 13.4899 12.0268 13.5621 12.2372 13.5625C12.318 13.5628 12.3984 13.5523 12.4763 13.5312C12.5958 13.4997 12.7079 13.4448 12.8061 13.3697C12.9042 13.2946 12.9865 13.2008 13.0482 13.0937H14.9685C15.0513 13.0935 15.1306 13.0605 15.1892 13.0019C15.2477 12.9434 15.2807 12.864 15.281 12.7812V9.87339C15.3548 9.82507 15.4253 9.77182 15.4919 9.71401C15.5857 9.63276 15.6716 9.55151 15.7544 9.47339L16.2466 9.42495C16.4452 9.40561 16.6303 9.31566 16.7682 9.17143C16.9062 9.02721 16.9877 8.83829 16.9982 8.63901C17.0073 8.48755 16.9755 8.33642 16.906 8.20151C17.3451 7.65487 17.9255 7.23881 18.5841 6.99839C18.6404 6.85877 18.6592 6.7069 18.6388 6.55776C18.6353 6.53545 18.6366 6.51264 18.6427 6.49088C18.6487 6.46911 18.6593 6.44889 18.6739 6.43158C18.6884 6.41426 18.7064 6.40025 18.7268 6.39048C18.7471 6.38072 18.7694 6.37542 18.7919 6.37495C18.8228 6.3754 18.8527 6.38521 18.8779 6.40308C19.1023 6.57703 19.2596 6.82324 19.3232 7.09995C19.3232 7.09995 19.4169 7.18745 19.5529 7.3312C19.5277 7.3398 19.5035 7.35134 19.481 7.36558C19.448 7.38839 19.4194 7.41698 19.3966 7.44995C19.3616 7.50157 19.3431 7.56259 19.3435 7.62495C19.3433 7.69502 19.3667 7.76313 19.4099 7.81825C19.4532 7.87338 19.5137 7.91231 19.5819 7.92876C19.65 7.9452 19.7216 7.93819 19.7853 7.90886C19.8489 7.87953 19.9008 7.8296 19.9326 7.76714C20.1815 8.05968 20.3767 8.39401 20.5091 8.75464C20.6857 9.33745 21.1107 9.68276 21.2919 9.97808C21.2679 9.97189 21.2433 9.96874 21.2185 9.9687C21.1562 9.96883 21.0953 9.9873 21.0435 10.0218C21.0105 10.0446 20.9819 10.0732 20.9591 10.1062C20.9241 10.1578 20.9056 10.2188 20.906 10.2812C20.906 10.3222 20.9141 10.3629 20.9298 10.4008C20.9455 10.4387 20.9685 10.4732 20.9975 10.5022C21.0265 10.5312 21.061 10.5542 21.0989 10.5699C21.1368 10.5856 21.1775 10.5937 21.2185 10.5937ZM14.9544 15.7328C15.2432 15.8433 15.5406 15.93 15.8435 15.9921C15.7138 16.0828 15.5701 16.1812 15.431 16.2718L15.3701 16.3109L15.3201 16.364L15.0357 16.6625C15.0154 16.6578 14.9966 16.6546 14.9763 16.6515C14.9747 16.5484 14.9685 16.4468 14.9607 16.3515C14.9576 16.3015 14.9529 16.2468 14.9497 16.1906C14.942 16.038 14.9435 15.8851 14.9544 15.7328ZM10.581 15.8015C10.4853 15.8196 10.394 15.8563 10.3125 15.9097C10.231 15.963 10.1608 16.0319 10.106 16.1125C10.052 15.9969 9.98929 15.8857 9.91849 15.7796C9.91068 15.7671 9.90131 15.7546 9.89349 15.7421C10.1857 15.3796 10.2841 14.8796 10.3013 14.4281C11.2044 15.0281 11.9701 15.2343 12.5419 15.2781C12.5823 15.5176 12.6462 15.7526 12.7326 15.9796C12.7779 16.1062 12.8201 16.2296 12.8529 16.3546C12.8279 16.3562 12.7982 16.3578 12.7654 16.3578C12.7048 16.3577 12.6443 16.3541 12.5841 16.3468L12.5482 16.3421L12.5107 16.3406L11.8701 16.3281C11.839 16.2851 11.8056 16.2439 11.7701 16.2046C11.6439 16.0736 11.4931 15.9688 11.3263 15.8961C11.1595 15.8234 10.9801 15.7844 10.7982 15.7812C10.7253 15.7807 10.6525 15.7875 10.581 15.8015Z" fill="black"/>
</svg>
