<svg width="24" height="24" viewBox="0 0 24 24" fill="none" xmlns="http://www.w3.org/2000/svg">
<path fill-rule="evenodd" clip-rule="evenodd" d="M3.46568 5.93881L10.4923 14.8463H11.676L11.9988 13.1777L4.51615 4.88694C4.21947 4.60618 3.75435 4.59813 3.46568 4.88694C3.17599 5.17673 3.21206 5.61794 3.46568 5.93881Z" fill="#FE8607"/>
<path fill-rule="evenodd" clip-rule="evenodd" d="M13.1838 18.2567C14.1411 19.2996 14.5751 19.6847 16.3854 19.1291L17.2334 18.8684L18.7099 17.289L18.4112 15.7087L16.0045 16.4467C15.4562 16.6152 14.8107 16.2201 14.3556 15.7889L13.5056 14.8463L12.1323 15.1L12 16.7555L13.1838 18.2567Z" fill="#FE8607"/>
<path fill-rule="evenodd" clip-rule="evenodd" d="M17.2344 18.8684L19.0096 18.3239C19.6831 18.1174 19.8605 18.1715 20.1432 17.4305L20.6474 16.1098C20.9261 15.3808 20.5211 15.062 19.9117 15.2485L18.4121 15.7087L17.2344 18.8684Z" fill="#F8F2F0"/>
<path fill-rule="evenodd" clip-rule="evenodd" d="M6.36188 9.60792H8.77859L7.58177 8.28229H5.31641L6.36188 9.60792Z" fill="#F8F2F0"/>
<path fill-rule="evenodd" clip-rule="evenodd" d="M12.0583 7.98951C13.2471 7.98951 14.2104 7.55631 14.2104 7.02085V5.58588H9.90625V7.02081C9.90625 7.55631 10.8695 7.98951 12.0583 7.98951Z" fill="#668D97"/>
<path fill-rule="evenodd" clip-rule="evenodd" d="M9.90625 5.58585C9.90625 6.12033 10.8695 6.55451 12.0583 6.55451C13.2471 6.55451 14.2104 6.12033 14.2104 5.58585C14.2104 5.05038 13.2471 4.61719 12.0583 4.61719C10.8695 4.61719 9.90625 5.05038 9.90625 5.58585Z" fill="#7CA2B1"/>
<path fill-rule="evenodd" clip-rule="evenodd" d="M9.64233 15.7889L19.4815 4.88688C19.7772 4.60612 20.2433 4.59807 20.532 4.88688C20.8207 5.17667 20.7846 5.61788 20.532 5.93879L10.8151 18.2567C9.85682 19.2996 9.42278 19.6846 7.61252 19.1291L4.98933 18.3239C4.31676 18.1173 4.13933 18.1714 3.85565 17.4304L3.35147 16.1098C3.07282 15.3808 3.47775 15.0619 4.08722 15.2484L7.99343 16.4467C8.54173 16.6152 9.18723 16.2201 9.64233 15.7889Z" fill="#FEC165"/>
<path fill-rule="evenodd" clip-rule="evenodd" d="M4.98933 18.3239L6.76553 18.8684L5.58776 15.7087L4.08722 15.2485C3.47779 15.062 3.07282 15.3808 3.35147 16.1098L3.85565 17.4305C4.13936 18.1715 4.31675 18.1174 4.98933 18.3239Z" fill="#F8F2F0"/>
<path fill-rule="evenodd" clip-rule="evenodd" d="M15.2227 9.60792H17.6394L18.6858 8.28229H16.4195L15.2227 9.60792Z" fill="#F8F2F0"/>
<path fill-rule="evenodd" clip-rule="evenodd" d="M12.6267 6.52047C13.5408 6.40916 14.2124 6.03211 14.2124 5.58591C14.2124 5.15373 13.5829 4.7867 12.7149 4.66235C13.1228 4.88398 13.3774 5.19483 13.3774 5.53978C13.3774 5.55483 13.3764 5.56988 13.3754 5.58591C13.3494 5.98099 12.9885 6.32795 12.4492 6.53854C12.5094 6.53347 12.5685 6.52746 12.6267 6.52047Z" fill="#668D97"/>
<path fill-rule="evenodd" clip-rule="evenodd" d="M12.5685 7.96244C13.5117 7.86017 14.2124 7.47711 14.2124 7.02085V5.58588C14.2124 6.03211 13.5408 6.40913 12.6267 6.52044C12.5685 6.52747 12.5094 6.53348 12.4492 6.53847V7.97443C12.4893 7.97045 12.5294 7.96645 12.5685 7.96244Z" fill="#547884"/>
<path fill-rule="evenodd" clip-rule="evenodd" d="M4.98936 18.3239L6.76556 18.8684L6.35057 17.7564L4.56337 17.2079C3.88978 17.0013 3.71238 17.0554 3.42969 16.3144L3.85568 17.4305C4.13939 18.1715 4.31679 18.1174 4.98936 18.3239Z" fill="#EEE1DC"/>
<path fill-rule="evenodd" clip-rule="evenodd" d="M7.61353 19.1291C9.4238 19.6847 9.85784 19.2996 10.8161 18.2567L11.9999 16.7556L12.7115 15.8531L13.5054 14.8463L17.6382 9.60791H16.3311L12.2856 14.7371L10.3891 17.1407C9.43181 18.1836 8.99781 18.5686 7.18754 18.0131L6.35156 17.7564L6.76655 18.8685L7.61353 19.1291Z" fill="#FEA610"/>
<path fill-rule="evenodd" clip-rule="evenodd" d="M16.332 9.60792H17.6391L18.6856 8.28229H17.3785L16.332 9.60792Z" fill="#EEE1DC"/>
<path fill-rule="evenodd" clip-rule="evenodd" d="M17.3789 8.28227H18.686L20.5344 5.93882C20.787 5.61795 20.823 5.17674 20.5344 4.88691C20.4361 4.78964 20.3188 4.72548 20.1935 4.6944C20.1685 4.73852 20.1404 4.78162 20.1084 4.82275L17.3789 8.28227Z" fill="#FEA610"/>
<path fill-rule="evenodd" clip-rule="evenodd" d="M3.46569 5.9388L5.31403 8.28225H6.66621L5.74803 7.11805L3.89969 4.7746C3.87663 4.74651 3.85659 4.71744 3.83753 4.68738C3.7012 4.71445 3.57091 4.78065 3.46565 4.88692C3.176 5.17672 3.21207 5.61793 3.46569 5.9388Z" fill="#F46700"/>
<path fill-rule="evenodd" clip-rule="evenodd" d="M5.31641 8.28229L6.36188 9.60792H7.71406L6.79589 8.44372L6.66859 8.28229H5.31641Z" fill="#EEE1DC"/>
<path fill-rule="evenodd" clip-rule="evenodd" d="M12 16.7556L13.1838 18.2567C14.1411 19.2996 14.5751 19.6847 16.3853 19.1291L17.2333 18.8684L17.6663 17.7052L16.8194 17.9649C15.0091 18.5204 14.5751 18.1354 13.6178 17.0925L12.6756 15.8992L12 16.7556Z" fill="#F46700"/>
<path fill-rule="evenodd" clip-rule="evenodd" d="M17.2344 18.8684L19.0096 18.3239C19.6831 18.1173 19.8605 18.1715 20.1432 17.4304L20.6474 16.1098C20.6705 16.0496 20.6895 15.9915 20.7036 15.9363L20.5773 16.2662C20.2946 17.0073 20.1172 16.9531 19.4436 17.1597L18.5846 17.4234L17.6674 17.7052L17.2344 18.8684Z" fill="#EEE1DC"/>
<path fill-rule="evenodd" clip-rule="evenodd" d="M6.35938 9.60791L10.4921 14.8463L11.2138 14.0471L7.71155 9.60791H6.35938Z" fill="#F46700"/>
<path d="M12.0603 8.25315C13.4375 8.25315 14.4761 7.72335 14.4761 7.02082V5.58585C14.4761 4.88329 13.4375 4.35352 12.0603 4.35352C10.6831 4.35352 9.64453 4.88332 9.64453 5.58585V7.02082C9.64453 7.72335 10.6831 8.25315 12.0603 8.25315ZM12.0603 7.72581C10.9075 7.72581 10.1719 7.30826 10.1719 7.02082V6.37205C10.6075 6.64771 11.2793 6.81822 12.0603 6.81822C12.8413 6.81822 13.5131 6.64771 13.9487 6.37205V7.02082C13.9487 7.30826 13.213 7.72581 12.0603 7.72581ZM12.0603 4.88086C13.213 4.88086 13.9487 5.29841 13.9487 5.58585C13.9487 5.87329 13.213 6.29084 12.0603 6.29084C10.9075 6.29084 10.1719 5.87329 10.1719 5.58585C10.1719 5.29841 10.9075 4.88086 12.0603 4.88086Z" fill="black"/>
<path d="M20.8094 15.1607C20.5956 14.9319 20.2401 14.872 19.8338 14.9964L15.9275 16.1947C15.5699 16.3046 15.0535 16.084 14.5448 15.6045L13.8511 14.8353L15.3419 12.946C15.4321 12.8317 15.4125 12.6659 15.2982 12.5757C15.1838 12.4855 15.0181 12.505 14.9279 12.6194L13.3046 14.6766C13.3 14.682 13.2956 14.6875 13.2916 14.6932L12.5051 15.6898L10.6158 18.0856C9.73518 19.0441 9.40102 19.4017 7.69155 18.8771L6.96916 18.6553L6.02324 16.1177L7.9176 16.6988C8.70113 16.9396 9.51268 16.2766 9.82532 15.9804C9.83031 15.9757 9.83509 15.9707 9.8397 15.9656L15.3396 9.87165H17.0954L15.7117 11.6257C15.6215 11.74 15.6411 11.9058 15.7554 11.996C15.8698 12.0861 16.0356 12.0666 16.1258 11.9523L20.7408 6.10192C21.0925 5.65504 21.084 5.06583 20.7201 4.70052C20.3314 4.31165 19.7083 4.30954 19.3015 4.6957C19.2966 4.70038 19.2919 4.70523 19.2874 4.71026L12.0005 12.7842L4.7136 4.71029C4.70896 4.70516 4.70411 4.7002 4.69908 4.69542C4.2919 4.31011 3.66893 4.31236 3.28088 4.70052C2.91578 5.06579 2.9072 5.65529 3.26035 6.10216L5.10774 8.44403C5.10985 8.44673 5.11189 8.44947 5.1141 8.45211L6.14815 9.76295C6.15244 9.76882 6.15691 9.77455 6.16165 9.78007L7.60155 11.6053C7.69176 11.7197 7.85755 11.7393 7.97188 11.6491C8.08621 11.5589 8.10579 11.3931 8.01558 11.2787L6.90559 9.87165H8.6614L11.6453 13.1778L10.5078 14.4383L8.77137 12.2374C8.68116 12.1231 8.51536 12.1035 8.40104 12.1937C8.28671 12.2839 8.26716 12.4497 8.35734 12.564L10.1493 14.8354L9.45513 15.6046C8.94638 16.084 8.43004 16.3045 8.07232 16.1947L4.16601 14.9963C3.75988 14.8721 3.40431 14.9319 3.19063 15.1607C3.06273 15.2976 2.88175 15.6152 3.10679 16.2039L3.61107 17.5247C3.89151 18.2574 4.13848 18.3547 4.67032 18.505C4.74271 18.5255 4.82473 18.5487 4.91361 18.576L7.53682 19.3812C8.12562 19.5619 8.58441 19.6464 8.96557 19.6464C9.84656 19.6464 10.3128 19.1948 11.0109 18.4351C11.0154 18.4302 11.0197 18.4252 11.0238 18.42L12.0005 17.1814L12.9773 18.42C12.9813 18.4252 12.9856 18.4302 12.9901 18.435C13.6875 19.1948 14.1533 19.6465 15.0343 19.6465C15.4154 19.6465 15.8743 19.5619 16.4632 19.3812L19.0863 18.576C19.1752 18.5487 19.2573 18.5255 19.3297 18.5051C19.8622 18.3547 20.1094 18.2574 20.389 17.5244L20.8932 16.2039C21.1182 15.6152 20.9373 15.2976 20.8094 15.1607ZM19.6714 5.07187C19.8691 4.89036 20.1642 4.89036 20.3468 5.073C20.5512 5.27827 20.4796 5.58118 20.3266 5.77552L18.5571 8.0186H17.012L19.6714 5.07187ZM16.536 8.54598H18.1411L17.5114 9.34427H15.8156L16.536 8.54598ZM3.65385 5.07335C3.83638 4.89078 4.13155 4.89085 4.32973 5.07208L6.98905 8.01863H5.44387L3.67424 5.77535C3.52071 5.58104 3.44882 5.27849 3.65385 5.07335ZM6.48962 9.34427L5.85987 8.54598H7.465L8.18546 9.34427H6.48962ZM4.81373 17.9976C4.36956 17.8721 4.30129 17.8528 4.10364 17.3364L3.59939 16.0157C3.51238 15.7881 3.50338 15.5984 3.57598 15.5207C3.64369 15.4482 3.81473 15.4403 4.0115 15.5006L5.38772 15.9227L6.33357 18.4603L5.06836 18.0719C4.97386 18.0428 4.88879 18.0188 4.81373 17.9976ZM16.3085 18.8771C14.5987 19.4018 14.2651 19.0442 13.3852 18.0857L12.3363 16.7556L12.9192 16.0164L13.5198 15.2553L14.1602 15.9655C14.1648 15.9706 14.1697 15.9756 14.1747 15.9803C14.4408 16.2325 15.0686 16.7505 15.7327 16.7504C15.8486 16.7504 15.9658 16.7346 16.0823 16.6989L17.9779 16.1173L17.032 18.655L16.3085 18.8771ZM20.4005 16.0158L19.8963 17.3365C19.6994 17.8528 19.631 17.8721 19.1865 17.9976C19.1114 18.0188 19.0263 18.0428 18.9317 18.0718L17.6676 18.4599L18.6134 15.9224L19.9883 15.5006C20.1853 15.4403 20.3563 15.4482 20.424 15.5207C20.4965 15.5984 20.4876 15.7881 20.4005 16.0158Z" fill="black"/>
</svg>
