<svg width="24" height="24" viewBox="0 0 24 24" fill="none" xmlns="http://www.w3.org/2000/svg">
<path d="M21.7068 16.0521C21.5767 15.9213 21.422 15.8175 21.2516 15.7468C21.0812 15.676 20.8984 15.6398 20.7139 15.6401H15.9281C15.9214 15.6402 15.9148 15.6384 15.9091 15.635C15.9033 15.6315 15.8987 15.6266 15.8956 15.6206L13.5498 11.5583L12.4336 13.4889L15.0585 18.0281C15.1509 18.1954 15.2925 18.3301 15.4641 18.4142C15.5085 18.4361 15.5574 18.4472 15.6069 18.4467H20.7139C21.0865 18.4465 21.4438 18.2984 21.7072 18.035C21.9706 17.7716 22.1187 17.4143 22.1189 17.0417C22.1198 16.8576 22.0838 16.6752 22.013 16.5052C21.9422 16.3353 21.8381 16.1812 21.7068 16.0521Z" fill="#333333"/>
<path d="M9.30859 18.8555C9.30859 19.0437 9.39295 19.4006 9.94779 19.6667C10.6107 19.9916 11.3381 20.1635 12.0763 20.1696C12.8206 20.1622 13.554 19.9904 14.2242 19.6667C14.3841 19.5906 14.5229 19.4766 14.6286 19.3347C14.7344 19.1928 14.8038 19.0272 14.831 18.8523V18.8458C14.8036 18.6761 14.738 18.5149 14.639 18.3743C14.5401 18.2338 14.4104 18.1176 14.2599 18.0346C13.604 17.6736 12.8595 17.5049 12.112 17.5479C11.3439 17.5026 10.5783 17.6699 9.89912 18.0314C9.73488 18.1018 9.59303 18.2158 9.48894 18.3611C9.38485 18.5064 9.32248 18.6773 9.30859 18.8555Z" fill="#333333"/>
<path d="M14.8279 20.0398C14.7279 20.1218 14.619 20.1925 14.5035 20.2507C13.7452 20.6171 12.9153 20.811 12.0732 20.8185C11.2388 20.8114 10.4163 20.6185 9.6657 20.254C9.53898 20.1931 9.41838 20.1203 9.30554 20.0366V20.3708C9.27684 20.6039 9.31983 20.8402 9.42881 21.0483C9.53778 21.2564 9.70756 21.4264 9.91553 21.5356C10.5303 21.8479 11.2118 22.006 11.9013 21.9963C11.9726 21.9996 12.0505 21.9996 12.1284 21.9996C12.4965 22.0043 12.864 21.9706 13.2251 21.899C13.6292 21.8217 14.0161 21.6722 14.3672 21.4577C14.8831 21.1333 14.8571 20.7536 14.8279 20.3772V20.0398Z" fill="#333333"/>
<path d="M17.4749 3.4564C17.5658 3.30927 17.6131 3.13938 17.6112 2.96646C17.611 2.79681 17.5662 2.6302 17.4813 2.48329C17.3965 2.33639 17.2746 2.21433 17.1277 2.12934C16.9056 2.0017 16.6419 1.96725 16.3944 2.03353C16.147 2.09981 15.9358 2.26142 15.8072 2.48301L15.3711 3.23901L17.0505 4.19196L17.4749 3.4564Z" fill="#333333"/>
<path d="M15.0485 3.80042L8.22305 15.6207C8.22001 15.6266 8.21536 15.6316 8.20962 15.6351C8.20389 15.6385 8.1973 15.6403 8.19061 15.6401H3.40475C3.032 15.6408 2.67436 15.7876 2.40864 16.049C2.21298 16.2459 2.07999 16.4964 2.02643 16.7688C1.97286 17.0413 2.00111 17.3234 2.10763 17.5798C2.21414 17.8362 2.39414 18.0554 2.62497 18.2096C2.85579 18.3639 3.12711 18.4464 3.40475 18.4468H8.51183C8.5613 18.4473 8.61019 18.4361 8.65459 18.4143C8.82501 18.3313 8.96555 18.1975 9.05693 18.0315L16.7276 4.75337L15.0485 3.80042Z" fill="#333333"/>
<path d="M7.14051 4.32761L8.82221 3.37336L8.30793 2.48303C8.20145 2.29882 8.03719 2.15487 7.84059 2.0735C7.64399 1.99213 7.42605 1.97788 7.22053 2.03296C7.01501 2.08803 6.83339 2.20936 6.70383 2.37814C6.57427 2.54691 6.504 2.75371 6.50391 2.96648C6.50428 3.13619 6.54903 3.30285 6.63369 3.44994L7.14051 4.32761Z" fill="#333333"/>
<path d="M10.57 10.2637L11.6861 8.3299L9.14882 3.93665L7.46484 4.89057L10.57 10.2637Z" fill="#333333"/>
</svg>
