<svg width="20" height="20" viewBox="0 0 20 20" fill="none" xmlns="http://www.w3.org/2000/svg">
<path d="M10.001 0.299805C14.3318 0.299805 17.8427 3.81079 17.8428 8.1416C17.8428 12.4725 14.3319 15.9834 10.001 15.9834C5.67016 15.9833 2.15918 12.4724 2.15918 8.1416C2.15928 3.81085 5.67023 0.29991 10.001 0.299805Z" fill="#FF0012" stroke="black" stroke-width="0.6"/>
<path d="M10.001 15.0764C13.8308 15.0764 16.9355 11.9717 16.9355 8.1418C16.9355 4.31194 13.8308 1.20723 10.001 1.20723C6.17112 1.20723 3.06641 4.31194 3.06641 8.1418C3.06641 11.9717 6.17112 15.0764 10.001 15.0764Z" fill="white"/>
<path d="M4.03516 11.6712C5.24453 13.708 7.46633 15.0764 10.0021 15.0764C12.5378 15.0764 14.7596 13.708 15.969 11.6712H4.03516Z" fill="#F9F7F8"/>
<path d="M3.50293 13.1783H16.4971C16.922 13.1783 17.2666 13.5229 17.2666 13.9478V18.9302C17.2666 19.3551 16.922 19.6998 16.4971 19.6998H3.50293C3.07803 19.6997 2.7334 19.3551 2.7334 18.9302V13.9478C2.73344 13.5229 3.07805 13.1783 3.50293 13.1783Z" fill="#FF0012" stroke="black" stroke-width="0.6"/>
<path d="M5.99414 18.1879C5.99355 18.1879 5.99301 18.1879 5.99242 18.1879C5.65273 18.1898 5.16422 18.1916 4.8575 18.1913V14.3853C4.8575 14.2186 4.72238 14.0835 4.5557 14.0835C4.38898 14.0835 4.25391 14.2186 4.25391 14.3853V18.4897C4.25391 18.6367 4.3598 18.7623 4.50473 18.7872C4.52617 18.7909 4.55102 18.7951 4.99645 18.7951C5.21355 18.7951 5.53066 18.7941 5.9959 18.7915C6.16258 18.7905 6.29695 18.6547 6.29602 18.488C6.29496 18.3219 6.16 18.1879 5.99414 18.1879Z" fill="white"/>
<path d="M7.59867 14.0835C7.43195 14.0835 7.29688 14.2186 7.29688 14.3853V18.4931C7.29688 18.6598 7.43199 18.7949 7.59867 18.7949C7.76539 18.7949 7.90047 18.6598 7.90047 18.4931V14.3853C7.90051 14.2186 7.76539 14.0835 7.59867 14.0835Z" fill="white"/>
<path d="M15.4427 18.1726H14.0294V16.741H15.3162C15.4829 16.741 15.618 16.6059 15.618 16.4392C15.618 16.2725 15.4829 16.1374 15.3162 16.1374H14.0294V14.7059H15.4427C15.6094 14.7059 15.7445 14.5707 15.7445 14.4041C15.7445 14.2374 15.6093 14.1023 15.4427 14.1023H13.7276C13.5609 14.1023 13.4258 14.2374 13.4258 14.4041V18.4744C13.4258 18.6411 13.5609 18.7762 13.7276 18.7762H15.4427C15.6094 18.7762 15.7445 18.6411 15.7445 18.4744C15.7445 18.3077 15.6094 18.1726 15.4427 18.1726Z" fill="white"/>
<path d="M12.2203 14.1064C12.0623 14.0539 11.8913 14.1395 11.8387 14.2977L10.6918 17.7503L9.48934 14.2863C9.43473 14.1288 9.26266 14.0453 9.10528 14.1002C8.94782 14.1548 8.86446 14.3268 8.91911 14.4842L10.3243 18.5325C10.3802 18.6898 10.5293 18.7949 10.6961 18.7949H10.6987C10.8665 18.7938 11.0156 18.6863 11.0702 18.5254L12.4115 14.488C12.4641 14.3298 12.3784 14.159 12.2203 14.1064Z" fill="white"/>
<path d="M8.46484 10.4129V5.87067C8.46484 5.41063 8.98832 5.14633 9.35848 5.41946L12.4366 7.69059C12.7403 7.91469 12.7403 8.36887 12.4366 8.59301L9.35848 10.8641C8.98832 11.1373 8.46484 10.873 8.46484 10.4129Z" fill="#FF0012"/>
<path d="M12.4377 7.69058L9.35965 5.41945C9.04566 5.18777 8.6216 5.34281 8.5 5.6759C10.16 6.90074 10.16 9.38281 8.5 10.6076C8.6216 10.9407 9.0457 11.0957 9.35965 10.8641L12.4377 8.59293C12.7415 8.36887 12.7415 7.91473 12.4377 7.69058Z" fill="#FF0012"/>
</svg>
