<svg width="24" height="24" viewBox="0 0 24 24" fill="none" xmlns="http://www.w3.org/2000/svg">
<g clip-path="url(#clip0_980_873)">
<path d="M3.40992 14.9741L3.28906 16.8268L5.62619 18.0046C5.69306 18.038 5.74756 18.0919 5.78161 18.1587L6.96358 20.4977L9.59349 20.3524C9.60002 20.3521 9.60638 20.3517 9.61291 20.3517C9.68168 20.3517 9.74908 20.3718 9.8065 20.4098L12.0004 21.856L14.1942 20.4096C14.2571 20.368 14.3319 20.3478 14.4073 20.3521L17.0371 20.4968L18.219 18.1573C18.2529 18.0902 18.3074 18.0357 18.3745 18.0019L20.7116 16.8266L20.5907 14.9741H3.40992Z" fill="#333333"/>
<path d="M20.5906 9.07643L20.7116 7.22379L18.3745 6.04594C18.3074 6.01259 18.2529 5.95861 18.2189 5.8919L17.0369 3.55288L14.4072 3.69816C14.3317 3.70246 14.2569 3.68234 14.194 3.64074L12.0002 2.19452L9.8065 3.64091C9.7434 3.68251 9.66879 3.7028 9.59332 3.6985L6.96341 3.55374L5.78161 5.89328C5.74774 5.96033 5.69324 6.01482 5.62619 6.04869L3.28906 7.22379L3.40975 9.07643H20.5906Z" fill="#333333"/>
<path d="M4.21024 12.6217V10.6279C4.21024 10.4676 4.03935 10.397 3.88445 10.397H3.11423C2.95624 10.397 2.8854 10.5649 2.8854 10.7226C2.8854 10.9145 2.97962 11.0572 3.11423 11.0572H3.46203V12.6218C3.46203 12.8991 3.34134 13.0399 3.09017 13.0399C2.75698 13.0399 2.74099 12.7872 2.72809 12.6199C2.71589 12.4692 2.59606 12.3928 2.36895 12.3928C2.13479 12.3928 2 12.4497 2 12.7406C2 13.304 2.45542 13.6824 3.12936 13.6824C3.81465 13.6824 4.21024 13.2958 4.21024 12.6217Z" fill="#333333"/>
<path d="M5.55156 13.5198L5.69683 12.9935H6.59204L6.73714 13.5201C6.76413 13.614 6.84906 13.6599 6.98282 13.6599C7.17125 13.6599 7.44495 13.5396 7.44495 13.3542C7.44374 13.3353 7.44048 13.3166 7.43515 13.2984L6.61215 10.6129C6.56556 10.4644 6.38109 10.3681 6.14211 10.3681C5.90331 10.3681 5.71901 10.464 5.67225 10.6126L4.85321 13.2985C4.84805 13.3161 4.84495 13.3341 4.84375 13.3523C4.84375 13.5377 5.11745 13.656 5.30588 13.656C5.43981 13.6561 5.52474 13.6142 5.55156 13.5198ZM6.14211 11.3475L6.43473 12.4214H5.84967L6.14211 11.3475Z" fill="#333333"/>
<path d="M9.16361 11.0371C9.51898 11.0371 9.53015 11.2999 9.53445 11.4125C9.54287 11.5637 9.66649 11.6402 9.9003 11.6402C10.1317 11.6402 10.2658 11.5833 10.2658 11.2925C10.2658 10.747 9.81279 10.3946 9.1282 10.3946C8.44291 10.3946 8.03906 10.7812 8.03906 11.4554V12.6217C8.03906 13.2958 8.44308 13.6823 9.12837 13.6823C9.80231 13.6823 10.2607 13.3039 10.2607 12.7405C10.2607 12.4498 10.1278 12.3929 9.8936 12.3929C9.66649 12.3929 9.54649 12.4692 9.53411 12.62C9.52138 12.7872 9.50041 13.0398 9.16722 13.0398C8.91604 13.0398 8.78727 12.899 8.78727 12.6217V11.4554C8.78727 11.1779 8.91536 11.0371 9.16361 11.0371Z" fill="#333333"/>
<path d="M11.3624 10.3946C11.1939 10.3946 10.9883 10.4544 10.9883 10.6234V13.4225C10.9883 13.5829 11.1863 13.6558 11.3624 13.6558C11.5384 13.6558 11.7365 13.5829 11.7365 13.4225V12.6337L11.9 12.4262L12.6365 13.5444C12.6907 13.6336 12.7892 13.6865 12.8935 13.6824C13.1091 13.6824 13.3295 13.4979 13.3295 13.3171C13.3287 13.2722 13.3153 13.2284 13.2908 13.1907L12.3886 11.8086L13.1009 10.9136C13.132 10.8716 13.149 10.8209 13.1492 10.7687C13.1492 10.5794 12.9049 10.3946 12.7223 10.3946C12.6415 10.3923 12.5653 10.4326 12.5217 10.5006L11.7365 11.6104V10.6234C11.7365 10.4544 11.5309 10.3946 11.3624 10.3946Z" fill="#333333"/>
<path d="M14.6857 13.4226V12.5094H15.0861C15.7986 12.5094 16.1821 12.1236 16.1821 11.4509V11.4288C16.1821 10.7618 15.8142 10.3968 15.1301 10.3968H14.2191C14.0611 10.3968 13.9375 10.4929 13.9375 10.6234V13.4225C13.9375 13.5829 14.1356 13.6558 14.3116 13.6558C14.4877 13.6558 14.6857 13.583 14.6857 13.4226ZM14.6857 11.057H15.0861C15.3309 11.057 15.4779 11.1816 15.4779 11.4553V11.5036C15.4779 11.7773 15.3309 11.9372 15.0861 11.9372H14.6857V11.057Z" fill="#333333"/>
<path d="M17.9399 10.3946C17.2303 10.3946 16.8418 10.7713 16.8418 11.4552V12.6215C16.8418 13.3056 17.2303 13.6823 17.9399 13.6823C18.6523 13.6823 19.0424 13.3056 19.0424 12.6215V11.4552C19.0424 10.7713 18.6523 10.3946 17.9399 10.3946ZM18.3382 12.6215C18.3382 12.8988 18.2101 13.0396 17.9619 13.0396C17.7165 13.0396 17.59 12.8988 17.59 12.6215V11.4552C17.59 11.1779 17.7165 11.0371 17.9619 11.0371C18.2101 11.0371 18.3382 11.1779 18.3382 11.4552V12.6215Z" fill="#333333"/>
<path d="M21.7709 10.3968H19.8696C19.7115 10.3968 19.6406 10.5603 19.6406 10.7224C19.6406 10.9194 19.7348 11.057 19.8696 11.057H20.4506V13.4226C20.4506 13.583 20.6486 13.6559 20.8247 13.6559C21.0007 13.6559 21.1988 13.583 21.1988 13.4226V11.057H21.7709C21.9057 11.057 21.9998 10.9194 21.9998 10.7224C21.9998 10.5603 21.9289 10.3968 21.7709 10.3968Z" fill="#333333"/>
</g>
<defs>
<clipPath id="clip0_980_873">
<rect width="20" height="20" fill="white" transform="translate(2 2)"/>
</clipPath>
</defs>
</svg>
