<svg width="20" height="20" viewBox="0 0 20 20" fill="none" xmlns="http://www.w3.org/2000/svg">
<path d="M2.1875 5.2998H17.8125C18.8549 5.2998 19.7002 6.14506 19.7002 7.1875V12.8125C19.7002 13.8549 18.8549 14.7002 17.8125 14.7002H2.1875C1.14506 14.7002 0.299805 13.8549 0.299805 12.8125V7.1875C0.299805 6.14506 1.14506 5.2998 2.1875 5.2998Z" fill="#F51E1E" stroke="black" stroke-width="0.6"/>
<path fill-rule="evenodd" clip-rule="evenodd" d="M3.10195 12.2097C1.88227 10.99 1.88227 9.01001 3.10195 7.79032C3.22383 7.66845 3.22383 7.47032 3.10195 7.34845C2.98008 7.22626 2.78195 7.22626 2.66008 7.34845C1.19664 8.81188 1.19664 11.1881 2.66008 12.6516C2.78195 12.7738 2.98008 12.7738 3.10195 12.6516C3.22383 12.5297 3.22383 12.3316 3.10195 12.2097Z" fill="white"/>
<path fill-rule="evenodd" clip-rule="evenodd" d="M7.52109 7.79032C8.74078 9.01001 8.74078 10.99 7.52109 12.2097C7.39922 12.3316 7.39922 12.5297 7.52109 12.6516C7.64297 12.7738 7.84109 12.7738 7.96297 12.6516C9.42641 11.1881 9.42641 8.81188 7.96297 7.34845C7.84109 7.22626 7.64297 7.22626 7.52109 7.34845C7.39922 7.47032 7.39922 7.66845 7.52109 7.79032Z" fill="white"/>
<path fill-rule="evenodd" clip-rule="evenodd" d="M3.98609 11.3259C3.25453 10.5941 3.25453 9.40593 3.98609 8.67406C4.10828 8.55218 4.10828 8.35406 3.98609 8.23218C3.86422 8.11031 3.66609 8.11031 3.54422 8.23218C2.56859 9.20781 2.56859 10.7922 3.54422 11.7678C3.66609 11.8897 3.86422 11.8897 3.98609 11.7678C4.10828 11.6459 4.10828 11.4478 3.98609 11.3259Z" fill="white"/>
<path fill-rule="evenodd" clip-rule="evenodd" d="M6.63852 8.67406C7.37008 9.40593 7.37008 10.5941 6.63852 11.3259C6.51633 11.4478 6.51633 11.6459 6.63852 11.7678C6.76039 11.8897 6.95852 11.8897 7.08039 11.7678C8.05602 10.7922 8.05602 9.20781 7.08039 8.23218C6.95852 8.11031 6.76039 8.11031 6.63852 8.23218C6.51633 8.35406 6.51633 8.55218 6.63852 8.67406Z" fill="white"/>
<path fill-rule="evenodd" clip-rule="evenodd" d="M17.1875 9.6875V9.0625H17.8125C17.985 9.0625 18.125 8.9225 18.125 8.75C18.125 8.5775 17.985 8.4375 17.8125 8.4375H16.875C16.7025 8.4375 16.5625 8.5775 16.5625 8.75V11.25C16.5625 11.4225 16.7025 11.5625 16.875 11.5625H17.8125C17.985 11.5625 18.125 11.4225 18.125 11.25C18.125 11.0775 17.985 10.9375 17.8125 10.9375H17.1875V10.3125H17.8125C17.985 10.3125 18.125 10.1725 18.125 10C18.125 9.8275 17.985 9.6875 17.8125 9.6875H17.1875Z" fill="white"/>
<path fill-rule="evenodd" clip-rule="evenodd" d="M15.3219 8.67407L15 9.96156L14.6781 8.67407C14.6363 8.50688 14.4666 8.405 14.2991 8.44688C14.1319 8.48875 14.03 8.65844 14.0719 8.82594L14.6969 11.3259C14.7316 11.465 14.8566 11.5625 15 11.5625C15.1435 11.5625 15.2685 11.465 15.3031 11.3259L15.9281 8.82594C15.97 8.65844 15.8681 8.48875 15.701 8.44688C15.5335 8.405 15.3638 8.50688 15.3219 8.67407Z" fill="white"/>
<path fill-rule="evenodd" clip-rule="evenodd" d="M13.4375 11.25V8.75C13.4375 8.5775 13.2975 8.4375 13.125 8.4375C12.9525 8.4375 12.8125 8.5775 12.8125 8.75V11.25C12.8125 11.4225 12.9525 11.5625 13.125 11.5625C13.2975 11.5625 13.4375 11.4225 13.4375 11.25Z" fill="white"/>
<path fill-rule="evenodd" clip-rule="evenodd" d="M10.625 8.75V11.25C10.625 11.4225 10.765 11.5625 10.9375 11.5625H11.875C12.0475 11.5625 12.1875 11.4225 12.1875 11.25C12.1875 11.0775 12.0475 10.9375 11.875 10.9375H11.25V8.75C11.25 8.5775 11.11 8.4375 10.9375 8.4375C10.765 8.4375 10.625 8.5775 10.625 8.75Z" fill="white"/>
<path d="M5.3125 10.9375C5.83027 10.9375 6.25 10.5178 6.25 10C6.25 9.48223 5.83027 9.0625 5.3125 9.0625C4.79473 9.0625 4.375 9.48223 4.375 10C4.375 10.5178 4.79473 10.9375 5.3125 10.9375Z" fill="white"/>
</svg>
