<svg width="24" height="24" viewBox="0 0 24 24" fill="none" xmlns="http://www.w3.org/2000/svg">
<path fill-rule="evenodd" clip-rule="evenodd" d="M22 9.1875C22 7.97938 21.0206 7 19.8125 7C16.1084 7 7.89156 7 4.1875 7C2.97938 7 2 7.97938 2 9.1875V14.8125C2 16.0206 2.97938 17 4.1875 17H19.8125C21.0206 17 22 16.0206 22 14.8125C22 13.1788 22 10.8212 22 9.1875Z" fill="#333333"/>
<path fill-rule="evenodd" clip-rule="evenodd" d="M5.10195 14.2096C3.88227 12.9899 3.88227 11.0099 5.10195 9.79023C5.22383 9.66835 5.22383 9.47023 5.10195 9.34835C4.98008 9.22617 4.78195 9.22617 4.66008 9.34835C3.19664 10.8118 3.19664 13.188 4.66008 14.6515C4.78195 14.7737 4.98008 14.7737 5.10195 14.6515C5.22383 14.5296 5.22383 14.3315 5.10195 14.2096Z" fill="#A4A4A4"/>
<path fill-rule="evenodd" clip-rule="evenodd" d="M9.52109 9.79023C10.7408 11.0099 10.7408 12.9899 9.52109 14.2096C9.39922 14.3315 9.39922 14.5296 9.52109 14.6515C9.64297 14.7737 9.84109 14.7737 9.96297 14.6515C11.4264 13.188 11.4264 10.8118 9.96297 9.34835C9.84109 9.22617 9.64297 9.22617 9.52109 9.34835C9.39922 9.47023 9.39922 9.66835 9.52109 9.79023Z" fill="#6B6B6B"/>
<path fill-rule="evenodd" clip-rule="evenodd" d="M5.98609 13.3259C5.25453 12.5941 5.25453 11.4059 5.98609 10.6741C6.10828 10.5522 6.10828 10.3541 5.98609 10.2322C5.86422 10.1103 5.66609 10.1103 5.54422 10.2322C4.56859 11.2078 4.56859 12.7922 5.54422 13.7678C5.66609 13.8897 5.86422 13.8897 5.98609 13.7678C6.10828 13.6459 6.10828 13.4478 5.98609 13.3259Z" fill="#A4A4A4"/>
<path fill-rule="evenodd" clip-rule="evenodd" d="M8.63852 10.674C9.37008 11.4059 9.37008 12.594 8.63852 13.3259C8.51633 13.4478 8.51633 13.6459 8.63852 13.7678C8.76039 13.8897 8.95852 13.8897 9.08039 13.7678C10.056 12.7922 10.056 11.2078 9.08039 10.2322C8.95852 10.1103 8.76039 10.1103 8.63852 10.2322C8.51633 10.354 8.51633 10.5522 8.63852 10.674Z" fill="white"/>
<path fill-rule="evenodd" clip-rule="evenodd" d="M19.1875 11.6875V11.0625H19.8125C19.985 11.0625 20.125 10.9225 20.125 10.75C20.125 10.5775 19.985 10.4375 19.8125 10.4375H18.875C18.7025 10.4375 18.5625 10.5775 18.5625 10.75V13.25C18.5625 13.4225 18.7025 13.5625 18.875 13.5625H19.8125C19.985 13.5625 20.125 13.4225 20.125 13.25C20.125 13.0775 19.985 12.9375 19.8125 12.9375H19.1875V12.3125H19.8125C19.985 12.3125 20.125 12.1725 20.125 12C20.125 11.8275 19.985 11.6875 19.8125 11.6875H19.1875Z" fill="white"/>
<path fill-rule="evenodd" clip-rule="evenodd" d="M17.3219 10.6741L17 11.9616L16.6781 10.6741C16.6363 10.5069 16.4666 10.405 16.2991 10.4469C16.1319 10.4888 16.03 10.6585 16.0719 10.826L16.6969 13.326C16.7316 13.465 16.8566 13.5625 17 13.5625C17.1435 13.5625 17.2685 13.465 17.3031 13.326L17.9281 10.826C17.97 10.6585 17.8681 10.4888 17.701 10.4469C17.5335 10.405 17.3638 10.5069 17.3219 10.6741Z" fill="white"/>
<path fill-rule="evenodd" clip-rule="evenodd" d="M15.4375 13.25V10.75C15.4375 10.5775 15.2975 10.4375 15.125 10.4375C14.9525 10.4375 14.8125 10.5775 14.8125 10.75V13.25C14.8125 13.4225 14.9525 13.5625 15.125 13.5625C15.2975 13.5625 15.4375 13.4225 15.4375 13.25Z" fill="white"/>
<path fill-rule="evenodd" clip-rule="evenodd" d="M12.625 10.75V13.25C12.625 13.4225 12.765 13.5625 12.9375 13.5625H13.875C14.0475 13.5625 14.1875 13.4225 14.1875 13.25C14.1875 13.0775 14.0475 12.9375 13.875 12.9375H13.25V10.75C13.25 10.5775 13.11 10.4375 12.9375 10.4375C12.765 10.4375 12.625 10.5775 12.625 10.75Z" fill="white"/>
<path d="M7.3125 12.9375C7.83027 12.9375 8.25 12.5178 8.25 12C8.25 11.4822 7.83027 11.0625 7.3125 11.0625C6.79473 11.0625 6.375 11.4822 6.375 12C6.375 12.5178 6.79473 12.9375 7.3125 12.9375Z" fill="white"/>
</svg>
