<svg width="17" height="17" viewBox="0 0 17 17" fill="none" xmlns="http://www.w3.org/2000/svg">
<path d="M6.14717 12.2188C6.01296 12.2184 5.8839 12.1671 5.78592 12.0754C5.30079 11.6148 4.91446 11.0603 4.65047 10.4456C4.38648 9.83098 4.25034 9.16903 4.25034 8.50008C4.25034 7.83113 4.38648 7.16917 4.65047 6.55451C4.91446 5.93985 5.30079 5.38535 5.78592 4.92477C5.89046 4.83999 6.02328 4.79806 6.15755 4.80744C6.29181 4.81682 6.41751 4.87682 6.50925 4.9753C6.60099 5.07378 6.65193 5.20342 6.65177 5.33801C6.65162 5.4726 6.60039 5.60212 6.50842 5.70039C6.13078 6.06237 5.83028 6.497 5.62499 6.97814C5.41971 7.45928 5.31388 7.97697 5.31388 8.50008C5.31388 9.02318 5.41971 9.54088 5.62499 10.022C5.83028 10.5032 6.13078 10.9378 6.50842 11.2998C6.5861 11.3725 6.64015 11.4669 6.66357 11.5707C6.68699 11.6745 6.6787 11.7829 6.63977 11.8819C6.60085 11.981 6.53308 12.066 6.44525 12.1261C6.35742 12.1861 6.25358 12.2185 6.14717 12.2188ZM4.02217 13.6426C4.12112 13.543 4.17666 13.4084 4.17666 13.268C4.17666 13.1277 4.12112 12.9931 4.02217 12.8935C3.42783 12.3265 2.95472 11.6448 2.63147 10.8896C2.30821 10.1344 2.14154 9.32152 2.14154 8.50008C2.14154 7.67863 2.30821 6.86573 2.63147 6.11057C2.95472 5.3554 3.42783 4.67367 4.02217 4.10664C4.12503 4.00731 4.18421 3.87119 4.1867 3.72822C4.18919 3.58525 4.13479 3.44715 4.03545 3.3443C3.93612 3.24144 3.8 3.18226 3.65703 3.17977C3.51407 3.17728 3.37596 3.23168 3.27311 3.33102C2.57331 3.99784 2.01619 4.79982 1.63553 5.68835C1.25487 6.57687 1.05859 7.53344 1.05859 8.50008C1.05859 9.46671 1.25487 10.4233 1.63553 11.3118C2.01619 12.2003 2.57331 13.0023 3.27311 13.6691C3.32423 13.7172 3.38437 13.7547 3.45006 13.7794C3.51575 13.8042 3.58569 13.8156 3.65584 13.8131C3.72598 13.8107 3.79494 13.7943 3.85873 13.765C3.92252 13.7358 3.97988 13.6941 4.02748 13.6426H4.02217ZM11.21 12.0754C11.6951 11.6148 12.0814 11.0603 12.3454 10.4456C12.6094 9.83098 12.7456 9.16903 12.7456 8.50008C12.7456 7.83113 12.6094 7.16917 12.3454 6.55451C12.0814 5.93985 11.6951 5.38535 11.21 4.92477C11.1591 4.87698 11.0992 4.83969 11.0339 4.81502C10.9685 4.79036 10.899 4.77881 10.8292 4.78103C10.7594 4.78325 10.6907 4.7992 10.627 4.82796C10.5634 4.85673 10.5061 4.89774 10.4583 4.94867C10.4105 4.9996 10.3732 5.05944 10.3485 5.12478C10.3239 5.19012 10.3123 5.25968 10.3145 5.32948C10.3168 5.39929 10.3327 5.46797 10.3615 5.53161C10.3902 5.59525 10.4312 5.6526 10.4822 5.70039C10.8618 6.06119 11.1642 6.49544 11.3707 6.97673C11.5773 7.45803 11.6839 7.97632 11.6839 8.50008C11.6839 9.02384 11.5773 9.54212 11.3707 10.0234C11.1642 10.5047 10.8618 10.939 10.4822 11.2998C10.3796 11.3957 10.3192 11.5284 10.3143 11.6688C10.3093 11.8092 10.3601 11.9458 10.4556 12.0488C10.5058 12.1029 10.5666 12.1459 10.6343 12.1752C10.702 12.2045 10.775 12.2193 10.8487 12.2188C10.9829 12.2184 11.112 12.1671 11.21 12.0754ZM13.7175 13.6691C14.4193 13.0035 14.9783 12.2019 15.3602 11.3132C15.7422 10.4245 15.9392 9.46737 15.9392 8.50008C15.9392 7.53278 15.7422 6.57562 15.3602 5.68693C14.9783 4.79824 14.4193 3.99665 13.7175 3.33102C13.6129 3.24624 13.4801 3.20431 13.3459 3.21369C13.2116 3.22307 13.0859 3.28307 12.9942 3.38155C12.9024 3.48003 12.8515 3.60967 12.8516 3.74426C12.8518 3.87885 12.903 4.00837 12.995 4.10664C13.5893 4.67367 14.0624 5.3554 14.3857 6.11057C14.7089 6.86573 14.8756 7.67863 14.8756 8.50008C14.8756 9.32152 14.7089 10.1344 14.3857 10.8896C14.0624 11.6448 13.5893 12.3265 12.995 12.8935C12.8924 12.9895 12.8321 13.1222 12.8271 13.2626C12.8221 13.4029 12.8729 13.5396 12.9684 13.6426C13.018 13.696 13.0779 13.7386 13.1447 13.7679C13.2114 13.7971 13.2834 13.8123 13.3562 13.8126C13.4904 13.8121 13.6195 13.7609 13.7175 13.6691ZM9.56311 8.50008C9.56311 8.28993 9.5008 8.08451 9.38405 7.90978C9.2673 7.73506 9.10136 7.59887 8.90721 7.51846C8.71307 7.43804 8.49943 7.417 8.29333 7.45799C8.08722 7.49899 7.8979 7.60018 7.74931 7.74878C7.60072 7.89737 7.49952 8.08669 7.45853 8.29279C7.41753 8.4989 7.43857 8.71253 7.51899 8.90668C7.59941 9.10083 7.73559 9.26676 7.91032 9.38351C8.08504 9.50026 8.29047 9.56258 8.50061 9.56258C8.7824 9.56258 9.05265 9.45064 9.25191 9.25138C9.45117 9.05212 9.56311 8.78187 9.56311 8.50008Z" fill="#E60000"/>
</svg>
