<svg width="24" height="24" viewBox="0 0 24 24" fill="none" xmlns="http://www.w3.org/2000/svg">
<g clip-path="url(#clip0_1053_21116)">
<path d="M15.9602 21.6988H9.48438L10.6221 16.8152H14.8225L15.9602 21.6988Z" fill="#E2DEE2"/>
<path d="M14.8242 16.8152H13.6523L14.79 21.6988H15.9619L14.8242 16.8152Z" fill="#CBC4CC"/>
<path d="M12.7227 20.2534C10.3229 20.2534 8.06668 19.3189 6.36973 17.622C4.67281 15.925 3.73828 13.6689 3.73828 11.269C3.73828 8.8692 4.67281 6.61307 6.36973 4.91611C8.06668 3.2192 10.3229 2.28467 12.7227 2.28467C15.1225 2.28467 17.3786 3.2192 19.0756 4.91611C20.7725 6.61303 21.707 8.8692 21.707 11.269C21.707 13.6689 20.7725 15.925 19.0756 17.622C17.3786 19.3189 15.1225 20.2534 12.7227 20.2534Z" fill="#A79BA7"/>
<path d="M19.0756 4.91611C17.3786 3.2192 15.1225 2.28467 12.7227 2.28467C12.5263 2.28467 12.331 2.29158 12.1367 2.304C14.316 2.44338 16.3456 3.35807 17.9037 4.91615C19.6006 6.61307 20.5352 8.86924 20.5352 11.2691C20.5352 13.6689 19.6006 15.9251 17.9037 17.622C16.3457 19.1801 14.316 20.0947 12.1367 20.2342C12.331 20.2466 12.5263 20.2535 12.7227 20.2535C15.1225 20.2535 17.3786 19.319 19.0756 17.6221C20.7725 15.9251 21.707 13.669 21.707 11.2691C21.707 8.86928 20.7725 6.61307 19.0756 4.91611Z" fill="#918291"/>
<path d="M12.7227 19.0815C17.0374 19.0815 20.5352 15.5838 20.5352 11.269C20.5352 6.95432 17.0374 3.45654 12.7227 3.45654C8.40793 3.45654 4.91016 6.95432 4.91016 11.269C4.91016 15.5838 8.40793 19.0815 12.7227 19.0815Z" fill="#F9F7F8"/>
<path d="M12.7238 3.45654C12.5435 3.45654 12.3648 3.46318 12.1875 3.47521C16.252 3.75088 19.4637 7.13463 19.4637 11.269C19.4637 15.4035 16.252 18.7872 12.1875 19.0629C12.3648 19.0749 12.5435 19.0815 12.7238 19.0815C17.0386 19.0815 20.5363 15.5838 20.5363 11.269C20.5363 6.95432 17.0386 3.45654 12.7238 3.45654Z" fill="#EFEDEF"/>
<path d="M16.6304 4.50057L12.7227 11.269V3.45654C14.1168 3.45654 15.4554 3.81943 16.6304 4.50057Z" fill="#B3DAFE"/>
<path d="M12.7227 3.53045C14.0648 3.71479 15.2981 4.24006 16.3328 5.016L16.6303 4.50061C15.4554 3.81943 14.1168 3.45654 12.7227 3.45654V3.53045Z" fill="#8AC9FE"/>
<path d="M12.7216 11.2691L5.95312 7.36139C6.29102 6.77788 6.70758 6.23475 7.19742 5.74491C7.68727 5.25506 8.23039 4.8385 8.81391 4.50061L12.7216 11.2691Z" fill="#FD8087"/>
<path d="M12.7227 11.269L5.95422 15.1767C5.27309 14.0018 4.91016 12.6631 4.91016 11.269H12.7227Z" fill="#B3DAFE"/>
<path d="M12.7241 11.269V19.0815C11.33 19.0815 9.99133 18.7186 8.81641 18.0375L12.7241 11.269Z" fill="#FD8087"/>
<path d="M19.4911 15.1767C19.1532 15.7602 18.7366 16.3033 18.2468 16.7932C17.757 17.283 17.2138 17.6996 16.6303 18.0375L12.7227 11.269L19.4911 15.1767Z" fill="#B3DAFE"/>
<path d="M18.2461 16.7933C18.7359 16.3034 19.1525 15.7603 19.4904 15.1768L18.6686 14.7024C18.122 15.8178 17.317 16.7834 16.332 17.5222L16.6296 18.0375C17.2131 17.6997 17.7562 17.2831 18.2461 16.7933Z" fill="#8AC9FE"/>
<path d="M20.5352 11.2691H12.7227L19.4911 7.36145C20.1722 8.53637 20.5352 9.87504 20.5352 11.2691Z" fill="#FD8087"/>
<path d="M20.5352 11.2691H12.7227L19.4911 7.36145C20.1722 8.53637 20.5352 9.87504 20.5352 11.2691Z" fill="#FD8087"/>
<path d="M19.4918 7.36145L18.6719 7.83485C19.1896 8.89063 19.4632 10.0589 19.4632 11.2691H20.5359C20.5359 9.87504 20.173 8.53637 19.4918 7.36145Z" fill="#FE646F"/>
<path d="M12.7227 12.7534C13.5425 12.7534 14.207 12.0888 14.207 11.269C14.207 10.4492 13.5425 9.78467 12.7227 9.78467C11.9029 9.78467 11.2383 10.4492 11.2383 11.269C11.2383 12.0888 11.9029 12.7534 12.7227 12.7534Z" fill="#FFE177"/>
<path d="M12.7227 9.78467C12.5145 9.78467 12.3165 9.82768 12.1367 9.90502C12.6651 10.1323 13.0352 10.6574 13.0352 11.269C13.0352 11.8807 12.6651 12.4058 12.1367 12.6331C12.3165 12.7104 12.5145 12.7534 12.7227 12.7534C13.5425 12.7534 14.207 12.0888 14.207 11.269C14.207 10.4492 13.5425 9.78467 12.7227 9.78467Z" fill="#FFD15B"/>
<path d="M6.15633 11.5219L2.81371 12.1989C2.54859 12.2526 2.30078 12.05 2.30078 11.7795V10.7588C2.30078 10.4883 2.54859 10.2857 2.81371 10.3393L6.15633 11.0163C6.43195 11.0722 6.43195 11.4661 6.15633 11.5219Z" fill="#FFE177"/>
<path d="M22 11.2691C22 10.1739 21.8124 9.10362 21.4425 8.08804C21.0736 7.0753 20.5319 6.14034 19.8325 5.30902C19.7283 5.18519 19.5435 5.16933 19.4197 5.27343C19.2959 5.37761 19.28 5.56241 19.3841 5.6862C22.2703 8.98859 22.029 14.3706 18.8674 17.4148C13.7801 22.5537 4.84203 19.4231 4.0773 12.2404L4.65555 12.1233C5.00594 16.1401 8.67871 19.4494 12.7191 19.3745C23.4606 18.9674 23.4593 3.5698 12.7189 3.16359C8.67891 3.08933 5.00574 6.39757 4.65551 10.4148L4.0775 10.2978C4.80711 3.36624 13.2543 0.113 18.46 4.74085C18.5814 4.8478 18.7665 4.83613 18.8734 4.71476C18.9804 4.59335 18.9687 4.4082 18.8473 4.30124C15.3315 1.09413 9.46008 1.27077 6.15648 4.70898C4.6782 6.18671 3.74242 8.12058 3.50152 10.1812L2.86418 10.0522C2.65117 10.009 2.43262 10.0632 2.26449 10.2008C2.09641 10.3382 2 10.5416 2 10.7588V11.7794C2 11.9966 2.09641 12.2 2.26453 12.3375C2.43273 12.4755 2.65359 12.5291 2.86422 12.486L3.50129 12.357C3.6159 13.3446 3.88539 14.298 4.30457 15.1945C5.3193 17.3959 7.30262 19.203 9.57434 20.0027L9.19457 21.6323C9.17426 21.7194 9.19484 21.8109 9.25043 21.881C9.30602 21.951 9.39051 21.9918 9.47992 21.9918H15.9583C16.0477 21.9918 16.1322 21.951 16.1878 21.881C16.2434 21.8109 16.2639 21.7194 16.2436 21.6323L15.8638 20.0027C17.1343 19.5466 18.2988 18.8118 19.2817 17.8293C21.0346 16.0769 22 13.7472 22 11.2691ZM6.20816 11.809C6.36262 11.7777 6.48902 11.6864 6.56652 11.5621H10.9657C10.9847 11.6759 11.0144 11.7862 11.054 11.8917L6.06473 14.7712C5.61984 13.932 5.3291 12.9982 5.23238 12.0065L6.20816 11.809ZM20.2355 10.9761H14.4724C14.4534 10.8623 14.4237 10.752 14.3841 10.6465L19.3741 7.76655C19.8846 8.73191 20.1909 9.82097 20.2355 10.9761ZM19.3741 14.7717L14.3841 11.8918C14.4237 11.7862 14.4534 11.676 14.4724 11.5621H20.2355C20.1909 12.7172 19.8846 13.8063 19.3741 14.7717ZM11.5271 11.2691C11.5271 10.6122 12.0618 10.0777 12.7191 10.0777C14.2982 10.1376 14.2978 12.4008 12.7191 12.4605C12.0618 12.4605 11.5271 11.926 11.5271 11.2691ZM13.012 13.0219C13.1261 13.0029 13.2364 12.9732 13.3421 12.9335L16.2232 17.9213C15.2573 18.4317 14.1678 18.7379 13.012 18.7824V13.0219ZM13.012 9.51632V3.75581C14.1677 3.8003 15.2572 4.10648 16.223 4.61687L13.3421 9.60464C13.2364 9.56499 13.126 9.53531 13.012 9.51632ZM12.4261 9.51632C12.3121 9.53531 12.2017 9.56499 12.0961 9.60464L9.21723 4.62062C10.1856 4.10784 11.2756 3.80062 12.4261 3.75577L12.4261 9.51632ZM6.35898 15.278L11.3475 12.3989C11.4201 12.4868 11.501 12.5676 11.5889 12.6402L9.77957 15.7726C9.69863 15.9127 9.74664 16.0919 9.88672 16.1728C10.0244 16.253 10.2055 16.2071 10.287 16.0657L12.0961 12.9336C12.2017 12.9732 12.3121 13.0029 12.4261 13.0219V18.7824C11.275 18.7376 10.1849 18.4307 9.21672 17.9184L9.61316 17.232C9.6941 17.0919 9.64609 16.9127 9.50598 16.8318C9.36594 16.7509 9.18668 16.7989 9.10574 16.939L8.70969 17.6247C7.7648 17.0267 6.95937 16.2241 6.35898 15.278ZM16.7302 17.6276L13.8492 12.6401C13.9371 12.5676 14.018 12.4867 14.0905 12.3989L19.0802 15.2786C18.4812 16.2249 17.6769 17.0288 16.7302 17.6276ZM19.0802 7.25956L14.0906 10.1393C14.018 10.0514 13.9371 9.97062 13.8492 9.89804L16.7301 4.91046C17.6768 5.50929 18.4811 6.31327 19.0802 7.25956ZM8.71027 4.91441L11.5889 9.89804C11.5009 9.97058 11.4201 10.0514 11.3475 10.1393L6.3598 7.2607C6.96035 6.31499 7.7657 5.51245 8.71027 4.91441ZM6.06531 7.7673L11.0539 10.6465C11.0143 10.752 10.9846 10.8623 10.9657 10.9761H6.56656C6.48906 10.8517 6.3627 10.7604 6.2082 10.7292L5.23227 10.5316C5.32895 9.54015 5.62008 8.60655 6.06531 7.7673ZM2.74793 11.9117C2.69336 11.9229 2.65402 11.899 2.63547 11.8839C2.61695 11.8687 2.58594 11.835 2.58594 11.7794V10.7587C2.58594 10.7031 2.61695 10.6694 2.63547 10.6543C2.6525 10.6368 2.70832 10.6151 2.74793 10.6264L5.92215 11.2691L2.74793 11.9117ZM15.5891 21.4058H9.84898L10.1339 20.183C11.784 20.6662 13.6541 20.6662 15.3041 20.183L15.5891 21.4058Z" fill="black"/>
</g>
<defs>
<clipPath id="clip0_1053_21116">
<rect width="20" height="20" fill="white" transform="translate(2 2)"/>
</clipPath>
</defs>
</svg>
