<svg width="18" height="18" viewBox="0 0 18 18" fill="none" xmlns="http://www.w3.org/2000/svg">
<path d="M12.8672 1.75781V1.05469H10.4062V0.351562H7.94531V1.75781H5.48438V5.625L4.42969 4.21875L2.67188 4.92188L2.96842 8.48025C3.08229 9.84663 3.66775 11.1175 4.60515 12.0861C5.06763 12.5639 5.70544 12.832 6.37045 12.832H13.5703C14.6136 12.519 15.3281 11.5587 15.3281 10.4695V1.75781H12.8672Z" fill="#FF7B79"/>
<path d="M13.043 17.6484H7.06641C6.4839 17.6484 6.01172 17.1763 6.01172 16.5938V13.8867C6.01172 13.3042 6.4839 12.832 7.06641 12.832H13.043C13.6255 12.832 14.0977 13.3042 14.0977 13.8867V16.5938C14.0977 17.1763 13.6255 17.6484 13.043 17.6484Z" fill="#FF9EB1"/>
<path d="M14.0976 14.5371V15.9434H11.2422C11.31 15.7212 11.3466 15.4849 11.3466 15.2402C11.3466 14.9955 11.31 14.7593 11.2422 14.5371H14.0976Z" fill="#FF7B79"/>
<path d="M15.3281 1.40625H13.2188V1.05469C13.2188 0.860555 13.0613 0.703125 12.8672 0.703125H10.7578V0.351562C10.7578 0.15743 10.6004 0 10.4063 0H7.94533C7.7512 0 7.59377 0.15743 7.59377 0.351562V1.40625H5.4844C5.29026 1.40625 5.13283 1.56368 5.13283 1.75781V4.57031L4.71096 4.00781C4.61554 3.88065 4.44665 3.83333 4.29914 3.89232L2.54133 4.59545C2.39789 4.65286 2.30873 4.79711 2.32153 4.95105L2.61807 8.50946C2.73743 9.94127 3.3534 11.2983 4.35254 12.3306C4.7619 12.7535 5.29969 13.0348 5.87604 13.1385C5.793 13.2704 5.73179 13.4159 5.69642 13.5685C5.6753 13.6599 5.6908 13.7541 5.74072 13.8339C5.79029 13.9134 5.86799 13.9689 5.95971 13.99C6.06237 14.0139 6.17311 13.9893 6.25611 13.9239C6.31904 13.8747 6.36334 13.8047 6.38158 13.727C6.45436 13.412 6.74194 13.1835 7.06471 13.1835H8.93853C10.0726 13.1835 10.9952 14.1061 10.9952 15.2402C10.9952 16.3742 10.0726 17.2968 8.93853 17.2968H7.06506C6.73388 17.2968 6.44487 17.0613 6.37775 16.7371C6.34435 16.5743 6.19983 16.4566 6.03392 16.4566C5.94456 16.4571 5.81472 16.5026 5.74002 16.6148C5.68834 16.6932 5.67044 16.787 5.68943 16.8792C5.75376 17.1917 5.92568 17.4758 6.17283 17.6797C6.29622 17.7809 6.43435 17.86 6.58345 17.9145C6.73779 17.9711 6.9006 17.9996 7.0665 18H13.0431C13.4188 18 13.7718 17.8538 14.0373 17.588C14.303 17.3225 14.4492 16.9695 14.4492 16.5938V13.8867C14.4492 13.5546 14.3349 13.2405 14.125 12.9888C14.5166 12.7932 14.8563 12.5095 15.1225 12.1517C15.4871 11.6618 15.6797 11.0801 15.6797 10.4695V1.75781C15.6797 1.56368 15.5223 1.40625 15.3281 1.40625ZM5.83596 2.10938H7.59377V3.16406C7.59377 3.3582 7.7512 3.51562 7.94533 3.51562C8.13947 3.51562 8.2969 3.3582 8.2969 3.16406V0.703125H10.0547V2.46094C10.0547 2.65507 10.2121 2.8125 10.4063 2.8125C10.6004 2.8125 10.7578 2.65507 10.7578 2.46094V1.40625H12.5156V3.16406C12.5156 3.3582 12.6731 3.51562 12.8672 3.51562C13.0613 3.51562 13.2188 3.3582 13.2188 3.16406V2.10938H14.9766V6.41602C14.9766 7.38527 14.188 8.17383 13.2188 8.17383H7.59377C6.62451 8.17383 5.83596 7.38527 5.83596 6.41602V2.10938ZM3.31881 8.45111L3.04385 5.15173L4.31018 4.64523L5.13283 5.74218V6.41602C5.13283 7.31025 5.6124 8.09445 6.32772 8.52539C5.6124 8.95634 5.13283 9.74053 5.13283 10.6348V12.0788C5.03485 12.008 4.94246 11.929 4.85777 11.8415C3.9712 10.9256 3.42466 9.72148 3.31881 8.45111ZM10.7762 13.1836H13.043C13.4301 13.1843 13.7454 13.4996 13.7461 13.8867V14.1855H11.4884C11.3282 13.7998 11.083 13.458 10.7762 13.1836ZM13.7461 15.5918H11.676C11.6764 15.5886 11.6764 15.5854 11.6763 15.5822C11.6902 15.4701 11.6983 15.3561 11.6983 15.2402C11.6983 15.1243 11.6902 15.0103 11.6763 14.8982C11.6764 14.895 11.6764 14.8918 11.676 14.8887H13.7461V15.5918ZM13.043 17.2969H10.7762C11.083 17.0224 11.3282 16.6807 11.4884 16.2949H13.7461V16.5938C13.7454 16.9808 13.4301 17.2961 13.043 17.2969ZM13.5168 12.4805H6.37044C6.189 12.4805 6.00935 12.4565 5.83596 12.411V10.6348C5.83596 9.66551 6.62451 8.87695 7.59377 8.87695H13.2188C14.2373 8.87695 14.9766 9.54672 14.9766 10.4695C14.9766 11.3941 14.3921 12.1961 13.5168 12.4805ZM14.9766 8.83209C14.8411 8.70557 14.6889 8.59468 14.5228 8.50163C14.6883 8.39777 14.8406 8.27494 14.9766 8.13593V8.83209Z" fill="black"/>
<path d="M6.01172 15.5791C6.20588 15.5791 6.36328 15.4217 6.36328 15.2275C6.36328 15.0334 6.20588 14.876 6.01172 14.876C5.81756 14.876 5.66016 15.0334 5.66016 15.2275C5.66016 15.4217 5.81756 15.5791 6.01172 15.5791Z" fill="black"/>
<path d="M9.03516 4.92188H9.59766C9.79179 4.92188 9.94922 4.76445 9.94922 4.57031C9.94922 4.37618 9.79179 4.21875 9.59766 4.21875H9.03516C8.84102 4.21875 8.68359 4.37618 8.68359 4.57031C8.68359 4.76445 8.84102 4.92188 9.03516 4.92188Z" fill="black"/>
<path d="M11.1797 4.92188H11.7773C11.9715 4.92188 12.1289 4.76445 12.1289 4.57031C12.1289 4.37618 11.9715 4.21875 11.7773 4.21875H11.1797C10.9856 4.21875 10.8281 4.37618 10.8281 4.57031C10.8281 4.76445 10.9856 4.92188 11.1797 4.92188Z" fill="black"/>
<path d="M6.89062 4.92188H7.45312C7.64726 4.92188 7.80469 4.76445 7.80469 4.57031C7.80469 4.37618 7.64726 4.21875 7.45312 4.21875H6.89062C6.69649 4.21875 6.53906 4.37618 6.53906 4.57031C6.53906 4.76445 6.69649 4.92188 6.89062 4.92188Z" fill="black"/>
<path d="M13.3594 4.92188H13.9219C14.116 4.92188 14.2734 4.76445 14.2734 4.57031C14.2734 4.37618 14.116 4.21875 13.9219 4.21875H13.3594C13.1652 4.21875 13.0078 4.37618 13.0078 4.57031C13.0078 4.76445 13.1652 4.92188 13.3594 4.92188Z" fill="black"/>
<path d="M9.94141 15.5918C10.1356 15.5918 10.293 15.4344 10.293 15.2402C10.293 15.0461 10.1356 14.8887 9.94141 14.8887C9.74724 14.8887 9.58984 15.0461 9.58984 15.2402C9.58984 15.4344 9.74724 15.5918 9.94141 15.5918Z" fill="black"/>
</svg>
