<svg width="17" height="17" viewBox="0 0 17 17" fill="none" xmlns="http://www.w3.org/2000/svg">
<path d="M13.8002 1.33594H2.33422C1.8492 1.33727 1.38443 1.53053 1.04146 1.87349C0.698501 2.21646 0.505237 2.68123 0.503906 3.16625V10.4875C0.505237 10.9725 0.698501 11.4373 1.04146 11.7803C1.38443 12.1232 1.8492 12.3165 2.33422 12.3178H7.56298V13.2658H6.05032C5.91659 13.2658 5.78834 13.3189 5.69378 13.4135C5.59922 13.508 5.5461 13.6363 5.5461 13.77C5.5461 13.9037 5.59922 14.032 5.69378 14.1265C5.78834 14.2211 5.91659 14.2742 6.05032 14.2742L10.0841 14.2288C10.2178 14.2288 10.3461 14.1757 10.4406 14.0811C10.5352 13.9866 10.5883 13.8583 10.5883 13.7246C10.5883 13.5909 10.5352 13.4626 10.4406 13.3681C10.3461 13.2735 10.2178 13.2204 10.0841 13.2204H8.57142V12.3178H13.8002C14.2852 12.3165 14.75 12.1232 15.0929 11.7803C15.4359 11.4373 15.6292 10.9725 15.6305 10.4875V3.16625C15.6292 2.68123 15.4359 2.21646 15.0929 1.87349C14.75 1.53053 14.2852 1.33727 13.8002 1.33594ZM14.6221 10.4875C14.6221 10.7055 14.5355 10.9145 14.3813 11.0687C14.2272 11.2228 14.0181 11.3094 13.8002 11.3094H2.33422C2.11625 11.3094 1.9072 11.2228 1.75307 11.0687C1.59894 10.9145 1.51235 10.7055 1.51235 10.4875V3.16625C1.51235 2.94828 1.59894 2.73923 1.75307 2.5851C1.9072 2.43097 2.11625 2.34438 2.33422 2.34438H13.8002C14.0181 2.34438 14.2272 2.43097 14.3813 2.5851C14.5355 2.73923 14.6221 2.94828 14.6221 3.16625V10.4875Z" fill="black"/>
</svg>
