<svg width="24" height="24" viewBox="0 0 24 24" fill="none" xmlns="http://www.w3.org/2000/svg">
<path d="M16.4124 10.0593H17.7977C18.7841 10.0593 19.5838 10.8589 19.5838 11.8454V17.8586C19.5838 18.8451 18.7841 19.6447 17.7977 19.6447H6.20017C5.21373 19.6447 4.41406 18.8451 4.41406 17.8586V11.8454C4.41406 10.8589 5.21373 10.0593 6.20017 10.0593H7.58977H16.4124Z" fill="#333333"/>
<path d="M19.5841 11.8447V17.8585C19.5841 18.8449 18.7844 19.6446 17.798 19.6446H6.19988C5.50508 19.6446 4.90294 19.2479 4.60763 18.6686C4.60143 18.6564 4.59537 18.6432 4.58944 18.6289C4.41288 18.2049 4.74233 17.7397 5.20162 17.7397H15.8931C16.8799 17.7397 17.6792 16.9395 17.6792 15.9536V10.7557C17.6792 10.3512 18.0756 10.0535 18.4579 10.1856C18.4704 10.1899 18.482 10.1943 18.4927 10.1988C19.1338 10.47 19.5841 11.1051 19.5841 11.8447Z" fill="#333333"/>
<path d="M13.0619 13.2933C13.2928 13.2933 13.48 13.1061 13.48 12.8752V12.8752C13.48 12.6442 13.2928 12.457 13.0619 12.457H10.467C10.467 12.457 10.467 12.457 10.467 12.457C10.2649 12.457 10.0963 12.6004 10.0573 12.7909C10.0517 12.8181 10.0488 12.8463 10.0488 12.8752V12.8752V17.0073V17.0074C10.0488 17.2383 10.236 17.4255 10.467 17.4255H13.0619C13.2928 17.4255 13.48 17.2383 13.48 17.0074V17.0073C13.48 16.7764 13.2928 16.5892 13.0619 16.5892H10.8851V15.302H12.0575C12.2885 15.302 12.4757 15.1148 12.4757 14.8839C12.4757 14.6529 12.2885 14.4657 12.0575 14.4657H10.8851V13.2933H13.0619V13.2933Z" fill="white"/>
<path d="M8.71675 12.457C8.48582 12.457 8.29862 12.6442 8.29862 12.8752V15.5677L6.49334 12.6534C6.41267 12.5232 6.27159 12.455 6.12875 12.459C6.12225 12.4587 6.11612 12.457 6.10955 12.457C5.87861 12.457 5.69141 12.6442 5.69141 12.8752V17.0074C5.69141 17.2383 5.87861 17.4255 6.10955 17.4255C6.34047 17.4255 6.52768 17.2383 6.52768 17.0074V14.2969L8.32837 17.2038C8.36223 17.2585 8.40738 17.3012 8.45817 17.3336C8.52951 17.3902 8.61858 17.4255 8.71675 17.4255C8.94768 17.4255 9.13489 17.2383 9.13489 17.0073V12.8752C9.13489 12.6442 8.94769 12.457 8.71675 12.457Z" fill="white"/>
<path d="M10.3072 14.0885C10.1839 14.0885 10.084 13.9886 10.084 13.8653V12.8049C10.084 12.6816 10.1839 12.5816 10.3072 12.5816C10.4305 12.5816 10.5305 12.6816 10.5305 12.8049V13.8653C10.5305 13.9886 10.4305 14.0885 10.3072 14.0885Z" fill="white"/>
<path d="M17.8824 12.4319C17.647 12.4319 17.4561 12.6228 17.4561 12.8582V15.9939L16.6931 15.2309C16.6086 15.1464 16.4976 15.1052 16.3869 15.1065C16.2762 15.1053 16.1651 15.1464 16.0806 15.2309L15.3195 15.9921V12.8582C15.3195 12.6228 15.1286 12.4319 14.8931 12.4319C14.6577 12.4319 14.4668 12.6228 14.4668 12.8582V17.0232C14.4668 17.2587 14.6577 17.4495 14.8931 17.4495C15.0159 17.4495 15.1258 17.3969 15.2035 17.3138L16.3868 16.1305L17.5809 17.3246C17.6581 17.4018 17.7647 17.4495 17.8824 17.4495C18.1179 17.4495 18.3088 17.2587 18.3088 17.0232V12.8582C18.3088 12.6228 18.1179 12.4319 17.8824 12.4319Z" fill="white"/>
<path d="M14.7408 14.0886C14.6175 14.0886 14.5176 13.9886 14.5176 13.8653V12.8049C14.5176 12.6816 14.6175 12.5817 14.7408 12.5817C14.8641 12.5817 14.9641 12.6816 14.9641 12.8049V13.8653C14.9641 13.9886 14.8641 14.0886 14.7408 14.0886Z" fill="white"/>
<path d="M13.0611 17.5588H10.4662C10.1617 17.5588 9.91406 17.3112 9.91406 17.0067V12.8746C9.91406 12.8372 9.91783 12.7998 9.92528 12.7634C9.97757 12.5079 10.205 12.3224 10.4662 12.3224C10.4669 12.3224 10.4675 12.3225 10.4682 12.3225H13.0611C13.3655 12.3225 13.6132 12.5701 13.6132 12.8745C13.6132 13.179 13.3655 13.4267 13.0611 13.4267H11.0183V14.3312H12.0567C12.3611 14.3312 12.6088 14.5788 12.6088 14.8833C12.6088 15.1877 12.3611 15.4353 12.0567 15.4353H11.0183V16.4547H13.0611C13.3655 16.4547 13.6132 16.7023 13.6132 17.0067C13.6132 17.3112 13.3655 17.5588 13.0611 17.5588ZM10.4645 12.5904C10.3308 12.5912 10.2145 12.6863 10.1878 12.8171C10.1839 12.8359 10.182 12.8552 10.182 12.8745V17.0067C10.182 17.1634 10.3095 17.2909 10.4662 17.2909H13.0611C13.2178 17.2909 13.3453 17.1634 13.3453 17.0067C13.3453 16.8501 13.2178 16.7226 13.0611 16.7226H10.8843C10.8103 16.7226 10.7503 16.6626 10.7503 16.5886V15.3014C10.7503 15.2274 10.8103 15.1674 10.8843 15.1674H12.0567C12.2134 15.1674 12.3409 15.0399 12.3409 14.8833C12.3409 14.7266 12.2134 14.5991 12.0567 14.5991H10.8843C10.8103 14.5991 10.7503 14.5391 10.7503 14.4651V13.2927C10.7503 13.2187 10.8103 13.1588 10.8843 13.1588H13.0611C13.2178 13.1588 13.3453 13.0313 13.3453 12.8746C13.3453 12.7179 13.2178 12.5904 13.0611 12.5904H10.4662C10.4657 12.5904 10.4651 12.5904 10.4645 12.5904Z" fill="#333333"/>
<path d="M5.96545 14.0886C5.84215 14.0886 5.74219 13.9886 5.74219 13.8653V12.8049C5.74219 12.6816 5.84215 12.5817 5.96545 12.5817C6.08875 12.5817 6.18871 12.6816 6.18871 12.8049V13.8653C6.18871 13.9886 6.08875 14.0886 5.96545 14.0886Z" fill="white"/>
<path d="M8.714 17.5588C8.59224 17.5588 8.47606 17.5185 8.37757 17.4422C8.30896 17.3973 8.25319 17.3406 8.21173 17.2737L6.65888 14.7669V17.0067C6.65888 17.3112 6.41121 17.5588 6.10678 17.5588C5.80236 17.5588 5.55469 17.3112 5.55469 17.0067V12.8746C5.55469 12.5701 5.80236 12.3225 6.10678 12.3225C6.1174 12.3225 6.12641 12.3234 6.1325 12.3243C6.32399 12.3224 6.50434 12.4206 6.60445 12.5823L8.16189 15.0965V12.8745C8.16189 12.5701 8.40956 12.3224 8.71399 12.3224C9.01842 12.3224 9.26609 12.5701 9.26609 12.8745V17.0067C9.2661 17.3112 9.01843 17.5588 8.714 17.5588ZM6.52493 14.1623C6.57045 14.1623 6.61394 14.1856 6.63881 14.2257L8.43949 17.1326C8.46077 17.167 8.49037 17.1964 8.52748 17.2201C8.53136 17.2226 8.5351 17.2252 8.53871 17.2281C8.57481 17.2568 8.63453 17.2909 8.714 17.2909C8.8707 17.2909 8.99818 17.1634 8.99818 17.0067V12.8746C8.99818 12.7179 8.8707 12.5904 8.714 12.5904C8.55731 12.5904 8.42982 12.7179 8.42982 12.8746V15.5671C8.42982 15.627 8.39011 15.6796 8.33254 15.6959C8.27496 15.7123 8.2135 15.6885 8.18199 15.6376L6.37671 12.7233C6.32409 12.6384 6.2318 12.5893 6.12976 12.5923C6.12635 12.5924 6.12295 12.5923 6.11954 12.5922C6.1121 12.5918 6.1058 12.591 6.10132 12.5904C5.94714 12.5934 5.82261 12.7197 5.82261 12.8746V17.0067C5.82261 17.1634 5.9501 17.2909 6.10679 17.2909C6.26349 17.2909 6.39097 17.1634 6.39097 17.0067V14.2963C6.39097 14.2364 6.43069 14.1838 6.48826 14.1675C6.50041 14.164 6.51275 14.1623 6.52493 14.1623Z" fill="#333333"/>
<path d="M17.8836 17.5827C17.7339 17.5827 17.5931 17.5244 17.4873 17.4184L16.388 16.3192L15.3009 17.4063C15.1935 17.52 15.0492 17.5827 14.8943 17.5827C14.5853 17.5827 14.334 17.3313 14.334 17.0224V12.8574C14.334 12.5485 14.5853 12.2971 14.8943 12.2971C15.2032 12.2971 15.4546 12.5485 15.4546 12.8574V15.6678L15.987 15.1354C16.0927 15.0297 16.2331 14.9717 16.3829 14.9717C16.3846 14.9717 16.3863 14.9717 16.388 14.9717C16.3897 14.9717 16.3914 14.9717 16.3931 14.9717C16.5429 14.9717 16.6832 15.0297 16.7889 15.1354L17.3233 15.6697V12.8574C17.3233 12.5485 17.5746 12.2971 17.8836 12.2971C18.1925 12.2971 18.4439 12.5485 18.4439 12.8574V17.0224C18.4439 17.3313 18.1925 17.5827 17.8836 17.5827ZM16.388 15.9958C16.4223 15.9958 16.4566 16.0088 16.4827 16.035L17.6768 17.229C17.732 17.2843 17.8055 17.3148 17.8836 17.3148C18.0448 17.3148 18.176 17.1836 18.176 17.0224V12.8574C18.176 12.6962 18.0448 12.565 17.8836 12.565C17.7224 12.565 17.5912 12.6962 17.5912 12.8574V15.9931C17.5912 16.0473 17.5586 16.0961 17.5085 16.1169C17.4585 16.1376 17.4008 16.1261 17.3625 16.0878L16.5995 15.3248C16.5437 15.269 16.4693 15.2387 16.3895 15.2396C16.3885 15.2396 16.3875 15.2396 16.3865 15.2396C16.3068 15.2385 16.2323 15.269 16.1765 15.3248L15.4153 16.086C15.377 16.1243 15.3194 16.1358 15.2693 16.115C15.2193 16.0943 15.1866 16.0454 15.1866 15.9912V12.8574C15.1866 12.6962 15.0555 12.565 14.8943 12.565C14.7331 12.565 14.6019 12.6962 14.6019 12.8574V17.0224C14.6019 17.1836 14.7331 17.3148 14.8943 17.3148C14.975 17.3148 15.0506 17.2816 15.1069 17.2214C15.1079 17.2204 15.1089 17.2193 15.11 17.2183L16.2933 16.035C16.3194 16.0088 16.3537 15.9958 16.388 15.9958Z" fill="#333333"/>
<path d="M4.74084 13.5585C4.61754 13.5585 4.51758 13.4586 4.51758 13.3353V11.9081C4.51758 11.6724 4.56379 11.4436 4.65493 11.2281C4.74292 11.0201 4.86883 10.8333 5.02918 10.673C5.18952 10.5126 5.3763 10.3867 5.58432 10.2987C5.7998 10.2076 6.02858 10.1614 6.26428 10.1614H6.37081C6.49411 10.1614 6.59407 10.2613 6.59407 10.3846C6.59407 10.5079 6.49411 10.6079 6.37081 10.6079H6.26428C5.54736 10.6079 4.9641 11.1912 4.9641 11.9081V13.3353C4.9641 13.4586 4.86414 13.5585 4.74084 13.5585Z" fill="white"/>
<path d="M17.7988 19.7782H6.20132C5.94217 19.7782 5.6907 19.7274 5.4539 19.6272C5.22524 19.5305 5.01992 19.3921 4.84363 19.2158C4.66733 19.0395 4.52891 18.8342 4.43219 18.6055C4.33203 18.3687 4.28125 18.1173 4.28125 17.8581V11.8449C4.28125 11.5857 4.33203 11.3343 4.43219 11.0975C4.52891 10.8688 4.66733 10.6635 4.84363 10.4872C5.01992 10.3109 5.22524 10.1725 5.4539 10.0758C5.6907 9.97559 5.94217 9.9248 6.20132 9.9248H7.59092C7.6649 9.9248 7.72488 9.98478 7.72488 10.0588C7.72488 10.1327 7.66491 10.1927 7.59092 10.1927H6.20132C5.29032 10.1927 4.54917 10.9339 4.54917 11.8449V17.8581C4.54917 18.7691 5.29032 19.5103 6.20132 19.5103H17.7988C18.7099 19.5103 19.451 18.7691 19.451 17.8581V11.8449C19.451 10.9339 18.7099 10.1927 17.7988 10.1927H16.4136C16.3396 10.1927 16.2796 10.1327 16.2796 10.0588C16.2796 9.98478 16.3396 9.9248 16.4136 9.9248H17.7988C18.058 9.9248 18.3095 9.97559 18.5463 10.0758C18.7749 10.1725 18.9802 10.3109 19.1565 10.4872C19.3328 10.6635 19.4713 10.8688 19.568 11.0975C19.6681 11.3343 19.7189 11.5857 19.7189 11.8449V17.8581C19.7189 18.1173 19.6681 18.3687 19.568 18.6055C19.4713 18.8342 19.3328 19.0395 19.1565 19.2158C18.9802 19.3921 18.7749 19.5305 18.5463 19.6272C18.3095 19.7274 18.058 19.7782 17.7988 19.7782Z" fill="#333333"/>
<path d="M13.5168 10.1926H10.4992C10.4252 10.1926 10.3652 10.1326 10.3652 10.0586C10.3652 9.98466 10.4252 9.92468 10.4992 9.92468H13.5168C13.5908 9.92468 13.6507 9.98466 13.6507 10.0586C13.6507 10.1326 13.5908 10.1926 13.5168 10.1926Z" fill="#333333"/>
<path d="M7.50586 9.56184C7.50586 10.4094 8.17862 11.0964 9.0085 11.0964H9.05018C9.64718 11.0964 10.1875 10.7355 10.4268 10.1769L10.6218 9.72188C10.8611 9.1633 11.4014 8.80238 11.9984 8.80238C12.5954 8.80238 13.1358 9.16331 13.3751 9.72188L13.57 10.1769C13.8093 10.7355 14.3497 11.0964 14.9467 11.0964H14.9884C15.8182 11.0964 16.491 10.4094 16.491 9.56184V6.29323C16.491 5.22421 15.6424 4.3576 14.5957 4.3576H9.47136C8.38584 4.3576 7.50586 5.23759 7.50586 6.3231L7.50586 9.56184Z" fill="#333333"/>
<path d="M10.5956 8.80133C10.8457 8.80133 11.0868 8.86474 11.2984 8.97994C11.0037 9.1389 10.7626 9.39699 10.6233 9.72117L10.4286 10.1766C10.1893 10.7348 9.64896 11.0956 9.05151 11.0956H9.01043C8.76484 11.0956 8.53264 11.0358 8.32812 10.9286C8.63177 10.7714 8.88094 10.5089 9.02382 10.1766L9.21939 9.72117C9.45785 9.16302 9.99905 8.80133 10.5956 8.80133Z" fill="#333333"/>
<path d="M16.4926 6.29312V9.5617C16.4926 10.4092 15.8201 11.096 14.9905 11.096H14.9485C14.351 11.096 13.8107 10.7352 13.5714 10.177L13.4785 9.96C13.5098 9.96269 13.541 9.96357 13.5723 9.96357H13.6143C14.4439 9.96357 15.1164 9.27682 15.1164 8.42931V5.16073C15.1164 5.12712 15.1155 5.09373 15.1139 5.06056C15.0979 4.74026 15.4731 4.54532 15.7283 4.73953C16.1921 5.09244 16.4926 5.65695 16.4926 6.29312Z" fill="#333333"/>
<path d="M14.9895 11.2302H14.9478C14.2971 11.2302 13.7084 10.8374 13.448 10.2295L13.2531 9.77443C13.0349 9.26518 12.5429 8.93613 11.9996 8.93613C11.4562 8.93613 10.9642 9.26518 10.7461 9.77443L10.5511 10.2295C10.2907 10.8374 9.70199 11.2302 9.05133 11.2302H9.00964C8.57196 11.2302 8.16062 11.0563 7.8514 10.7405C7.54293 10.4255 7.37305 10.0068 7.37305 9.56164V6.32291C7.37305 6.03954 7.42857 5.76458 7.53809 5.50566C7.64384 5.25564 7.7952 5.03113 7.98796 4.83837C8.18073 4.6456 8.40524 4.49424 8.65526 4.38849C8.91418 4.27897 9.18913 4.22345 9.4725 4.22345H14.5968C14.8711 4.22345 15.1372 4.27832 15.3877 4.38654C15.6294 4.49096 15.8464 4.64037 16.0327 4.83062C16.2188 5.02068 16.3649 5.24197 16.467 5.48835C16.5725 5.74331 16.6261 6.01405 16.6261 6.29304V9.56165C16.6261 10.0068 16.4562 10.4255 16.1477 10.7405C15.8385 11.0563 15.4272 11.2302 14.9895 11.2302ZM11.9996 8.66821C12.6502 8.66821 13.2389 9.06102 13.4993 9.66893L13.6943 10.124C13.9124 10.6332 14.4045 10.9623 14.9478 10.9623H14.9895C15.7442 10.9623 16.3582 10.334 16.3582 9.56164V6.29303C16.3582 5.29958 15.568 4.49136 14.5968 4.49136H9.47248C8.46257 4.49136 7.64094 5.31298 7.64094 6.3229V9.56164C7.64094 10.334 8.25493 10.9623 9.00962 10.9623H9.0513C9.59463 10.9623 10.0867 10.6332 10.3048 10.124L10.4998 9.66893C10.7602 9.06102 11.3489 8.66821 11.9996 8.66821Z" fill="white"/>
<path d="M14.9861 6.37278H14.5758V5.96248C14.5758 5.70154 14.3643 5.48999 14.1033 5.48999C13.8424 5.48999 13.6308 5.70154 13.6308 5.96248V6.37278H13.2205C12.9596 6.37278 12.748 6.58432 12.748 6.84527C12.748 7.10623 12.9596 7.31777 13.2205 7.31777H13.6308V7.72805C13.6308 7.98899 13.8424 8.20054 14.1033 8.20054C14.3643 8.20054 14.5758 7.98899 14.5758 7.72805V7.31777H14.9861C15.247 7.31777 15.4586 7.10623 15.4586 6.84527C15.4586 6.58432 15.247 6.37278 14.9861 6.37278Z" fill="white"/>
<path d="M13.8639 6.353C13.7406 6.353 13.6406 6.25304 13.6406 6.12974V6.01499C13.6406 5.82398 13.7165 5.64586 13.8542 5.51344C13.9431 5.42798 14.0844 5.43074 14.1699 5.51962C14.2553 5.6085 14.2526 5.74984 14.1637 5.8353C14.1143 5.88275 14.0872 5.94657 14.0872 6.01499V6.12974C14.0872 6.25304 13.9872 6.353 13.8639 6.353Z" fill="white"/>
<path d="M14.1006 8.33387C13.7662 8.33387 13.4941 8.06182 13.4941 7.72742V7.45109H13.2178C12.8834 7.45109 12.6113 7.17904 12.6113 6.84465C12.6113 6.51025 12.8834 6.23819 13.2178 6.23819H13.4941V5.96186C13.4941 5.62746 13.7662 5.35541 14.1006 5.35541C14.435 5.35541 14.707 5.62746 14.707 5.96186V6.23819H14.9833C15.3177 6.23819 15.5898 6.51025 15.5898 6.84465C15.5898 7.17904 15.3177 7.45109 14.9833 7.45109H14.707V7.72742C14.707 8.06182 14.435 8.33387 14.1006 8.33387ZM13.2178 6.50611C13.0311 6.50611 12.8792 6.65798 12.8792 6.84465C12.8792 7.03132 13.0311 7.18318 13.2178 7.18318H13.6281C13.7021 7.18318 13.762 7.24316 13.762 7.31714V7.72743C13.762 7.91409 13.9139 8.06596 14.1006 8.06596C14.2872 8.06596 14.4391 7.91409 14.4391 7.72743V7.31714C14.4391 7.24316 14.4991 7.18318 14.573 7.18318H14.9833C15.17 7.18318 15.3219 7.03132 15.3219 6.84465C15.3219 6.65798 15.17 6.50611 14.9833 6.50611H14.573C14.4991 6.50611 14.4391 6.44614 14.4391 6.37215V5.96186C14.4391 5.77519 14.2872 5.62332 14.1006 5.62332C13.9139 5.62332 13.762 5.77519 13.762 5.96186V6.37215C13.762 6.44614 13.7021 6.50611 13.6281 6.50611H13.2178Z" fill="#333333"/>
<path d="M10.9183 7.13549L10.6282 6.84537L10.9183 6.55525C11.1028 6.37073 11.1028 6.07156 10.9183 5.88705C10.7338 5.70252 10.4346 5.70253 10.2501 5.88705L9.96 6.17717L9.66988 5.88705C9.48536 5.70253 9.1862 5.70252 9.00167 5.88705C8.81715 6.07158 8.81715 6.37074 9.00167 6.55525L9.29179 6.84537L9.00168 7.13549C8.81716 7.32 8.81716 7.61917 9.00168 7.80369C9.1862 7.9882 9.48537 7.9882 9.66988 7.80369L9.96 7.51358L10.2501 7.80369C10.4346 7.98821 10.7338 7.98822 10.9183 7.80369C11.1028 7.61916 11.1028 7.32 10.9183 7.13549Z" fill="white"/>
<path d="M9.34714 6.78356C9.29 6.78356 9.23287 6.76176 9.18927 6.71817L9.12961 6.65851C9.03472 6.56361 8.96966 6.44433 8.94148 6.31356C8.91409 6.18651 8.92266 6.05474 8.96624 5.93252C9.00766 5.81637 9.13538 5.7558 9.25152 5.79721C9.36767 5.83863 9.42825 5.96635 9.38683 6.08249C9.35461 6.17284 9.37758 6.275 9.44535 6.34276L9.50501 6.40243C9.5922 6.48962 9.5922 6.63098 9.50501 6.71817C9.46142 6.76176 9.40428 6.78356 9.34714 6.78356Z" fill="white"/>
<path d="M10.5853 8.07539C10.43 8.07539 10.2747 8.01628 10.1565 7.89805L9.96113 7.70266L9.76574 7.89805C9.52929 8.1345 9.14455 8.13451 8.90809 7.89805C8.79355 7.7835 8.73047 7.63121 8.73047 7.46922C8.73047 7.30723 8.79355 7.15494 8.9081 7.0404L9.10349 6.84501L8.90809 6.64962C8.67164 6.41316 8.67164 6.02843 8.90809 5.79197C9.14454 5.55552 9.52928 5.55551 9.76574 5.79197L9.96114 5.98736L10.1565 5.79196C10.393 5.55551 10.7777 5.55551 11.0142 5.79196C11.2506 6.02842 11.2506 6.41316 11.0142 6.64961L10.8188 6.84501L11.0142 7.0404C11.1287 7.15495 11.1918 7.30723 11.1918 7.46922C11.1918 7.63121 11.1287 7.7835 11.0142 7.89805C10.8959 8.01628 10.7406 8.07539 10.5853 8.07539ZM9.96113 7.37925C9.99666 7.37925 10.0307 7.39337 10.0559 7.41849L10.346 7.7086C10.478 7.84059 10.6927 7.84059 10.8247 7.7086C10.8887 7.64466 10.9239 7.55964 10.9239 7.46922C10.9239 7.37879 10.8887 7.29379 10.8247 7.22984L10.5346 6.93973C10.4823 6.88741 10.4823 6.8026 10.5346 6.75028L10.8247 6.46016C10.8887 6.39622 10.9239 6.3112 10.9239 6.22078C10.9239 6.13035 10.8887 6.04534 10.8247 5.9814C10.6927 5.8494 10.478 5.8494 10.346 5.9814L10.0559 6.27152C10.0307 6.29664 9.99666 6.31076 9.96113 6.31076C9.9256 6.31076 9.89153 6.29664 9.86641 6.27152L9.57629 5.9814C9.44429 5.84941 9.22952 5.84941 9.09753 5.9814C8.96554 6.1134 8.96554 6.32817 9.09753 6.46016L9.38765 6.75028C9.43996 6.8026 9.43996 6.88741 9.38765 6.93973L9.09753 7.22984C9.03359 7.29378 8.99838 7.37879 8.99838 7.46922C8.99838 7.55965 9.03359 7.64466 9.09753 7.7086C9.22952 7.84059 9.4443 7.84059 9.57629 7.7086L9.8664 7.41849C9.89153 7.39337 9.9256 7.37925 9.96113 7.37925Z" fill="#333333"/>
</svg>
