<svg width="24" height="24" viewBox="0 0 24 24" fill="none" xmlns="http://www.w3.org/2000/svg">
<path d="M18.5392 14.507C18.0977 15.3496 17.5327 16.1189 16.8699 16.789C16.857 16.8034 16.8468 16.8192 16.8325 16.8336C16.8181 16.848 16.8022 16.8581 16.7878 16.871C16.1177 17.5339 15.3485 18.099 14.5059 18.5403C16.6052 18.2757 18.2746 16.6064 18.5392 14.507Z" fill="#333333"/>
<path d="M19.97 13.2013H21.9988C21.8494 11.5032 21.175 9.95455 20.1382 8.71643L19.5947 9.25993C19.6192 9.5303 19.6307 9.80343 19.6307 10.0796C19.6307 10.5713 19.5934 11.0544 19.5215 11.526C19.7471 12.0509 19.901 12.6132 19.97 13.2013Z" fill="#333333"/>
<path d="M18.7051 17.6891L20.1387 19.1227C21.1754 17.8861 21.8498 16.3375 21.9993 14.6394H19.9704C19.8352 15.7825 19.3837 16.8277 18.7051 17.6891Z" fill="#333333"/>
<path d="M14.6387 19.971V21.9999C16.3368 21.8504 17.8854 21.176 19.122 20.1393L17.6884 18.7057C16.8272 19.3843 15.7818 19.8358 14.6387 19.971Z" fill="#333333"/>
<path d="M10.0799 19.6317C9.80379 19.6317 9.53067 19.6202 9.2603 19.5957L8.7168 20.1392C9.95479 21.1759 11.5034 21.8503 13.2017 21.9998V19.9709C12.6135 19.9019 12.0513 19.7481 11.5265 19.5223C11.0549 19.5943 10.5717 19.6317 10.0799 19.6317Z" fill="#333333"/>
<path d="M5.45925 9.49141C5.43475 9.68404 5.42188 9.88103 5.42188 10.0795C5.42188 10.8747 5.62175 11.6239 5.9755 12.2795C6.15375 12.6131 6.37375 12.9223 6.62687 13.2013C7.31849 13.9663 8.26174 14.5026 9.32436 14.6751C9.57023 14.7154 9.82186 14.737 10.0792 14.737C12.6473 14.737 14.7366 12.6478 14.7366 10.0797C14.7366 9.82229 14.715 9.57066 14.6747 9.32479C14.5022 8.26217 13.9658 7.31892 13.2008 6.6273C12.9218 6.37417 12.6127 6.15417 12.2791 5.97593C11.6234 5.62218 10.8742 5.4223 10.0791 5.4223C9.88073 5.4223 9.68373 5.4353 9.49098 5.45968C7.39187 5.72418 5.72387 7.39217 5.45925 9.49141Z" fill="#333333"/>
<path d="M9.36019 18.1593V16.1318C8.93894 16.0815 8.53194 15.9895 8.14231 15.8572C7.47219 15.6328 6.85394 15.2936 6.31045 14.8651L5.91795 15.2576L4.87695 16.2986C5.39745 16.7357 5.97407 17.1081 6.59382 17.4029C7.26394 17.7236 7.98569 17.9551 8.74206 18.0802C8.94606 18.1147 9.15169 18.1406 9.36019 18.1593Z" fill="#333333"/>
<path d="M10.7969 16.1318V18.1593C11.1089 18.1319 11.4166 18.0859 11.7171 18.0242C13.0544 17.7495 14.2709 17.1442 15.2802 16.2987L13.8467 14.8649C12.9869 15.5437 11.94 15.9967 10.7969 16.1318Z" fill="#333333"/>
<path d="M18.0242 11.7189C17.8445 11.3868 17.626 11.0776 17.3728 10.7986H16.132C15.9969 11.9418 15.5439 12.9886 14.8652 13.8485L16.2989 15.2821C17.1442 14.2726 17.7496 13.0561 18.0242 11.7189Z" fill="#333333"/>
<path d="M14.8652 6.31082C15.2937 6.85431 15.6331 7.47269 15.8574 8.14268C15.9896 8.53231 16.0817 8.93931 16.132 9.36055H18.1595C18.1407 9.15205 18.1148 8.94643 18.0803 8.74231C17.9552 7.98593 17.7252 7.26556 17.4045 6.59544C17.1082 5.97432 16.7359 5.3977 16.3001 4.8772L15.2576 5.91819L14.8652 6.31082Z" fill="#333333"/>
<path d="M13.8467 5.29424L14.7369 4.40412L15.2804 3.85912C14.0437 2.82387 12.495 2.1495 10.7969 2V4.02749C11.3864 4.09649 11.9486 4.25037 12.4735 4.47761C12.9681 4.68886 13.4297 4.96499 13.8467 5.29424Z" fill="#333333"/>
<path d="M9.36044 4.02749V2C7.66219 2.1495 6.11357 2.82387 4.87695 3.85924L6.31057 5.29424C7.17044 4.61561 8.21719 4.16262 9.36044 4.02749Z" fill="#333333"/>
<path d="M5.29424 6.31082L3.85924 4.8772C2.82387 6.11382 2.1495 7.66244 2 9.36068H4.02749C4.16262 8.21743 4.61561 7.17069 5.29424 6.31082Z" fill="#333333"/>
<path d="M4.47749 12.4753C4.25037 11.9504 4.09649 11.3881 4.02737 10.7986H2C2.1495 12.4968 2.82387 14.0454 3.86062 15.282L4.40412 14.7385L5.29424 13.8484C4.96499 13.4315 4.68886 12.9699 4.47749 12.4753Z" fill="#333333"/>
</svg>
