<svg width="28" height="28" viewBox="0 0 28 28" fill="none" xmlns="http://www.w3.org/2000/svg">
<path d="M9.88328 9.93133C9.90078 10.3995 9.97516 10.8457 10.1064 11.257C10.1327 11.3445 10.1064 11.4363 10.032 11.4932L9.37578 12.0182L10.1808 13.4182L10.9552 13.0988C11.0427 13.0638 11.1389 13.0813 11.2002 13.1513C11.5064 13.4882 11.852 13.777 12.2283 14.0176C12.3027 14.0657 12.342 14.1576 12.3245 14.2451L12.1583 15.0763L13.672 15.6276L14.0614 14.8838C14.1008 14.8051 14.1883 14.7526 14.2845 14.7701C14.792 14.8357 15.107 14.8401 15.6277 14.7701C15.7152 14.7526 15.8027 14.8051 15.8464 14.8795L16.2533 15.6232L17.7714 15.072L17.5877 14.2538C17.5658 14.1663 17.6052 14.0745 17.6839 14.022C18.0602 13.7857 18.4058 13.497 18.712 13.1645C18.7733 13.0945 18.8695 13.0726 18.9527 13.1076L19.7445 13.4182L20.5539 12.0182L19.8933 11.5107C19.8189 11.4538 19.7883 11.3576 19.8145 11.2701C19.9502 10.8588 20.0245 10.4126 20.0464 9.94883C20.0508 9.85695 20.1077 9.7782 20.1952 9.75195L21.0002 9.4807L20.7202 7.8882L19.8889 7.92758C19.7927 7.92758 19.7095 7.87508 19.6745 7.79195C19.5083 7.3807 19.2852 6.99133 19.0052 6.6282C18.9483 6.5582 18.9439 6.45758 18.992 6.37883L19.4339 5.65695L18.1958 4.6157L17.5833 5.18008C17.5133 5.2457 17.4127 5.25883 17.3339 5.21508C16.9358 5.00508 16.5114 4.84758 16.0695 4.75133C15.982 4.73383 15.9164 4.65945 15.8989 4.57195L15.772 3.73633H14.1577L14.0527 4.5632C14.0395 4.65508 13.9695 4.72945 13.8777 4.74695C13.4445 4.8432 13.0158 4.99633 12.6177 5.20633C12.5345 5.2457 12.4383 5.23695 12.3683 5.1757L11.7339 4.6157L10.5002 5.65258L10.9508 6.36133C10.9989 6.4357 10.9945 6.5407 10.9377 6.6107C10.6577 6.97383 10.4258 7.3632 10.2595 7.77008C10.2245 7.8532 10.1458 7.9057 10.0539 7.9057L9.20953 7.88383L8.92953 9.47633L9.73016 9.73008C9.81766 9.75633 9.87891 9.83508 9.88328 9.92695V9.93133ZM14.9627 6.3307C16.8395 6.3307 18.362 7.8532 18.362 9.7257C18.1783 14.232 11.7514 14.2363 11.5677 9.7257C11.5677 7.8532 13.0902 6.3307 14.9627 6.3307ZM12.0052 9.7257C12.1495 5.8057 17.7758 5.81008 17.9245 9.7257C17.7758 13.6457 12.1539 13.6501 12.0052 9.7257ZM6.72891 15.3213H3.50016C3.46078 15.3213 3.42578 15.352 3.42578 15.3957V24.1851C3.42578 24.2288 3.46078 24.2595 3.50016 24.2595H6.72891C6.77266 24.2595 6.80328 24.2288 6.80328 24.1851V15.3957C6.80328 15.352 6.77266 15.3213 6.72891 15.3213ZM5.11453 23.192C3.68391 23.1526 3.68391 21.0613 5.11453 21.022C6.54953 21.0613 6.54953 23.1526 5.11453 23.192ZM23.9752 19.2326L19.1364 22.6626C17.3295 23.9401 15.0764 24.3251 12.9458 23.717C10.4958 23.0651 9.06953 22.7457 7.24078 22.947V16.8526C8.01516 16.5157 11.4845 15.5051 14.092 17.3732H17.1064C18.7383 17.4126 18.8258 19.7445 17.1633 19.8188H12.8145C12.5258 19.8188 12.5302 20.2563 12.8145 20.2563H17.1633C17.837 20.2563 18.4145 19.8538 18.677 19.2763C18.747 19.1232 18.8739 19.0051 19.0139 18.9176L22.422 16.857C23.9927 15.9601 25.4233 18.1432 23.9752 19.2282V19.2326ZM5.11453 22.7545C4.26578 22.737 4.26578 21.477 5.11453 21.4595C5.97203 21.4726 5.97203 22.737 5.11453 22.7545Z" fill="#333333"/>
</svg>
