<svg width="18" height="18" viewBox="0 0 18 18" fill="none" xmlns="http://www.w3.org/2000/svg">
<g clip-path="url(#clip0_1053_18568)">
<path d="M18 9C18 4.02944 13.9706 0 9 0C4.02944 0 0 4.02944 0 9C0 13.9706 4.02944 18 9 18C13.9706 18 18 13.9706 18 9Z" fill="black"/>
<path d="M5.89453 6.89494C5.89453 6.50161 6.02081 6.10309 6.27338 5.69938C6.52594 5.29567 6.89445 4.96131 7.3789 4.6963C7.8634 4.43146 8.42857 4.29897 9.07441 4.29883C9.67467 4.29883 10.2047 4.40959 10.6644 4.63113C11.1241 4.85266 11.4791 5.15389 11.7296 5.53482C11.9759 5.90211 12.1068 6.33468 12.1053 6.77692C12.1053 7.12886 12.0339 7.43733 11.8909 7.70234C11.7569 7.95556 11.5851 8.18695 11.3816 8.38859C11.185 8.58118 10.832 8.90518 10.3227 9.36059C10.2037 9.46708 10.0907 9.58008 9.98426 9.69907C9.9107 9.78026 9.84712 9.86996 9.79487 9.96626C9.75474 10.0436 9.72249 10.1247 9.69861 10.2085C9.67579 10.2893 9.64161 10.4311 9.5961 10.6339C9.5174 11.0645 9.27105 11.2798 8.85708 11.2798C8.75702 11.2823 8.65744 11.265 8.56414 11.2288C8.47084 11.1925 8.38567 11.1381 8.3136 11.0686C8.16657 10.928 8.09309 10.7189 8.09313 10.4414C8.09313 10.0936 8.14695 9.7924 8.25457 9.53785C8.35724 9.29089 8.50227 9.06378 8.68313 8.86675C8.9115 8.62595 9.15195 8.3969 9.40355 8.18046C9.66851 7.94864 9.86003 7.77371 9.97811 7.65565C10.0953 7.5387 10.1956 7.40596 10.2762 7.26127C10.3567 7.11707 10.3984 6.95443 10.3972 6.78926C10.3997 6.63114 10.3679 6.47436 10.3042 6.32965C10.2404 6.18494 10.1461 6.05571 10.0277 5.95082C9.78132 5.7232 9.46355 5.60934 9.07441 5.60924C8.61893 5.60924 8.28356 5.72409 8.06831 5.95377C7.85306 6.18346 7.67086 6.52193 7.5217 6.96919C7.38091 7.43736 7.11387 7.67144 6.72056 7.67144C6.61105 7.67363 6.50228 7.65294 6.40122 7.6107C6.30015 7.56846 6.20901 7.50559 6.13363 7.42612C5.97423 7.2625 5.89453 7.08544 5.89453 6.89494ZM8.92539 13.7019C8.68205 13.7053 8.44619 13.6178 8.26396 13.4565C8.07547 13.293 7.98127 13.0643 7.98134 12.7703C7.9787 12.6476 8.00164 12.5257 8.04868 12.4123C8.09572 12.299 8.16584 12.1967 8.25457 12.1119C8.3427 12.0246 8.44752 11.9559 8.56278 11.91C8.67803 11.8641 8.80136 11.8419 8.92539 11.8447C9.04741 11.843 9.16854 11.8657 9.28161 11.9116C9.39469 11.9575 9.49741 12.0256 9.58368 12.1119C9.66996 12.1982 9.73804 12.3009 9.7839 12.414C9.82976 12.5271 9.85246 12.6482 9.85066 12.7703C9.85066 13.0601 9.75749 13.2878 9.57114 13.4534C9.39514 13.6151 9.16434 13.7038 8.92539 13.7019Z" fill="white"/>
</g>
<defs>
<clipPath id="clip0_1053_18568">
<rect width="18" height="18" fill="white"/>
</clipPath>
</defs>
</svg>
