<svg width="51" height="51" viewBox="0 0 51 51" fill="none" xmlns="http://www.w3.org/2000/svg">
<path d="M35.0921 48.3852C35.734 48.1622 36.1493 47.5801 36.1493 46.9003V24.6272H44.4725C46.2633 24.6272 47.7205 23.17 47.7205 21.3792V7.97131C47.7205 4.37945 44.7982 1.45715 41.2063 1.45715H10.0745C6.32814 1.45715 3.28125 4.50477 3.28125 8.25035V46.904C3.28125 47.583 3.69581 48.1659 4.33768 48.3888C4.97955 48.6118 5.66586 48.4114 6.08625 47.8774L7.85085 45.6399C7.87344 45.6108 7.90404 45.5962 7.94119 45.5962C7.97762 45.5962 8.00822 45.6108 8.03081 45.6399L10.6355 48.9447C10.9349 49.3243 11.3844 49.5429 11.8697 49.5429C12.3549 49.5429 12.8037 49.3243 13.1039 48.944L15.7049 45.6406C15.7508 45.5831 15.8389 45.5831 15.8841 45.6406L18.4844 48.9433C19.084 49.7046 20.3531 49.7046 20.9535 48.9433L23.5545 45.6406C23.5778 45.6115 23.6077 45.5969 23.6448 45.5969C23.682 45.5969 23.7119 45.6115 23.7344 45.6406L26.3362 48.944C26.9365 49.7046 28.205 49.7046 28.8053 48.944L31.4063 45.6414C31.4515 45.5831 31.5404 45.5824 31.5863 45.6414L33.3428 47.873C33.7632 48.4063 34.4503 48.6081 35.0921 48.3852ZM46.2633 7.97131V21.3792C46.2633 22.3664 45.4597 23.17 44.4725 23.17H36.1493V7.97131C36.1493 5.18307 38.4173 2.9143 41.2063 2.9143C43.9953 2.9143 46.2633 5.18307 46.2633 7.97131ZM30.2617 44.7394L27.6607 48.042C27.6141 48.1003 27.5259 48.0996 27.4808 48.042L24.879 44.7387C24.5796 44.3584 24.1293 44.1398 23.6455 44.1398C23.1611 44.1398 22.7108 44.3576 22.4106 44.7387L19.8089 48.042C19.763 48.0996 19.6748 48.0996 19.6297 48.042L17.0294 44.7394C16.4298 43.978 15.1606 43.978 14.5603 44.7394L11.9593 48.042C11.9134 48.1003 11.8252 48.1003 11.7793 48.042L9.17466 44.7372C8.87449 44.3569 8.42496 44.1391 7.94119 44.1391C7.45669 44.1391 7.00716 44.3569 6.70699 44.7372L4.94239 46.9747C4.92636 46.9958 4.89139 47.0388 4.81562 47.0118C4.73912 46.9856 4.73912 46.9302 4.73912 46.904V8.25035C4.73766 5.30838 7.13175 2.9143 10.0745 2.9143H37.1081C35.6357 4.10988 34.6922 5.93131 34.6922 7.97131V23.8986V46.9003C34.6922 46.9266 34.6922 46.9812 34.6157 47.0082C34.5392 47.0351 34.5049 46.9921 34.4882 46.971L32.7308 44.7394C32.1312 43.9788 30.8621 43.978 30.2617 44.7394Z" fill="black"/>
<path d="M10.0762 13.7707H22.6098C23.012 13.7707 23.3384 13.4443 23.3384 13.0422C23.3384 12.64 23.012 12.3136 22.6098 12.3136H10.0762C9.67406 12.3136 9.34766 12.64 9.34766 13.0422C9.34766 13.4443 9.67333 13.7707 10.0762 13.7707Z" fill="black"/>
<path d="M29.3979 18.2245H10.0762C9.67406 18.2245 9.34766 18.5509 9.34766 18.9531C9.34766 19.3552 9.67406 19.6816 10.0762 19.6816H29.3979C29.8001 19.6816 30.1265 19.3552 30.1265 18.9531C30.1265 18.5509 29.8001 18.2245 29.3979 18.2245Z" fill="black"/>
<path d="M10.0762 25.5918H22.6098C23.012 25.5918 23.3384 25.2654 23.3384 24.8632C23.3384 24.4611 23.012 24.1347 22.6098 24.1347H10.0762C9.67406 24.1347 9.34766 24.4611 9.34766 24.8632C9.34766 25.2654 9.67333 25.5918 10.0762 25.5918Z" fill="black"/>
<path d="M29.3979 30.0456H10.0762C9.67406 30.0456 9.34766 30.372 9.34766 30.7741C9.34766 31.1763 9.67406 31.5027 10.0762 31.5027H29.3979C29.8001 31.5027 30.1265 31.1763 30.1265 30.7741C30.1265 30.372 29.8001 30.0456 29.3979 30.0456Z" fill="black"/>
<path d="M22.6098 35.9565H10.0762C9.67406 35.9565 9.34766 36.2829 9.34766 36.6851C9.34766 37.0872 9.67406 37.4136 10.0762 37.4136H22.6098C23.012 37.4136 23.3384 37.0872 23.3384 36.6851C23.3384 36.2829 23.012 35.9565 22.6098 35.9565Z" fill="black"/>
</svg>
