<svg width="24" height="24" viewBox="0 0 24 24" fill="none" xmlns="http://www.w3.org/2000/svg">
<path d="M13.8438 6.59998H19.3161V7.93435H13.8438V6.59998Z" fill="#333333"/>
<path d="M20.6915 4.21558H3.30527C2.58408 4.21558 2 4.77496 2 5.46558V15.1C2 15.7906 2.58408 16.3531 3.30527 16.3531H20.6915C21.4127 16.3531 22 15.7906 22 15.1V5.46558C22 4.77496 21.4127 4.21558 20.6915 4.21558ZM13.1894 6.59999C13.1894 6.25621 13.4799 5.97499 13.8421 5.97499H19.3111C19.6734 5.97499 19.967 6.25621 19.967 6.59999V7.93433C19.967 8.27808 19.6734 8.55933 19.3111 8.55933H13.8421C13.4799 8.55933 13.1894 8.27808 13.1894 7.93433V6.59999ZM10.8595 13.9656C10.8595 14.3125 10.5658 14.5937 10.2036 14.5937H4.63663C4.27769 14.5937 3.984 14.3125 3.984 13.9656V10.3469C3.984 10.0031 4.27769 9.72186 4.63663 9.72186H10.2036C10.5658 9.72186 10.8595 10.0031 10.8595 10.3469V13.9656ZM10.8595 7.93433C10.8595 8.27808 10.5658 8.55933 10.2036 8.55933H4.73455C4.3723 8.55933 4.08191 8.27808 4.08191 7.93433V6.59999C4.08191 6.25621 4.3723 5.97499 4.73455 5.97499H10.2036C10.5658 5.97499 10.8595 6.25621 10.8595 6.59999V7.93433ZM20.016 13.9656C20.016 14.3125 19.7223 14.5937 19.3601 14.5937H13.7931C13.4342 14.5937 13.1405 14.3125 13.1405 13.9656V10.3469C13.1405 10.0031 13.4342 9.72186 13.7931 9.72186H19.3601C19.7223 9.72186 20.016 10.0031 20.016 10.3469V13.9656Z" fill="#333333"/>
<path d="M17.5033 13.0218C17.6894 13.0218 17.8296 12.95 17.9308 12.7999C18.032 12.6468 18.0842 12.4312 18.0842 12.1562C18.0842 11.8875 18.032 11.6719 17.9308 11.5187C17.8296 11.3687 17.6894 11.2937 17.5033 11.2937C17.3173 11.2937 17.177 11.3687 17.0791 11.5187C16.978 11.6719 16.9258 11.8875 16.9258 12.1562C16.9258 12.4312 16.978 12.6468 17.0791 12.7999C17.177 12.95 17.3173 13.0218 17.5033 13.0218Z" fill="#333333"/>
<path d="M6.40181 13.0218C6.59106 13.0218 6.72813 12.95 6.82926 12.7999C6.93044 12.6468 6.98262 12.4312 6.98262 12.1562C6.98262 11.8875 6.93044 11.6719 6.82926 11.5187C6.72813 11.3687 6.59106 11.2937 6.40181 11.2937C6.21582 11.2937 6.07549 11.3687 5.97758 11.5187C5.87644 11.6719 5.82422 11.8875 5.82422 12.1562C5.82422 12.4312 5.87644 12.6468 5.97758 12.7999C6.07549 12.95 6.21582 13.0218 6.40181 13.0218Z" fill="#333333"/>
<path d="M4.73438 6.59998H10.2067V7.93435H4.73438V6.59998Z" fill="#333333"/>
<path d="M4.63672 13.9657L10.2037 13.9688L10.207 10.3469H4.63672V13.9657ZM8.91152 11.4C8.83316 11.3313 8.70263 11.2969 8.52318 11.2969C8.32413 11.2969 8.13157 11.3375 7.95539 11.4125C7.8803 11.45 7.80852 11.4344 7.75634 11.3875C7.72694 11.3563 7.71065 11.3156 7.71065 11.2719C7.71065 11.2032 7.74327 11.1532 7.80199 11.1188C8.04019 11.0063 8.30126 10.95 8.57867 10.95C8.72876 10.95 8.86905 10.9781 8.99309 11.0344C9.11706 11.0938 9.21824 11.175 9.29002 11.2813C9.3618 11.3875 9.40099 11.5094 9.40099 11.6469C9.40099 11.7812 9.35853 11.9094 9.27695 12.025C9.19537 12.1375 9.0975 12.2375 8.98656 12.3219C8.87885 12.4032 8.73202 12.5 8.5558 12.6094C8.39917 12.7125 8.27844 12.7938 8.20012 12.8563C8.14464 12.9 8.09895 12.9407 8.06959 12.9875H9.19537C9.24759 12.9875 9.29002 13.0032 9.32591 13.0375C9.3618 13.0719 9.37813 13.1125 9.37813 13.1594C9.37813 13.2094 9.3618 13.25 9.32591 13.2844C9.29002 13.3157 9.24759 13.3313 9.19537 13.3313H7.87703C7.81832 13.3313 7.76614 13.3125 7.72367 13.275C7.68129 13.2375 7.66169 13.1875 7.66169 13.1281C7.66169 13.0094 7.69758 12.8969 7.77263 12.7938C7.84445 12.6969 7.93256 12.6094 8.0337 12.5344C8.13157 12.4594 8.26537 12.3719 8.42527 12.2719C8.56233 12.1875 8.67327 12.1156 8.75485 12.0594C8.83316 12 8.90172 11.9375 8.9539 11.8719C9.00285 11.8094 9.02895 11.7407 9.02895 11.6688C9.02895 11.5531 8.98983 11.4657 8.91152 11.4ZM5.68745 11.2813C5.85061 11.0594 6.09208 10.95 6.40211 10.95C6.7121 10.95 6.95361 11.0594 7.11999 11.2813C7.28315 11.4969 7.36473 11.7906 7.36473 12.1563C7.36473 12.5219 7.28315 12.8156 7.11999 13.0344C6.95361 13.2532 6.7121 13.3656 6.40211 13.3656C6.09208 13.3656 5.85061 13.2532 5.68745 13.0344C5.52429 12.8156 5.44271 12.5219 5.44271 12.1563C5.44271 11.7906 5.52429 11.4969 5.68745 11.2813Z" fill="#333333"/>
<path d="M13.793 13.9657L19.3599 13.9688L19.3632 10.3469H13.793V13.9657ZM16.7885 11.2813C16.9517 11.0594 17.1932 10.95 17.5032 10.95C17.8132 10.95 18.0547 11.0594 18.2178 11.2813C18.381 11.4969 18.4658 11.7906 18.4658 12.1563C18.4658 12.5219 18.381 12.8156 18.2178 13.0344C18.0547 13.2532 17.8132 13.3656 17.5032 13.3656C17.1932 13.3656 16.9517 13.2532 16.7885 13.0344C16.6254 12.8156 16.5438 12.5219 16.5438 12.1563C16.5438 11.7906 16.6254 11.4969 16.7885 11.2813ZM14.798 11.2406L15.2614 11.0094C15.2973 10.9907 15.3364 10.9813 15.3723 10.9813H15.4441C15.4996 10.9813 15.5485 11 15.5877 11.0375C15.6236 11.075 15.6432 11.1188 15.6432 11.1719V12.9875H15.9467C15.9956 12.9875 16.0413 13.0032 16.0772 13.0375C16.1131 13.0719 16.1294 13.1125 16.1294 13.1594C16.1294 13.2094 16.1098 13.25 16.0772 13.2844C16.0413 13.3157 15.9956 13.3313 15.9467 13.3313H14.8926C14.8404 13.3313 14.798 13.3157 14.7654 13.2844C14.7295 13.25 14.7132 13.2094 14.7132 13.1594C14.7132 13.1125 14.7295 13.0719 14.7621 13.0375C14.798 13.0032 14.8404 12.9875 14.8926 12.9875H15.2614V11.4156L14.9644 11.5563C14.9253 11.5719 14.8959 11.5782 14.8698 11.5782C14.8176 11.5782 14.7752 11.5625 14.7393 11.5313C14.7066 11.4969 14.6903 11.4563 14.6903 11.4063C14.6903 11.3313 14.7262 11.275 14.798 11.2406Z" fill="#333333"/>
<path d="M7.65625 17.5594C7.65625 18.075 8.09677 18.4969 8.63847 18.4969H10.1167V21.6875C10.1167 21.8594 10.2635 22 10.443 22H13.5496C13.729 22 13.8759 21.8594 13.8759 21.6875V18.4969H15.3541C15.8958 18.4969 16.3363 18.075 16.3363 17.5594V16.9781H7.65625V17.5594Z" fill="#333333"/>
<path d="M16.0491 2.9375C16.0491 2.42187 15.6085 2 15.0668 2H8.93208C8.39038 2 7.95312 2.42187 7.95312 2.9375V3.59061H16.0491V2.9375Z" fill="#333333"/>
</svg>
