<svg width="24" height="24" viewBox="0 0 24 24" fill="none" xmlns="http://www.w3.org/2000/svg">
<path d="M15.0851 9.41943L14.7302 10.3033C14.6334 10.5485 14.3947 10.7098 14.1334 10.7098H13.5399H13.3399H11.9883V9.41943H15.0851Z" fill="#AAB2BD"/>
<path d="M15.8608 6.65166C15.8608 7.20005 15.7543 7.74521 15.5511 8.25812L15.0866 9.41941H11.9898V6.83876V5.87102C11.9898 5.6936 11.8446 5.54844 11.6672 5.54844H6.94141C7.37689 3.70005 9.03818 2.32263 11.0221 2.32263H11.5317C12.7253 2.32263 13.8091 2.8065 14.593 3.59037C15.3769 4.37424 15.8608 5.45812 15.8608 6.65166Z" fill="#CCD1D9"/>
<path d="M11.9894 5.87104V6.83878H8.11845H7.15071C6.97329 6.83878 6.82812 6.69362 6.82812 6.5162C6.82812 6.18395 6.86683 5.85814 6.94103 5.54846H11.6668C11.8443 5.54846 11.9894 5.69362 11.9894 5.87104Z" fill="#969FAA"/>
<path d="M7.76222 16.7549L7.57513 17.229L6.82674 17.1613L6.74287 16.8323C6.60416 16.2678 6.09448 15.871 5.51384 15.871C5.22029 15.871 4.95255 15.971 4.73964 16.1355L4.63964 15.8871C4.37835 15.2355 4.24609 14.5452 4.24609 13.8452V13.8129C4.24609 13.4936 4.27513 13.1774 4.33319 12.8645L7.259 12.1355C7.81384 12.9452 8.11706 13.9161 8.11706 14.9194C8.11706 15.5484 7.99771 16.171 7.76222 16.7549Z" fill="#DFB28B"/>
<path d="M6.3901 11.1646C6.72558 11.4517 7.0159 11.7775 7.25784 12.1355L4.33203 12.8646C4.44493 12.2226 4.67397 11.6065 5.01268 11.0452C5.13526 10.8355 5.36106 10.7097 5.603 10.7097C5.76752 10.7097 5.92558 10.7678 6.05139 10.8742L6.3901 11.1646Z" fill="#D3A06C"/>
<path d="M10.0993 17.5419L10.3767 15.871L14.5703 16.8387L13.9799 18.1419C13.7767 18.5871 13.4928 18.9806 13.1541 19.3097C12.9735 19.4839 12.7767 19.6419 12.5638 19.7774C11.9574 20.1677 11.2412 20.3871 10.4896 20.3871C9.98962 20.3871 9.49284 20.2903 9.03155 20.1L7.92188 19.6419L8.61865 17.3226L9.46704 17.4C9.68639 17.4194 9.89929 17.4677 10.0993 17.5419Z" fill="#F0D0B4"/>
<path d="M6.74287 16.8323L6.82674 17.1613L6.23319 18.9452V18.9484L5.16222 18.5065C4.8848 18.3936 4.65577 18.2 4.49771 17.9613C4.33642 17.7226 4.24609 17.4387 4.24609 17.1387C4.24609 16.7871 4.38803 16.471 4.61706 16.2419C4.65577 16.2032 4.69448 16.1677 4.73964 16.1355C4.95255 15.971 5.22029 15.871 5.51384 15.871C6.09448 15.871 6.60416 16.2677 6.74287 16.8323Z" fill="#F0D0B4"/>
<path d="M8.61825 17.3227L7.92147 19.642L6.23438 18.9485V18.9452L6.82792 17.1614L7.57631 17.2291L8.61825 17.3227Z" fill="#FC6E51"/>
<path d="M19.4878 18.8936L19.7298 21.6775H13.9233V21.4323C13.9233 20.6549 13.6491 19.9033 13.1523 19.3097C13.4911 18.9807 13.7749 18.5871 13.9782 18.142L14.5685 16.8388L15.6362 15.771C16.1911 15.2162 16.504 14.4613 16.504 13.6742C16.504 13.2484 16.4136 12.842 16.2491 12.4742H16.2523C18.1007 14.1097 19.2717 16.4 19.4878 18.8936Z" fill="#FF826E"/>
<path d="M16.504 13.6742C16.504 14.4613 16.1911 15.2162 15.6363 15.771L14.5685 16.8387L10.375 15.871V13.6742C10.375 13.0549 10.5653 12.4775 10.8944 12C11.4266 11.2226 12.3234 10.7097 13.3395 10.7097H13.5395C14.3556 10.7097 15.0976 11.042 15.6363 11.5775C15.8911 11.8355 16.1008 12.1387 16.2492 12.4742C16.4137 12.842 16.504 13.2484 16.504 13.6742Z" fill="#FF826E"/>
<path d="M11.9888 10.7098H13.3404C12.3243 10.7098 11.4275 11.2227 10.8952 12.0001H9.08556C8.19524 12.0001 7.47266 11.2775 7.47266 10.3872V9.74201C7.47266 9.56459 7.61782 9.41943 7.79524 9.41943H8.11782H11.9888V10.7098Z" fill="#E6E9ED"/>
<path d="M8.11719 6.83875H11.9882V9.41939H8.11719V6.83875Z" fill="#F0D0B4"/>
<path d="M20.0803 22L19.8074 18.8652C19.5861 16.3158 18.4141 13.9784 16.5074 12.2745C16.1725 11.5674 15.5945 10.9984 14.8799 10.6768C14.9409 10.6019 14.9912 10.5171 15.0286 10.4239L15.847 8.37742C16.068 7.82645 16.1799 7.24516 16.1799 6.65032C16.1799 4.08613 14.0938 2 11.5296 2H11.0186C8.52833 2 6.50252 4.02581 6.50252 6.51613C6.50252 6.87194 6.79187 7.16129 7.14768 7.16129H7.79284V9.09677C7.43704 9.09677 7.14768 9.38613 7.14768 9.74194V10.3871C7.14768 11.4545 8.01575 12.3226 9.08317 12.3226H10.3454C10.158 12.7358 10.0509 13.1926 10.0509 13.6748V15.8442L9.83575 17.1348C9.72317 17.1106 9.60962 17.0903 9.49413 17.08L8.03252 16.9471L8.06155 16.8745C8.31123 16.2497 8.438 15.5916 8.438 14.919C8.438 13.3797 7.76768 11.9223 6.59897 10.9203L6.26058 10.6306C6.07768 10.4735 5.84381 10.3871 5.60252 10.3871C5.24897 10.3871 4.91639 10.5752 4.7351 10.8781C4.20284 11.7648 3.92188 12.7797 3.92188 13.8448C3.92188 14.5881 4.0622 15.3152 4.338 16.0058L4.35671 16.0529C4.08897 16.3377 3.92188 16.7181 3.92188 17.139C3.92188 17.8716 4.35962 18.5252 5.03704 18.8045L8.90446 20.3971C9.40897 20.6042 9.94123 20.7097 10.4867 20.7097C11.4548 20.7097 12.3712 20.3684 13.0974 19.7816C13.4219 20.2687 13.5993 20.8435 13.5993 21.4332V22H20.0803ZM16.1799 13.6748C16.1799 14.3806 15.9048 15.0442 15.4061 15.5435L14.4654 16.4842L10.6961 15.6145V13.6752C10.6961 12.2177 11.8816 11.0323 13.3386 11.0323H13.537C14.9945 11.0323 16.1799 12.2177 16.1799 13.6748ZM10.6961 11.6774V11.0323H11.3909C11.1425 11.2158 10.9212 11.4326 10.7332 11.6774H10.6961ZM10.0509 9.74194V10.3871H9.08317V9.74194H10.0509ZM10.6961 9.74194H11.6638V10.3871H10.6961V9.74194ZM13.3386 10.3871H12.309V9.74194H14.6067L14.4299 10.1842C14.3806 10.3074 14.2628 10.3871 14.1303 10.3871H13.5374H13.3386ZM11.0186 2.64516H11.5296C13.7383 2.64516 15.5348 4.44194 15.5348 6.65064C15.5348 7.1629 15.4383 7.66323 15.248 8.13806L14.8645 9.09677H12.309V5.87097C12.309 5.51516 12.0196 5.22581 11.6638 5.22581H7.36897C7.90123 3.72387 9.33639 2.64516 11.0186 2.64516ZM7.20155 5.87097H11.6638V6.51613H7.14768C7.14768 6.29645 7.16607 6.08065 7.20155 5.87097ZM8.438 7.16129H11.6638V9.09677H8.438V7.16129ZM7.79284 9.74194H8.438V10.3871H7.79284V9.74194ZM7.9722 11.0323H8.438V11.4981C8.24478 11.3852 8.0851 11.2255 7.9722 11.0323ZM9.08317 11.0323H10.0509V11.6774H9.08317V11.0323ZM4.90413 15.6703C4.68284 15.0845 4.56704 14.47 4.56704 13.8132C4.56704 13.5829 4.58284 13.3539 4.61381 13.1274L5.47833 12.9113L5.6151 13.5261L5.14897 13.6194L5.27575 14.2519L5.7551 14.1561L5.83478 14.5145L5.47155 14.5871L5.59833 15.2197L5.97478 15.1445L6.08929 15.6603C5.90897 15.5897 5.7151 15.5484 5.51252 15.5484C5.29704 15.5484 5.09155 15.5923 4.90413 15.6703ZM7.05026 17.5058L8.19252 17.6097L7.71284 19.2084L6.63123 18.7629L7.05026 17.5058ZM7.46252 16.6352L7.36187 16.8861L7.08252 16.8606L7.05542 16.7532C7.02381 16.6268 6.97317 16.51 6.91446 16.3987L6.60768 15.0177L7.21123 14.8971L7.08446 14.2645L6.46768 14.3877L6.388 14.0294L6.88865 13.9294L6.76187 13.2968L6.248 13.3997L6.10478 12.7548L7.10865 12.5039C7.55026 13.2226 7.79284 14.0555 7.79284 14.919C7.79284 15.5094 7.68155 16.0868 7.46252 16.6352ZM5.288 11.21C5.39865 11.0258 5.67704 10.98 5.84091 11.1203L6.17929 11.41C6.36897 11.5726 6.53833 11.7529 6.69736 11.941L4.76252 12.4248C4.88381 12.001 5.05929 11.5919 5.288 11.21ZM4.56704 17.139C4.56704 16.6174 4.99091 16.1935 5.51252 16.1935C5.94736 16.1935 6.32446 16.4881 6.42994 16.9097L6.48962 17.1484L6.03349 18.5165L5.28284 18.2074C4.848 18.0287 4.56704 17.609 4.56704 17.139ZM9.15026 19.8L8.31252 19.4552L8.84833 17.6694L9.43575 17.7229C9.94671 17.7694 10.428 17.9945 10.7906 18.3574L11.2467 17.9013C11.0157 17.67 10.747 17.4826 10.4551 17.3439L10.6354 16.2626L14.1103 17.0645L13.6816 18.0074C13.1132 19.2571 11.8593 20.0645 10.4867 20.0645C10.0261 20.0645 9.57607 19.9755 9.15026 19.8ZM13.5728 19.3319C13.8532 19.021 14.0903 18.6668 14.2686 18.2742L14.8364 17.0258L15.8622 16C16.4828 15.3787 16.8251 14.5532 16.8251 13.6748C16.8251 13.6139 16.8193 13.5545 16.8161 13.4945C18.1622 14.9958 18.988 16.8858 19.1648 18.921L19.3764 21.3548H14.2435C14.228 20.6281 13.9922 19.9223 13.5728 19.3319Z" fill="black"/>
<path d="M9.40461 8.12905C9.58277 8.12905 9.72719 7.98462 9.72719 7.80647C9.72719 7.62831 9.58277 7.48389 9.40461 7.48389C9.22646 7.48389 9.08203 7.62831 9.08203 7.80647C9.08203 7.98462 9.22646 8.12905 9.40461 8.12905Z" fill="black"/>
</svg>
