<svg width="18" height="18" viewBox="0 0 18 18" fill="none" xmlns="http://www.w3.org/2000/svg">
<path d="M8.3 11.3197V13.4197C8.3 14.5747 7.35493 15.5197 6.2 15.5197H4.1C2.94507 15.5197 2 14.5747 2 13.4197V11.3197C2 10.1648 2.94507 9.21973 4.1 9.21973H6.2C7.35493 9.21973 8.3 10.1648 8.3 11.3197Z" fill="#333333"/>
<path d="M8.3 3.61953V5.71953C8.3 6.87446 7.35493 7.81953 6.2 7.81953H4.1C2.94507 7.81953 2 6.87446 2 5.71953V3.61953C2 2.4646 2.94507 1.51953 4.1 1.51953H6.2C7.35493 1.51953 8.3 2.4646 8.3 3.61953Z" fill="#333333"/>
<path d="M15.9992 11.3197V13.4197C15.9992 14.5747 15.0542 15.5197 13.8992 15.5197H11.7992C10.6443 15.5197 9.69922 14.5747 9.69922 13.4197V11.3197C9.69922 10.1648 10.6443 9.21973 11.7992 9.21973H13.8992C15.0542 9.21973 15.9992 10.1648 15.9992 11.3197Z" fill="#333333"/>
<path d="M15.9992 3.61953V5.71953C15.9992 6.87446 15.0542 7.81953 13.8992 7.81953H11.7992C10.6443 7.81953 9.69922 6.87446 9.69922 5.71953V3.61953C9.69922 2.4646 10.6443 1.51953 11.7992 1.51953H13.8992C15.0542 1.51953 15.9992 2.4646 15.9992 3.61953Z" fill="#333333"/>
</svg>
