<svg width="93" height="93" viewBox="0 0 93 93" fill="none" xmlns="http://www.w3.org/2000/svg">
<path d="M55.8047 29.8446L66.9261 45.3955C71.066 44.2447 75.9464 44.6439 79.7831 46.4042V9.61862L55.8047 29.8446Z" fill="#D2DCFD"/>
<path d="M44.11 39.7066C42.1597 41.3518 39.4471 41.3518 37.4968 39.7066L25.4317 29.5298L1.82812 64.061H52.6054C52.6054 55.1207 58.6782 47.6 66.9234 45.3953L55.8019 29.8444L44.11 39.7066Z" fill="white"/>
<path d="M91.2539 64.0609C91.2539 74.7316 82.6036 83.382 71.9329 83.382C46.3314 82.4348 46.3383 45.683 71.9331 44.7397C82.6036 44.7397 91.2539 53.39 91.2539 64.0609Z" fill="#49D232"/>
<path d="M1.82812 9.61862L37.4987 39.7069C39.449 41.3521 42.1615 41.3521 44.1118 39.7069L79.7822 9.61862H1.82812Z" fill="white"/>
<path d="M1.82812 9.61862V64.0611H1.82995L25.4335 29.5298L1.82812 9.61862Z" fill="#D2DCFD"/>
<path d="M25.4335 29.5298L1.82812 9.61862V18.0054L21.7972 34.8495L25.4335 29.5298Z" fill="#93B2F4"/>
<path d="M55.8047 29.8446L59.5458 35.0758L79.7831 18.0054V9.61862L55.8047 29.8446Z" fill="#93B2F4"/>
<path d="M37.4982 48.0939C39.4485 49.7391 42.161 49.7391 44.1113 48.0939L59.5445 35.076L55.8033 29.8449L44.1113 39.7071C42.161 41.3523 39.4485 41.3523 37.4982 39.7071L25.433 29.5302L21.7969 34.8499L37.4982 48.0939Z" fill="#D2DCFD"/>
<path d="M1.82812 9.61862L37.4987 39.7069C39.449 41.3521 42.1615 41.3521 44.1118 39.7069L79.7822 9.61862H1.82812Z" fill="white"/>
<path d="M69.6206 69.9566C69.1536 69.9566 68.6866 69.7785 68.3302 69.4221L64.7935 65.8854C63.1471 64.1132 65.6011 61.6578 67.3743 63.3044L69.6206 65.5507L76.4709 58.7005C77.1835 57.9879 78.339 57.9879 79.0519 58.7005C79.7645 59.4131 79.7645 60.5687 79.0519 61.2813L70.9112 69.4219C70.5548 69.7783 70.0878 69.9566 69.6206 69.9566Z" fill="white"/>
<path d="M81.6043 45.2638V9.61883C81.601 9.43561 81.5778 9.25238 81.5223 9.07701C81.298 8.32934 80.5597 7.78697 79.7791 7.79409C79.7131 7.79737 1.81998 7.7877 1.75958 7.79737C0.807698 7.81161 -0.0195402 8.66494 0.000351489 9.61901V64.0615C0.000351489 65.0694 0.81737 65.8864 1.82528 65.8864H50.859C51.7873 76.695 60.8802 85.2074 71.9254 85.2074C94.1827 84.9207 101.03 55.4653 81.6043 45.2638ZM74.7854 11.4438L42.9323 38.3119C41.6583 39.3868 39.9463 39.3866 38.6723 38.3119L6.81918 11.4438H74.7854ZM3.6502 13.5457L36.3191 41.1021C37.6389 42.2153 39.2205 42.7719 40.8022 42.7719C42.3839 42.7719 43.9657 42.2153 45.2855 41.1021L77.9544 13.5457V43.7869C65.1356 39.9883 52.0213 48.9266 50.8576 62.2365H3.6502V13.5457ZM71.9254 81.5574C62.2779 81.5574 54.4291 73.7087 54.4291 64.0613C55.302 40.8937 88.539 40.8771 89.4215 64.0615C89.4217 73.7087 81.5729 81.5574 71.9254 81.5574Z" fill="#1C2E72"/>
</svg>
