<svg width="20" height="20" viewBox="0 0 20 20" fill="none" xmlns="http://www.w3.org/2000/svg">
<g clip-path="url(#clip0_1107_6441)">
<path d="M10.9496 11.8102C10.7785 11.5622 10.7051 11.2598 10.7433 10.9609C10.75 10.9091 10.7534 10.8569 10.7535 10.8047C10.7535 10.5572 10.6781 10.3157 10.5375 10.1121L5.38474 2.64531C5.29063 2.50847 5.1705 2.39151 5.03119 2.3011C4.89188 2.2107 4.73613 2.14861 4.57283 2.1184C4.40953 2.08818 4.24188 2.09043 4.07945 2.125C3.91701 2.15958 3.76298 2.22581 3.62614 2.31992C3.48931 2.41402 3.37235 2.53416 3.28194 2.67347C3.19153 2.81277 3.12945 2.96852 3.09923 3.13182C3.06902 3.29513 3.07126 3.46278 3.10584 3.62521C3.14042 3.78764 3.20665 3.94168 3.30075 4.07851L6.66443 8.95273L9.95271 12.9309C10.0695 12.4766 10.5832 12.1637 11.1886 12.1566L10.9496 11.8102Z" fill="#C79A83"/>
<path d="M7.83335 8.95274L4.46968 4.07852C4.37537 3.94198 4.30894 3.78816 4.27419 3.6259C4.23945 3.46363 4.23706 3.2961 4.26718 3.13291C4.2973 2.96972 4.35933 2.81408 4.44972 2.6749C4.5401 2.53573 4.65706 2.41577 4.7939 2.32188C4.83631 2.29286 4.88042 2.26642 4.92601 2.2427C4.6759 2.11114 4.38891 2.06722 4.11091 2.11796C3.8329 2.1687 3.57993 2.31117 3.39243 2.5226C3.20492 2.73403 3.0937 3.00221 3.07655 3.28429C3.0594 3.56636 3.1373 3.84605 3.2978 4.07864L6.66148 8.95286L9.94976 12.931C10.0244 12.6406 10.2613 12.4082 10.5805 12.2763L7.83335 8.95274Z" fill="#A07C6B"/>
<path d="M10.5129 19.0262C11.3528 19.0262 12.0336 18.3453 12.0336 17.5055C12.0336 16.6656 11.3528 15.9848 10.5129 15.9848C9.67303 15.9848 8.99219 16.6656 8.99219 17.5055C8.99219 18.3453 9.67303 19.0262 10.5129 19.0262Z" fill="#F2CD6D"/>
<path d="M12.3359 16.1047L14.4508 17.25L13.5527 17.8676L12.3359 16.1047Z" fill="#AF826E"/>
<path d="M14.4484 17.25L15.4 17.7652C15.3455 17.9575 15.2254 18.1246 15.0605 18.2375L14.4441 18.6613C14.2564 18.7904 14.0251 18.8398 13.801 18.7985C13.5769 18.7573 13.3783 18.6289 13.2488 18.4414C13.2139 18.3913 13.1952 18.3317 13.1953 18.2707C13.1952 18.2217 13.2071 18.1734 13.2299 18.1301C13.2527 18.0867 13.2858 18.0496 13.3262 18.0219L13.5504 17.8676L14.4484 17.25Z" fill="#C79A83"/>
<path d="M14.0102 10.3781V10.3785L13.0898 12.3715L12.5699 12.4051L11.8828 12.2582L12.9719 9.90039C13.2842 10.1246 13.6367 10.2868 14.0102 10.3781Z" fill="#799091"/>
<path d="M11.6129 12.2012L10.8777 15.6285L10.8609 15.625C10.7215 15.5953 10.0426 15.6289 9.71484 15.0754C9.95582 14.3879 10.0364 13.6543 9.95039 12.9309C10.0672 12.4766 10.5809 12.1637 11.1863 12.1566C11.324 12.1549 11.4615 12.1686 11.5961 12.1977L11.6129 12.2012Z" fill="#4689D3"/>
<path d="M12.5684 12.4051L12.2887 13.7102L12.1023 14.5781L11.8332 15.8328L10.8789 15.6285L11.6141 12.2012L11.8813 12.2582L12.5684 12.4051Z" fill="#5FA8ED"/>
<path d="M17.6898 17.5906C17.7046 17.6115 17.7141 17.6356 17.7176 17.6609C17.721 17.6863 17.7182 17.7121 17.7095 17.7361C17.7008 17.7601 17.6864 17.7817 17.6675 17.7989C17.6486 17.8162 17.6259 17.8286 17.6012 17.8352L16.5828 18.1094C16.3483 18.1727 16.0984 18.1434 15.8848 18.0277L15.4 17.7652L14.4484 17.25L12.3336 16.1047V16.1043L11.832 15.8328L12.1012 14.5781L16.534 16.1852C16.6776 16.2379 16.8019 16.3328 16.8906 16.4574L17.6898 17.5906Z" fill="#C1D1E5"/>
<path d="M18.5051 15.2691C18.5248 15.2868 18.5397 15.3091 18.5486 15.334C18.5575 15.3589 18.56 15.3856 18.5559 15.4117C18.5518 15.4378 18.5413 15.4625 18.5253 15.4835C18.5092 15.5045 18.4882 15.5212 18.4641 15.532L16.7063 16.2746C16.6531 16.2374 16.5953 16.2073 16.5344 16.1852L12.1016 14.5781L12.2879 13.7102L16.9777 14.0547C17.0644 14.0609 17.1515 14.0521 17.2352 14.0285L18.5051 15.2691Z" fill="#D4E1F4"/>
<path d="M18.6516 12.909C18.6723 12.9243 18.6889 12.9445 18.7001 12.9677C18.7113 12.991 18.7166 13.0166 18.7157 13.0423C18.7148 13.0681 18.7076 13.0932 18.6948 13.1156C18.682 13.138 18.6639 13.1569 18.6422 13.1707L17.4367 13.9391C17.3747 13.9786 17.3072 14.0088 17.2363 14.0285C17.1527 14.0521 17.0656 14.0609 16.9789 14.0547L12.2891 13.7102L12.5688 12.4051L13.0887 12.3715L17.1809 12.1074C17.4078 12.0903 17.6334 12.1553 17.8164 12.2906L18.6516 12.909Z" fill="#C1D1E5"/>
<path d="M18.6063 5.54844C18.678 5.05046 18.657 4.54352 18.5446 4.05313C18.4884 3.81446 18.405 3.58301 18.2962 3.36329C18.0419 2.85469 17.654 2.4504 17.1469 2.2168C17.1466 2.2168 17.1466 2.21641 17.1462 2.21641C16.6387 1.98321 16.0786 1.95157 15.5262 2.08946C15.2886 2.14952 15.0586 2.23655 14.8407 2.34884H14.8403C14.394 2.58184 13.9944 2.895 13.6614 3.27266C13.3608 3.61012 13.1083 3.98752 12.911 4.39415C12.8946 4.42696 12.879 4.46055 12.8633 4.49415C12.6898 4.86842 12.5636 5.26287 12.4876 5.66837C12.3953 6.14695 12.3861 6.63782 12.4602 7.11954C12.5116 7.45221 12.6131 7.77516 12.7614 8.07735C13.0157 8.58595 13.4036 8.99024 13.9106 9.22384C13.911 9.22384 13.911 9.22423 13.9114 9.22423C14.418 9.45743 14.9778 9.48946 15.5305 9.35235V9.35196C15.8575 9.26868 16.1698 9.13604 16.4567 8.9586H16.4571C16.8726 8.70133 17.241 8.37472 17.5462 7.99298C17.8049 7.67253 18.0227 7.32113 18.1946 6.94688C18.2102 6.91329 18.2251 6.87969 18.2395 6.8461C18.4211 6.43257 18.5446 5.99586 18.6063 5.54844ZM17.5923 1.25235C19.5106 2.13477 20.1419 4.85079 19.0024 7.31876C17.9676 9.55938 15.8286 10.825 14.0079 10.3785V10.3781C13.6344 10.2868 13.2819 10.1246 12.9696 9.9004C11.4462 8.80899 11.0208 6.36329 12.0555 4.12266C13.195 1.65469 15.6739 0.369929 17.5923 1.25235Z" fill="#A4BFC1"/>
<path d="M3.73867 14.9602L1.82734 16.868C1.06696 16.1118 0.585293 15.1202 0.460938 14.0551C1.03893 13.91 1.64463 13.9172 2.21905 14.0758C2.79347 14.2344 3.31701 14.5391 3.73867 14.9602Z" fill="#EA8E60"/>
<path d="M3.73945 14.9602C4.161 15.3802 4.46619 15.9026 4.62513 16.4761C4.78406 17.0496 4.79129 17.6545 4.64609 18.2316C3.57984 18.108 2.58673 17.6274 1.82812 16.868L3.73945 14.9602Z" fill="#D8825B"/>
<path d="M5.20937 13.4957L8.5875 16.868C8.0768 17.3782 7.45703 17.7661 6.77482 18.0023C6.09261 18.2385 5.36572 18.3169 4.64883 18.2316C4.79402 17.6545 4.7868 17.0496 4.62786 16.4761C4.46893 15.9026 4.16374 15.3802 3.74219 14.9602L5.20937 13.4957Z" fill="#CE7B51"/>
<path d="M5.20788 13.4957L3.7407 14.9602C3.31903 14.5391 2.79549 14.2344 2.22107 14.0758C1.64666 13.9172 1.04095 13.91 0.462962 14.0551C0.377821 13.339 0.456588 12.613 0.693308 11.9319C0.930028 11.2507 1.3185 10.6324 1.82937 10.1234L5.20788 13.4957Z" fill="#DF8A59"/>
<path d="M9.95117 12.9309C10.0371 13.6477 9.95875 14.3748 9.72208 15.0569C9.48541 15.739 9.09662 16.3583 8.58516 16.868L5.20703 13.4957L6.68047 12.025C7.10127 12.4451 7.62348 12.7493 8.19646 12.9081C8.76944 13.067 9.37375 13.0751 9.95078 12.9316C9.95078 12.9312 9.95078 12.9312 9.95117 12.9309Z" fill="#BA6847"/>
<path d="M6.68008 12.025L5.20664 13.4957L1.82812 10.1234C2.3393 9.61245 2.95984 9.2242 3.64293 8.98797C4.32603 8.75175 5.05384 8.67372 5.77148 8.75976V8.76016C5.62779 9.33647 5.63597 9.94019 5.79521 10.5124C5.95446 11.0846 6.25933 11.6058 6.68008 12.025Z" fill="#CC764C"/>
<path d="M8.58721 10.1234L6.68252 12.025C6.26177 11.6058 5.9569 11.0846 5.79766 10.5124C5.63841 9.94019 5.63024 9.33647 5.77393 8.76016V8.75977C6.83821 8.88551 7.82919 9.36586 8.58721 10.1234Z" fill="#BF6743"/>
<path d="M9.95039 12.9309C9.95 12.9313 9.95 12.9313 9.95 12.9316C9.37297 13.0751 8.76866 13.067 8.19568 12.9082C7.6227 12.7493 7.10049 12.4451 6.67969 12.025L8.58437 10.1234C9.34317 10.8785 9.82454 11.8678 9.95039 12.9309Z" fill="#AD5A3D"/>
<path d="M1.62602 13.9676C1.2355 13.9307 0.841565 13.9603 0.460938 14.0551C0.585293 15.1202 1.06696 16.1118 1.82734 16.868L2.4648 16.2317C2.01158 15.5864 1.72643 14.8383 1.63516 14.0551C1.63164 14.026 1.62891 13.9968 1.62602 13.9676Z" fill="#C17A5B"/>
<path d="M5.77402 8.76602C5.77449 8.76406 5.77988 8.76211 5.77988 8.76016V8.75976C5.06154 8.67348 4.33299 8.75138 3.64913 8.9876C2.96528 9.22381 2.34397 9.61219 1.83203 10.1234L2.46902 10.7615C2.62965 10.5336 2.80974 10.3202 3.00727 10.1234C3.75371 9.37701 4.72688 8.89955 5.77402 8.76602Z" fill="#AA6549"/>
<path d="M2.46559 16.2317L1.82812 16.868C2.58673 17.6274 3.57984 18.108 4.64609 18.2316C4.66844 18.1424 4.68672 18.0524 4.7018 17.9621C3.79929 17.6234 3.01994 17.0203 2.46559 16.2316V16.2317Z" fill="#B26B4F"/>
<path d="M2.46859 10.7615L1.82937 10.1234C1.3185 10.6324 0.930028 11.2507 0.693308 11.9319C0.456588 12.613 0.377821 13.339 0.462962 14.0551C0.84359 13.9603 1.23753 13.9307 1.62804 13.9676C1.51498 12.8327 1.81327 11.695 2.46859 10.7615Z" fill="#B27252"/>
<path d="M17.2423 2.0039C15.6552 1.27367 13.5944 2.34676 12.6482 4.39586C12.1124 5.55625 12.0241 6.81555 12.4062 7.85086C12.6796 8.5916 13.1652 9.14012 13.8108 9.43711C14.1442 9.58971 14.5067 9.6679 14.8733 9.66625C16.2249 9.66625 17.6602 8.65805 18.4049 7.04515C18.9407 5.88476 19.0289 4.62543 18.6469 3.59015C18.3736 2.84957 17.8879 2.30105 17.2423 2.0039ZM17.2528 2.53976C17.581 2.74302 17.8499 3.02926 18.0322 3.36961L17.9595 3.52703L17.0007 3.08594L17.2528 2.53976ZM13.9405 6.07715L14.3025 5.29324L15.2613 5.73441L14.8994 6.51832L13.9405 6.07715ZM14.7029 6.9439L14.3409 7.72777L13.382 7.2866L13.744 6.50273L14.7029 6.9439ZM14.4989 4.86769L14.8609 4.08379L15.8198 4.52496L15.4578 5.30902L14.4989 4.86769ZM15.6872 5.93019L16.6461 6.37137L16.2841 7.15527L15.3252 6.7141L15.6872 5.93019ZM15.8837 5.50441L16.2457 4.72055L17.2046 5.16172L16.8426 5.94562L15.8837 5.50441ZM16.4421 4.29547L16.8041 3.51172L17.763 3.95289L17.4011 4.73676L16.4421 4.29547ZM15.6882 2.29203C15.847 2.259 16.0087 2.24207 16.1709 2.24148C16.3936 2.24083 16.615 2.27548 16.8268 2.34414L16.575 2.89012L15.6159 2.4489L15.6882 2.29203ZM15.4193 2.87449L16.3782 3.31566L16.0164 4.09957L15.0574 3.6584L15.4193 2.87449ZM14.8445 2.60996L14.9936 2.67855L14.6316 3.46246L14.0563 3.19777C14.2925 2.96854 14.5574 2.77095 14.8445 2.60996ZM13.7213 3.55965L14.4351 3.88805L14.0731 4.67187L13.2301 4.28402C13.3708 4.02773 13.5353 3.78521 13.7213 3.55965ZM13.0236 4.70504L13.8766 5.09765L13.5146 5.88156L12.7517 5.53051C12.8172 5.24768 12.9082 4.97139 13.0236 4.70504ZM12.6697 6.95894C12.6308 6.64318 12.6304 6.32386 12.6686 6.00801L13.3182 6.30687L12.9562 7.09078L12.6697 6.95894ZM13.7994 8.9007C13.4712 8.6972 13.2025 8.41078 13.0203 8.07031L13.1856 7.71234L14.1445 8.15351L13.7994 8.9007ZM15.3632 9.15004C14.9857 9.2317 14.5934 9.21331 14.2252 9.09668L14.5703 8.34937L15.5291 8.79054L15.3632 9.15004ZM15.7257 8.36488L14.7668 7.92387L15.1287 7.13996L16.0876 7.58113L15.7257 8.36488ZM16.4377 8.6925L16.1515 8.56082L16.5134 7.77691L17.1622 8.07539C16.9461 8.30925 16.7029 8.51647 16.4377 8.69265V8.6925ZM17.4728 7.70242L16.71 7.35156L17.0719 6.56765L17.9259 6.96055C17.7979 7.22118 17.6463 7.46955 17.473 7.70258L17.4728 7.70242ZM18.1128 6.53055L17.2682 6.14195L17.6302 5.35805L18.3468 5.68777C18.2953 5.9754 18.217 6.25758 18.113 6.53062L18.1128 6.53055ZM18.4051 5.19851L17.8267 4.93238L18.1886 4.14851L18.3391 4.21773C18.4043 4.54039 18.4265 4.87023 18.4053 5.19871L18.4051 5.19851Z" fill="black"/>
<path d="M17.6893 1.03938C15.6568 0.1043 13.0338 1.44332 11.8421 4.02438C11.1744 5.47047 11.0676 7.04825 11.5492 8.35305C11.7967 9.02387 12.1808 9.57231 12.6771 9.97317L11.7458 11.99L11.6447 11.9684C11.5348 11.9448 11.4231 11.9302 11.3107 11.9247L11.1399 11.6771C11.0015 11.4769 10.9422 11.2325 10.9733 10.9911C11.0194 10.6349 10.9319 10.2743 10.7277 9.97887L5.57471 2.51231C5.34841 2.18566 5.00195 1.96195 4.61112 1.89009C4.2203 1.81824 3.81692 1.90411 3.48924 2.12891C3.32709 2.2403 3.18849 2.38258 3.0814 2.5476C2.9743 2.71262 2.9008 2.89715 2.8651 3.09061C2.82941 3.28407 2.83222 3.48268 2.87337 3.67505C2.91453 3.86743 2.99322 4.0498 3.10494 4.21172L6.11838 8.57813C5.27188 8.42267 4.39958 8.48834 3.58589 8.76877C2.7722 9.04921 2.04467 9.53492 1.47369 10.1789C0.902715 10.8229 0.507623 11.6034 0.326644 12.4448C0.145666 13.2862 0.18493 14.1601 0.440636 14.9819C0.696342 15.8037 1.15983 16.5455 1.78626 17.1357C2.41269 17.7259 3.18085 18.1444 4.01641 18.3508C4.85197 18.5571 5.72664 18.5443 6.55579 18.3135C7.38494 18.0828 8.1405 17.6419 8.74936 17.0336C8.7851 16.998 8.81998 16.9618 8.85444 16.9252C8.74383 17.2404 8.72548 17.5807 8.80153 17.9059C8.87758 18.2312 9.04488 18.528 9.28377 18.7615C9.52266 18.995 9.82322 19.1554 10.1501 19.224C10.4771 19.2926 10.8168 19.2664 11.1294 19.1486C11.4419 19.0309 11.7144 18.8263 11.9148 18.559C12.1151 18.2917 12.235 17.9728 12.2604 17.6398C12.2858 17.3067 12.2156 16.9733 12.0581 16.6787C11.9006 16.3841 11.6623 16.1407 11.3712 15.9768L11.7497 16.055L12.1719 16.2836L13.2236 17.8076L13.1928 17.8288C13.1348 17.8687 13.0851 17.9197 13.0468 17.9788C13.0085 18.0379 12.9821 18.104 12.9694 18.1733C12.9566 18.2426 12.9576 18.3137 12.9723 18.3826C12.9871 18.4515 13.0153 18.5168 13.0553 18.5748C13.2203 18.8132 13.473 18.9764 13.7581 19.0289C14.0432 19.0813 14.3374 19.0187 14.5765 18.8547L15.1929 18.4308C15.3219 18.342 15.4303 18.2265 15.5108 18.0921L15.7725 18.2339C16.0388 18.3785 16.3506 18.4151 16.6432 18.3359L17.6617 18.0618C17.7229 18.0454 17.7791 18.0144 17.8258 17.9716C17.8724 17.9288 17.908 17.8753 17.9295 17.8158C17.951 17.7563 17.9579 17.6924 17.9494 17.6297C17.941 17.5669 17.9176 17.5072 17.8811 17.4554L17.1078 16.3591L18.5544 15.7478C18.5561 15.7471 18.5577 15.7464 18.5593 15.7457C18.6185 15.7191 18.6703 15.6782 18.7099 15.6268C18.7495 15.5753 18.7758 15.5148 18.7863 15.4508C18.7968 15.3867 18.7913 15.321 18.7703 15.2595C18.7492 15.1981 18.7133 15.1428 18.6656 15.0987L17.6335 14.0904L18.7665 13.3683C18.8203 13.3341 18.8649 13.2872 18.8966 13.2318C18.9282 13.1765 18.9459 13.1142 18.9481 13.0505C18.9504 12.9867 18.9371 12.9234 18.9094 12.866C18.8817 12.8085 18.8404 12.7587 18.7891 12.7207L17.9541 12.1024C17.7267 11.9338 17.4464 11.8526 17.1641 11.8735L13.4649 12.1123L14.142 10.6459C14.3419 10.6821 14.5447 10.7002 14.7479 10.7C16.467 10.7 18.2806 9.43985 19.2146 7.41696C19.8824 5.97086 19.9892 4.39309 19.5076 3.08828C19.1546 2.13282 18.5261 1.42442 17.6893 1.03938ZM11.3311 12.3959L10.6929 15.3713C10.4792 15.3479 10.1725 15.2893 9.97498 15.0402C10.1362 14.5413 10.218 14.02 10.2174 13.4957C10.2174 13.314 10.2075 13.1325 10.188 12.9518C10.3098 12.5845 10.798 12.3555 11.3311 12.3959ZM10.2753 15.7666C9.99881 15.8039 9.73532 15.9068 9.5069 16.067C9.61326 15.8907 9.70849 15.7079 9.79205 15.5197C9.93509 15.6334 10.0994 15.7173 10.2753 15.7666ZM5.95346 9.02493C6.24144 9.07249 6.52418 9.1476 6.7978 9.24922C6.84789 9.26807 6.90294 9.26921 6.95377 9.25244C7.0046 9.23567 7.04816 9.202 7.07721 9.15703V9.15676C7.09613 9.12737 7.10824 9.09413 7.11265 9.05945C7.11706 9.02478 7.11366 8.98956 7.1027 8.95637C7.09174 8.92319 7.07349 8.89287 7.0493 8.86765C7.0251 8.84242 6.99558 8.82293 6.96287 8.81059C6.91264 8.79188 6.86209 8.7743 6.81139 8.75727L3.49076 3.94532C3.41404 3.83411 3.35999 3.70886 3.33174 3.57674C3.30348 3.44462 3.30156 3.30823 3.32609 3.17536C3.35062 3.0425 3.40111 2.91578 3.47468 2.80246C3.54825 2.68914 3.64345 2.59144 3.75483 2.51496C3.98016 2.36041 4.25752 2.30137 4.52626 2.35077C4.795 2.40017 5.03325 2.55398 5.18889 2.77856L10.3416 10.2452C10.4801 10.4454 10.5394 10.6898 10.5081 10.9313C10.4621 11.2874 10.5496 11.648 10.7538 11.9434L10.7728 11.9707C10.5163 12.0259 10.2773 12.1436 10.0772 12.3132C9.86085 11.4203 9.40123 10.6049 8.74936 9.9575C8.65222 9.8605 8.5521 9.7684 8.44901 9.68121C8.42563 9.66034 8.39831 9.64437 8.36866 9.63424C8.33901 9.62411 8.30762 9.62003 8.27637 9.62224C8.24511 9.62445 8.21461 9.63291 8.18668 9.64711C8.15875 9.66131 8.13395 9.68096 8.11374 9.70492C8.09354 9.72887 8.07834 9.75663 8.06905 9.78656C8.05977 9.81648 8.05657 9.84797 8.05966 9.87915C8.06275 9.91033 8.07207 9.94058 8.08705 9.9681C8.10203 9.99562 8.12238 10.0199 8.1469 10.0394C8.1808 10.0682 8.21401 10.098 8.24725 10.1281L6.6851 11.6875C6.3705 11.3274 6.14131 10.901 6.01462 10.4399C5.88793 9.97889 5.86702 9.49518 5.95346 9.02493ZM9.68736 12.7482C9.21604 12.8351 8.73119 12.8146 8.26886 12.6883C7.80653 12.562 7.37861 12.3332 7.0169 12.0188L8.5794 10.4589C9.16164 11.0993 9.5464 11.8943 9.68736 12.7482ZM5.20541 8.96321C5.29932 8.96321 5.39317 8.96615 5.48697 8.97204C5.39216 9.51239 5.42076 10.0672 5.57064 10.5949C5.72052 11.1227 5.9878 11.6097 6.35248 12.0195L5.20541 13.1645L2.16323 10.1278C2.99804 9.37618 4.08211 8.96119 5.20541 8.96321ZM0.662444 13.4957C0.659407 12.373 1.07646 11.2897 1.83162 10.4589L4.87381 13.4957L3.73319 14.6342C3.31853 14.2726 2.82871 14.0077 2.29913 13.8585C1.76955 13.7094 1.21345 13.6798 0.671038 13.7719C0.66553 13.6803 0.662444 13.5882 0.662444 13.4957ZM0.722952 14.2379C1.19532 14.1496 1.68152 14.1692 2.14522 14.2953C2.60892 14.4214 3.03812 14.6507 3.40073 14.9661L1.83155 16.5325C1.24818 15.8907 0.863135 15.0938 0.722952 14.238V14.2379ZM4.46283 17.9673C3.60628 17.8277 2.80801 17.4445 2.16338 16.8634L3.7326 15.297C4.04817 15.6581 4.27782 16.0859 4.4043 16.5484C4.53078 17.0109 4.55079 17.4961 4.46283 17.9675V17.9673ZM4.92889 18.0193C5.02053 17.4781 4.99053 16.9232 4.84107 16.395C4.69161 15.8668 4.42643 15.3784 4.06479 14.9654L5.20541 13.8268L8.2476 16.8636C7.79901 17.2671 7.27447 17.5772 6.70464 17.7757C6.13481 17.9742 5.53113 18.0571 4.92889 18.0195V18.0193ZM8.57955 16.5323L5.53744 13.4957L6.6849 12.3503C7.35233 12.9424 8.21361 13.2694 9.10584 13.2695C9.31835 13.2693 9.53046 13.2509 9.73983 13.2145C9.74549 13.3078 9.74869 13.4015 9.74869 13.4958C9.75169 14.6184 9.33465 15.7016 8.57955 16.5324V16.5323ZM11.7968 17.5054C11.7968 17.7598 11.7213 18.0085 11.58 18.22C11.4386 18.4315 11.2378 18.5964 11.0027 18.6937C10.7677 18.7911 10.5091 18.8166 10.2595 18.7669C10.01 18.7173 9.78084 18.5948 9.60095 18.4149C9.42106 18.235 9.29855 18.0058 9.24892 17.7563C9.19929 17.5068 9.22476 17.2482 9.32211 17.0131C9.41946 16.7781 9.58432 16.5772 9.79584 16.4359C10.0074 16.2945 10.2561 16.2191 10.5105 16.2191C10.8515 16.2194 11.1785 16.3551 11.4197 16.5963C11.6608 16.8375 11.7964 17.1644 11.7968 17.5055V17.5054ZM11.6516 15.5547L11.1557 15.4487L11.7924 12.4795L12.2883 12.5855L11.6516 15.5547ZM13.0815 16.7763L13.9999 17.2738L13.6099 17.542L13.0815 16.7763ZM14.9273 18.0446L14.3109 18.4684C14.1742 18.5622 14.006 18.598 13.843 18.568C13.68 18.5381 13.5355 18.4448 13.4411 18.3086C13.4361 18.3014 13.4325 18.2931 13.4306 18.2845C13.4288 18.2758 13.4286 18.2669 13.4303 18.2582C13.4319 18.2494 13.4352 18.2411 13.44 18.2337C13.4449 18.2263 13.4511 18.2199 13.4585 18.2149L14.4627 17.5243L15.0976 17.8681C15.0531 17.9376 14.9952 17.9975 14.9273 18.0445V18.0446ZM17.4356 17.6373L16.5213 17.8834C16.3447 17.9312 16.1565 17.9092 15.9957 17.8218L12.0976 15.7104L12.2734 14.8901L16.4535 16.4057C16.5524 16.4414 16.638 16.5067 16.6985 16.5927L17.4356 17.6373ZM18.2637 15.3618L16.7226 16.0129L12.3728 14.4274L12.4733 13.9587L17.0305 14.2907C17.0733 14.2906 17.1162 14.2877 17.1587 14.282L18.2637 15.3618ZM17.1965 12.3413C17.3674 12.3282 17.5372 12.3772 17.6749 12.4793L18.4216 13.0322L17.3087 13.7416C17.2149 13.8011 17.1046 13.8289 16.9939 13.8209L12.5726 13.4961L12.7589 12.6275L17.1965 12.3413ZM12.9324 12.1467L12.5841 12.1692L12.2155 12.0904L13.0675 10.2451C13.1646 10.3025 13.2645 10.3548 13.3669 10.402C13.4692 10.4489 13.5738 10.4905 13.6805 10.5266L12.9324 12.1467ZM18.7887 7.22047C17.7051 9.56711 15.3609 10.8033 13.5628 9.9761C12.8415 9.64407 12.2972 9.02688 11.9886 8.19094C11.5499 7.00196 11.6515 5.55496 12.2675 4.22098C13.1227 2.36875 14.7634 1.20836 16.301 1.20836C16.7123 1.20648 17.1192 1.29417 17.4933 1.46536C18.2146 1.79739 18.7589 2.41457 19.0675 3.25051C19.5062 4.4395 19.4046 5.88649 18.7887 7.22047Z" fill="black"/>
<path d="M4.226 3.33177L4.18135 3.26474C4.16451 3.23863 4.14265 3.21613 4.11704 3.19854C4.09143 3.18096 4.06258 3.16864 4.03217 3.1623C4.00176 3.15597 3.97039 3.15574 3.93988 3.16164C3.90938 3.16754 3.88036 3.17944 3.8545 3.19666C3.82864 3.21387 3.80646 3.23605 3.78925 3.26192C3.77204 3.28778 3.76014 3.31681 3.75425 3.34731C3.74836 3.37782 3.74859 3.40919 3.75494 3.4396C3.76128 3.47001 3.7736 3.49886 3.79119 3.52446L3.8358 3.5915C3.85273 3.6174 3.87462 3.63971 3.90021 3.65711C3.9258 3.67452 3.95458 3.68668 3.9849 3.6929C4.01522 3.69912 4.04646 3.69928 4.07684 3.69336C4.10722 3.68744 4.13612 3.67557 4.16189 3.65842C4.18765 3.64127 4.20976 3.61919 4.22694 3.59345C4.24413 3.56771 4.25604 3.53882 4.262 3.50845C4.26796 3.47808 4.26785 3.44683 4.26167 3.41651C4.25549 3.38618 4.24337 3.35738 4.226 3.33177Z" fill="black"/>
<path d="M4.62334 3.9266C4.58858 3.87561 4.5351 3.84039 4.47453 3.82858C4.41395 3.81677 4.35117 3.82933 4.2998 3.86354C4.24843 3.89774 4.21262 3.95082 4.20015 4.01126C4.18768 4.0717 4.19955 4.13462 4.23318 4.18637L5.90373 6.6959C5.92057 6.72201 5.94243 6.74451 5.96804 6.76209C5.99365 6.77968 6.0225 6.792 6.05291 6.79833C6.08332 6.80467 6.11469 6.80489 6.14519 6.79899C6.1757 6.7931 6.20472 6.78119 6.23058 6.76398C6.25644 6.74676 6.27862 6.72458 6.29583 6.69872C6.31304 6.67285 6.32494 6.64382 6.33083 6.61332C6.33672 6.58282 6.33649 6.55145 6.33014 6.52104C6.3238 6.49063 6.31148 6.46178 6.29389 6.43617L4.62334 3.9266Z" fill="black"/>
</g>
<defs>
<clipPath id="clip0_1107_6441">
<rect width="20" height="20" fill="white"/>
</clipPath>
</defs>
</svg>
