<svg width="24" height="24" viewBox="0 0 24 24" fill="none" xmlns="http://www.w3.org/2000/svg">
<path d="M12 2C6.47721 2 2 6.47721 2 12C2 17.5228 6.47721 22 12 22C17.5228 22 22 17.5228 22 12C21.9938 6.47982 17.5202 2.00618 12 2ZM12.3569 4.88298L15.8333 3.49333C16.2279 3.67188 16.6095 3.8776 16.9756 4.10905L16.9847 4.11475C17.3444 4.34261 17.6882 4.59473 18.0137 4.8693L18.0417 4.89372C18.1877 5.01807 18.3296 5.14681 18.4676 5.27962C18.485 5.29671 18.5033 5.31299 18.5207 5.3304C18.6654 5.47168 18.8055 5.61735 18.9411 5.76725C18.9523 5.77995 18.9631 5.79329 18.9743 5.80599C19.0933 5.93929 19.2077 6.07731 19.3187 6.21761C19.3454 6.25098 19.3721 6.28434 19.3979 6.31771C19.5184 6.47363 19.6349 6.63232 19.745 6.79606L19.0519 9.74202L15.6423 10.8787L12.3577 8.25065L12.3569 4.88298ZM4.60173 6.31966C4.6276 6.2863 4.65397 6.25293 4.68066 6.21973C4.79036 6.08057 4.90381 5.94482 5.021 5.81234C5.03369 5.79834 5.04541 5.78402 5.05794 5.77002C5.19271 5.61979 5.33219 5.47428 5.47673 5.33333C5.49333 5.31706 5.50993 5.29997 5.52734 5.28499C5.66423 5.15299 5.80501 5.02507 5.94971 4.90137L5.98307 4.87337C6.30566 4.60075 6.64616 4.35026 7.00228 4.12337L7.0153 4.11507C7.37923 3.88411 7.75846 3.67871 8.15072 3.5L11.6431 4.88298V8.24967L8.3584 10.8773L4.94873 9.74268L4.2557 6.79671C4.3667 6.6333 4.48193 6.47494 4.60173 6.31966ZM4.20003 17.1151C4.10205 16.9657 4.0083 16.8135 3.91895 16.6584L3.8973 16.6209C3.80843 16.4666 3.72428 16.3097 3.64502 16.1504L3.64225 16.1453C3.47526 15.8101 3.32861 15.465 3.20329 15.112V15.1087C3.14404 14.9421 3.09001 14.7713 3.04004 14.5996L3.02197 14.5363C2.97624 14.375 2.93473 14.2119 2.89762 14.047C2.89437 14.0309 2.8903 14.0156 2.88704 13.9997C2.80518 13.6273 2.74642 13.2503 2.71094 12.8706L4.74593 10.4287L8.132 11.5573L9.11475 15.488L7.5 17.6364L4.20003 17.1151ZM14.2197 21.0643C14.0531 21.1056 13.882 21.1413 13.7109 21.1733C13.687 21.1781 13.6626 21.182 13.6387 21.1864C13.493 21.2124 13.3457 21.2347 13.1981 21.2529C13.1587 21.258 13.1196 21.2633 13.0804 21.2681C12.9434 21.284 12.805 21.2961 12.6663 21.306C12.6227 21.3089 12.5796 21.3133 12.536 21.3161C12.3587 21.327 12.18 21.3333 12 21.3333C11.8351 21.3333 11.6712 21.3289 11.5083 21.3203C11.4886 21.3203 11.4697 21.3171 11.45 21.3156C11.305 21.3073 11.1606 21.2964 11.0166 21.2824L11 21.2793C10.6844 21.2451 10.3706 21.195 10.0601 21.1294L8.08838 18.0423L9.67773 15.923H14.3223L15.9377 18.0563L14.2197 21.0643ZM21.1154 14C21.112 14.016 21.1081 14.0314 21.1047 14.0474C21.0674 14.2121 21.0259 14.3752 20.9803 14.5366L20.9624 14.5999C20.9123 14.7716 20.8584 14.9417 20.799 15.109V15.1123C20.6737 15.4653 20.5272 15.8104 20.36 16.1457L20.3573 16.1507C20.2775 16.3102 20.1935 16.4671 20.105 16.6213L20.0833 16.6587C19.9945 16.8143 19.9009 16.9661 19.8027 17.1147L16.514 17.6333L14.888 15.4867L15.8703 11.557L19.2563 10.4284L21.2913 12.8703C21.256 13.2502 21.1973 13.6274 21.1154 14Z" fill="#333333"/>
</svg>
