<svg width="24" height="24" viewBox="0 0 24 24" fill="none" xmlns="http://www.w3.org/2000/svg">
<g clip-path="url(#clip0_1053_21063)">
<path d="M10.0528 16.0331L5.19141 20.8944L5.60574 21.3088L10.4671 16.4474L10.0528 16.0331Z" fill="#C4573A"/>
<mask id="path-2-inside-1_1053_21063" fill="white">
<path fill-rule="evenodd" clip-rule="evenodd" d="M10.2597 13.5889V16.2402H12.9111L13.3535 19.334L12.7295 19.126C11.5039 18.7174 10.1996 18.6111 8.92674 18.8125L6.55662 21.6572C6.40956 21.8335 6.14281 21.845 5.98045 21.6826L4.81737 20.5205C4.65499 20.3581 4.66742 20.0914 4.84373 19.9443L7.68651 17.5742C7.88811 16.3011 7.78265 14.9964 7.37401 13.7705L7.166 13.1465L10.2597 13.5889Z"/>
</mask>
<path fill-rule="evenodd" clip-rule="evenodd" d="M10.2597 13.5889V16.2402H12.9111L13.3535 19.334L12.7295 19.126C11.5039 18.7174 10.1996 18.6111 8.92674 18.8125L6.55662 21.6572C6.40956 21.8335 6.14281 21.845 5.98045 21.6826L4.81737 20.5205C4.65499 20.3581 4.66742 20.0914 4.84373 19.9443L7.68651 17.5742C7.88811 16.3011 7.78265 14.9964 7.37401 13.7705L7.166 13.1465L10.2597 13.5889Z" fill="#C4573A"/>
<path d="M10.2597 13.5889H10.8597V13.0686L10.3447 12.9949L10.2597 13.5889ZM10.2597 16.2402H9.65975V16.8402H10.2597V16.2402ZM12.9111 16.2402L13.5051 16.1553L13.4314 15.6402H12.9111V16.2402ZM13.3535 19.334L13.1638 19.9032L14.0849 20.2102L13.9475 19.2491L13.3535 19.334ZM12.7295 19.126L12.5397 19.6952L12.5397 19.6952L12.7295 19.126ZM8.92674 18.8125L8.83297 18.2199L8.61016 18.2551L8.46577 18.4284L8.92674 18.8125ZM6.55662 21.6572L7.01735 22.0416L7.0176 22.0413L6.55662 21.6572ZM5.98045 21.6826L6.40472 21.2584L6.40454 21.2582L5.98045 21.6826ZM4.81737 20.5205L4.3931 20.9448L4.39328 20.945L4.81737 20.5205ZM4.84373 19.9443L4.45951 19.4835L4.45942 19.4836L4.84373 19.9443ZM7.68651 17.5742L8.07073 18.0351L8.24387 17.8907L8.27912 17.6681L7.68651 17.5742ZM7.37401 13.7705L6.8048 13.9602L6.8048 13.9602L7.37401 13.7705ZM7.166 13.1465L7.25093 12.5525L6.28974 12.4151L6.59679 13.3362L7.166 13.1465ZM10.2597 13.5889H9.65975V16.2402H10.2597H10.8597V13.5889H10.2597ZM10.2597 16.2402V16.8402H12.9111V16.2402V15.6402H10.2597V16.2402ZM12.9111 16.2402L12.3172 16.3252L12.7595 19.4189L13.3535 19.334L13.9475 19.2491L13.5051 16.1553L12.9111 16.2402ZM13.3535 19.334L13.5432 18.7648L12.9192 18.5568L12.7295 19.126L12.5397 19.6952L13.1638 19.9032L13.3535 19.334ZM12.7295 19.126L12.9192 18.5568C11.602 18.1177 10.2005 18.0035 8.83297 18.2199L8.92674 18.8125L9.02052 19.4051C10.1987 19.2187 11.4057 19.3172 12.5397 19.6952L12.7295 19.126ZM8.92674 18.8125L8.46577 18.4284L6.09565 21.2732L6.55662 21.6572L7.0176 22.0413L9.38771 19.1966L8.92674 18.8125ZM6.55662 21.6572L6.09589 21.2729C6.1758 21.1771 6.31884 21.1725 6.40472 21.2584L5.98045 21.6826L5.55619 22.1069C5.96678 22.5175 6.64331 22.4899 7.01735 22.0416L6.55662 21.6572ZM5.98045 21.6826L6.40454 21.2582L5.24145 20.0961L4.81737 20.5205L4.39328 20.945L5.55637 22.1071L5.98045 21.6826ZM4.81737 20.5205L5.24163 20.0962C5.32941 20.184 5.32179 20.3269 5.22805 20.4051L4.84373 19.9443L4.45942 19.4836C4.01306 19.8559 3.98057 20.5322 4.3931 20.9448L4.81737 20.5205ZM4.84373 19.9443L5.22795 20.4052L8.07073 18.0351L7.68651 17.5742L7.30229 17.1134L4.45951 19.4835L4.84373 19.9443ZM7.68651 17.5742L8.27912 17.6681C8.49568 16.3005 8.38247 14.8985 7.94321 13.5808L7.37401 13.7705L6.8048 13.9602C7.18282 15.0943 7.28053 16.3017 7.09389 17.4804L7.68651 17.5742ZM7.37401 13.7705L7.94322 13.5808L7.73521 12.9567L7.166 13.1465L6.59679 13.3362L6.8048 13.9602L7.37401 13.7705ZM7.166 13.1465L7.08107 13.7404L10.1748 14.1828L10.2597 13.5889L10.3447 12.9949L7.25093 12.5525L7.166 13.1465Z" fill="black" mask="url(#path-2-inside-1_1053_21063)"/>
<path d="M9.36816 7.83496C12.3283 4.87485 16.7861 4.62886 19.3291 7.17188C21.8722 9.71489 21.6261 14.1726 18.666 17.1328C17.4012 18.3976 15.8557 19.1696 14.3027 19.4365C14.0776 19.4752 13.8469 19.4024 13.6846 19.2402L7.26074 12.8164C7.09861 12.6541 7.02576 12.4233 7.06445 12.1982C7.3314 10.6453 8.10341 9.09976 9.36816 7.83496Z" fill="#0055A3" stroke="black" stroke-width="0.6"/>
<path d="M9.15584 7.62246C7.84775 8.93055 7.04596 10.5325 6.76838 12.1476C6.7131 12.4693 6.81818 12.7978 7.049 13.0286L11.4808 17.4605C12.0217 16.97 12.6291 16.5533 13.2877 16.2241L13.7186 16.0086C13.8181 15.9589 13.9274 15.9294 14.0387 15.9299C14.3667 15.9314 14.6753 15.7732 14.8645 15.5054C15.8102 14.167 16.376 12.4673 16.376 10.6174C16.376 8.48652 15.6253 6.55496 14.408 5.14551C12.5534 5.28332 10.6603 6.11809 9.15584 7.62246Z" fill="#004281"/>
<mask id="path-6-inside-2_1053_21063" fill="white">
<path d="M13.875 15.125L13.2871 15.4189C12.1314 15.9968 11.1327 16.8439 10.375 17.8867L10.7109 21.5742C10.7316 21.8029 10.5519 22 10.3223 22H8.67773C8.44812 22 8.26838 21.8029 8.28906 21.5742L8.62402 17.8867C7.86635 16.8441 6.86847 15.9967 5.71289 15.4189L5.125 15.125L7.625 13.25L9.5 15.125L11.375 13.25L13.875 15.125Z"/>
</mask>
<path d="M13.875 15.125L13.2871 15.4189C12.1314 15.9968 11.1327 16.8439 10.375 17.8867L10.7109 21.5742C10.7316 21.8029 10.5519 22 10.3223 22H8.67773C8.44812 22 8.26838 21.8029 8.28906 21.5742L8.62402 17.8867C7.86635 16.8441 6.86847 15.9967 5.71289 15.4189L5.125 15.125L7.625 13.25L9.5 15.125L11.375 13.25L13.875 15.125Z" fill="#E49280"/>
<path d="M13.875 15.125L14.1433 15.6617L15.0117 15.2275L14.235 14.645L13.875 15.125ZM10.375 17.8867L9.8896 17.534L9.75701 17.7165L9.77747 17.9412L10.375 17.8867ZM10.7109 21.5742L11.3085 21.5202L11.3085 21.5198L10.7109 21.5742ZM8.67773 22L8.67769 22.6H8.67773V22ZM8.28906 21.5742L7.69152 21.5199L7.6915 21.5202L8.28906 21.5742ZM8.62402 17.8867L9.22156 17.941L9.24196 17.7164L9.10939 17.534L8.62402 17.8867ZM5.125 15.125L4.765 14.645L3.98834 15.2275L4.85667 15.6617L5.125 15.125ZM7.625 13.25L8.04926 12.8257L7.6813 12.4578L7.265 12.77L7.625 13.25ZM9.5 15.125L9.07574 15.5493L9.5 15.9735L9.92426 15.5493L9.5 15.125ZM11.375 13.25L11.735 12.77L11.3187 12.4578L10.9507 12.8257L11.375 13.25ZM13.875 15.125L13.6067 14.5883L13.0188 14.8823L13.2871 15.4189L13.5554 15.9556L14.1433 15.6617L13.875 15.125ZM13.2871 15.4189L13.0188 14.8823C11.7769 15.5032 10.7038 16.4134 9.8896 17.534L10.375 17.8867L10.8604 18.2394C11.5616 17.2744 12.4858 16.4904 13.5554 15.9556L13.2871 15.4189ZM10.375 17.8867L9.77747 17.9412L10.1134 21.6287L10.7109 21.5742L11.3085 21.5198L10.9725 17.8323L10.375 17.8867ZM10.7109 21.5742L10.1134 21.6283C10.1024 21.5064 10.1985 21.4 10.3223 21.4V22V22.6C10.9053 22.6 11.3609 22.0994 11.3085 21.5202L10.7109 21.5742ZM10.3223 22V21.4H8.67773V22V22.6H10.3223V22ZM8.67773 22L8.67778 21.4C8.80151 21.4 8.89765 21.5063 8.88662 21.6283L8.28906 21.5742L7.6915 21.5202C7.63912 22.0994 8.09472 22.6 8.67769 22.6L8.67773 22ZM8.28906 21.5742L8.8866 21.6285L9.22156 17.941L8.62402 17.8867L8.02648 17.8324L7.69152 21.5199L8.28906 21.5742ZM8.62402 17.8867L9.10939 17.534C8.29535 16.4138 7.22312 15.5032 5.98122 14.8823L5.71289 15.4189L5.44456 15.9556C6.51382 16.4902 7.43736 17.2744 8.13865 18.2394L8.62402 17.8867ZM5.71289 15.4189L5.98122 14.8823L5.39333 14.5883L5.125 15.125L4.85667 15.6617L5.44456 15.9556L5.71289 15.4189ZM5.125 15.125L5.485 15.605L7.985 13.73L7.625 13.25L7.265 12.77L4.765 14.645L5.125 15.125ZM7.625 13.25L7.20074 13.6743L9.07574 15.5493L9.5 15.125L9.92426 14.7007L8.04926 12.8257L7.625 13.25ZM9.5 15.125L9.92426 15.5493L11.7993 13.6743L11.375 13.25L10.9507 12.8257L9.07574 14.7007L9.5 15.125ZM11.375 13.25L11.015 13.73L13.515 15.605L13.875 15.125L14.235 14.645L11.735 12.77L11.375 13.25Z" fill="black" mask="url(#path-6-inside-2_1053_21063)"/>
<path d="M9.5 2.2998C13.0964 2.2998 16.0752 5.62628 16.0752 9.8125C16.0752 11.6013 15.5275 13.2404 14.6182 14.5273C14.4863 14.7139 14.2714 14.8252 14.042 14.8252H4.95801C4.72856 14.8252 4.51373 14.7139 4.38184 14.5273C3.47243 13.2404 2.9248 11.6013 2.9248 9.8125C2.9248 5.62628 5.90362 2.2998 9.5 2.2998Z" fill="#FD4755" stroke="black" stroke-width="0.6"/>
</g>
<defs>
<clipPath id="clip0_1053_21063">
<rect width="20" height="20" fill="white" transform="translate(2 2)"/>
</clipPath>
</defs>
</svg>
