<svg width="22" height="22" viewBox="0 0 22 22" fill="none" xmlns="http://www.w3.org/2000/svg">
<path d="M10.9974 11C10.9989 14.9675 3.82765 16.3884 2.76862 14.0511C1.6146 10.9357 2.29036 7.29657 4.7929 4.79394C5.56515 4.02165 6.44422 3.4249 7.38175 3.00217C8.98483 2.27668 10.7619 2.05875 12.4688 2.34688C11.4406 3.42783 10.9374 7.65247 10.9974 11Z" fill="#F9F9F9"/>
<path d="M7.04097 13.8449C7.73428 15.0172 3.70926 15.5844 2.76862 14.0511C1.6146 10.9357 2.29036 7.29659 4.7929 4.79396C5.56515 4.02167 6.44422 3.42493 7.38175 3.0022C5.20393 6.01238 5.46426 10.9869 7.04097 13.8449Z" fill="#5AB5FF"/>
<path d="M17.7571 16.5976C17.5845 16.8068 17.4002 17.0087 17.2042 17.2046C14.121 20.288 9.31186 20.5966 5.88344 18.1305C5.882 18.1305 5.882 18.129 5.882 18.129C5.50027 17.8555 5.13752 17.5484 4.79381 17.2046C3.86942 16.2803 3.19514 15.2023 2.76953 14.0511C4.22047 14.4022 5.70943 14.2778 7.04188 13.8449C8.76484 13.2891 10.226 12.2199 10.9983 11C12.4697 8.62854 20.2838 12.35 17.7571 16.5976Z" fill="#FFF255"/>
<path d="M17.7565 16.5976C17.5839 16.8068 17.3996 17.0086 17.2036 17.2046C14.1204 20.2879 9.31123 20.5965 5.88281 18.1305C9.57745 18.5093 13.7547 15.7961 15.4411 13.0024C16.7613 10.811 18.9514 15.0172 17.7565 16.5976Z" fill="#F9F9F9"/>
<path d="M19.7318 11.8644C19.565 13.5597 18.9068 15.2139 17.7572 16.5976C17.3345 15.1686 16.4818 13.9414 15.4419 13.0024C14.0977 11.7899 12.442 11.06 10.9984 11C10.3285 9.72017 10.1325 7.92112 10.5113 6.14983H10.5128C10.8053 4.78079 11.4416 3.42782 12.4698 2.34692C14.2045 2.64091 15.8675 3.45563 17.2043 4.79398C19.138 6.72758 19.9804 9.33988 19.7318 11.8644Z" fill="#5AB5FF"/>
<path d="M19.7307 11.8645C18.2125 8.47399 13.7734 6.21418 10.5117 6.14983C10.8043 4.78075 11.4405 3.42782 12.4687 2.34692C14.2034 2.64091 15.8664 3.45563 17.2033 4.79393C19.1369 6.72758 19.9793 9.33988 19.7307 11.8645Z" fill="#FFF255"/>
<path opacity="0.1" d="M17.2047 17.206C13.7778 20.633 8.22125 20.633 4.79428 17.206C4.39058 16.8023 4.03369 16.3693 3.72656 15.913C7.14035 18.2269 11.8222 17.87 14.8455 14.8467C17.8688 11.8219 18.2242 7.14432 15.9147 3.729C16.3695 4.03617 16.8025 4.39158 17.2047 4.79528C20.6332 8.22225 20.6332 13.7789 17.2047 17.206Z" fill="black"/>
<path d="M11 2C6.03736 2 2 6.03736 2 11C2 15.9626 6.03736 20 11 20C15.9626 20 20 15.9626 20 11C20 6.03736 15.9626 2 11 2ZM19.5523 11C19.5523 11.0116 19.5523 11.0231 19.5522 11.0347C17.7096 7.92407 13.7087 6.09653 10.7917 5.93629C11.1081 4.65437 11.7156 3.49868 12.5516 2.58887C16.6098 3.33529 19.5523 6.86806 19.5523 11ZM11 19.5523C9.48517 19.5523 8.00242 19.1509 6.69931 18.3899C10.312 18.3437 13.8989 15.7818 15.4863 13.3507C16.4382 14.2659 17.1355 15.3683 17.506 16.5443C15.8742 18.4564 13.5047 19.5523 11 19.5523ZM6.71906 13.7092C5.45145 14.0775 4.14664 14.1293 2.93992 13.8597C2.61326 12.942 2.44766 11.9801 2.44766 11C2.44766 7.93303 4.09169 5.10739 6.75142 3.57964C4.9826 6.72928 5.40096 11.1047 6.71906 13.7092ZM10.304 6.05882L10.2994 6.07776C10.2964 6.08632 10.294 6.09536 10.2926 6.10319C9.92266 7.83353 10.0906 9.65522 10.7413 10.9839C10.0043 12.081 8.66724 13.0449 7.15156 13.572C5.69302 10.7668 5.43638 6.13388 7.52929 3.18431C8.62535 2.69552 9.79306 2.44766 11 2.44766C11.3408 2.44766 11.685 2.46832 12.0248 2.50908C11.1916 3.49297 10.5977 4.7176 10.304 6.05882ZM4.50573 14.479C5.37442 14.479 6.25093 14.3373 7.11083 14.0578C8.79644 13.5141 10.2905 12.4587 11.1145 11.2311C12.4331 11.322 13.9369 11.9977 15.1518 13.0452C13.4523 15.7086 9.57004 18.2466 5.97215 17.9138C4.72034 17.0009 3.74096 15.7726 3.13427 14.356C3.58364 14.4377 4.04449 14.479 4.50573 14.479ZM10.6945 6.37972C13.8566 6.52057 17.9992 8.61707 19.5045 11.9057C19.3426 13.4365 18.7673 14.8943 17.8385 16.1295C17.3974 14.9032 16.6222 13.7662 15.5919 12.8363C14.277 11.6497 12.6151 10.884 11.14 10.7837C10.5599 9.59699 10.394 7.9567 10.6945 6.37972Z" fill="black"/>
</svg>
