<svg width="24" height="24" viewBox="0 0 24 24" fill="none" xmlns="http://www.w3.org/2000/svg">
<path d="M12.0002 4.14313C12.4139 4.14313 12.812 4.16968 13.1941 4.21493C12.881 2.92841 12.3014 2.10384 11.7444 2.01324C9.86031 2.12533 8.30325 3.45715 7.85156 5.2305C8.74252 4.56989 10.2533 4.14313 12.0002 4.14313Z" fill="#333333"/>
<path d="M13.9506 4.33441C14.8516 4.52052 15.6117 4.83315 16.1476 5.23048C15.7617 3.71552 14.5695 2.5233 13.0547 2.1373C13.452 2.67318 13.7646 3.43328 13.9506 4.33441Z" fill="#333333"/>
<path d="M13.4277 6.28589C13.4277 5.81139 13.3945 5.364 13.3349 4.95015C12.9211 4.89059 12.4737 4.85733 11.9992 4.85733C9.574 4.85733 7.85957 5.72472 7.72656 6.54158C7.85491 8.70041 9.58486 10.4302 11.7434 10.5586C12.5603 10.4257 13.4277 8.71126 13.4277 6.28589Z" fill="#333333"/>
<path d="M14.0699 5.09207C14.1152 5.47419 14.1417 5.87231 14.1417 6.28595C14.1417 8.03302 13.7152 9.54371 13.0547 10.4346C14.8278 9.98281 16.1595 8.4259 16.2716 6.54164C16.1809 5.9847 15.3563 5.40509 14.0699 5.09207Z" fill="#333333"/>
<path d="M18.4281 11.2858H16.0252C15.5414 11.2858 15.087 11.4742 14.7448 11.8163L13.9587 12.6024C13.8865 12.6746 13.7906 12.7144 13.6884 12.7144H10.311C10.2088 12.7144 10.1129 12.6746 10.0407 12.6024L9.25462 11.8163C8.91248 11.4742 8.45804 11.2858 7.97431 11.2858H5.57133C3.46655 11.2858 2 14.2974 2 17C2 19.8038 3.56874 22 5.57133 22C7.03265 22 8.30075 20.5596 8.65475 19.1429C8.82703 18.4572 9.44086 17.7143 10.1475 17.7143H13.852C14.5586 17.7143 15.1724 18.4579 15.3444 19.1429C15.6987 20.5603 16.9668 22 18.4281 22C20.4307 22 21.9995 19.8038 21.9995 17C21.9995 14.2974 20.5329 11.2858 18.4281 11.2858ZM7.357 15.5715H6.2856V16.6429C6.2856 16.8403 6.12586 17 5.92847 17C5.73107 17 5.57133 16.8403 5.57133 16.6429V15.5715H4.49993C4.30253 15.5715 4.1428 15.4118 4.1428 15.2144C4.1428 15.017 4.30253 14.8572 4.49993 14.8572H5.57133V13.7858C5.57133 13.5884 5.73107 13.4287 5.92847 13.4287C6.12586 13.4287 6.2856 13.5884 6.2856 13.7858V14.8572H7.357C7.5544 14.8572 7.71413 15.017 7.71413 15.2144C7.71413 15.4118 7.5544 15.5715 7.357 15.5715ZM17.7139 12.7144C18.1077 12.7144 18.4281 13.0348 18.4281 13.4287C18.4281 13.8225 18.1077 14.1429 17.7139 14.1429C17.32 14.1429 16.9996 13.8225 16.9996 13.4287C16.9996 13.0348 17.32 12.7144 17.7139 12.7144ZM16.2853 15.5715C15.8915 15.5715 15.5711 15.2511 15.5711 14.8572C15.5711 14.4633 15.8915 14.1429 16.2853 14.1429C16.6792 14.1429 16.9996 14.4633 16.9996 14.8572C16.9996 15.2511 16.6792 15.5715 16.2853 15.5715ZM17.7139 17C17.32 17 16.9996 16.6797 16.9996 16.2858C16.9996 15.8919 17.32 15.5715 17.7139 15.5715C18.1077 15.5715 18.4281 15.8919 18.4281 16.2858C18.4281 16.6797 18.1077 17 17.7139 17ZM19.1424 15.5715C18.7485 15.5715 18.4281 15.2511 18.4281 14.8572C18.4281 14.4633 18.7485 14.1429 19.1424 14.1429C19.5363 14.1429 19.8567 14.4633 19.8567 14.8572C19.8567 15.2511 19.5363 15.5715 19.1424 15.5715Z" fill="#333333"/>
<path d="M3.4295 4.85738C3.16723 4.85738 2.91542 4.71299 2.78987 4.46257L2.0756 3.03402C1.89913 2.68107 2.04212 2.25208 2.39507 2.0756C2.74802 1.89913 3.1763 2.04212 3.35347 2.39508L4.06774 3.82363C4.24421 4.17658 4.10122 4.60557 3.74827 4.78205C3.64573 4.83331 3.53692 4.85738 3.4295 4.85738Z" fill="#333333"/>
<path d="M5.57012 8.42882C5.30786 8.42882 5.05605 8.28443 4.93049 8.03401L4.21623 6.60546C4.03975 6.25251 4.18275 5.82352 4.53569 5.64704C4.88864 5.47126 5.31692 5.61356 5.49409 5.96652L6.20836 7.39507C6.38484 7.74802 6.24184 8.17701 5.88889 8.35349C5.78636 8.40475 5.67754 8.42882 5.57012 8.42882Z" fill="#333333"/>
<path d="M7.63863 9.53784C7.46215 9.18488 7.03317 9.04189 6.68023 9.21836C6.32728 9.39484 6.18428 9.82383 6.36076 10.1768L6.55816 10.5716H8.15549L7.63863 9.53784Z" fill="#333333"/>
<path d="M20.5732 4.85762C20.8355 4.85762 21.0873 4.71323 21.2128 4.46282L21.9271 3.03426C22.1036 2.68131 21.9606 2.25232 21.6076 2.07585C21.2547 1.89937 20.8264 2.04237 20.6492 2.39532L19.935 3.82387C19.7585 4.17683 19.9015 4.60581 20.2544 4.78229C20.357 4.83356 20.4658 4.85762 20.5732 4.85762Z" fill="#333333"/>
<path d="M18.4248 8.42903C18.687 8.42903 18.9389 8.28464 19.0644 8.03423L19.7787 6.60567C19.9551 6.25272 19.8122 5.82373 19.4592 5.64726C19.1063 5.47148 18.678 5.61378 18.5008 5.96673L17.7865 7.39528C17.6101 7.74824 17.7531 8.17722 18.106 8.3537C18.2085 8.40497 18.3174 8.42903 18.4248 8.42903Z" fill="#333333"/>
<path d="M16.3606 9.53808C16.5371 9.18513 16.9661 9.04213 17.319 9.21861C17.672 9.39509 17.815 9.82407 17.6385 10.177L17.4411 10.5718H15.8438L16.3606 9.53808Z" fill="#333333"/>
</svg>
