<svg width="18" height="18" viewBox="0 0 18 18" fill="none" xmlns="http://www.w3.org/2000/svg">
<g clip-path="url(#clip0_1107_1991)">
<path d="M14.3403 16.7592H13.8799C13.5751 16.7592 13.3281 16.5122 13.3281 16.2075C13.3281 15.9028 13.5752 15.6557 13.8799 15.6557H14.3403C14.4795 15.6557 14.5929 15.5424 14.5929 15.4032V12.1549C14.5929 11.8501 14.8399 11.6031 15.1446 11.6031C15.4493 11.6031 15.6964 11.8502 15.6964 12.1549V15.4032C15.6964 16.1509 15.088 16.7592 14.3403 16.7592Z" fill="#818181"/>
<path d="M15.6426 12.1617H2.36419C2.10178 12.1617 1.87565 11.9769 1.82348 11.7197L0.922833 7.28218C0.571968 5.55341 1.01104 3.77863 2.12745 2.41285C3.24385 1.04708 4.89591 0.263748 6.65991 0.263748H11.3468C13.1108 0.263748 14.7628 1.04704 15.8793 2.41282C16.9957 3.77859 17.4348 5.55341 17.0839 7.28215L16.1833 11.7197C16.1311 11.9769 15.905 12.1617 15.6426 12.1617ZM2.81522 11.0582H15.1915L16.0025 7.0627C16.2872 5.6598 15.9309 4.21956 15.0249 3.11121C14.1189 2.00289 12.7783 1.36725 11.3468 1.36725H6.65991C5.22842 1.36725 3.88782 2.00289 2.98183 3.11121C2.07584 4.21953 1.71956 5.65976 2.00426 7.06266L2.81522 11.0582Z" fill="#818181"/>
<path d="M15.1923 11.0582H15.7878L16.5987 7.0627C16.8834 5.6598 16.5271 4.21956 15.6211 3.1112C14.7152 2.00288 13.3746 1.36725 11.9431 1.36725H11.3477C12.7791 1.36725 14.1197 2.00288 15.0257 3.1112C15.9317 4.21953 16.288 5.6598 16.0033 7.0627L15.1923 11.0582Z" fill="#595959"/>
<path d="M2.4189 11.7197L1.51825 7.28218C1.16739 5.55341 1.60646 3.77863 2.72287 2.41285C3.83928 1.04708 5.49133 0.263748 7.25536 0.263748H6.65991C4.89588 0.263748 3.24389 1.04704 2.12745 2.41282C1.01101 3.77859 0.571972 5.55341 0.922838 7.28215L1.82349 11.7197C1.87569 11.9769 2.10179 12.1617 2.3642 12.1617H2.95965C2.6972 12.1617 2.47111 11.9769 2.4189 11.7197Z" fill="#595959"/>
<path d="M9.96743 2.83266H8.04024C5.28247 2.83266 3.04688 5.06828 3.04688 7.82602V12.1549H14.9608V7.82602C14.9608 5.06825 12.7252 2.83266 9.96743 2.83266Z" fill="#E29375"/>
<path d="M11.1025 2.96203C8.89167 3.47659 7.24429 5.45902 7.24429 7.82602V12.3841H3.04688V7.82602C3.04688 5.06849 5.28211 2.83266 8.04024 2.83266H9.96722C10.3578 2.83262 10.7376 2.87734 11.1025 2.96203Z" fill="#DA8059"/>
<path d="M13.3673 8.9393V13.316C13.3673 15.723 11.4422 17.7181 9.03534 17.736C6.60923 17.7541 4.63672 15.7928 4.63672 13.3709V8.9393C4.63672 8.92731 4.63675 8.95016 4.63686 8.93817C4.63686 8.93817 8.01491 10.6583 13.3673 8.9393Z" fill="#FFEEE6"/>
<path d="M10.3026 17.5367C9.90258 17.6631 9.47687 17.7329 9.03505 17.7364C6.60902 17.7543 4.63672 15.7933 4.63672 13.3709V8.9393C4.63672 8.9393 5.57516 7.82381 7.24638 8.60366V13.3709C7.24638 15.3265 8.53126 16.9804 10.3026 17.5367Z" fill="#FFDFCF"/>
<path d="M14.1101 11.6099H3.89656C3.27843 11.6099 2.77734 11.1088 2.77734 10.4907C2.77734 9.87258 3.27843 9.37149 3.89656 9.37149H14.1101C14.7282 9.37149 15.2293 9.87258 15.2293 10.4907C15.2293 11.1088 14.7282 11.6099 14.1101 11.6099Z" fill="#818181"/>
<path d="M15.2293 10.4907C15.2293 10.8 15.1039 11.0796 14.9016 11.2823C14.6989 11.4849 14.419 11.61 14.11 11.61H3.89667C3.27833 11.61 2.77734 11.109 2.77734 10.4907C2.77734 10.32 2.81559 10.1578 2.8844 10.0132C3.06352 10.3921 3.4494 10.6544 3.89667 10.6544H14.11C14.419 10.6544 14.6989 10.5293 14.9016 10.3266C14.9921 10.2361 15.0671 10.1302 15.1223 10.0132C15.1911 10.1578 15.2293 10.32 15.2293 10.4907Z" fill="#595959"/>
<path d="M13.3672 13.3159H15.2697C16.3211 13.3159 17.1734 12.4636 17.1734 11.4122C17.1734 10.3609 16.3211 9.50856 15.2697 9.50856H13.3672V13.3159Z" fill="#FE646F"/>
<path d="M4.63822 13.3159H2.73571C1.68434 13.3159 0.832031 12.4636 0.832031 11.4122C0.832031 10.3609 1.68434 9.50856 2.73571 9.50856H4.63822V13.3159Z" fill="#FE646F"/>
<path d="M17.1732 11.4123C17.1732 12.4636 16.3209 13.3159 15.2696 13.3159H13.3672V11.7923H15.2696C16.0502 11.7923 16.7207 11.3226 17.0143 10.6506C17.1166 10.8838 17.1732 11.1416 17.1732 11.4123Z" fill="#FD4755"/>
<path d="M4.63804 11.7923V13.3159H2.7356C1.6843 13.3159 0.832031 12.4636 0.832031 11.4123C0.832031 11.1416 0.888669 10.8838 0.99094 10.6505C1.28446 11.3226 1.95505 11.7923 2.7356 11.7923H4.63804V11.7923Z" fill="#FD4755"/>
<path d="M7.99609 2.83255H10.0148V8.93937H7.99609V2.83255Z" fill="#818181"/>
<path d="M7.99609 2.83255H8.73158V8.93937H7.99609V2.83255Z" fill="#595959"/>
<path d="M12.6454 12.9358H5.36106C4.62878 12.9358 4.03516 12.3422 4.03516 11.6099V9.37145C4.03516 8.63917 4.62878 8.04555 5.36106 8.04555H12.6454C13.3777 8.04555 13.9713 8.63917 13.9713 9.37145V11.6099C13.9713 12.3422 13.3777 12.9358 12.6454 12.9358Z" fill="#AEDEFF"/>
<path d="M7.24895 12.9358H5.3612C4.62885 12.9358 4.03516 12.3421 4.03516 11.6097V9.37141C4.03516 8.63906 4.62885 8.04536 5.3612 8.04536H7.24895C6.5166 8.04536 5.9229 8.63906 5.9229 9.37141V11.6097C5.9229 12.3421 6.5166 12.9358 7.24895 12.9358Z" fill="#89C8FD"/>
<path d="M17.3406 7.33481C17.7073 5.52824 17.2485 3.67347 16.0817 2.24607C14.915 0.818663 13.1885 0 11.3451 0H6.65808C4.81467 0 3.08822 0.818663 1.92147 2.24607C0.754718 3.67347 0.29585 5.52828 0.662536 7.33485L1.18317 9.8987C0.78548 10.3055 0.566417 10.8417 0.566417 11.4121C0.566417 12.6073 1.53879 13.5797 2.73401 13.5797H4.37749C4.42882 14.7441 4.90819 15.8299 5.74077 16.6564C6.61452 17.5237 7.77115 18 9.00146 18C9.01321 18 9.02512 18 9.0369 17.9999C11.4824 17.9816 13.4875 16.0222 13.623 13.5797H14.3271V15.3921H13.8775C13.4279 15.3921 13.0622 15.7579 13.0622 16.2076C13.0622 16.6572 13.4279 17.023 13.8775 17.023H14.3381C15.2313 17.023 15.958 16.2963 15.958 15.4031V13.4674C16.114 13.4151 16.2642 13.3453 16.4055 13.2581C16.5294 13.1817 16.5679 13.0193 16.4915 12.8953C16.415 12.7713 16.2524 12.7329 16.1286 12.8093C15.8709 12.9683 15.5738 13.0524 15.2693 13.0524H13.6307V12.8547C13.9975 12.5632 14.2334 12.1138 14.2334 11.61V9.7722H15.2694C15.7074 9.7722 16.1193 9.94282 16.4292 10.2527C16.7389 10.562 16.9094 10.9737 16.9094 11.4119C16.9094 11.6729 16.8501 11.9222 16.733 12.1528C16.6671 12.2827 16.7189 12.4414 16.8488 12.5073C16.887 12.5267 16.9278 12.5359 16.9679 12.5359C17.064 12.5359 17.1567 12.4831 17.2032 12.3915C17.3582 12.0862 17.4368 11.7567 17.4368 11.4119C17.4368 10.8415 17.2177 10.3053 16.82 9.89856L17.3406 7.33481ZM15.4307 13.5735V15.4031C15.4307 16.0055 14.9406 16.4956 14.3382 16.4956H13.8776C13.7188 16.4956 13.5896 16.3664 13.5896 16.2075C13.5896 16.0487 13.7188 15.9195 13.8776 15.9195H14.3382C14.6229 15.9195 14.8546 15.6878 14.8546 15.4031V13.5797H15.2694C15.3233 13.5797 15.3772 13.5775 15.4307 13.5735ZM2.32978 2.57981C3.39598 1.27546 4.97358 0.527353 6.65808 0.527353H11.3451C13.0296 0.527353 14.6072 1.27546 15.6734 2.57981C16.7396 3.88417 17.1588 5.57908 16.8238 7.22987L16.3555 9.53616C16.1855 9.43737 16.0033 9.36245 15.8128 9.31347L16.2592 7.11522C16.5597 5.63438 16.1836 4.11413 15.2272 2.94421C14.271 1.77444 12.856 1.1035 11.3451 1.1035H6.65808C5.14718 1.1035 3.73222 1.7744 2.77596 2.94421C1.81962 4.11413 1.44348 5.63438 1.744 7.11522L2.19035 9.31351C1.99987 9.36248 1.81769 9.43744 1.6477 9.53619L1.17934 7.2299C0.844262 5.57908 1.26358 3.8842 2.32978 2.57981ZM15.2694 9.24485H15.2219V7.82592C15.2219 4.9272 12.8638 2.56891 9.96522 2.56891H8.03792C6.79864 2.56891 5.59519 3.00851 4.64925 3.80672C4.53795 3.90062 4.52389 4.06698 4.61779 4.17829C4.71169 4.28956 4.87806 4.30366 4.98936 4.20975C5.76134 3.5583 6.72411 3.17245 7.72868 3.10646V7.78187H5.35942C4.52557 7.78187 3.84012 8.42738 3.77533 9.24485H3.30862V7.82592C3.30862 6.76657 3.6508 5.76527 4.29818 4.93022C4.38741 4.81515 4.36645 4.64953 4.25135 4.5603C4.13628 4.47104 3.97066 4.49203 3.88143 4.60713C3.1617 5.53548 2.78127 6.64851 2.78127 7.82592V9.24481H2.73401C2.72751 9.24481 2.72108 9.24524 2.71461 9.24527L2.2608 7.01028C1.99189 5.68518 2.32848 4.32479 3.18423 3.27792C4.03992 2.23116 5.30609 1.63082 6.65808 1.63082H11.3451C12.697 1.63082 13.9632 2.23116 14.8189 3.27792C15.6747 4.32482 16.0113 5.68522 15.7424 7.01024L15.2886 9.24527C15.2821 9.24527 15.2758 9.24485 15.2694 9.24485ZM8.25603 7.78183V3.09627H9.74742V7.78183H8.25603ZM1.09377 11.4121C1.09377 10.9738 1.26435 10.5621 1.57419 10.2526C1.88399 9.94278 2.29589 9.77217 2.73401 9.77217H3.76981V11.6099C3.76981 12.1138 4.00574 12.5633 4.37268 12.8548V13.0523H2.73401C1.82957 13.0523 1.09377 12.3165 1.09377 11.4121ZM9.033 17.4725C9.02252 17.4726 9.01208 17.4726 9.00157 17.4726C7.91146 17.4726 6.88646 17.0506 6.11227 16.2821C5.33052 15.5061 4.90003 14.4722 4.90003 13.3707V13.318C4.90003 13.3173 4.90013 13.3166 4.90013 13.3159V13.1315C5.04561 13.1755 5.19974 13.1995 5.35939 13.1995H12.6437C12.8035 13.1995 12.9577 13.1755 13.1033 13.1315V13.3159C13.1033 15.5911 11.2774 17.4557 9.033 17.4725ZM13.706 11.6099C13.706 12.1956 13.2295 12.6721 12.6438 12.6721H5.35942C4.77371 12.6721 4.29719 12.1956 4.29719 11.6099V9.37141C4.29719 8.7857 4.77371 8.30918 5.35942 8.30918H12.6438C13.2295 8.30918 13.706 8.7857 13.706 9.37141V11.6099ZM12.6438 7.78183H10.2748V3.10664C12.7388 3.26667 14.6945 5.32198 14.6945 7.82592V9.24485H14.2278C14.1631 8.42738 13.4776 7.78183 12.6438 7.78183Z" fill="black"/>
<path d="M10.1195 13.767C9.82141 14.0651 9.42509 14.2292 9.00355 14.2292C8.58202 14.2292 8.1857 14.0651 7.8876 13.767C7.78463 13.664 7.61767 13.664 7.51473 13.767C7.41176 13.87 7.41176 14.0369 7.51473 14.1399C7.91243 14.5376 8.44118 14.7566 9.00359 14.7566C9.56599 14.7566 10.0948 14.5376 10.4924 14.1399C10.5954 14.0369 10.5954 13.8699 10.4924 13.767C10.3894 13.6641 10.2224 13.6641 10.1195 13.767Z" fill="black"/>
<path d="M6.28601 9.01706C6.14764 8.97115 5.99854 9.046 5.95266 9.18416L5.61069 10.2136L5.25114 9.17773C5.20339 9.04013 5.0531 8.96739 4.91556 9.01509C4.778 9.06284 4.70519 9.2131 4.75293 9.35067L5.33098 11.016C5.37373 11.1363 5.48785 11.2168 5.61533 11.2168H5.6174C5.74572 11.2159 5.85974 11.1336 5.90164 11.0104L6.45308 9.35046C6.49899 9.21225 6.42418 9.06301 6.28601 9.01706Z" fill="black"/>
<path d="M8.06548 9.70312C8.06548 9.3157 7.73916 9.00055 7.33805 9.00055H6.88924C6.81914 9.00055 6.75195 9.02843 6.70249 9.07811C6.65302 9.12778 6.62532 9.19504 6.62556 9.26511C6.62556 9.26514 6.625 10.9531 6.625 10.9531C6.625 11.0987 6.74306 11.2168 6.88868 11.2168C7.0343 11.2168 7.15235 11.0987 7.15235 10.9531V10.6143L7.60384 11.1273C7.65594 11.1866 7.72871 11.2168 7.80188 11.2168C7.86375 11.2168 7.92587 11.1951 7.97597 11.1511C8.08528 11.0549 8.09593 10.8882 7.9997 10.7789L7.62212 10.3499C7.88249 10.2428 8.06548 9.99324 8.06548 9.70312ZM7.33805 9.5279C7.44465 9.5279 7.53813 9.60978 7.53813 9.70312C7.53813 9.79647 7.44465 9.87838 7.33805 9.87838C7.29389 9.87838 7.22509 9.87863 7.1546 9.87894C7.15429 9.81109 7.1539 9.59931 7.15372 9.5279H7.33805Z" fill="black"/>
</g>
<defs>
<clipPath id="clip0_1107_1991">
<rect width="18" height="18" fill="white"/>
</clipPath>
</defs>
</svg>
